M48
; DRILL file {KiCad (7.0.0)} date Wed Nov 22 09:43:11 2023
; FORMAT={-:-/ absolute / inch / decimal}
; #@! TF.CreationDate,2023-11-22T09:43:11+01:00
; #@! TF.GenerationSoftware,Kicad,Pcbnew,(7.0.0)
; #@! TF.FileFunction,Plated,1,2,PTH
FMAT,2
INCH
; #@! TA.AperFunction,Plated,PTH,ViaDrill
T1C0.0157
; #@! TA.AperFunction,Plated,PTH,ComponentDrill
T2C0.0236
; #@! TA.AperFunction,Plated,PTH,ComponentDrill
T3C0.0320
; #@! TA.AperFunction,Plated,PTH,ComponentDrill
T4C0.0394
; #@! TA.AperFunction,Plated,PTH,ComponentDrill
T5C0.0591
; #@! TA.AperFunction,Plated,PTH,ComponentDrill
T6C0.0600
%
G90
G05
T1
X2.1875Y-3.5143
X2.2188Y-3.8356
X2.2188Y-3.875
X2.2233Y-3.472
X2.2624Y-3.4808
X2.2946Y-3.8325
X2.3044Y-3.4808
X2.3438Y-3.4062
X2.3438Y-3.4808
X2.3438Y-3.6562
X2.4008Y-3.875
X2.5Y-3.5161
X2.5312Y-3.7645
X2.5652Y-2.9297
X2.5805Y-3.7055
X2.6109Y-3.01
X2.6445Y-3.7777
X2.6484Y-3.5043
X2.6562Y-3.5625
X2.6875Y-3.5
X2.7188Y-2.9688
X2.7357Y-3.0042
X2.8192Y-3.1183
X2.8265Y-3.2048
X2.8447Y-3.5039
X2.8987Y-2.9973
X2.9062Y-3.375
X2.9072Y-3.0357
X2.9694Y-2.9688
X2.9773Y-3.173
X3.009Y-3.8125
X3.066Y-2.8438
X3.066Y-2.8831
X3.066Y-3.8125
X3.0792Y-3.1434
X3.125Y-3.1065
X3.125Y-3.1562
X3.149Y-3.0323
X3.3728Y-2.8056
X3.4375Y-2.5
X3.4375Y-3.0312
X3.4769Y-3.0312
X3.484Y-2.9702
X3.4919Y-2.9069
X3.6875Y-2.5
X3.759Y-3.8125
X3.8033Y-2.9688
X3.816Y-3.8125
X3.8808Y-3.0971
X3.8971Y-4.2766
X3.9061Y-2.7986
X3.9062Y-2.8438
X3.9062Y-2.8831
X3.9062Y-3.0312
X3.9375Y-4.2766
X3.9977Y-4.387
X4.0479Y-4.387
X4.0938Y-4.387
X4.2967Y-3.0217
X4.509Y-3.8125
X4.566Y-3.8118
X5.25Y-4.4062
X5.259Y-3.8125
X5.316Y-3.8125
X5.5147Y-3.0171
X5.7188Y-2.9492
X5.9637Y-3.8125
X5.9688Y-2.25
X6.0312Y-3.8438
X6.0312Y-4.3739
X6.0605Y-2.4062
X6.0938Y-4.3686
X6.1875Y-2.7776
X6.1875Y-3.53
X6.1875Y-3.875
X6.2812Y-3.8125
X6.3372Y-4.5371
X6.375Y-4.3327
X6.4062Y-2.2812
X6.4209Y-4.3327
X6.4484Y-3.8771
X7.0165Y-3.0162
X7.1562Y-4.4062
X8.3125Y-4.4062
X8.3791Y-3.022
X9.1562Y-4.3327
X9.1954Y-4.3364
X9.3125Y-4.25
X9.4062Y-4.1875
X9.4375Y-3.53
X9.4375Y-3.5851
X9.4375Y-3.875
X9.4392Y-3.794
X9.4415Y-4.3477
X9.4688Y-3.0625
X9.4798Y-3.9125
X9.4803Y-3.8351
X9.4804Y-3.53
X9.4804Y-3.5851
X9.5569Y-4.3052
T3
X6.0375Y-2.25
X6.0375Y-4.4688
X6.1375Y-2.25
X6.1375Y-4.4688
X6.2375Y-2.25
X6.2375Y-4.4688
X6.3375Y-2.25
X6.3375Y-4.4688
T4
X6.0891Y-2.3182
X6.0891Y-2.889
X6.0891Y-3.0682
X6.0891Y-3.639
X6.1875Y-2.889
X6.1875Y-3.639
X6.2859Y-2.3182
X6.2859Y-2.889
X6.2859Y-3.0682
X6.2859Y-3.639
T6
X2.2875Y-2.4937
X2.2875Y-3.2437
X2.2875Y-3.9937
X2.3813Y-3.2437
X2.3813Y-3.2437
X2.475Y-3.2437
X2.475Y-3.9937
X2.525Y-2.7937
X2.5375Y-2.3937
X2.5375Y-3.1437
X2.5375Y-3.8937
X2.5688Y-3.9937
X2.6313Y-3.1437
X2.6313Y-3.1437
X2.7125Y-2.7937
X2.725Y-3.1437
X2.725Y-3.8937
X2.775Y-2.6938
X2.8188Y-3.8937
X2.9625Y-2.6938
X3.0375Y-2.4937
X3.0375Y-3.2437
X3.0375Y-3.9937
X3.225Y-3.2437
X3.225Y-3.2437
X3.2875Y-2.3937
X3.2875Y-3.1437
X3.2875Y-3.8937
X3.4125Y-3.9937
X3.4125Y-4.7437
X3.4625Y-2.7937
X3.475Y-3.1437
X3.475Y-3.1437
X3.5063Y-4.7437
X3.6Y-3.9937
X3.6Y-4.7437
X3.6625Y-3.8937
X3.6625Y-4.6437
X3.7125Y-2.6938
X3.7563Y-4.6437
X3.7875Y-2.4937
X3.7875Y-3.2437
X3.7875Y-3.9937
X3.85Y-3.8937
X3.85Y-4.6437
X3.975Y-3.2437
X3.975Y-3.2437
X4.0375Y-2.3937
X4.0375Y-3.1437
X4.0375Y-3.8937
X4.1625Y-2.4937
X4.1625Y-3.9937
X4.1625Y-4.7437
X4.225Y-3.1437
X4.225Y-3.1437
X4.2562Y-4.7437
X4.35Y-3.9937
X4.4125Y-2.3937
X4.4125Y-3.8937
X4.4125Y-4.6437
X4.4437Y-4.7437
X4.5062Y-4.6437
X4.5375Y-2.4937
X4.5375Y-3.2437
X4.5375Y-3.9937
X4.6Y-3.8937
X4.6937Y-4.6437
X4.725Y-3.2437
X4.725Y-3.2437
X4.7875Y-2.3937
X4.7875Y-3.1437
X4.7875Y-3.8937
X4.9125Y-2.4937
X4.9125Y-3.9937
X4.9125Y-4.7437
X4.975Y-3.1437
X4.975Y-3.1437
X5.0062Y-4.7437
X5.1Y-3.9937
X5.1625Y-2.3937
X5.1625Y-3.8937
X5.1625Y-4.6437
X5.2562Y-4.6437
X5.2875Y-2.4937
X5.2875Y-3.2437
X5.2875Y-3.9937
X5.2875Y-4.7437
X5.35Y-3.8937
X5.3812Y-4.7437
X5.475Y-3.2437
X5.475Y-3.2437
X5.5375Y-2.3937
X5.5375Y-3.1437
X5.5375Y-3.8937
X5.5375Y-4.6437
X5.5687Y-3.2437
X5.6312Y-4.6437
X5.6625Y-2.4937
X5.6625Y-3.9937
X5.725Y-3.1437
X5.725Y-3.1437
X5.8187Y-3.1437
X5.85Y-3.9937
X5.9125Y-2.3937
X5.9125Y-3.8937
X6.0375Y-2.4937
X6.0375Y-3.2437
X6.0375Y-3.9937
X6.0375Y-4.7437
X6.0375Y-4.7437
X6.1Y-3.8937
X6.225Y-3.2437
X6.2875Y-2.3937
X6.2875Y-3.1437
X6.2875Y-3.8937
X6.2875Y-4.6437
X6.2875Y-4.6437
X6.4125Y-2.4937
X6.4125Y-3.9937
X6.475Y-3.1437
X6.5062Y-3.2437
X6.6Y-3.2437
X6.6Y-3.9937
X6.6625Y-2.3937
X6.6625Y-3.8937
X6.6937Y-4.7437
X6.7562Y-3.1437
X6.7875Y-2.4937
X6.7875Y-3.2437
X6.7875Y-4.7437
X6.794Y-3.9937
X6.85Y-3.1437
X6.85Y-3.8937
X6.8812Y-4.7437
X6.9437Y-4.6437
X6.975Y-3.2437
X7.0375Y-2.3937
X7.0375Y-3.1437
X7.0375Y-4.6437
X7.044Y-3.8937
X7.1312Y-4.6437
X7.1625Y-2.4937
X7.1625Y-3.9937
X7.1625Y-4.7437
X7.225Y-3.1437
X7.35Y-3.2437
X7.35Y-3.9937
X7.4125Y-2.3937
X7.4125Y-3.8937
X7.4125Y-4.6437
X7.5375Y-2.4937
X7.5375Y-3.2437
X7.544Y-3.9937
X7.6Y-3.1437
X7.6Y-3.8937
X7.6312Y-4.7437
X7.725Y-3.2437
X7.7875Y-2.3937
X7.7875Y-3.1437
X7.794Y-3.8937
X7.8187Y-4.7437
X7.8812Y-4.6437
X7.9125Y-2.4937
X7.9125Y-3.9937
X7.9125Y-4.7437
X7.975Y-3.1437
X8.0687Y-4.6437
X8.1Y-3.2437
X8.1Y-3.9937
X8.1625Y-2.3937
X8.1625Y-3.8937
X8.1625Y-4.6437
X8.2875Y-2.4937
X8.2875Y-3.2437
X8.294Y-3.9937
X8.35Y-3.1437
X8.35Y-3.8937
X8.475Y-3.2437
X8.475Y-4.7437
X8.5375Y-2.3937
X8.5375Y-3.1437
X8.544Y-3.8937
X8.5687Y-4.7437
X8.6625Y-2.4937
X8.6625Y-3.9937
X8.6625Y-4.7437
X8.725Y-3.1437
X8.725Y-4.6437
X8.8187Y-4.6437
X8.85Y-3.2437
X8.85Y-3.9937
X8.9125Y-2.3937
X8.9125Y-3.8937
X8.9125Y-4.6437
X9.0375Y-2.4937
X9.0375Y-3.2437
X9.044Y-3.9937
X9.1Y-3.1437
X9.1Y-3.8937
X9.2875Y-2.3937
X9.2875Y-3.1437
X9.294Y-3.8937
X9.4625Y-2.7937
X9.5062Y-3.2437
X9.6Y-3.2437
X9.6Y-3.9937
X9.65Y-2.7937
X9.6937Y-2.8687
X9.6937Y-3.2437
X9.6937Y-3.9937
X9.7125Y-2.6938
X9.7562Y-3.1437
X9.7875Y-2.4937
X9.7875Y-3.2437
X9.794Y-3.9937
X9.85Y-3.1437
X9.85Y-3.8937
X9.9Y-2.6938
X9.9437Y-2.7687
X9.9437Y-3.1437
X9.9437Y-3.8937
X10.0375Y-2.3937
X10.0375Y-3.1437
X10.044Y-3.8937
T2
G00X3.3924Y-2.2281
M15
G01X3.3924Y-2.2517
M16
G05
G00X3.3924Y-2.3828
M15
G01X3.3924Y-2.4261
M16
G05
G00X3.7326Y-2.2281
M15
G01X3.7326Y-2.2517
M16
G05
G00X3.7326Y-2.3828
M15
G01X3.7326Y-2.4261
M16
G05
T5
G00X5.967Y-2.6193
M15
G01X5.967Y-2.5682
M16
G05
G00X5.967Y-3.3693
M15
G01X5.967Y-3.3182
M16
G05
G00X6.408Y-2.6193
M15
G01X6.408Y-2.5682
M16
G05
G00X6.408Y-3.3693
M15
G01X6.408Y-3.3182
M16
G05
T0
M30
