M48
; DRILL file {KiCad (7.0.0)} date Mon Dec 11 21:31:54 2023
; FORMAT={-:-/ absolute / inch / decimal}
; #@! TF.CreationDate,2023-12-11T21:31:54+01:00
; #@! TF.GenerationSoftware,Kicad,Pcbnew,(7.0.0)
; #@! TF.FileFunction,NonPlated,1,2,NPTH
FMAT,2
INCH
; #@! TA.AperFunction,NonPlated,NPTH,ComponentDrill
T1C0.0256
; #@! TA.AperFunction,NonPlated,NPTH,ComponentDrill
T2C0.0689
; #@! TA.AperFunction,NonPlated,NPTH,ComponentDrill
T3C0.1200
; #@! TA.AperFunction,NonPlated,NPTH,ComponentDrill
T4C0.1570
%
G90
G05
T1
X3.4487Y-2.3836
X3.6763Y-2.3836
T2
X2.2375Y-2.5938
X2.2375Y-3.3438
X2.2375Y-4.0938
X2.3312Y-3.3438
X2.3312Y-3.3438
X2.425Y-2.5938
X2.425Y-3.3438
X2.425Y-4.0938
X2.5187Y-4.0938
X2.6125Y-2.5938
X2.6375Y-2.5938
X2.6375Y-3.3438
X2.6375Y-4.0938
X2.7312Y-3.3438
X2.7312Y-3.3438
X2.825Y-2.5938
X2.825Y-3.3438
X2.825Y-4.0938
X2.9187Y-4.0938
X2.9875Y-2.5938
X2.9875Y-3.3438
X2.9875Y-4.0938
X3.0125Y-2.5938
X3.175Y-3.3438
X3.175Y-3.3438
X3.3625Y-2.5938
X3.3625Y-4.0938
X3.3625Y-4.8438
X3.3875Y-2.5938
X3.3875Y-3.3438
X3.3875Y-4.0938
X3.4562Y-4.8438
X3.55Y-4.0938
X3.55Y-4.8438
X3.575Y-3.3438
X3.575Y-3.3438
X3.7375Y-2.5938
X3.7375Y-3.3438
X3.7375Y-4.0938
X3.7625Y-2.5938
X3.7625Y-4.0938
X3.7625Y-4.8438
X3.8562Y-4.8438
X3.925Y-3.3438
X3.925Y-3.3438
X3.95Y-4.0938
X3.95Y-4.8438
X4.1125Y-2.5938
X4.1125Y-4.0938
X4.1125Y-4.8438
X4.1375Y-2.5938
X4.1375Y-3.3438
X4.1375Y-4.0938
X4.2062Y-4.8438
X4.3Y-4.0938
X4.325Y-3.3438
X4.325Y-3.3438
X4.3937Y-4.8438
X4.4875Y-2.5938
X4.4875Y-3.3438
X4.4875Y-4.0938
X4.5125Y-2.5938
X4.5125Y-4.0938
X4.5125Y-4.8438
X4.6063Y-4.8438
X4.675Y-3.3438
X4.675Y-3.3438
X4.7Y-4.0938
X4.7938Y-4.8438
X4.8625Y-2.5938
X4.8625Y-4.0938
X4.8625Y-4.8438
X4.8625Y-4.8438
X4.8875Y-2.5938
X4.8875Y-3.3438
X4.8875Y-4.0938
X4.9562Y-4.8438
X5.05Y-4.0938
X5.05Y-4.8438
X5.075Y-3.3438
X5.075Y-3.3438
X5.2375Y-2.5938
X5.2375Y-3.3438
X5.2375Y-4.0938
X5.2375Y-4.8438
X5.2625Y-2.5938
X5.2625Y-4.0938
X5.2625Y-4.8438
X5.2625Y-4.8438
X5.3312Y-4.8438
X5.3563Y-4.8438
X5.425Y-3.3438
X5.425Y-3.3438
X5.45Y-4.0938
X5.45Y-4.8438
X5.5187Y-3.3438
X5.6125Y-2.5938
X5.6125Y-4.0938
X5.6125Y-4.8438
X5.6375Y-2.5938
X5.6375Y-3.3438
X5.6375Y-4.0938
X5.6375Y-4.8438
X5.7313Y-4.8438
X5.8Y-4.0938
X5.825Y-3.3438
X5.825Y-3.3438
X5.9188Y-3.3438
X5.9875Y-2.5938
X5.9875Y-3.3438
X5.9875Y-4.0938
X5.9875Y-4.8438
X6.0125Y-2.5938
X6.0125Y-4.0938
X6.0125Y-4.8438
X6.175Y-3.3438
X6.2Y-4.0938
X6.3625Y-2.5938
X6.3625Y-4.0938
X6.3625Y-4.8438
X6.3875Y-2.5938
X6.3875Y-3.3438
X6.3875Y-4.0938
X6.3875Y-4.8438
X6.4562Y-3.3438
X6.55Y-3.3438
X6.55Y-4.0938
X6.575Y-3.3438
X6.6437Y-4.8438
X6.7375Y-2.5938
X6.7375Y-3.3438
X6.7375Y-4.8438
X6.744Y-4.0938
X6.7625Y-2.5938
X6.7625Y-4.0938
X6.7625Y-4.8438
X6.8312Y-4.8438
X6.8563Y-3.3438
X6.925Y-3.3438
X6.925Y-4.8438
X6.95Y-3.3438
X6.95Y-4.0938
X7.0438Y-4.8438
X7.1125Y-2.5938
X7.1125Y-4.0938
X7.1125Y-4.8438
X7.1125Y-4.8438
X7.1375Y-2.5938
X7.1375Y-3.3438
X7.1375Y-4.8438
X7.144Y-4.0938
X7.2313Y-4.8438
X7.3Y-3.3438
X7.3Y-4.0938
X7.325Y-3.3438
X7.325Y-4.8438
X7.4875Y-2.5938
X7.4875Y-3.3438
X7.494Y-4.0938
X7.5125Y-2.5938
X7.5125Y-4.0938
X7.5125Y-4.8438
X7.5125Y-4.8438
X7.5812Y-4.8438
X7.675Y-3.3438
X7.7Y-3.3438
X7.7Y-4.0938
X7.7687Y-4.8438
X7.8625Y-2.5938
X7.8625Y-4.0938
X7.8625Y-4.8438
X7.8875Y-2.5938
X7.8875Y-3.3438
X7.894Y-4.0938
X7.9813Y-4.8438
X8.05Y-3.3438
X8.05Y-4.0938
X8.075Y-3.3438
X8.1687Y-4.8438
X8.2375Y-2.5938
X8.2375Y-3.3438
X8.244Y-4.0938
X8.2625Y-2.5938
X8.2625Y-4.0938
X8.2625Y-4.8438
X8.425Y-3.3438
X8.425Y-4.8438
X8.45Y-3.3438
X8.45Y-4.0938
X8.5187Y-4.8438
X8.6125Y-2.5938
X8.6125Y-4.0938
X8.6125Y-4.8438
X8.6375Y-2.5938
X8.6375Y-3.3438
X8.644Y-4.0938
X8.8Y-3.3438
X8.8Y-4.0938
X8.825Y-3.3438
X8.825Y-4.8438
X8.9187Y-4.8438
X8.9875Y-2.5938
X8.9875Y-3.3438
X8.994Y-4.0938
X9.0125Y-2.5938
X9.0125Y-4.0938
X9.0125Y-4.8438
X9.2Y-3.3438
X9.2Y-4.0938
X9.3625Y-2.5938
X9.3875Y-2.5938
X9.3875Y-3.3438
X9.394Y-4.0938
X9.4562Y-3.3438
X9.55Y-2.5938
X9.55Y-3.3438
X9.55Y-4.0938
X9.6437Y-2.9688
X9.6437Y-3.3438
X9.6437Y-4.0938
X9.7375Y-2.5938
X9.7375Y-3.3438
X9.744Y-4.0938
X9.7625Y-2.5938
X9.8562Y-3.3438
X9.95Y-2.5938
X9.95Y-3.3438
X9.95Y-4.0938
X10.0437Y-2.9688
X10.0437Y-3.3438
X10.0437Y-4.0938
X10.1375Y-2.5938
X10.1375Y-3.3438
X10.144Y-4.0938
T3
X4.3125Y-5.1187
X4.3125Y-5.1187
X4.6875Y-5.1187
X4.9688Y-5.1187
X5.4375Y-5.1187
X5.625Y-5.1187
X5.8125Y-5.1187
X5.9062Y-5.1187
X6.4688Y-5.1187
X6.5625Y-5.1187
X6.5625Y-5.1187
X6.9375Y-5.1187
X7.4062Y-5.1187
X7.5Y-5.1187
X8.0625Y-5.1187
X8.0625Y-5.1187
X9.5687Y-2.5
X9.5687Y-3.4375
T4
X2.4375Y-2.5938
X2.4375Y-3.3438
X2.4375Y-4.0938
X2.5312Y-3.3438
X2.5312Y-3.3438
X2.625Y-2.5938
X2.625Y-3.3438
X2.625Y-4.0938
X2.7188Y-4.0938
X2.8125Y-2.5938
X3.1875Y-2.5938
X3.1875Y-3.3438
X3.1875Y-4.0938
X3.375Y-3.3438
X3.375Y-3.3438
X3.5625Y-2.5938
X3.5625Y-4.0938
X3.5625Y-4.8438
X3.6562Y-4.8438
X3.75Y-4.0938
X3.75Y-4.8438
X3.9375Y-2.5938
X3.9375Y-3.3438
X3.9375Y-4.0938
X4.125Y-3.3438
X4.125Y-3.3438
X4.3125Y-2.5938
X4.3125Y-4.0938
X4.3125Y-4.5187
X4.3125Y-4.5187
X4.3125Y-4.8438
X4.4062Y-4.8438
X4.5Y-4.0938
X4.5938Y-4.8438
X4.6875Y-2.5938
X4.6875Y-3.3438
X4.6875Y-4.0938
X4.6875Y-4.5187
X4.875Y-3.3438
X4.875Y-3.3438
X4.9688Y-4.5187
X5.0625Y-2.5938
X5.0625Y-4.0938
X5.0625Y-4.8438
X5.0625Y-4.8438
X5.1562Y-4.8438
X5.25Y-4.0938
X5.25Y-4.8438
X5.4375Y-2.5938
X5.4375Y-3.3438
X5.4375Y-4.0938
X5.4375Y-4.5187
X5.4375Y-4.8438
X5.5312Y-4.8438
X5.625Y-3.3438
X5.625Y-3.3438
X5.625Y-4.5187
X5.7188Y-3.3438
X5.8125Y-2.5938
X5.8125Y-4.0938
X5.8125Y-4.5187
X5.8125Y-4.8438
X5.9062Y-4.5187
X6.0Y-4.0938
X6.1875Y-2.5938
X6.1875Y-3.3438
X6.1875Y-4.0938
X6.1875Y-4.8438
X6.375Y-3.3438
X6.4688Y-4.5187
X6.5625Y-2.5938
X6.5625Y-4.0938
X6.5625Y-4.5187
X6.5625Y-4.5187
X6.5625Y-4.8438
X6.6562Y-3.3438
X6.75Y-3.3438
X6.75Y-4.0938
X6.8438Y-4.8438
X6.9375Y-2.5938
X6.9375Y-3.3438
X6.9375Y-4.5187
X6.9375Y-4.8438
X6.944Y-4.0938
X7.0312Y-4.8438
X7.125Y-3.3438
X7.125Y-4.8438
X7.3125Y-2.5938
X7.3125Y-4.0938
X7.3125Y-4.8438
X7.3125Y-4.8438
X7.4062Y-4.5187
X7.5Y-3.3438
X7.5Y-4.0938
X7.5Y-4.5187
X7.6875Y-2.5938
X7.6875Y-3.3438
X7.694Y-4.0938
X7.7812Y-4.8438
X7.875Y-3.3438
X7.9688Y-4.8438
X8.0625Y-2.5938
X8.0625Y-4.0938
X8.0625Y-4.5187
X8.0625Y-4.5187
X8.0625Y-4.8438
X8.25Y-3.3438
X8.25Y-4.0938
X8.4375Y-2.5938
X8.4375Y-3.3438
X8.444Y-4.0938
X8.625Y-3.3438
X8.625Y-4.8438
X8.7188Y-4.8438
X8.8125Y-2.5938
X8.8125Y-4.0938
X8.8125Y-4.8438
X9.0Y-3.3438
X9.0Y-4.0938
X9.1875Y-2.5938
X9.1875Y-3.3438
X9.194Y-4.0938
X9.5625Y-2.5938
X9.6562Y-3.3438
X9.75Y-2.5938
X9.75Y-3.3438
X9.75Y-4.0938
X9.8438Y-2.9688
X9.8438Y-3.3438
X9.8438Y-4.0938
X9.9375Y-2.5938
X9.9375Y-3.3438
X9.944Y-4.0938
X10.1687Y-2.5
X10.1687Y-3.4375
T0
M30
