M48
; DRILL file {KiCad (7.0.0)} date Wed Jan 31 23:29:45 2024
; FORMAT={-:-/ absolute / inch / decimal}
; #@! TF.CreationDate,2024-01-31T23:29:45+01:00
; #@! TF.GenerationSoftware,Kicad,Pcbnew,(7.0.0)
; #@! TF.FileFunction,Plated,1,2,PTH
FMAT,2
INCH
; #@! TA.AperFunction,Plated,PTH,ViaDrill
T1C0.0157
; #@! TA.AperFunction,Plated,PTH,ComponentDrill
T2C0.0236
; #@! TA.AperFunction,Plated,PTH,ComponentDrill
T3C0.0315
; #@! TA.AperFunction,Plated,PTH,ComponentDrill
T4C0.0320
; #@! TA.AperFunction,Plated,PTH,ComponentDrill
T5C0.0394
; #@! TA.AperFunction,Plated,PTH,ComponentDrill
T6C0.0591
; #@! TA.AperFunction,Plated,PTH,ComponentDrill
T7C0.0600
%
G90
G05
T1
X2.1875Y-3.5143
X2.1918Y-3.4377
X2.25Y-2.8438
X2.25Y-3.4375
X2.25Y-3.4769
X2.2932Y-3.4353
X2.3064Y-3.8325
X2.3326Y-3.4353
X2.3344Y-3.9088
X2.3438Y-3.6562
X2.4008Y-3.875
X2.4836Y-3.7961
X2.484Y-3.5127
X2.4997Y-2.9297
X2.5213Y-3.4665
X2.5233Y-3.5146
X2.5805Y-3.7055
X2.5968Y-3.4657
X2.6097Y-3.7812
X2.6109Y-3.0179
X2.7188Y-4.2188
X2.7357Y-3.0042
X2.8125Y-4.25
X2.8192Y-3.1183
X2.8265Y-3.2048
X2.8987Y-2.9973
X2.9062Y-3.1875
X2.9694Y-2.9688
X2.9773Y-3.173
X3.0792Y-3.1434
X3.125Y-3.1065
X3.125Y-3.1562
X3.1688Y-2.8661
X3.2369Y-2.3119
X3.274Y-3.0323
X3.3434Y-2.7944
X3.3438Y-2.6875
X3.3438Y-2.75
X3.3466Y-2.8336
X3.3488Y-2.8747
X3.4375Y-2.5
X3.4662Y-2.7239
X3.5234Y-3.0357
X3.5625Y-3.0312
X3.609Y-2.9702
X3.6875Y-2.5
X3.7837Y-2.6978
X3.7846Y-2.7896
X3.7852Y-2.7503
X3.7854Y-2.8731
X3.7858Y-2.829
X3.813Y-2.9906
X3.8438Y-2.875
X3.875Y-2.9062
X3.9062Y-2.3125
X3.9062Y-3.0312
X3.9147Y-4.304
X3.9673Y-4.3064
X3.9977Y-4.387
X4.0479Y-4.387
X4.0938Y-4.387
X4.2967Y-3.0217
X5.25Y-4.4062
X5.4375Y-3.0
X5.7567Y-3.4755
X5.9389Y-3.5007
X5.9427Y-3.5965
X5.9688Y-2.25
X6.0272Y-4.3772
X6.1282Y-2.8397
X6.1875Y-2.4754
X6.1875Y-4.6151
X6.1875Y-5.1994
X6.2188Y-2.7812
X6.25Y-4.25
X6.258Y-2.7837
X6.2584Y-2.823
X6.2702Y-2.6934
X6.2702Y-2.6934
X6.2867Y-4.2812
X6.2867Y-4.3221
X6.3096Y-2.6934
X6.375Y-4.5938
X6.4062Y-2.375
X6.4064Y-2.2812
X6.6184Y-3.4753
X7.0165Y-3.0162
X7.1562Y-4.4062
X8.3125Y-4.4062
X8.3791Y-3.022
X9.2803Y-4.3551
X9.3081Y-4.3272
X9.3096Y-3.3935
X9.3098Y-3.5
X9.3098Y-3.6752
X9.3098Y-3.7303
X9.3338Y-4.221
X9.3492Y-3.4375
X9.3492Y-3.5
X9.3492Y-3.6752
X9.3492Y-3.7303
X9.4062Y-4.1875
X9.4142Y-4.3749
X9.4688Y-3.0625
X9.5109Y-4.2287
X9.5938Y-4.1875
T3
X6.03Y-3.5102
X6.1088Y-3.5102
X6.1875Y-3.5102
X6.2662Y-3.5102
X6.345Y-3.5102
T4
X6.0375Y-2.25
X6.0375Y-4.4688
X6.1375Y-2.25
X6.1375Y-4.4688
X6.2375Y-2.25
X6.2375Y-4.4688
X6.3375Y-2.25
X6.3375Y-4.4688
T5
X6.0891Y-2.3182
X6.0891Y-2.889
X6.0891Y-3.0682
X6.0891Y-3.639
X6.0891Y-3.8182
X6.0891Y-4.389
X6.0891Y-4.5682
X6.0891Y-5.139
X6.1875Y-2.889
X6.1875Y-3.639
X6.1875Y-4.389
X6.1875Y-5.139
X6.2859Y-2.3182
X6.2859Y-2.889
X6.2859Y-3.0682
X6.2859Y-3.639
X6.2859Y-3.8182
X6.2859Y-4.389
X6.2859Y-4.5682
X6.2859Y-5.139
T7
X2.2875Y-2.4937
X2.2875Y-3.2437
X2.2875Y-3.9937
X2.3813Y-3.2437
X2.3813Y-3.2437
X2.475Y-3.2437
X2.475Y-3.9937
X2.525Y-2.7937
X2.5375Y-2.3937
X2.5375Y-3.1437
X2.5375Y-3.8937
X2.5688Y-3.9937
X2.6313Y-3.1437
X2.6313Y-3.1437
X2.7125Y-2.7937
X2.725Y-3.1437
X2.725Y-3.8937
X2.775Y-2.6938
X2.8188Y-3.8937
X2.9625Y-2.6938
X3.0375Y-2.4937
X3.0375Y-3.2437
X3.0375Y-3.9937
X3.225Y-3.2437
X3.225Y-3.2437
X3.2875Y-2.3937
X3.2875Y-3.1437
X3.2875Y-3.8937
X3.4125Y-3.9937
X3.4125Y-4.7437
X3.4625Y-2.7937
X3.475Y-3.1437
X3.475Y-3.1437
X3.5063Y-4.7437
X3.6Y-3.9937
X3.6Y-4.7437
X3.6625Y-3.8937
X3.6625Y-4.6437
X3.7125Y-2.6938
X3.7563Y-4.6437
X3.7875Y-2.4937
X3.7875Y-3.2437
X3.7875Y-3.9937
X3.85Y-3.8937
X3.85Y-4.6437
X3.975Y-3.2437
X3.975Y-3.2437
X4.0375Y-2.3937
X4.0375Y-3.1437
X4.0375Y-3.8937
X4.1625Y-2.4937
X4.1625Y-3.9937
X4.1625Y-4.7437
X4.225Y-3.1437
X4.225Y-3.1437
X4.2562Y-4.7437
X4.35Y-3.9937
X4.4125Y-2.3937
X4.4125Y-3.8937
X4.4125Y-4.6437
X4.4437Y-4.7437
X4.5062Y-4.6437
X4.5375Y-2.4937
X4.5375Y-3.2437
X4.5375Y-3.9937
X4.6Y-3.8937
X4.6937Y-4.6437
X4.725Y-3.2437
X4.725Y-3.2437
X4.7875Y-2.3937
X4.7875Y-3.1437
X4.7875Y-3.8937
X4.9125Y-2.4937
X4.9125Y-3.9937
X4.9125Y-4.7437
X4.9125Y-4.7437
X4.975Y-3.1437
X4.975Y-3.1437
X5.0062Y-4.7437
X5.1Y-3.9937
X5.1Y-4.7437
X5.1625Y-2.3937
X5.1625Y-3.8937
X5.1625Y-4.6437
X5.1625Y-4.6437
X5.2562Y-4.6437
X5.2875Y-2.4937
X5.2875Y-3.2437
X5.2875Y-3.9937
X5.2875Y-4.7437
X5.35Y-3.8937
X5.35Y-4.6437
X5.3812Y-4.7437
X5.475Y-3.2437
X5.475Y-3.2437
X5.5375Y-2.3937
X5.5375Y-3.1437
X5.5375Y-3.8937
X5.5375Y-4.6437
X5.5687Y-3.2437
X5.6312Y-4.6437
X5.6625Y-2.4937
X5.6625Y-3.9937
X5.6625Y-4.7437
X5.725Y-3.1437
X5.725Y-3.1437
X5.8187Y-3.1437
X5.85Y-3.9937
X5.9125Y-2.3937
X5.9125Y-3.8937
X5.9125Y-4.6437
X6.0375Y-2.4937
X6.0375Y-3.2437
X6.0375Y-3.9937
X6.0375Y-4.7437
X6.1Y-3.8937
X6.225Y-3.2437
X6.2875Y-2.3937
X6.2875Y-3.1437
X6.2875Y-3.8937
X6.2875Y-4.6437
X6.4125Y-2.4937
X6.4125Y-3.9937
X6.4125Y-4.7437
X6.475Y-3.1437
X6.5062Y-3.2437
X6.6Y-3.2437
X6.6Y-3.9937
X6.6625Y-2.3937
X6.6625Y-3.8937
X6.6625Y-4.6437
X6.6937Y-4.7437
X6.7562Y-3.1437
X6.7875Y-2.4937
X6.7875Y-3.2437
X6.7875Y-4.7437
X6.794Y-3.9937
X6.85Y-3.1437
X6.85Y-3.8937
X6.8812Y-4.7437
X6.9437Y-4.6437
X6.975Y-3.2437
X6.975Y-4.7437
X7.0375Y-2.3937
X7.0375Y-3.1437
X7.0375Y-4.6437
X7.044Y-3.8937
X7.1312Y-4.6437
X7.1625Y-2.4937
X7.1625Y-3.9937
X7.1625Y-4.7437
X7.1625Y-4.7437
X7.225Y-3.1437
X7.225Y-4.6437
X7.35Y-3.2437
X7.35Y-3.9937
X7.4125Y-2.3937
X7.4125Y-3.8937
X7.4125Y-4.6437
X7.4125Y-4.6437
X7.5375Y-2.4937
X7.5375Y-3.2437
X7.544Y-3.9937
X7.6Y-3.1437
X7.6Y-3.8937
X7.6312Y-4.7437
X7.725Y-3.2437
X7.7875Y-2.3937
X7.7875Y-3.1437
X7.794Y-3.8937
X7.8187Y-4.7437
X7.8812Y-4.6437
X7.9125Y-2.4937
X7.9125Y-3.9937
X7.9125Y-4.7437
X7.975Y-3.1437
X8.0687Y-4.6437
X8.1Y-3.2437
X8.1Y-3.9937
X8.1625Y-2.3937
X8.1625Y-3.8937
X8.1625Y-4.6437
X8.2875Y-2.4937
X8.2875Y-3.2437
X8.294Y-3.9937
X8.35Y-3.1437
X8.35Y-3.8937
X8.475Y-3.2437
X8.475Y-4.7437
X8.5375Y-2.3937
X8.5375Y-3.1437
X8.544Y-3.8937
X8.5687Y-4.7437
X8.6625Y-2.4937
X8.6625Y-3.9937
X8.6625Y-4.7437
X8.725Y-3.1437
X8.725Y-4.6437
X8.8187Y-4.6437
X8.85Y-3.2437
X8.85Y-3.9937
X8.9125Y-2.3937
X8.9125Y-3.8937
X8.9125Y-4.6437
X9.0375Y-2.4937
X9.0375Y-3.2437
X9.044Y-3.9937
X9.1Y-3.1437
X9.1Y-3.8937
X9.2875Y-2.3937
X9.2875Y-3.1437
X9.294Y-3.8937
X9.4625Y-2.7937
X9.5062Y-3.2437
X9.6Y-3.2437
X9.6Y-3.9937
X9.65Y-2.7937
X9.6937Y-2.8687
X9.6937Y-3.2437
X9.6937Y-3.9937
X9.7125Y-2.6938
X9.7562Y-3.1437
X9.7875Y-2.4937
X9.7875Y-3.2437
X9.794Y-3.9937
X9.85Y-3.1437
X9.85Y-3.8937
X9.9Y-2.6938
X9.9437Y-2.7687
X9.9437Y-3.1437
X9.9437Y-3.8937
X10.0375Y-2.3937
X10.0375Y-3.1437
X10.044Y-3.8937
T2
G00X3.3924Y-2.2281
M15
G01X3.3924Y-2.2517
M16
G05
G00X3.3924Y-2.3828
M15
G01X3.3924Y-2.4261
M16
G05
G00X3.7326Y-2.2281
M15
G01X3.7326Y-2.2517
M16
G05
G00X3.7326Y-2.3828
M15
G01X3.7326Y-2.4261
M16
G05
T6
G00X5.967Y-2.6193
M15
G01X5.967Y-2.5682
M16
G05
G00X5.967Y-3.3693
M15
G01X5.967Y-3.3182
M16
G05
G00X5.967Y-4.1193
M15
G01X5.967Y-4.0682
M16
G05
G00X5.967Y-4.8693
M15
G01X5.967Y-4.8182
M16
G05
G00X6.408Y-2.6193
M15
G01X6.408Y-2.5682
M16
G05
G00X6.408Y-3.3693
M15
G01X6.408Y-3.3182
M16
G05
G00X6.408Y-4.1193
M15
G01X6.408Y-4.0682
M16
G05
G00X6.408Y-4.8693
M15
G01X6.408Y-4.8182
M16
G05
T0
M30
