%TF.GenerationSoftware,KiCad,Pcbnew,(7.0.0)*%
%TF.CreationDate,2023-12-11T21:31:51+01:00*%
%TF.ProjectId,universal vault,756e6976-6572-4736-916c-207661756c74,rev?*%
%TF.SameCoordinates,Original*%
%TF.FileFunction,Soldermask,Bot*%
%TF.FilePolarity,Negative*%
%FSLAX46Y46*%
G04 Gerber Fmt 4.6, Leading zero omitted, Abs format (unit mm)*
G04 Created by KiCad (PCBNEW (7.0.0)) date 2023-12-11 21:31:51*
%MOMM*%
%LPD*%
G01*
G04 APERTURE LIST*
G04 Aperture macros list*
%AMRoundRect*
0 Rectangle with rounded corners*
0 $1 Rounding radius*
0 $2 $3 $4 $5 $6 $7 $8 $9 X,Y pos of 4 corners*
0 Add a 4 corners polygon primitive as box body*
4,1,4,$2,$3,$4,$5,$6,$7,$8,$9,$2,$3,0*
0 Add four circle primitives for the rounded corners*
1,1,$1+$1,$2,$3*
1,1,$1+$1,$4,$5*
1,1,$1+$1,$6,$7*
1,1,$1+$1,$8,$9*
0 Add four rect primitives between the rounded corners*
20,1,$1+$1,$2,$3,$4,$5,0*
20,1,$1+$1,$4,$5,$6,$7,0*
20,1,$1+$1,$6,$7,$8,$9,0*
20,1,$1+$1,$8,$9,$2,$3,0*%
G04 Aperture macros list end*
%ADD10C,2.300000*%
%ADD11C,1.750000*%
%ADD12C,3.987800*%
%ADD13RoundRect,0.250000X-0.300000X0.300000X-0.300000X-0.300000X0.300000X-0.300000X0.300000X0.300000X0*%
%ADD14C,2.000000*%
%ADD15RoundRect,0.500000X0.500000X-0.500000X0.500000X0.500000X-0.500000X0.500000X-0.500000X-0.500000X0*%
%ADD16RoundRect,0.550000X0.550000X-1.150000X0.550000X1.150000X-0.550000X1.150000X-0.550000X-1.150000X0*%
%ADD17RoundRect,0.250000X-0.350000X-0.450000X0.350000X-0.450000X0.350000X0.450000X-0.350000X0.450000X0*%
%ADD18RoundRect,0.250000X0.350000X0.450000X-0.350000X0.450000X-0.350000X-0.450000X0.350000X-0.450000X0*%
%ADD19O,1.350000X1.350000*%
%ADD20R,1.350000X1.350000*%
%ADD21RoundRect,0.250000X0.250000X0.475000X-0.250000X0.475000X-0.250000X-0.475000X0.250000X-0.475000X0*%
%ADD22C,3.048000*%
%ADD23C,1.397000*%
%ADD24RoundRect,0.105000X0.245000X0.245000X-0.245000X0.245000X-0.245000X-0.245000X0.245000X-0.245000X0*%
%ADD25RoundRect,0.250000X0.300000X-0.300000X0.300000X0.300000X-0.300000X0.300000X-0.300000X-0.300000X0*%
%ADD26RoundRect,0.105000X-0.245000X-0.245000X0.245000X-0.245000X0.245000X0.245000X-0.245000X0.245000X0*%
%ADD27RoundRect,0.140000X-0.170000X0.140000X-0.170000X-0.140000X0.170000X-0.140000X0.170000X0.140000X0*%
%ADD28RoundRect,0.135000X0.185000X-0.135000X0.185000X0.135000X-0.185000X0.135000X-0.185000X-0.135000X0*%
%ADD29RoundRect,0.150000X0.150000X-0.512500X0.150000X0.512500X-0.150000X0.512500X-0.150000X-0.512500X0*%
%ADD30RoundRect,0.140000X-0.140000X-0.170000X0.140000X-0.170000X0.140000X0.170000X-0.140000X0.170000X0*%
%ADD31RoundRect,0.140000X0.170000X-0.140000X0.170000X0.140000X-0.170000X0.140000X-0.170000X-0.140000X0*%
%ADD32RoundRect,0.135000X0.135000X0.185000X-0.135000X0.185000X-0.135000X-0.185000X0.135000X-0.185000X0*%
%ADD33RoundRect,0.140000X0.140000X0.170000X-0.140000X0.170000X-0.140000X-0.170000X0.140000X-0.170000X0*%
%ADD34RoundRect,0.275000X0.625000X0.275000X-0.625000X0.275000X-0.625000X-0.275000X0.625000X-0.275000X0*%
%ADD35RoundRect,0.250000X0.625000X-0.375000X0.625000X0.375000X-0.625000X0.375000X-0.625000X-0.375000X0*%
%ADD36RoundRect,0.150000X-0.512500X-0.150000X0.512500X-0.150000X0.512500X0.150000X-0.512500X0.150000X0*%
%ADD37RoundRect,0.135000X-0.135000X-0.185000X0.135000X-0.185000X0.135000X0.185000X-0.135000X0.185000X0*%
%ADD38C,0.650000*%
%ADD39R,0.600000X1.450000*%
%ADD40R,0.300000X1.450000*%
%ADD41O,1.000000X1.600000*%
%ADD42O,1.000000X2.100000*%
%ADD43R,0.700000X1.000000*%
%ADD44R,0.700000X0.600000*%
%ADD45RoundRect,0.062500X0.062500X-0.375000X0.062500X0.375000X-0.062500X0.375000X-0.062500X-0.375000X0*%
%ADD46RoundRect,0.062500X0.375000X-0.062500X0.375000X0.062500X-0.375000X0.062500X-0.375000X-0.062500X0*%
%ADD47R,5.600000X5.600000*%
G04 APERTURE END LIST*
D10*
%TO.C,K_SPACE39*%
X131127500Y-117951250D03*
X124777500Y-120491250D03*
D11*
X133667500Y-123031250D03*
D12*
X128587500Y-123031250D03*
D11*
X123507500Y-123031250D03*
%TD*%
D13*
%TO.C,D_SPACE42*%
X171450000Y-112900000D03*
X171450000Y-115700000D03*
%TD*%
D14*
%TO.C,SW3*%
X154662500Y-130531250D03*
X159662500Y-130531250D03*
D15*
X157162500Y-130531250D03*
D16*
X151562500Y-123031250D03*
X162762500Y-123031250D03*
D14*
X159662500Y-116031250D03*
X154662500Y-116031250D03*
%TD*%
D11*
%TO.C,K_SPACE38*%
X175895000Y-123031250D03*
D12*
X180975000Y-123031250D03*
D11*
X186055000Y-123031250D03*
D10*
X177165000Y-120491250D03*
X183515000Y-117951250D03*
%TD*%
D11*
%TO.C,K_SPACE37*%
X128270000Y-123031250D03*
D12*
X133350000Y-123031250D03*
D11*
X138430000Y-123031250D03*
D10*
X129540000Y-120491250D03*
X135890000Y-117951250D03*
%TD*%
D11*
%TO.C,K_SPACE36*%
X161607500Y-123031250D03*
D12*
X166687500Y-123031250D03*
D11*
X171767500Y-123031250D03*
D10*
X162877500Y-120491250D03*
X169227500Y-117951250D03*
%TD*%
D11*
%TO.C,K_SPACE35*%
X142557500Y-123031250D03*
D12*
X147637500Y-123031250D03*
D11*
X152717500Y-123031250D03*
D10*
X143827500Y-120491250D03*
X150177500Y-117951250D03*
%TD*%
D13*
%TO.C,D_SPACE37*%
X157162500Y-116075000D03*
X157162500Y-118875000D03*
%TD*%
%TO.C,D_SPACE17*%
X157162500Y-77181250D03*
X157162500Y-79981250D03*
%TD*%
D17*
%TO.C,UR3*%
X164793750Y-87312500D03*
X166793750Y-87312500D03*
%TD*%
D18*
%TO.C,UR2*%
X149729160Y-87356310D03*
X147729160Y-87356310D03*
%TD*%
D17*
%TO.C,UR1*%
X147729160Y-89266444D03*
X149729160Y-89266444D03*
%TD*%
D19*
%TO.C,TP1*%
X161162499Y-89159999D03*
X159162499Y-89159999D03*
X157162499Y-89159999D03*
X155162499Y-89159999D03*
D20*
X153162499Y-89159999D03*
%TD*%
D21*
%TO.C,C12*%
X166743750Y-89300000D03*
X164843750Y-89300000D03*
%TD*%
D11*
%TO.C,K_SPACE4*%
X113982500Y-65881250D03*
D12*
X119062500Y-65881250D03*
D11*
X124142500Y-65881250D03*
D10*
X115252500Y-63341250D03*
X121602500Y-60801250D03*
%TD*%
D11*
%TO.C,K_SPACE68*%
X166370000Y-84931250D03*
D12*
X171450000Y-84931250D03*
D11*
X176530000Y-84931250D03*
D10*
X167640000Y-82391250D03*
X173990000Y-79851250D03*
%TD*%
D11*
%TO.C,K_SPACE17*%
X152082500Y-84931250D03*
D12*
X157162500Y-84931250D03*
D11*
X162242500Y-84931250D03*
D10*
X153352500Y-82391250D03*
X159702500Y-79851250D03*
%TD*%
D12*
%TO.C,S6*%
X109537500Y-114776250D03*
D22*
X109537500Y-130016250D03*
D12*
X147637500Y-114776250D03*
D22*
X147637500Y-130016250D03*
%TD*%
D11*
%TO.C,K_SPACE30*%
X180657500Y-103981250D03*
D12*
X185737500Y-103981250D03*
D11*
X190817500Y-103981250D03*
D10*
X181927500Y-101441250D03*
X188277500Y-98901250D03*
%TD*%
D11*
%TO.C,K_SPACE118*%
X199707500Y-123031250D03*
D12*
X204787500Y-123031250D03*
D11*
X209867500Y-123031250D03*
D10*
X200977500Y-120491250D03*
X207327500Y-117951250D03*
%TD*%
D11*
%TO.C,K_SPACE94*%
X147320000Y-103981250D03*
D12*
X152400000Y-103981250D03*
D11*
X157480000Y-103981250D03*
D10*
X148590000Y-101441250D03*
X154940000Y-98901250D03*
%TD*%
D11*
%TO.C,K_SPACE73*%
X80645000Y-84931250D03*
D12*
X85725000Y-84931250D03*
D11*
X90805000Y-84931250D03*
D10*
X81915000Y-82391250D03*
X88265000Y-79851250D03*
%TD*%
D11*
%TO.C,K_SPACE117*%
X104457500Y-123031250D03*
D12*
X109537500Y-123031250D03*
D11*
X114617500Y-123031250D03*
D10*
X105727500Y-120491250D03*
X112077500Y-117951250D03*
%TD*%
D11*
%TO.C,K_SPACE107*%
X87788750Y-123031250D03*
D12*
X92868750Y-123031250D03*
D11*
X97948750Y-123031250D03*
D10*
X89058750Y-120491250D03*
X95408750Y-117951250D03*
%TD*%
D11*
%TO.C,K_SPACE83*%
X75882500Y-103981250D03*
D12*
X80962500Y-103981250D03*
D11*
X86042500Y-103981250D03*
D10*
X77152500Y-101441250D03*
X83502500Y-98901250D03*
%TD*%
D12*
%TO.C,S3*%
X164306250Y-114776250D03*
D22*
X164306250Y-130016250D03*
D12*
X188118750Y-114776250D03*
D22*
X188118750Y-130016250D03*
%TD*%
D10*
%TO.C,K_SPACE124*%
X133508750Y-117951250D03*
X127158750Y-120491250D03*
D11*
X136048750Y-123031250D03*
D12*
X130968750Y-123031250D03*
D11*
X125888750Y-123031250D03*
%TD*%
%TO.C,K_SPACE28*%
X140176250Y-84931250D03*
D12*
X145256250Y-84931250D03*
D11*
X150336250Y-84931250D03*
D10*
X141446250Y-82391250D03*
X147796250Y-79851250D03*
%TD*%
D11*
%TO.C,K_SPACE72*%
X242570000Y-84931250D03*
D12*
X247650000Y-84931250D03*
D11*
X252730000Y-84931250D03*
D10*
X243840000Y-82391250D03*
X250190000Y-79851250D03*
%TD*%
D23*
%TO.C,OL2*%
X160972500Y-57150000D03*
X158432500Y-57150000D03*
X155892500Y-57150000D03*
X153352500Y-57150000D03*
%TD*%
D11*
%TO.C,K_SPACE95*%
X244951250Y-75406250D03*
D12*
X250031250Y-75406250D03*
D11*
X255111250Y-75406250D03*
D10*
X246221250Y-72866250D03*
X252571250Y-70326250D03*
%TD*%
D11*
%TO.C,K_SPACE9*%
X209232500Y-65881250D03*
D12*
X214312500Y-65881250D03*
D11*
X219392500Y-65881250D03*
D10*
X210502500Y-63341250D03*
X216852500Y-60801250D03*
%TD*%
D11*
%TO.C,K_SPACE21*%
X228282500Y-84931250D03*
D12*
X233362500Y-84931250D03*
D11*
X238442500Y-84931250D03*
D10*
X229552500Y-82391250D03*
X235902500Y-79851250D03*
%TD*%
D11*
%TO.C,K_SPACE33*%
X242570000Y-103981250D03*
D12*
X247650000Y-103981250D03*
D11*
X252730000Y-103981250D03*
D10*
X243840000Y-101441250D03*
X250190000Y-98901250D03*
%TD*%
D11*
%TO.C,K_SPACE55*%
X123507500Y-65881250D03*
D12*
X128587500Y-65881250D03*
D11*
X133667500Y-65881250D03*
D10*
X124777500Y-63341250D03*
X131127500Y-60801250D03*
%TD*%
%TO.C,K_SPACE121*%
X181133750Y-117951250D03*
X174783750Y-120491250D03*
D11*
X183673750Y-123031250D03*
D12*
X178593750Y-123031250D03*
D11*
X173513750Y-123031250D03*
%TD*%
D12*
%TO.C,S5*%
X166687500Y-114776250D03*
D22*
X166687500Y-130016250D03*
D12*
X190500000Y-114776250D03*
D22*
X190500000Y-130016250D03*
%TD*%
D11*
%TO.C,K_SPACE115*%
X168751250Y-123031250D03*
D12*
X173831250Y-123031250D03*
D11*
X178911250Y-123031250D03*
D10*
X170021250Y-120491250D03*
X176371250Y-117951250D03*
%TD*%
D11*
%TO.C,K_SPACE15*%
X113982500Y-84931250D03*
D12*
X119062500Y-84931250D03*
D11*
X124142500Y-84931250D03*
D10*
X115252500Y-82391250D03*
X121602500Y-79851250D03*
%TD*%
D11*
%TO.C,K_SPACE70*%
X204470000Y-84931250D03*
D12*
X209550000Y-84931250D03*
D11*
X214630000Y-84931250D03*
D10*
X205740000Y-82391250D03*
X212090000Y-79851250D03*
%TD*%
D11*
%TO.C,K_SPACE98*%
X204470000Y-103981250D03*
D12*
X209550000Y-103981250D03*
D11*
X214630000Y-103981250D03*
D10*
X205740000Y-101441250D03*
X212090000Y-98901250D03*
%TD*%
D11*
%TO.C,K_SPACE78*%
X175895000Y-84931250D03*
D12*
X180975000Y-84931250D03*
D11*
X186055000Y-84931250D03*
D10*
X177165000Y-82391250D03*
X183515000Y-79851250D03*
%TD*%
D11*
%TO.C,K_SPACE101*%
X244951250Y-84931250D03*
D12*
X250031250Y-84931250D03*
D11*
X255111250Y-84931250D03*
D10*
X246221250Y-82391250D03*
X252571250Y-79851250D03*
%TD*%
D11*
%TO.C,K_SPACE10*%
X228282500Y-65881250D03*
D12*
X233362500Y-65881250D03*
D11*
X238442500Y-65881250D03*
D10*
X229552500Y-63341250D03*
X235902500Y-60801250D03*
%TD*%
D11*
%TO.C,K_SPACE74*%
X99695000Y-84931250D03*
D12*
X104775000Y-84931250D03*
D11*
X109855000Y-84931250D03*
D10*
X100965000Y-82391250D03*
X107315000Y-79851250D03*
%TD*%
D23*
%TO.C,OL1*%
X153352500Y-113506250D03*
X155892500Y-113506250D03*
X158432500Y-113506250D03*
X160972500Y-113506250D03*
%TD*%
D11*
%TO.C,K_SPACE99*%
X223520000Y-103981250D03*
D12*
X228600000Y-103981250D03*
D11*
X233680000Y-103981250D03*
D10*
X224790000Y-101441250D03*
X231140000Y-98901250D03*
%TD*%
D11*
%TO.C,K_SPACE85*%
X113982500Y-103981250D03*
D12*
X119062500Y-103981250D03*
D11*
X124142500Y-103981250D03*
D10*
X115252500Y-101441250D03*
X121602500Y-98901250D03*
%TD*%
D11*
%TO.C,K_SPACE110*%
X152082500Y-123031250D03*
D12*
X157162500Y-123031250D03*
D11*
X162242500Y-123031250D03*
D10*
X153352500Y-120491250D03*
X159702500Y-117951250D03*
%TD*%
D11*
%TO.C,K_SPACE2*%
X75882500Y-65881250D03*
D12*
X80962500Y-65881250D03*
D11*
X86042500Y-65881250D03*
D10*
X77152500Y-63341250D03*
X83502500Y-60801250D03*
%TD*%
D11*
%TO.C,K_SPACE92*%
X109220000Y-103981250D03*
D12*
X114300000Y-103981250D03*
D11*
X119380000Y-103981250D03*
D10*
X110490000Y-101441250D03*
X116840000Y-98901250D03*
%TD*%
D11*
%TO.C,K_SPACE34*%
X163988750Y-84931250D03*
D12*
X169068750Y-84931250D03*
D11*
X174148750Y-84931250D03*
D10*
X165258750Y-82391250D03*
X171608750Y-79851250D03*
%TD*%
D11*
%TO.C,K_SPACE14*%
X94932500Y-84931250D03*
D12*
X100012500Y-84931250D03*
D11*
X105092500Y-84931250D03*
D10*
X96202500Y-82391250D03*
X102552500Y-79851250D03*
%TD*%
D11*
%TO.C,K_SPACE77*%
X156845000Y-84931250D03*
D12*
X161925000Y-84931250D03*
D11*
X167005000Y-84931250D03*
D10*
X158115000Y-82391250D03*
X164465000Y-79851250D03*
%TD*%
D11*
%TO.C,K_SPACE32*%
X218757500Y-103981250D03*
D12*
X223837500Y-103981250D03*
D11*
X228917500Y-103981250D03*
D10*
X220027500Y-101441250D03*
X226377500Y-98901250D03*
%TD*%
D11*
%TO.C,K_SPACE114*%
X135413750Y-123031250D03*
D12*
X140493750Y-123031250D03*
D11*
X145573750Y-123031250D03*
D10*
X136683750Y-120491250D03*
X143033750Y-117951250D03*
%TD*%
D11*
%TO.C,K_SPACE67*%
X59213750Y-84931250D03*
D12*
X64293750Y-84931250D03*
D11*
X69373750Y-84931250D03*
D10*
X60483750Y-82391250D03*
X66833750Y-79851250D03*
%TD*%
D11*
%TO.C,K_SPACE108*%
X192563750Y-123031250D03*
D12*
X197643750Y-123031250D03*
D11*
X202723750Y-123031250D03*
D10*
X193833750Y-120491250D03*
X200183750Y-117951250D03*
%TD*%
D11*
%TO.C,K_SPACE71*%
X223520000Y-84931250D03*
D12*
X228600000Y-84931250D03*
D11*
X233680000Y-84931250D03*
D10*
X224790000Y-82391250D03*
X231140000Y-79851250D03*
%TD*%
D11*
%TO.C,K_SPACE88*%
X190348750Y-103981250D03*
D12*
X195428750Y-103981250D03*
D11*
X200508750Y-103981250D03*
D10*
X191618750Y-101441250D03*
X197968750Y-98901250D03*
%TD*%
D11*
%TO.C,K_SPACE50*%
X63976250Y-103981250D03*
D12*
X69056250Y-103981250D03*
D11*
X74136250Y-103981250D03*
D10*
X65246250Y-101441250D03*
X71596250Y-98901250D03*
%TD*%
D11*
%TO.C,K_SPACE57*%
X61595000Y-84931250D03*
D12*
X66675000Y-84931250D03*
D11*
X71755000Y-84931250D03*
D10*
X62865000Y-82391250D03*
X69215000Y-79851250D03*
%TD*%
D11*
%TO.C,K_SPACE26*%
X123507500Y-103981250D03*
D12*
X128587500Y-103981250D03*
D11*
X133667500Y-103981250D03*
D10*
X124777500Y-101441250D03*
X131127500Y-98901250D03*
%TD*%
D11*
%TO.C,K_SPACE90*%
X228448750Y-103981250D03*
D12*
X233528750Y-103981250D03*
D11*
X238608750Y-103981250D03*
D10*
X229718750Y-101441250D03*
X236068750Y-98901250D03*
%TD*%
%TO.C,K_SPACE116*%
X188277500Y-117951250D03*
X181927500Y-120491250D03*
D11*
X190817500Y-123031250D03*
D12*
X185737500Y-123031250D03*
D11*
X180657500Y-123031250D03*
%TD*%
%TO.C,K_SPACE93*%
X128270000Y-103981250D03*
D12*
X133350000Y-103981250D03*
D11*
X138430000Y-103981250D03*
D10*
X129540000Y-101441250D03*
X135890000Y-98901250D03*
%TD*%
D11*
%TO.C,K_SPACE81*%
X240188750Y-84931250D03*
D12*
X245268750Y-84931250D03*
D11*
X250348750Y-84931250D03*
D10*
X241458750Y-82391250D03*
X247808750Y-79851250D03*
%TD*%
D11*
%TO.C,K_SPACE128*%
X123507500Y-123031250D03*
D12*
X128587500Y-123031250D03*
D11*
X133667500Y-123031250D03*
D10*
X124777500Y-120491250D03*
X131127500Y-117951250D03*
%TD*%
D11*
%TO.C,K_SPACE87*%
X171298750Y-103981250D03*
D12*
X176378750Y-103981250D03*
D11*
X181458750Y-103981250D03*
D10*
X172568750Y-101441250D03*
X178918750Y-98901250D03*
%TD*%
%TO.C,K_SPACE123*%
X221615000Y-117951250D03*
X215265000Y-120491250D03*
D11*
X224155000Y-123031250D03*
D12*
X219075000Y-123031250D03*
D11*
X213995000Y-123031250D03*
%TD*%
%TO.C,K_SPACE97*%
X185420000Y-103981250D03*
D12*
X190500000Y-103981250D03*
D11*
X195580000Y-103981250D03*
D10*
X186690000Y-101441250D03*
X193040000Y-98901250D03*
%TD*%
D12*
%TO.C,S7*%
X166687500Y-114776250D03*
D22*
X166687500Y-130016250D03*
D12*
X204787500Y-114776250D03*
D22*
X204787500Y-130016250D03*
%TD*%
D11*
%TO.C,K_SPACE69*%
X185420000Y-84931250D03*
D12*
X190500000Y-84931250D03*
D11*
X195580000Y-84931250D03*
D10*
X186690000Y-82391250D03*
X193040000Y-79851250D03*
%TD*%
D11*
%TO.C,K_SPACE56*%
X142557500Y-65881250D03*
D12*
X147637500Y-65881250D03*
D11*
X152717500Y-65881250D03*
D10*
X143827500Y-63341250D03*
X150177500Y-60801250D03*
%TD*%
D11*
%TO.C,K_SPACE62*%
X247967500Y-65881250D03*
D12*
X242887500Y-65881250D03*
D11*
X237807500Y-65881250D03*
D10*
X246697500Y-68421250D03*
X240347500Y-70961250D03*
%TD*%
D11*
%TO.C,K_SPACE109*%
X216376250Y-123031250D03*
D12*
X221456250Y-123031250D03*
D11*
X226536250Y-123031250D03*
D10*
X217646250Y-120491250D03*
X223996250Y-117951250D03*
%TD*%
D11*
%TO.C,K_SPACE25*%
X104457500Y-103981250D03*
D12*
X109537500Y-103981250D03*
D11*
X114617500Y-103981250D03*
D10*
X105727500Y-101441250D03*
X112077500Y-98901250D03*
%TD*%
D11*
%TO.C,K_SPACE63*%
X80645000Y-84931250D03*
D12*
X85725000Y-84931250D03*
D11*
X90805000Y-84931250D03*
D10*
X81915000Y-82391250D03*
X88265000Y-79851250D03*
%TD*%
D11*
%TO.C,K_SPACE51*%
X90170000Y-103981250D03*
D12*
X95250000Y-103981250D03*
D11*
X100330000Y-103981250D03*
D10*
X91440000Y-101441250D03*
X97790000Y-98901250D03*
%TD*%
D11*
%TO.C,K_SPACE60*%
X199707500Y-65881250D03*
D12*
X204787500Y-65881250D03*
D11*
X209867500Y-65881250D03*
D10*
X200977500Y-63341250D03*
X207327500Y-60801250D03*
%TD*%
D11*
%TO.C,K_SPACE103*%
X71755000Y-65881250D03*
D12*
X66675000Y-65881250D03*
D11*
X61595000Y-65881250D03*
D10*
X70485000Y-68421250D03*
X64135000Y-70961250D03*
%TD*%
D11*
%TO.C,K_SPACE102*%
X252730000Y-65881250D03*
D12*
X247650000Y-65881250D03*
D11*
X242570000Y-65881250D03*
D10*
X251460000Y-68421250D03*
X245110000Y-70961250D03*
%TD*%
D11*
%TO.C,K_SPACE8*%
X190182500Y-65881250D03*
D12*
X195262500Y-65881250D03*
D11*
X200342500Y-65881250D03*
D10*
X191452500Y-63341250D03*
X197802500Y-60801250D03*
%TD*%
D11*
%TO.C,K_SPACE86*%
X133032500Y-103981250D03*
D12*
X138112500Y-103981250D03*
D11*
X143192500Y-103981250D03*
D10*
X134302500Y-101441250D03*
X140652500Y-98901250D03*
%TD*%
D11*
%TO.C,K_SPACE100*%
X244951250Y-103981250D03*
D12*
X250031250Y-103981250D03*
D11*
X255111250Y-103981250D03*
D10*
X246221250Y-101441250D03*
X252571250Y-98901250D03*
%TD*%
D11*
%TO.C,K_SPACE66*%
X137795000Y-84931250D03*
D12*
X142875000Y-84931250D03*
D11*
X147955000Y-84931250D03*
D10*
X139065000Y-82391250D03*
X145415000Y-79851250D03*
%TD*%
D14*
%TO.C,SW1*%
X154662500Y-73381250D03*
X159662500Y-73381250D03*
D15*
X157162500Y-73381250D03*
D16*
X151562500Y-65881250D03*
X162762500Y-65881250D03*
D14*
X159662500Y-58881250D03*
X154662500Y-58881250D03*
%TD*%
D11*
%TO.C,K_SPACE79*%
X194945000Y-84931250D03*
D12*
X200025000Y-84931250D03*
D11*
X205105000Y-84931250D03*
D10*
X196215000Y-82391250D03*
X202565000Y-79851250D03*
%TD*%
D11*
%TO.C,K_SPACE64*%
X99695000Y-84931250D03*
D12*
X104775000Y-84931250D03*
D11*
X109855000Y-84931250D03*
D10*
X100965000Y-82391250D03*
X107315000Y-79851250D03*
%TD*%
D11*
%TO.C,K_SPACE20*%
X209232500Y-84931250D03*
D12*
X214312500Y-84931250D03*
D11*
X219392500Y-84931250D03*
D10*
X210502500Y-82391250D03*
X216852500Y-79851250D03*
%TD*%
D11*
%TO.C,K_SPACE49*%
X152082500Y-103981250D03*
D12*
X157162500Y-103981250D03*
D11*
X162242500Y-103981250D03*
D10*
X153352500Y-101441250D03*
X159702500Y-98901250D03*
%TD*%
D11*
%TO.C,K_SPACE59*%
X180657500Y-65881250D03*
D12*
X185737500Y-65881250D03*
D11*
X190817500Y-65881250D03*
D10*
X181927500Y-63341250D03*
X188277500Y-60801250D03*
%TD*%
D11*
%TO.C,K_SPACE104*%
X59213750Y-84931250D03*
D12*
X64293750Y-84931250D03*
D11*
X69373750Y-84931250D03*
D10*
X60483750Y-82391250D03*
X66833750Y-79851250D03*
%TD*%
D11*
%TO.C,K_SPACE84*%
X94932500Y-103981250D03*
D12*
X100012500Y-103981250D03*
D11*
X105092500Y-103981250D03*
D10*
X96202500Y-101441250D03*
X102552500Y-98901250D03*
%TD*%
D11*
%TO.C,K_SPACE106*%
X111601250Y-123031250D03*
D12*
X116681250Y-123031250D03*
D11*
X121761250Y-123031250D03*
D10*
X112871250Y-120491250D03*
X119221250Y-117951250D03*
%TD*%
D12*
%TO.C,S2*%
X126206250Y-114776250D03*
D22*
X126206250Y-130016250D03*
D12*
X150018750Y-114776250D03*
D22*
X150018750Y-130016250D03*
%TD*%
D10*
%TO.C,K_SPACE125*%
X178752500Y-117951250D03*
X172402500Y-120491250D03*
D11*
X181292500Y-123031250D03*
D12*
X176212500Y-123031250D03*
D11*
X171132500Y-123031250D03*
%TD*%
%TO.C,K_SPACE11*%
X247332500Y-65881250D03*
D12*
X252412500Y-65881250D03*
D11*
X257492500Y-65881250D03*
D10*
X248602500Y-63341250D03*
X254952500Y-60801250D03*
%TD*%
D11*
%TO.C,K_SPACE91*%
X247498750Y-103981250D03*
D12*
X252578750Y-103981250D03*
D11*
X257658750Y-103981250D03*
D10*
X248768750Y-101441250D03*
X255118750Y-98901250D03*
%TD*%
D14*
%TO.C,SW2*%
X154662500Y-92431250D03*
X159662500Y-92431250D03*
D15*
X157162500Y-92431250D03*
D16*
X151562500Y-84931250D03*
X162762500Y-84931250D03*
D14*
X159662500Y-77931250D03*
X154662500Y-77931250D03*
%TD*%
D10*
%TO.C,K_SPACE122*%
X97790000Y-117951250D03*
X91440000Y-120491250D03*
D11*
X100330000Y-123031250D03*
D12*
X95250000Y-123031250D03*
D11*
X90170000Y-123031250D03*
%TD*%
%TO.C,K_SPACE129*%
X180657500Y-123031250D03*
D12*
X185737500Y-123031250D03*
D11*
X190817500Y-123031250D03*
D10*
X181927500Y-120491250D03*
X188277500Y-117951250D03*
%TD*%
D11*
%TO.C,K_SPACE113*%
X218757500Y-123031250D03*
D12*
X223837500Y-123031250D03*
D11*
X228917500Y-123031250D03*
D10*
X220027500Y-120491250D03*
X226377500Y-117951250D03*
%TD*%
D11*
%TO.C,K_SPACE19*%
X190182500Y-84931250D03*
D12*
X195262500Y-84931250D03*
D11*
X200342500Y-84931250D03*
D10*
X191452500Y-82391250D03*
X197802500Y-79851250D03*
%TD*%
D11*
%TO.C,K_SPACE23*%
X61595000Y-103981250D03*
D12*
X66675000Y-103981250D03*
D11*
X71755000Y-103981250D03*
D10*
X62865000Y-101441250D03*
X69215000Y-98901250D03*
%TD*%
D11*
%TO.C,K_SPACE16*%
X133032500Y-84931250D03*
D12*
X138112500Y-84931250D03*
D11*
X143192500Y-84931250D03*
D10*
X134302500Y-82391250D03*
X140652500Y-79851250D03*
%TD*%
D11*
%TO.C,K_SPACE105*%
X85407500Y-123031250D03*
D12*
X90487500Y-123031250D03*
D11*
X95567500Y-123031250D03*
D10*
X86677500Y-120491250D03*
X93027500Y-117951250D03*
%TD*%
D11*
%TO.C,K_SPACE12*%
X56832500Y-84931250D03*
D12*
X61912500Y-84931250D03*
D11*
X66992500Y-84931250D03*
D10*
X58102500Y-82391250D03*
X64452500Y-79851250D03*
%TD*%
D11*
%TO.C,K_SPACE22*%
X247332500Y-84931250D03*
D12*
X252412500Y-84931250D03*
D11*
X257492500Y-84931250D03*
D10*
X248602500Y-82391250D03*
X254952500Y-79851250D03*
%TD*%
D11*
%TO.C,K_SPACE52*%
X76517500Y-65881250D03*
D12*
X71437500Y-65881250D03*
D11*
X66357500Y-65881250D03*
D10*
X75247500Y-68421250D03*
X68897500Y-70961250D03*
%TD*%
D11*
%TO.C,K_SPACE65*%
X118745000Y-84931250D03*
D12*
X123825000Y-84931250D03*
D11*
X128905000Y-84931250D03*
D10*
X120015000Y-82391250D03*
X126365000Y-79851250D03*
%TD*%
D22*
%TO.C,S9*%
X176212500Y-130016250D03*
D12*
X176212500Y-114776250D03*
D22*
X138112500Y-130016250D03*
D12*
X138112500Y-114776250D03*
%TD*%
D11*
%TO.C,K_SPACE53*%
X95567500Y-65881250D03*
D12*
X90487500Y-65881250D03*
D11*
X85407500Y-65881250D03*
D10*
X94297500Y-68421250D03*
X87947500Y-70961250D03*
%TD*%
D11*
%TO.C,K_SPACE3*%
X94932500Y-65881250D03*
D12*
X100012500Y-65881250D03*
D11*
X105092500Y-65881250D03*
D10*
X96202500Y-63341250D03*
X102552500Y-60801250D03*
%TD*%
D22*
%TO.C,S8*%
X204787500Y-130016250D03*
D12*
X204787500Y-114776250D03*
D22*
X109537500Y-130016250D03*
D12*
X109537500Y-114776250D03*
%TD*%
D11*
%TO.C,K_SPACE80*%
X213995000Y-84931250D03*
D12*
X219075000Y-84931250D03*
D11*
X224155000Y-84931250D03*
D10*
X215265000Y-82391250D03*
X221615000Y-79851250D03*
%TD*%
D11*
%TO.C,K_SPACE7*%
X171132500Y-65881250D03*
D12*
X176212500Y-65881250D03*
D11*
X181292500Y-65881250D03*
D10*
X172402500Y-63341250D03*
X178752500Y-60801250D03*
%TD*%
D11*
%TO.C,K_SPACE96*%
X166370000Y-103981250D03*
D12*
X171450000Y-103981250D03*
D11*
X176530000Y-103981250D03*
D10*
X167640000Y-101441250D03*
X173990000Y-98901250D03*
%TD*%
D11*
%TO.C,K_SPACE6*%
X152082500Y-65881250D03*
D12*
X157162500Y-65881250D03*
D11*
X162242500Y-65881250D03*
D10*
X153352500Y-63341250D03*
X159702500Y-60801250D03*
%TD*%
D11*
%TO.C,K_SPACE82*%
X56832500Y-103981250D03*
D12*
X61912500Y-103981250D03*
D11*
X66992500Y-103981250D03*
D10*
X58102500Y-101441250D03*
X64452500Y-98901250D03*
%TD*%
D11*
%TO.C,K_SPACE111*%
X106838750Y-123031250D03*
D12*
X111918750Y-123031250D03*
D11*
X116998750Y-123031250D03*
D10*
X108108750Y-120491250D03*
X114458750Y-117951250D03*
%TD*%
D11*
%TO.C,K_SPACE89*%
X209398750Y-103981250D03*
D12*
X214478750Y-103981250D03*
D11*
X219558750Y-103981250D03*
D10*
X210668750Y-101441250D03*
X217018750Y-98901250D03*
%TD*%
D11*
%TO.C,K_SPACE29*%
X161607500Y-103981250D03*
D12*
X166687500Y-103981250D03*
D11*
X171767500Y-103981250D03*
D10*
X162877500Y-101441250D03*
X169227500Y-98901250D03*
%TD*%
D11*
%TO.C,K_SPACE5*%
X133032500Y-65881250D03*
D12*
X138112500Y-65881250D03*
D11*
X143192500Y-65881250D03*
D10*
X134302500Y-63341250D03*
X140652500Y-60801250D03*
%TD*%
%TO.C,K_SPACE120*%
X140652500Y-117951250D03*
X134302500Y-120491250D03*
D11*
X143192500Y-123031250D03*
D12*
X138112500Y-123031250D03*
D11*
X133032500Y-123031250D03*
%TD*%
D12*
%TO.C,S4*%
X119062500Y-114776250D03*
D22*
X119062500Y-130016250D03*
D12*
X142875000Y-114776250D03*
D22*
X142875000Y-130016250D03*
%TD*%
D11*
%TO.C,K_SPACE58*%
X161607500Y-65881250D03*
D12*
X166687500Y-65881250D03*
D11*
X171767500Y-65881250D03*
D10*
X162877500Y-63341250D03*
X169227500Y-60801250D03*
%TD*%
D11*
%TO.C,K_SPACE75*%
X118745000Y-84931250D03*
D12*
X123825000Y-84931250D03*
D11*
X128905000Y-84931250D03*
D10*
X120015000Y-82391250D03*
X126365000Y-79851250D03*
%TD*%
D11*
%TO.C,K_SPACE27*%
X142557500Y-103981250D03*
D12*
X147637500Y-103981250D03*
D11*
X152717500Y-103981250D03*
D10*
X143827500Y-101441250D03*
X150177500Y-98901250D03*
%TD*%
D11*
%TO.C,K_SPACE61*%
X218757500Y-65881250D03*
D12*
X223837500Y-65881250D03*
D11*
X228917500Y-65881250D03*
D10*
X220027500Y-63341250D03*
X226377500Y-60801250D03*
%TD*%
D11*
%TO.C,K_SPACE24*%
X85407500Y-103981250D03*
D12*
X90487500Y-103981250D03*
D11*
X95567500Y-103981250D03*
D10*
X86677500Y-101441250D03*
X93027500Y-98901250D03*
%TD*%
D11*
%TO.C,K_SPACE18*%
X171132500Y-84931250D03*
D12*
X176212500Y-84931250D03*
D11*
X181292500Y-84931250D03*
D10*
X172402500Y-82391250D03*
X178752500Y-79851250D03*
%TD*%
D11*
%TO.C,K_SPACE76*%
X137795000Y-84931250D03*
D12*
X142875000Y-84931250D03*
D11*
X147955000Y-84931250D03*
D10*
X139065000Y-82391250D03*
X145415000Y-79851250D03*
%TD*%
D11*
%TO.C,K_SPACE31*%
X199707500Y-103981250D03*
D12*
X204787500Y-103981250D03*
D11*
X209867500Y-103981250D03*
D10*
X200977500Y-101441250D03*
X207327500Y-98901250D03*
%TD*%
D11*
%TO.C,K_SPACE1*%
X56832500Y-65881250D03*
D12*
X61912500Y-65881250D03*
D11*
X66992500Y-65881250D03*
D10*
X58102500Y-63341250D03*
X64452500Y-60801250D03*
%TD*%
D11*
%TO.C,K_SPACE112*%
X197326250Y-123031250D03*
D12*
X202406250Y-123031250D03*
D11*
X207486250Y-123031250D03*
D10*
X198596250Y-120491250D03*
X204946250Y-117951250D03*
%TD*%
D22*
%TO.C,S1*%
X243046250Y-63500000D03*
X243046250Y-87312500D03*
D12*
X258286250Y-63500000D03*
X258286250Y-87312500D03*
%TD*%
D11*
%TO.C,K_SPACE54*%
X104457500Y-65881250D03*
D12*
X109537500Y-65881250D03*
D11*
X114617500Y-65881250D03*
D10*
X105727500Y-63341250D03*
X112077500Y-60801250D03*
%TD*%
D11*
%TO.C,K_SPACE13*%
X75882500Y-84931250D03*
D12*
X80962500Y-84931250D03*
D11*
X86042500Y-84931250D03*
D10*
X77152500Y-82391250D03*
X83502500Y-79851250D03*
%TD*%
D24*
%TO.C,LED1*%
X72352500Y-75406250D03*
X72352500Y-76506250D03*
X70522500Y-76506250D03*
X70522500Y-75406250D03*
%TD*%
%TO.C,LED6*%
X240627500Y-75650000D03*
X240627500Y-76750000D03*
X238797500Y-76750000D03*
X238797500Y-75650000D03*
%TD*%
D13*
%TO.C,D_SPACE34*%
X100012500Y-112900000D03*
X100012500Y-115700000D03*
%TD*%
D25*
%TO.C,D_SPACE5*%
X141287500Y-71250000D03*
X141287500Y-68450000D03*
%TD*%
%TO.C,D_SPACE1*%
X73025000Y-72043750D03*
X73025000Y-69243750D03*
%TD*%
D26*
%TO.C,LED11*%
X105447500Y-112468750D03*
X105447500Y-111368750D03*
X107277500Y-111368750D03*
X107277500Y-112468750D03*
%TD*%
D27*
%TO.C,C7*%
X58673171Y-98312310D03*
X58673171Y-99272310D03*
%TD*%
D25*
%TO.C,D_SPACE32*%
X236537500Y-109412500D03*
X236537500Y-106612500D03*
%TD*%
D28*
%TO.C,R1*%
X65162500Y-76426250D03*
X65162500Y-75406250D03*
%TD*%
D29*
%TO.C,U3*%
X74768750Y-82100000D03*
X73818750Y-82100000D03*
X72868750Y-82100000D03*
X72868750Y-79825000D03*
X74768750Y-79825000D03*
%TD*%
D13*
%TO.C,D_SPACE36*%
X129381250Y-115700000D03*
X129381250Y-112900000D03*
%TD*%
D30*
%TO.C,C4*%
X65401250Y-96043750D03*
X66361250Y-96043750D03*
%TD*%
D26*
%TO.C,LED12*%
X70522500Y-108500000D03*
X70522500Y-107400000D03*
X72352500Y-107400000D03*
X72352500Y-108500000D03*
%TD*%
D24*
%TO.C,LED5*%
X211931250Y-75650000D03*
X211931250Y-76750000D03*
X210101250Y-76750000D03*
X210101250Y-75650000D03*
%TD*%
D26*
%TO.C,LED7*%
X238797500Y-108500000D03*
X238797500Y-107400000D03*
X240627500Y-107400000D03*
X240627500Y-108500000D03*
%TD*%
%TO.C,LED8*%
X210222500Y-112468750D03*
X210222500Y-111368750D03*
X212052500Y-111368750D03*
X212052500Y-112468750D03*
%TD*%
D13*
%TO.C,D_SPACE38*%
X193675000Y-112900000D03*
X193675000Y-115700000D03*
%TD*%
D25*
%TO.C,D_SPACE25*%
X122235018Y-109412500D03*
X122235018Y-106612500D03*
%TD*%
%TO.C,D_SPACE18*%
X184177425Y-90362500D03*
X184177425Y-87562500D03*
%TD*%
%TO.C,D_SPACE9*%
X217487500Y-71250000D03*
X217487500Y-68450000D03*
%TD*%
%TO.C,D_SPACE13*%
X88901094Y-90362500D03*
X88901094Y-87562500D03*
%TD*%
D31*
%TO.C,C2*%
X55562500Y-88272500D03*
X55562500Y-87312500D03*
%TD*%
D13*
%TO.C,D_SPACE35*%
X122237500Y-112900000D03*
X122237500Y-115700000D03*
%TD*%
D25*
%TO.C,D_SPACE12*%
X75406250Y-90300000D03*
X75406250Y-87500000D03*
%TD*%
%TO.C,D_SPACE29*%
X179387500Y-109412500D03*
X179387500Y-106612500D03*
%TD*%
D27*
%TO.C,C10*%
X80962500Y-76033750D03*
X80962500Y-76993750D03*
%TD*%
D25*
%TO.C,D_SPACE2*%
X84137500Y-71250000D03*
X84137500Y-68450000D03*
%TD*%
D27*
%TO.C,C8*%
X87312500Y-75406250D03*
X87312500Y-76366250D03*
%TD*%
D26*
%TO.C,LED9*%
X180853750Y-112468750D03*
X180853750Y-111368750D03*
X182683750Y-111368750D03*
X182683750Y-112468750D03*
%TD*%
D25*
%TO.C,D_SPACE20*%
X222250000Y-90362500D03*
X222250000Y-87562500D03*
%TD*%
%TO.C,D_SPACE24*%
X103184605Y-109412500D03*
X103184605Y-106612500D03*
%TD*%
D24*
%TO.C,LED2*%
X108071250Y-75650000D03*
X108071250Y-76750000D03*
X106241250Y-76750000D03*
X106241250Y-75650000D03*
%TD*%
D25*
%TO.C,D_SPACE21*%
X236537500Y-90362500D03*
X236537500Y-87562500D03*
%TD*%
%TO.C,D_SPACE15*%
X127238596Y-90362500D03*
X127238596Y-87562500D03*
%TD*%
%TO.C,D_SPACE26*%
X141285431Y-109412500D03*
X141285431Y-106612500D03*
%TD*%
%TO.C,D_SPACE16*%
X130968750Y-90362500D03*
X130968750Y-87562500D03*
%TD*%
%TO.C,D_SPACE14*%
X107950000Y-90362500D03*
X107950000Y-87562500D03*
%TD*%
D24*
%TO.C,LED4*%
X177127500Y-75650000D03*
X177127500Y-76750000D03*
X175297500Y-76750000D03*
X175297500Y-75650000D03*
%TD*%
D32*
%TO.C,R2*%
X80962500Y-59531250D03*
X79942500Y-59531250D03*
%TD*%
D25*
%TO.C,D_SPACE30*%
X198436670Y-109412500D03*
X198436670Y-106612500D03*
%TD*%
D26*
%TO.C,LED10*%
X132435000Y-112468750D03*
X132435000Y-111368750D03*
X134265000Y-111368750D03*
X134265000Y-112468750D03*
%TD*%
D33*
%TO.C,C1*%
X62872500Y-88106250D03*
X61912500Y-88106250D03*
%TD*%
D25*
%TO.C,D_SPACE4*%
X122237500Y-71250000D03*
X122237500Y-68450000D03*
%TD*%
D30*
%TO.C,C6*%
X64607500Y-88900000D03*
X65567500Y-88900000D03*
%TD*%
D25*
%TO.C,D_SPACE11*%
X255587500Y-71250000D03*
X255587500Y-68450000D03*
%TD*%
D33*
%TO.C,C5*%
X61939993Y-97566251D03*
X60979993Y-97566251D03*
%TD*%
D34*
%TO.C,SW4*%
X62706250Y-72762500D03*
X56506250Y-72762500D03*
X62706250Y-76462500D03*
X56506250Y-76462500D03*
%TD*%
D35*
%TO.C,F2*%
X96837500Y-76806250D03*
X96837500Y-74006250D03*
%TD*%
D36*
%TO.C,U2*%
X83000000Y-76356250D03*
X83000000Y-74456250D03*
X85275000Y-75406250D03*
%TD*%
D32*
%TO.C,R4*%
X154213750Y-96732252D03*
X153193750Y-96732252D03*
%TD*%
D25*
%TO.C,D_SPACE10*%
X236537500Y-71250000D03*
X236537500Y-68450000D03*
%TD*%
D13*
%TO.C,D_SPACE40*%
X228600000Y-112900000D03*
X228600000Y-115700000D03*
%TD*%
D24*
%TO.C,LED3*%
X139027500Y-75650000D03*
X139027500Y-76750000D03*
X137197500Y-76750000D03*
X137197500Y-75650000D03*
%TD*%
D25*
%TO.C,D_SPACE8*%
X198437500Y-71250000D03*
X198437500Y-68450000D03*
%TD*%
D13*
%TO.C,D_SPACE39*%
X207962500Y-112900000D03*
X207962500Y-115700000D03*
%TD*%
D25*
%TO.C,D_SPACE3*%
X103187500Y-71250000D03*
X103187500Y-68450000D03*
%TD*%
%TO.C,D_SPACE27*%
X154781250Y-109412500D03*
X154781250Y-106612500D03*
%TD*%
%TO.C,D_SPACE23*%
X59531250Y-109350000D03*
X59531250Y-106550000D03*
%TD*%
%TO.C,D_SPACE31*%
X217487083Y-109412500D03*
X217487083Y-106612500D03*
%TD*%
%TO.C,D_SPACE7*%
X179387500Y-71250000D03*
X179387500Y-68450000D03*
%TD*%
D37*
%TO.C,R3*%
X97405000Y-59531250D03*
X98425000Y-59531250D03*
%TD*%
D31*
%TO.C,C9*%
X76222801Y-79852608D03*
X76222801Y-78892608D03*
%TD*%
D27*
%TO.C,C3*%
X57656895Y-98318620D03*
X57656895Y-99278620D03*
%TD*%
D38*
%TO.C,J1*%
X87597500Y-60543750D03*
X93377500Y-60543750D03*
D39*
X87237499Y-61988749D03*
X88037499Y-61988749D03*
D40*
X89237499Y-61988749D03*
X90237499Y-61988749D03*
X90737499Y-61988749D03*
X91737499Y-61988749D03*
D39*
X92937499Y-61988749D03*
X93737499Y-61988749D03*
X93737499Y-61988749D03*
X92937499Y-61988749D03*
D40*
X92237499Y-61988749D03*
X91237499Y-61988749D03*
X89737499Y-61988749D03*
X88737499Y-61988749D03*
D39*
X88037499Y-61988749D03*
X87237499Y-61988749D03*
D41*
X86167499Y-56893749D03*
D42*
X86167499Y-61073749D03*
D41*
X94807499Y-56893749D03*
D42*
X94807499Y-61073749D03*
%TD*%
D25*
%TO.C,D_SPACE33*%
X255587500Y-109350000D03*
X255587500Y-106550000D03*
%TD*%
%TO.C,D_SPACE28*%
X160337500Y-109350000D03*
X160337500Y-106550000D03*
%TD*%
D43*
%TO.C,D1*%
X92662499Y-76156249D03*
D44*
X92662499Y-74456249D03*
X94662499Y-74456249D03*
X94662499Y-76356249D03*
%TD*%
D45*
%TO.C,U1*%
X62281250Y-96306250D03*
X61781250Y-96306250D03*
X61281250Y-96306250D03*
X60781250Y-96306250D03*
X60281250Y-96306250D03*
X59781250Y-96306250D03*
X59281250Y-96306250D03*
X58781250Y-96306250D03*
X58281250Y-96306250D03*
X57781250Y-96306250D03*
X57281250Y-96306250D03*
X56781250Y-96306250D03*
D46*
X56093750Y-95618750D03*
X56093750Y-95118750D03*
X56093750Y-94618750D03*
X56093750Y-94118750D03*
X56093750Y-93618750D03*
X56093750Y-93118750D03*
X56093750Y-92618750D03*
X56093750Y-92118750D03*
X56093750Y-91618750D03*
X56093750Y-91118750D03*
X56093750Y-90618750D03*
X56093750Y-90118750D03*
D45*
X56781250Y-89431250D03*
X57281250Y-89431250D03*
X57781250Y-89431250D03*
X58281250Y-89431250D03*
X58781250Y-89431250D03*
X59281250Y-89431250D03*
X59781250Y-89431250D03*
X60281250Y-89431250D03*
X60781250Y-89431250D03*
X61281250Y-89431250D03*
X61781250Y-89431250D03*
X62281250Y-89431250D03*
D46*
X62968750Y-90118750D03*
X62968750Y-90618750D03*
X62968750Y-91118750D03*
X62968750Y-91618750D03*
X62968750Y-92118750D03*
X62968750Y-92618750D03*
X62968750Y-93118750D03*
X62968750Y-93618750D03*
X62968750Y-94118750D03*
X62968750Y-94618750D03*
X62968750Y-95118750D03*
X62968750Y-95618750D03*
D47*
X59531249Y-92868749D03*
%TD*%
D32*
%TO.C,R5*%
X161641250Y-96753750D03*
X160621250Y-96753750D03*
%TD*%
D25*
%TO.C,D_SPACE19*%
X203219613Y-90362500D03*
X203219613Y-87562500D03*
%TD*%
%TO.C,D_SPACE22*%
X255587500Y-90362500D03*
X255587500Y-87562500D03*
%TD*%
D30*
%TO.C,C11*%
X96357500Y-78581250D03*
X97317500Y-78581250D03*
%TD*%
D25*
%TO.C,D_SPACE6*%
X160337500Y-71250000D03*
X160337500Y-68450000D03*
%TD*%
M02*
