%TF.GenerationSoftware,KiCad,Pcbnew,(7.0.0)*%
%TF.CreationDate,2023-11-20T16:18:32+01:00*%
%TF.ProjectId,universal vault,756e6976-6572-4736-916c-207661756c74,rev?*%
%TF.SameCoordinates,Original*%
%TF.FileFunction,Soldermask,Top*%
%TF.FilePolarity,Negative*%
%FSLAX46Y46*%
G04 Gerber Fmt 4.6, Leading zero omitted, Abs format (unit mm)*
G04 Created by KiCad (PCBNEW (7.0.0)) date 2023-11-20 16:18:32*
%MOMM*%
%LPD*%
G01*
G04 APERTURE LIST*
%ADD10C,1.750000*%
%ADD11C,3.987800*%
%ADD12C,3.048000*%
%ADD13C,0.650000*%
%ADD14O,1.000000X1.600000*%
%ADD15O,1.000000X2.100000*%
G04 APERTURE END LIST*
D10*
%TO.C,K_SPACE4*%
X113982500Y-65881250D03*
D11*
X119062500Y-65881250D03*
D10*
X124142500Y-65881250D03*
%TD*%
%TO.C,K_SPACE68*%
X166370000Y-84931250D03*
D11*
X171450000Y-84931250D03*
D10*
X176530000Y-84931250D03*
%TD*%
%TO.C,K_SPACE17*%
X152082500Y-84931250D03*
D11*
X157162500Y-84931250D03*
D10*
X162242500Y-84931250D03*
%TD*%
D12*
%TO.C,S6*%
X147637500Y-130016250D03*
D11*
X147637500Y-114776250D03*
D12*
X109537500Y-130016250D03*
D11*
X109537500Y-114776250D03*
%TD*%
D10*
%TO.C,K_SPACE30*%
X180657500Y-103981250D03*
D11*
X185737500Y-103981250D03*
D10*
X190817500Y-103981250D03*
%TD*%
%TO.C,K_SPACE118*%
X199707500Y-123031250D03*
D11*
X204787500Y-123031250D03*
D10*
X209867500Y-123031250D03*
%TD*%
%TO.C,K_SPACE94*%
X147320000Y-103981250D03*
D11*
X152400000Y-103981250D03*
D10*
X157480000Y-103981250D03*
%TD*%
%TO.C,K_SPACE73*%
X80645000Y-84931250D03*
D11*
X85725000Y-84931250D03*
D10*
X90805000Y-84931250D03*
%TD*%
%TO.C,K_SPACE117*%
X104457500Y-123031250D03*
D11*
X109537500Y-123031250D03*
D10*
X114617500Y-123031250D03*
%TD*%
%TO.C,K_SPACE107*%
X87788750Y-123031250D03*
D11*
X92868750Y-123031250D03*
D10*
X97948750Y-123031250D03*
%TD*%
%TO.C,K_SPACE83*%
X75882500Y-103981250D03*
D11*
X80962500Y-103981250D03*
D10*
X86042500Y-103981250D03*
%TD*%
D12*
%TO.C,S3*%
X188118750Y-130016250D03*
D11*
X188118750Y-114776250D03*
D12*
X164306250Y-130016250D03*
D11*
X164306250Y-114776250D03*
%TD*%
D10*
%TO.C,K_SPACE124*%
X125888750Y-123031250D03*
D11*
X130968750Y-123031250D03*
D10*
X136048750Y-123031250D03*
%TD*%
%TO.C,K_SPACE28*%
X140176250Y-84931250D03*
D11*
X145256250Y-84931250D03*
D10*
X150336250Y-84931250D03*
%TD*%
%TO.C,K_SPACE72*%
X242570000Y-84931250D03*
D11*
X247650000Y-84931250D03*
D10*
X252730000Y-84931250D03*
%TD*%
%TO.C,K_SPACE95*%
X244951250Y-75406250D03*
D11*
X250031250Y-75406250D03*
D10*
X255111250Y-75406250D03*
%TD*%
%TO.C,K_SPACE9*%
X209232500Y-65881250D03*
D11*
X214312500Y-65881250D03*
D10*
X219392500Y-65881250D03*
%TD*%
%TO.C,K_SPACE21*%
X228282500Y-84931250D03*
D11*
X233362500Y-84931250D03*
D10*
X238442500Y-84931250D03*
%TD*%
%TO.C,K_SPACE33*%
X242570000Y-103981250D03*
D11*
X247650000Y-103981250D03*
D10*
X252730000Y-103981250D03*
%TD*%
%TO.C,K_SPACE55*%
X123507500Y-65881250D03*
D11*
X128587500Y-65881250D03*
D10*
X133667500Y-65881250D03*
%TD*%
%TO.C,K_SPACE121*%
X171132500Y-123031250D03*
D11*
X176212500Y-123031250D03*
D10*
X181292500Y-123031250D03*
%TD*%
D12*
%TO.C,S5*%
X190500000Y-130016250D03*
D11*
X190500000Y-114776250D03*
D12*
X166687500Y-130016250D03*
D11*
X166687500Y-114776250D03*
%TD*%
D10*
%TO.C,K_SPACE115*%
X168751250Y-123031250D03*
D11*
X173831250Y-123031250D03*
D10*
X178911250Y-123031250D03*
%TD*%
%TO.C,K_SPACE15*%
X113982500Y-84931250D03*
D11*
X119062500Y-84931250D03*
D10*
X124142500Y-84931250D03*
%TD*%
%TO.C,K_SPACE70*%
X204470000Y-84931250D03*
D11*
X209550000Y-84931250D03*
D10*
X214630000Y-84931250D03*
%TD*%
%TO.C,K_SPACE98*%
X204470000Y-103981250D03*
D11*
X209550000Y-103981250D03*
D10*
X214630000Y-103981250D03*
%TD*%
%TO.C,K_SPACE78*%
X175895000Y-84931250D03*
D11*
X180975000Y-84931250D03*
D10*
X186055000Y-84931250D03*
%TD*%
%TO.C,K_SPACE101*%
X244951250Y-84931250D03*
D11*
X250031250Y-84931250D03*
D10*
X255111250Y-84931250D03*
%TD*%
%TO.C,K_SPACE10*%
X228282500Y-65881250D03*
D11*
X233362500Y-65881250D03*
D10*
X238442500Y-65881250D03*
%TD*%
%TO.C,K_SPACE74*%
X99695000Y-84931250D03*
D11*
X104775000Y-84931250D03*
D10*
X109855000Y-84931250D03*
%TD*%
%TO.C,K_SPACE99*%
X223520000Y-103981250D03*
D11*
X228600000Y-103981250D03*
D10*
X233680000Y-103981250D03*
%TD*%
%TO.C,K_SPACE85*%
X113982500Y-103981250D03*
D11*
X119062500Y-103981250D03*
D10*
X124142500Y-103981250D03*
%TD*%
%TO.C,K_SPACE110*%
X152082500Y-123031250D03*
D11*
X157162500Y-123031250D03*
D10*
X162242500Y-123031250D03*
%TD*%
%TO.C,K_SPACE2*%
X75882500Y-65881250D03*
D11*
X80962500Y-65881250D03*
D10*
X86042500Y-65881250D03*
%TD*%
%TO.C,K_SPACE92*%
X109220000Y-103981250D03*
D11*
X114300000Y-103981250D03*
D10*
X119380000Y-103981250D03*
%TD*%
%TO.C,K_SPACE34*%
X163988750Y-84931250D03*
D11*
X169068750Y-84931250D03*
D10*
X174148750Y-84931250D03*
%TD*%
%TO.C,K_SPACE14*%
X94932500Y-84931250D03*
D11*
X100012500Y-84931250D03*
D10*
X105092500Y-84931250D03*
%TD*%
%TO.C,K_SPACE77*%
X156845000Y-84931250D03*
D11*
X161925000Y-84931250D03*
D10*
X167005000Y-84931250D03*
%TD*%
%TO.C,K_SPACE32*%
X218757500Y-103981250D03*
D11*
X223837500Y-103981250D03*
D10*
X228917500Y-103981250D03*
%TD*%
%TO.C,K_SPACE114*%
X135413750Y-123031250D03*
D11*
X140493750Y-123031250D03*
D10*
X145573750Y-123031250D03*
%TD*%
%TO.C,K_SPACE67*%
X59213750Y-84931250D03*
D11*
X64293750Y-84931250D03*
D10*
X69373750Y-84931250D03*
%TD*%
%TO.C,K_SPACE108*%
X192563750Y-123031250D03*
D11*
X197643750Y-123031250D03*
D10*
X202723750Y-123031250D03*
%TD*%
%TO.C,K_SPACE71*%
X223520000Y-84931250D03*
D11*
X228600000Y-84931250D03*
D10*
X233680000Y-84931250D03*
%TD*%
%TO.C,K_SPACE88*%
X190348750Y-103981250D03*
D11*
X195428750Y-103981250D03*
D10*
X200508750Y-103981250D03*
%TD*%
%TO.C,K_SPACE50*%
X63976250Y-103981250D03*
D11*
X69056250Y-103981250D03*
D10*
X74136250Y-103981250D03*
%TD*%
%TO.C,K_SPACE57*%
X61595000Y-84931250D03*
D11*
X66675000Y-84931250D03*
D10*
X71755000Y-84931250D03*
%TD*%
%TO.C,K_SPACE26*%
X123507500Y-103981250D03*
D11*
X128587500Y-103981250D03*
D10*
X133667500Y-103981250D03*
%TD*%
%TO.C,K_SPACE90*%
X228448750Y-103981250D03*
D11*
X233528750Y-103981250D03*
D10*
X238608750Y-103981250D03*
%TD*%
%TO.C,K_SPACE116*%
X152082500Y-123031250D03*
D11*
X157162500Y-123031250D03*
D10*
X162242500Y-123031250D03*
%TD*%
%TO.C,K_SPACE93*%
X128270000Y-103981250D03*
D11*
X133350000Y-103981250D03*
D10*
X138430000Y-103981250D03*
%TD*%
%TO.C,K_SPACE81*%
X240188750Y-84931250D03*
D11*
X245268750Y-84931250D03*
D10*
X250348750Y-84931250D03*
%TD*%
%TO.C,K_SPACE128*%
X123507500Y-123031250D03*
D11*
X128587500Y-123031250D03*
D10*
X133667500Y-123031250D03*
%TD*%
%TO.C,K_SPACE87*%
X171298750Y-103981250D03*
D11*
X176378750Y-103981250D03*
D10*
X181458750Y-103981250D03*
%TD*%
%TO.C,K_SPACE123*%
X213995000Y-123031250D03*
D11*
X219075000Y-123031250D03*
D10*
X224155000Y-123031250D03*
%TD*%
%TO.C,K_SPACE97*%
X185420000Y-103981250D03*
D11*
X190500000Y-103981250D03*
D10*
X195580000Y-103981250D03*
%TD*%
D12*
%TO.C,S7*%
X204787500Y-130016250D03*
D11*
X204787500Y-114776250D03*
D12*
X166687500Y-130016250D03*
D11*
X166687500Y-114776250D03*
%TD*%
D10*
%TO.C,K_SPACE69*%
X185420000Y-84931250D03*
D11*
X190500000Y-84931250D03*
D10*
X195580000Y-84931250D03*
%TD*%
%TO.C,K_SPACE56*%
X142557500Y-65881250D03*
D11*
X147637500Y-65881250D03*
D10*
X152717500Y-65881250D03*
%TD*%
%TO.C,K_SPACE62*%
X247967500Y-65881250D03*
D11*
X242887500Y-65881250D03*
D10*
X237807500Y-65881250D03*
%TD*%
%TO.C,K_SPACE109*%
X216376250Y-123031250D03*
D11*
X221456250Y-123031250D03*
D10*
X226536250Y-123031250D03*
%TD*%
%TO.C,K_SPACE25*%
X104457500Y-103981250D03*
D11*
X109537500Y-103981250D03*
D10*
X114617500Y-103981250D03*
%TD*%
%TO.C,K_SPACE63*%
X80645000Y-84931250D03*
D11*
X85725000Y-84931250D03*
D10*
X90805000Y-84931250D03*
%TD*%
%TO.C,K_SPACE51*%
X90170000Y-103981250D03*
D11*
X95250000Y-103981250D03*
D10*
X100330000Y-103981250D03*
%TD*%
%TO.C,K_SPACE60*%
X199707500Y-65881250D03*
D11*
X204787500Y-65881250D03*
D10*
X209867500Y-65881250D03*
%TD*%
%TO.C,K_SPACE103*%
X71755000Y-65881250D03*
D11*
X66675000Y-65881250D03*
D10*
X61595000Y-65881250D03*
%TD*%
%TO.C,K_SPACE102*%
X252730000Y-65881250D03*
D11*
X247650000Y-65881250D03*
D10*
X242570000Y-65881250D03*
%TD*%
%TO.C,K_SPACE8*%
X190182500Y-65881250D03*
D11*
X195262500Y-65881250D03*
D10*
X200342500Y-65881250D03*
%TD*%
%TO.C,K_SPACE86*%
X133032500Y-103981250D03*
D11*
X138112500Y-103981250D03*
D10*
X143192500Y-103981250D03*
%TD*%
%TO.C,K_SPACE100*%
X244951250Y-103981250D03*
D11*
X250031250Y-103981250D03*
D10*
X255111250Y-103981250D03*
%TD*%
%TO.C,K_SPACE66*%
X137795000Y-84931250D03*
D11*
X142875000Y-84931250D03*
D10*
X147955000Y-84931250D03*
%TD*%
%TO.C,K_SPACE79*%
X194945000Y-84931250D03*
D11*
X200025000Y-84931250D03*
D10*
X205105000Y-84931250D03*
%TD*%
%TO.C,K_SPACE64*%
X99695000Y-84931250D03*
D11*
X104775000Y-84931250D03*
D10*
X109855000Y-84931250D03*
%TD*%
%TO.C,K_SPACE20*%
X209232500Y-84931250D03*
D11*
X214312500Y-84931250D03*
D10*
X219392500Y-84931250D03*
%TD*%
%TO.C,K_SPACE49*%
X152082500Y-103981250D03*
D11*
X157162500Y-103981250D03*
D10*
X162242500Y-103981250D03*
%TD*%
%TO.C,K_SPACE59*%
X180657500Y-65881250D03*
D11*
X185737500Y-65881250D03*
D10*
X190817500Y-65881250D03*
%TD*%
%TO.C,K_SPACE104*%
X59213750Y-84931250D03*
D11*
X64293750Y-84931250D03*
D10*
X69373750Y-84931250D03*
%TD*%
%TO.C,K_SPACE84*%
X94932500Y-103981250D03*
D11*
X100012500Y-103981250D03*
D10*
X105092500Y-103981250D03*
%TD*%
%TO.C,K_SPACE106*%
X111601250Y-123031250D03*
D11*
X116681250Y-123031250D03*
D10*
X121761250Y-123031250D03*
%TD*%
D12*
%TO.C,S2*%
X150018750Y-130016250D03*
D11*
X150018750Y-114776250D03*
D12*
X126206250Y-130016250D03*
D11*
X126206250Y-114776250D03*
%TD*%
D10*
%TO.C,K_SPACE125*%
X173513750Y-123031250D03*
D11*
X178593750Y-123031250D03*
D10*
X183673750Y-123031250D03*
%TD*%
%TO.C,K_SPACE11*%
X247332500Y-65881250D03*
D11*
X252412500Y-65881250D03*
D10*
X257492500Y-65881250D03*
%TD*%
%TO.C,K_SPACE91*%
X247498750Y-103981250D03*
D11*
X252578750Y-103981250D03*
D10*
X257658750Y-103981250D03*
%TD*%
%TO.C,K_SPACE122*%
X90170000Y-123031250D03*
D11*
X95250000Y-123031250D03*
D10*
X100330000Y-123031250D03*
%TD*%
%TO.C,K_SPACE129*%
X180657500Y-123031250D03*
D11*
X185737500Y-123031250D03*
D10*
X190817500Y-123031250D03*
%TD*%
%TO.C,K_SPACE113*%
X218757500Y-123031250D03*
D11*
X223837500Y-123031250D03*
D10*
X228917500Y-123031250D03*
%TD*%
%TO.C,K_SPACE19*%
X190182500Y-84931250D03*
D11*
X195262500Y-84931250D03*
D10*
X200342500Y-84931250D03*
%TD*%
%TO.C,K_SPACE23*%
X61595000Y-103981250D03*
D11*
X66675000Y-103981250D03*
D10*
X71755000Y-103981250D03*
%TD*%
%TO.C,K_SPACE16*%
X133032500Y-84931250D03*
D11*
X138112500Y-84931250D03*
D10*
X143192500Y-84931250D03*
%TD*%
%TO.C,K_SPACE105*%
X85407500Y-123031250D03*
D11*
X90487500Y-123031250D03*
D10*
X95567500Y-123031250D03*
%TD*%
%TO.C,K_SPACE12*%
X56832500Y-84931250D03*
D11*
X61912500Y-84931250D03*
D10*
X66992500Y-84931250D03*
%TD*%
%TO.C,K_SPACE22*%
X247332500Y-84931250D03*
D11*
X252412500Y-84931250D03*
D10*
X257492500Y-84931250D03*
%TD*%
%TO.C,K_SPACE52*%
X76517500Y-65881250D03*
D11*
X71437500Y-65881250D03*
D10*
X66357500Y-65881250D03*
%TD*%
%TO.C,K_SPACE65*%
X118745000Y-84931250D03*
D11*
X123825000Y-84931250D03*
D10*
X128905000Y-84931250D03*
%TD*%
D12*
%TO.C,S9*%
X176212500Y-130016250D03*
D11*
X176212500Y-114776250D03*
D12*
X138112500Y-130016250D03*
D11*
X138112500Y-114776250D03*
%TD*%
D10*
%TO.C,K_SPACE53*%
X95567500Y-65881250D03*
D11*
X90487500Y-65881250D03*
D10*
X85407500Y-65881250D03*
%TD*%
%TO.C,K_SPACE3*%
X94932500Y-65881250D03*
D11*
X100012500Y-65881250D03*
D10*
X105092500Y-65881250D03*
%TD*%
D12*
%TO.C,S8*%
X204787500Y-130016250D03*
D11*
X204787500Y-114776250D03*
D12*
X109537500Y-130016250D03*
D11*
X109537500Y-114776250D03*
%TD*%
D10*
%TO.C,K_SPACE80*%
X213995000Y-84931250D03*
D11*
X219075000Y-84931250D03*
D10*
X224155000Y-84931250D03*
%TD*%
%TO.C,K_SPACE7*%
X171132500Y-65881250D03*
D11*
X176212500Y-65881250D03*
D10*
X181292500Y-65881250D03*
%TD*%
%TO.C,K_SPACE96*%
X166370000Y-103981250D03*
D11*
X171450000Y-103981250D03*
D10*
X176530000Y-103981250D03*
%TD*%
%TO.C,K_SPACE6*%
X152082500Y-65881250D03*
D11*
X157162500Y-65881250D03*
D10*
X162242500Y-65881250D03*
%TD*%
%TO.C,K_SPACE82*%
X56832500Y-103981250D03*
D11*
X61912500Y-103981250D03*
D10*
X66992500Y-103981250D03*
%TD*%
%TO.C,K_SPACE111*%
X106838750Y-123031250D03*
D11*
X111918750Y-123031250D03*
D10*
X116998750Y-123031250D03*
%TD*%
%TO.C,K_SPACE89*%
X209398750Y-103981250D03*
D11*
X214478750Y-103981250D03*
D10*
X219558750Y-103981250D03*
%TD*%
%TO.C,K_SPACE29*%
X161607500Y-103981250D03*
D11*
X166687500Y-103981250D03*
D10*
X171767500Y-103981250D03*
%TD*%
%TO.C,K_SPACE5*%
X133032500Y-65881250D03*
D11*
X138112500Y-65881250D03*
D10*
X143192500Y-65881250D03*
%TD*%
%TO.C,K_SPACE120*%
X133032500Y-123031250D03*
D11*
X138112500Y-123031250D03*
D10*
X143192500Y-123031250D03*
%TD*%
D12*
%TO.C,S4*%
X142875000Y-130016250D03*
D11*
X142875000Y-114776250D03*
D12*
X119062500Y-130016250D03*
D11*
X119062500Y-114776250D03*
%TD*%
D10*
%TO.C,K_SPACE58*%
X161607500Y-65881250D03*
D11*
X166687500Y-65881250D03*
D10*
X171767500Y-65881250D03*
%TD*%
%TO.C,K_SPACE75*%
X118745000Y-84931250D03*
D11*
X123825000Y-84931250D03*
D10*
X128905000Y-84931250D03*
%TD*%
%TO.C,K_SPACE27*%
X142557500Y-103981250D03*
D11*
X147637500Y-103981250D03*
D10*
X152717500Y-103981250D03*
%TD*%
%TO.C,K_SPACE61*%
X218757500Y-65881250D03*
D11*
X223837500Y-65881250D03*
D10*
X228917500Y-65881250D03*
%TD*%
%TO.C,K_SPACE24*%
X85407500Y-103981250D03*
D11*
X90487500Y-103981250D03*
D10*
X95567500Y-103981250D03*
%TD*%
%TO.C,K_SPACE18*%
X171132500Y-84931250D03*
D11*
X176212500Y-84931250D03*
D10*
X181292500Y-84931250D03*
%TD*%
%TO.C,K_SPACE76*%
X137795000Y-84931250D03*
D11*
X142875000Y-84931250D03*
D10*
X147955000Y-84931250D03*
%TD*%
%TO.C,K_SPACE31*%
X199707500Y-103981250D03*
D11*
X204787500Y-103981250D03*
D10*
X209867500Y-103981250D03*
%TD*%
%TO.C,K_SPACE1*%
X56832500Y-65881250D03*
D11*
X61912500Y-65881250D03*
D10*
X66992500Y-65881250D03*
%TD*%
%TO.C,K_SPACE112*%
X197326250Y-123031250D03*
D11*
X202406250Y-123031250D03*
D10*
X207486250Y-123031250D03*
%TD*%
D12*
%TO.C,S1*%
X243046250Y-63500000D03*
X243046250Y-87312500D03*
D11*
X258286250Y-63500000D03*
X258286250Y-87312500D03*
%TD*%
D10*
%TO.C,K_SPACE54*%
X104457500Y-65881250D03*
D11*
X109537500Y-65881250D03*
D10*
X114617500Y-65881250D03*
%TD*%
%TO.C,K_SPACE13*%
X75882500Y-84931250D03*
D11*
X80962500Y-84931250D03*
D10*
X86042500Y-84931250D03*
%TD*%
D13*
%TO.C,J1*%
X87597500Y-60543750D03*
X93377500Y-60543750D03*
D14*
X86167499Y-56893749D03*
D15*
X86167499Y-61073749D03*
D14*
X94807499Y-56893749D03*
D15*
X94807499Y-61073749D03*
%TD*%
M02*
