M48
; DRILL file {KiCad (7.0.0)} date Mon Nov 20 08:37:51 2023
; FORMAT={-:-/ absolute / inch / decimal}
; #@! TF.CreationDate,2023-11-20T08:37:51+01:00
; #@! TF.GenerationSoftware,Kicad,Pcbnew,(7.0.0)
; #@! TF.FileFunction,NonPlated,1,2,NPTH
FMAT,2
INCH
; #@! TA.AperFunction,NonPlated,NPTH,ComponentDrill
T1C0.0295
%
G90
G05
T1
X5.8964Y-2.8937
X5.8964Y-2.9438
X5.8964Y-2.9937
X5.8964Y-2.9937
X5.8964Y-3.0437
X5.897Y-3.6386
X5.897Y-3.6886
X5.897Y-3.7386
X5.897Y-3.7386
X5.897Y-3.7886
X6.4786Y-2.8937
X6.4786Y-2.9438
X6.4786Y-2.9937
X6.4786Y-3.0437
X6.4792Y-3.6386
X6.4792Y-3.6886
X6.4792Y-3.7386
X6.4792Y-3.7886
X9.5527Y-2.8937
X9.5527Y-2.9438
X9.5527Y-2.9937
X9.5527Y-3.0437
X10.1348Y-2.8937
X10.1348Y-2.9438
X10.1348Y-2.9937
X10.1348Y-3.0437
T0
M30
