%TF.GenerationSoftware,KiCad,Pcbnew,(7.0.0)*%
%TF.CreationDate,2023-11-20T08:37:48+01:00*%
%TF.ProjectId,plate,706c6174-652e-46b6-9963-61645f706362,rev?*%
%TF.SameCoordinates,Original*%
%TF.FileFunction,Legend,Bot*%
%TF.FilePolarity,Positive*%
%FSLAX46Y46*%
G04 Gerber Fmt 4.6, Leading zero omitted, Abs format (unit mm)*
G04 Created by KiCad (PCBNEW (7.0.0)) date 2023-11-20 08:37:48*
%MOMM*%
%LPD*%
G01*
G04 APERTURE LIST*
%ADD10C,0.150000*%
G04 APERTURE END LIST*
D10*
X160893154Y-94206130D02*
X160893154Y-93206130D01*
X160893154Y-93587083D02*
X160797916Y-93539464D01*
X160797916Y-93539464D02*
X160607440Y-93539464D01*
X160607440Y-93539464D02*
X160512202Y-93587083D01*
X160512202Y-93587083D02*
X160464583Y-93634702D01*
X160464583Y-93634702D02*
X160416964Y-93729940D01*
X160416964Y-93729940D02*
X160416964Y-94015654D01*
X160416964Y-94015654D02*
X160464583Y-94110892D01*
X160464583Y-94110892D02*
X160512202Y-94158511D01*
X160512202Y-94158511D02*
X160607440Y-94206130D01*
X160607440Y-94206130D02*
X160797916Y-94206130D01*
X160797916Y-94206130D02*
X160893154Y-94158511D01*
X159988392Y-94206130D02*
X159988392Y-93539464D01*
X159988392Y-93729940D02*
X159940773Y-93634702D01*
X159940773Y-93634702D02*
X159893154Y-93587083D01*
X159893154Y-93587083D02*
X159797916Y-93539464D01*
X159797916Y-93539464D02*
X159702678Y-93539464D01*
X158988392Y-94158511D02*
X159083630Y-94206130D01*
X159083630Y-94206130D02*
X159274106Y-94206130D01*
X159274106Y-94206130D02*
X159369344Y-94158511D01*
X159369344Y-94158511D02*
X159416963Y-94063273D01*
X159416963Y-94063273D02*
X159416963Y-93682321D01*
X159416963Y-93682321D02*
X159369344Y-93587083D01*
X159369344Y-93587083D02*
X159274106Y-93539464D01*
X159274106Y-93539464D02*
X159083630Y-93539464D01*
X159083630Y-93539464D02*
X158988392Y-93587083D01*
X158988392Y-93587083D02*
X158940773Y-93682321D01*
X158940773Y-93682321D02*
X158940773Y-93777559D01*
X158940773Y-93777559D02*
X159416963Y-93872797D01*
X158083630Y-94206130D02*
X158083630Y-93682321D01*
X158083630Y-93682321D02*
X158131249Y-93587083D01*
X158131249Y-93587083D02*
X158226487Y-93539464D01*
X158226487Y-93539464D02*
X158416963Y-93539464D01*
X158416963Y-93539464D02*
X158512201Y-93587083D01*
X158083630Y-94158511D02*
X158178868Y-94206130D01*
X158178868Y-94206130D02*
X158416963Y-94206130D01*
X158416963Y-94206130D02*
X158512201Y-94158511D01*
X158512201Y-94158511D02*
X158559820Y-94063273D01*
X158559820Y-94063273D02*
X158559820Y-93968035D01*
X158559820Y-93968035D02*
X158512201Y-93872797D01*
X158512201Y-93872797D02*
X158416963Y-93825178D01*
X158416963Y-93825178D02*
X158178868Y-93825178D01*
X158178868Y-93825178D02*
X158083630Y-93777559D01*
X157607439Y-94206130D02*
X157607439Y-93206130D01*
X157512201Y-93825178D02*
X157226487Y-94206130D01*
X157226487Y-93539464D02*
X157607439Y-93920416D01*
X156340772Y-93539464D02*
X155959820Y-93539464D01*
X156197915Y-94206130D02*
X156197915Y-93348988D01*
X156197915Y-93348988D02*
X156150296Y-93253750D01*
X156150296Y-93253750D02*
X156055058Y-93206130D01*
X156055058Y-93206130D02*
X155959820Y-93206130D01*
X155483629Y-94206130D02*
X155578867Y-94158511D01*
X155578867Y-94158511D02*
X155626486Y-94110892D01*
X155626486Y-94110892D02*
X155674105Y-94015654D01*
X155674105Y-94015654D02*
X155674105Y-93729940D01*
X155674105Y-93729940D02*
X155626486Y-93634702D01*
X155626486Y-93634702D02*
X155578867Y-93587083D01*
X155578867Y-93587083D02*
X155483629Y-93539464D01*
X155483629Y-93539464D02*
X155340772Y-93539464D01*
X155340772Y-93539464D02*
X155245534Y-93587083D01*
X155245534Y-93587083D02*
X155197915Y-93634702D01*
X155197915Y-93634702D02*
X155150296Y-93729940D01*
X155150296Y-93729940D02*
X155150296Y-94015654D01*
X155150296Y-94015654D02*
X155197915Y-94110892D01*
X155197915Y-94110892D02*
X155245534Y-94158511D01*
X155245534Y-94158511D02*
X155340772Y-94206130D01*
X155340772Y-94206130D02*
X155483629Y-94206130D01*
X154721724Y-94206130D02*
X154721724Y-93539464D01*
X154721724Y-93729940D02*
X154674105Y-93634702D01*
X154674105Y-93634702D02*
X154626486Y-93587083D01*
X154626486Y-93587083D02*
X154531248Y-93539464D01*
X154531248Y-93539464D02*
X154436010Y-93539464D01*
X160893154Y-95826130D02*
X160893154Y-94826130D01*
X160893154Y-95207083D02*
X160797916Y-95159464D01*
X160797916Y-95159464D02*
X160607440Y-95159464D01*
X160607440Y-95159464D02*
X160512202Y-95207083D01*
X160512202Y-95207083D02*
X160464583Y-95254702D01*
X160464583Y-95254702D02*
X160416964Y-95349940D01*
X160416964Y-95349940D02*
X160416964Y-95635654D01*
X160416964Y-95635654D02*
X160464583Y-95730892D01*
X160464583Y-95730892D02*
X160512202Y-95778511D01*
X160512202Y-95778511D02*
X160607440Y-95826130D01*
X160607440Y-95826130D02*
X160797916Y-95826130D01*
X160797916Y-95826130D02*
X160893154Y-95778511D01*
X159845535Y-95826130D02*
X159940773Y-95778511D01*
X159940773Y-95778511D02*
X159988392Y-95730892D01*
X159988392Y-95730892D02*
X160036011Y-95635654D01*
X160036011Y-95635654D02*
X160036011Y-95349940D01*
X160036011Y-95349940D02*
X159988392Y-95254702D01*
X159988392Y-95254702D02*
X159940773Y-95207083D01*
X159940773Y-95207083D02*
X159845535Y-95159464D01*
X159845535Y-95159464D02*
X159702678Y-95159464D01*
X159702678Y-95159464D02*
X159607440Y-95207083D01*
X159607440Y-95207083D02*
X159559821Y-95254702D01*
X159559821Y-95254702D02*
X159512202Y-95349940D01*
X159512202Y-95349940D02*
X159512202Y-95635654D01*
X159512202Y-95635654D02*
X159559821Y-95730892D01*
X159559821Y-95730892D02*
X159607440Y-95778511D01*
X159607440Y-95778511D02*
X159702678Y-95826130D01*
X159702678Y-95826130D02*
X159845535Y-95826130D01*
X159226487Y-95159464D02*
X158845535Y-95159464D01*
X159083630Y-94826130D02*
X159083630Y-95683273D01*
X159083630Y-95683273D02*
X159036011Y-95778511D01*
X159036011Y-95778511D02*
X158940773Y-95826130D01*
X158940773Y-95826130D02*
X158845535Y-95826130D01*
X158655058Y-95159464D02*
X158274106Y-95159464D01*
X158512201Y-94826130D02*
X158512201Y-95683273D01*
X158512201Y-95683273D02*
X158464582Y-95778511D01*
X158464582Y-95778511D02*
X158369344Y-95826130D01*
X158369344Y-95826130D02*
X158274106Y-95826130D01*
X157797915Y-95826130D02*
X157893153Y-95778511D01*
X157893153Y-95778511D02*
X157940772Y-95730892D01*
X157940772Y-95730892D02*
X157988391Y-95635654D01*
X157988391Y-95635654D02*
X157988391Y-95349940D01*
X157988391Y-95349940D02*
X157940772Y-95254702D01*
X157940772Y-95254702D02*
X157893153Y-95207083D01*
X157893153Y-95207083D02*
X157797915Y-95159464D01*
X157797915Y-95159464D02*
X157655058Y-95159464D01*
X157655058Y-95159464D02*
X157559820Y-95207083D01*
X157559820Y-95207083D02*
X157512201Y-95254702D01*
X157512201Y-95254702D02*
X157464582Y-95349940D01*
X157464582Y-95349940D02*
X157464582Y-95635654D01*
X157464582Y-95635654D02*
X157512201Y-95730892D01*
X157512201Y-95730892D02*
X157559820Y-95778511D01*
X157559820Y-95778511D02*
X157655058Y-95826130D01*
X157655058Y-95826130D02*
X157797915Y-95826130D01*
X157036010Y-95826130D02*
X157036010Y-95159464D01*
X157036010Y-95254702D02*
X156988391Y-95207083D01*
X156988391Y-95207083D02*
X156893153Y-95159464D01*
X156893153Y-95159464D02*
X156750296Y-95159464D01*
X156750296Y-95159464D02*
X156655058Y-95207083D01*
X156655058Y-95207083D02*
X156607439Y-95302321D01*
X156607439Y-95302321D02*
X156607439Y-95826130D01*
X156607439Y-95302321D02*
X156559820Y-95207083D01*
X156559820Y-95207083D02*
X156464582Y-95159464D01*
X156464582Y-95159464D02*
X156321725Y-95159464D01*
X156321725Y-95159464D02*
X156226486Y-95207083D01*
X156226486Y-95207083D02*
X156178867Y-95302321D01*
X156178867Y-95302321D02*
X156178867Y-95826130D01*
X154959820Y-95826130D02*
X155055058Y-95778511D01*
X155055058Y-95778511D02*
X155102677Y-95730892D01*
X155102677Y-95730892D02*
X155150296Y-95635654D01*
X155150296Y-95635654D02*
X155150296Y-95349940D01*
X155150296Y-95349940D02*
X155102677Y-95254702D01*
X155102677Y-95254702D02*
X155055058Y-95207083D01*
X155055058Y-95207083D02*
X154959820Y-95159464D01*
X154959820Y-95159464D02*
X154816963Y-95159464D01*
X154816963Y-95159464D02*
X154721725Y-95207083D01*
X154721725Y-95207083D02*
X154674106Y-95254702D01*
X154674106Y-95254702D02*
X154626487Y-95349940D01*
X154626487Y-95349940D02*
X154626487Y-95635654D01*
X154626487Y-95635654D02*
X154674106Y-95730892D01*
X154674106Y-95730892D02*
X154721725Y-95778511D01*
X154721725Y-95778511D02*
X154816963Y-95826130D01*
X154816963Y-95826130D02*
X154959820Y-95826130D01*
X154055058Y-95826130D02*
X154150296Y-95778511D01*
X154150296Y-95778511D02*
X154197915Y-95683273D01*
X154197915Y-95683273D02*
X154197915Y-94826130D01*
X153293153Y-95778511D02*
X153388391Y-95826130D01*
X153388391Y-95826130D02*
X153578867Y-95826130D01*
X153578867Y-95826130D02*
X153674105Y-95778511D01*
X153674105Y-95778511D02*
X153721724Y-95683273D01*
X153721724Y-95683273D02*
X153721724Y-95302321D01*
X153721724Y-95302321D02*
X153674105Y-95207083D01*
X153674105Y-95207083D02*
X153578867Y-95159464D01*
X153578867Y-95159464D02*
X153388391Y-95159464D01*
X153388391Y-95159464D02*
X153293153Y-95207083D01*
X153293153Y-95207083D02*
X153245534Y-95302321D01*
X153245534Y-95302321D02*
X153245534Y-95397559D01*
X153245534Y-95397559D02*
X153721724Y-95492797D01*
X152388391Y-95826130D02*
X152388391Y-94826130D01*
X152388391Y-95778511D02*
X152483629Y-95826130D01*
X152483629Y-95826130D02*
X152674105Y-95826130D01*
X152674105Y-95826130D02*
X152769343Y-95778511D01*
X152769343Y-95778511D02*
X152816962Y-95730892D01*
X152816962Y-95730892D02*
X152864581Y-95635654D01*
X152864581Y-95635654D02*
X152864581Y-95349940D01*
X152864581Y-95349940D02*
X152816962Y-95254702D01*
X152816962Y-95254702D02*
X152769343Y-95207083D01*
X152769343Y-95207083D02*
X152674105Y-95159464D01*
X152674105Y-95159464D02*
X152483629Y-95159464D01*
X152483629Y-95159464D02*
X152388391Y-95207083D01*
X160099404Y-75156130D02*
X160099404Y-74156130D01*
X160099404Y-74537083D02*
X160004166Y-74489464D01*
X160004166Y-74489464D02*
X159813690Y-74489464D01*
X159813690Y-74489464D02*
X159718452Y-74537083D01*
X159718452Y-74537083D02*
X159670833Y-74584702D01*
X159670833Y-74584702D02*
X159623214Y-74679940D01*
X159623214Y-74679940D02*
X159623214Y-74965654D01*
X159623214Y-74965654D02*
X159670833Y-75060892D01*
X159670833Y-75060892D02*
X159718452Y-75108511D01*
X159718452Y-75108511D02*
X159813690Y-75156130D01*
X159813690Y-75156130D02*
X160004166Y-75156130D01*
X160004166Y-75156130D02*
X160099404Y-75108511D01*
X159194642Y-75156130D02*
X159194642Y-74489464D01*
X159194642Y-74679940D02*
X159147023Y-74584702D01*
X159147023Y-74584702D02*
X159099404Y-74537083D01*
X159099404Y-74537083D02*
X159004166Y-74489464D01*
X159004166Y-74489464D02*
X158908928Y-74489464D01*
X158194642Y-75108511D02*
X158289880Y-75156130D01*
X158289880Y-75156130D02*
X158480356Y-75156130D01*
X158480356Y-75156130D02*
X158575594Y-75108511D01*
X158575594Y-75108511D02*
X158623213Y-75013273D01*
X158623213Y-75013273D02*
X158623213Y-74632321D01*
X158623213Y-74632321D02*
X158575594Y-74537083D01*
X158575594Y-74537083D02*
X158480356Y-74489464D01*
X158480356Y-74489464D02*
X158289880Y-74489464D01*
X158289880Y-74489464D02*
X158194642Y-74537083D01*
X158194642Y-74537083D02*
X158147023Y-74632321D01*
X158147023Y-74632321D02*
X158147023Y-74727559D01*
X158147023Y-74727559D02*
X158623213Y-74822797D01*
X157289880Y-75156130D02*
X157289880Y-74632321D01*
X157289880Y-74632321D02*
X157337499Y-74537083D01*
X157337499Y-74537083D02*
X157432737Y-74489464D01*
X157432737Y-74489464D02*
X157623213Y-74489464D01*
X157623213Y-74489464D02*
X157718451Y-74537083D01*
X157289880Y-75108511D02*
X157385118Y-75156130D01*
X157385118Y-75156130D02*
X157623213Y-75156130D01*
X157623213Y-75156130D02*
X157718451Y-75108511D01*
X157718451Y-75108511D02*
X157766070Y-75013273D01*
X157766070Y-75013273D02*
X157766070Y-74918035D01*
X157766070Y-74918035D02*
X157718451Y-74822797D01*
X157718451Y-74822797D02*
X157623213Y-74775178D01*
X157623213Y-74775178D02*
X157385118Y-74775178D01*
X157385118Y-74775178D02*
X157289880Y-74727559D01*
X156813689Y-75156130D02*
X156813689Y-74156130D01*
X156718451Y-74775178D02*
X156432737Y-75156130D01*
X156432737Y-74489464D02*
X156813689Y-74870416D01*
X155547022Y-74489464D02*
X155166070Y-74489464D01*
X155404165Y-75156130D02*
X155404165Y-74298988D01*
X155404165Y-74298988D02*
X155356546Y-74203750D01*
X155356546Y-74203750D02*
X155261308Y-74156130D01*
X155261308Y-74156130D02*
X155166070Y-74156130D01*
X154689879Y-75156130D02*
X154785117Y-75108511D01*
X154785117Y-75108511D02*
X154832736Y-75060892D01*
X154832736Y-75060892D02*
X154880355Y-74965654D01*
X154880355Y-74965654D02*
X154880355Y-74679940D01*
X154880355Y-74679940D02*
X154832736Y-74584702D01*
X154832736Y-74584702D02*
X154785117Y-74537083D01*
X154785117Y-74537083D02*
X154689879Y-74489464D01*
X154689879Y-74489464D02*
X154547022Y-74489464D01*
X154547022Y-74489464D02*
X154451784Y-74537083D01*
X154451784Y-74537083D02*
X154404165Y-74584702D01*
X154404165Y-74584702D02*
X154356546Y-74679940D01*
X154356546Y-74679940D02*
X154356546Y-74965654D01*
X154356546Y-74965654D02*
X154404165Y-75060892D01*
X154404165Y-75060892D02*
X154451784Y-75108511D01*
X154451784Y-75108511D02*
X154547022Y-75156130D01*
X154547022Y-75156130D02*
X154689879Y-75156130D01*
X153927974Y-75156130D02*
X153927974Y-74489464D01*
X153927974Y-74679940D02*
X153880355Y-74584702D01*
X153880355Y-74584702D02*
X153832736Y-74537083D01*
X153832736Y-74537083D02*
X153737498Y-74489464D01*
X153737498Y-74489464D02*
X153642260Y-74489464D01*
X160242261Y-76109464D02*
X159861309Y-76109464D01*
X160099404Y-75776130D02*
X160099404Y-76633273D01*
X160099404Y-76633273D02*
X160051785Y-76728511D01*
X160051785Y-76728511D02*
X159956547Y-76776130D01*
X159956547Y-76776130D02*
X159861309Y-76776130D01*
X159385118Y-76776130D02*
X159480356Y-76728511D01*
X159480356Y-76728511D02*
X159527975Y-76680892D01*
X159527975Y-76680892D02*
X159575594Y-76585654D01*
X159575594Y-76585654D02*
X159575594Y-76299940D01*
X159575594Y-76299940D02*
X159527975Y-76204702D01*
X159527975Y-76204702D02*
X159480356Y-76157083D01*
X159480356Y-76157083D02*
X159385118Y-76109464D01*
X159385118Y-76109464D02*
X159242261Y-76109464D01*
X159242261Y-76109464D02*
X159147023Y-76157083D01*
X159147023Y-76157083D02*
X159099404Y-76204702D01*
X159099404Y-76204702D02*
X159051785Y-76299940D01*
X159051785Y-76299940D02*
X159051785Y-76585654D01*
X159051785Y-76585654D02*
X159099404Y-76680892D01*
X159099404Y-76680892D02*
X159147023Y-76728511D01*
X159147023Y-76728511D02*
X159242261Y-76776130D01*
X159242261Y-76776130D02*
X159385118Y-76776130D01*
X158623213Y-76109464D02*
X158623213Y-77109464D01*
X158623213Y-76157083D02*
X158527975Y-76109464D01*
X158527975Y-76109464D02*
X158337499Y-76109464D01*
X158337499Y-76109464D02*
X158242261Y-76157083D01*
X158242261Y-76157083D02*
X158194642Y-76204702D01*
X158194642Y-76204702D02*
X158147023Y-76299940D01*
X158147023Y-76299940D02*
X158147023Y-76585654D01*
X158147023Y-76585654D02*
X158194642Y-76680892D01*
X158194642Y-76680892D02*
X158242261Y-76728511D01*
X158242261Y-76728511D02*
X158337499Y-76776130D01*
X158337499Y-76776130D02*
X158527975Y-76776130D01*
X158527975Y-76776130D02*
X158623213Y-76728511D01*
X156975594Y-76776130D02*
X157070832Y-76728511D01*
X157070832Y-76728511D02*
X157118451Y-76680892D01*
X157118451Y-76680892D02*
X157166070Y-76585654D01*
X157166070Y-76585654D02*
X157166070Y-76299940D01*
X157166070Y-76299940D02*
X157118451Y-76204702D01*
X157118451Y-76204702D02*
X157070832Y-76157083D01*
X157070832Y-76157083D02*
X156975594Y-76109464D01*
X156975594Y-76109464D02*
X156832737Y-76109464D01*
X156832737Y-76109464D02*
X156737499Y-76157083D01*
X156737499Y-76157083D02*
X156689880Y-76204702D01*
X156689880Y-76204702D02*
X156642261Y-76299940D01*
X156642261Y-76299940D02*
X156642261Y-76585654D01*
X156642261Y-76585654D02*
X156689880Y-76680892D01*
X156689880Y-76680892D02*
X156737499Y-76728511D01*
X156737499Y-76728511D02*
X156832737Y-76776130D01*
X156832737Y-76776130D02*
X156975594Y-76776130D01*
X156070832Y-76776130D02*
X156166070Y-76728511D01*
X156166070Y-76728511D02*
X156213689Y-76633273D01*
X156213689Y-76633273D02*
X156213689Y-75776130D01*
X155308927Y-76728511D02*
X155404165Y-76776130D01*
X155404165Y-76776130D02*
X155594641Y-76776130D01*
X155594641Y-76776130D02*
X155689879Y-76728511D01*
X155689879Y-76728511D02*
X155737498Y-76633273D01*
X155737498Y-76633273D02*
X155737498Y-76252321D01*
X155737498Y-76252321D02*
X155689879Y-76157083D01*
X155689879Y-76157083D02*
X155594641Y-76109464D01*
X155594641Y-76109464D02*
X155404165Y-76109464D01*
X155404165Y-76109464D02*
X155308927Y-76157083D01*
X155308927Y-76157083D02*
X155261308Y-76252321D01*
X155261308Y-76252321D02*
X155261308Y-76347559D01*
X155261308Y-76347559D02*
X155737498Y-76442797D01*
X154404165Y-76776130D02*
X154404165Y-75776130D01*
X154404165Y-76728511D02*
X154499403Y-76776130D01*
X154499403Y-76776130D02*
X154689879Y-76776130D01*
X154689879Y-76776130D02*
X154785117Y-76728511D01*
X154785117Y-76728511D02*
X154832736Y-76680892D01*
X154832736Y-76680892D02*
X154880355Y-76585654D01*
X154880355Y-76585654D02*
X154880355Y-76299940D01*
X154880355Y-76299940D02*
X154832736Y-76204702D01*
X154832736Y-76204702D02*
X154785117Y-76157083D01*
X154785117Y-76157083D02*
X154689879Y-76109464D01*
X154689879Y-76109464D02*
X154499403Y-76109464D01*
X154499403Y-76109464D02*
X154404165Y-76157083D01*
X254555654Y-75982380D02*
X254555654Y-74982380D01*
X254555654Y-75363333D02*
X254460416Y-75315714D01*
X254460416Y-75315714D02*
X254269940Y-75315714D01*
X254269940Y-75315714D02*
X254174702Y-75363333D01*
X254174702Y-75363333D02*
X254127083Y-75410952D01*
X254127083Y-75410952D02*
X254079464Y-75506190D01*
X254079464Y-75506190D02*
X254079464Y-75791904D01*
X254079464Y-75791904D02*
X254127083Y-75887142D01*
X254127083Y-75887142D02*
X254174702Y-75934761D01*
X254174702Y-75934761D02*
X254269940Y-75982380D01*
X254269940Y-75982380D02*
X254460416Y-75982380D01*
X254460416Y-75982380D02*
X254555654Y-75934761D01*
X253650892Y-75982380D02*
X253650892Y-75315714D01*
X253650892Y-75506190D02*
X253603273Y-75410952D01*
X253603273Y-75410952D02*
X253555654Y-75363333D01*
X253555654Y-75363333D02*
X253460416Y-75315714D01*
X253460416Y-75315714D02*
X253365178Y-75315714D01*
X252650892Y-75934761D02*
X252746130Y-75982380D01*
X252746130Y-75982380D02*
X252936606Y-75982380D01*
X252936606Y-75982380D02*
X253031844Y-75934761D01*
X253031844Y-75934761D02*
X253079463Y-75839523D01*
X253079463Y-75839523D02*
X253079463Y-75458571D01*
X253079463Y-75458571D02*
X253031844Y-75363333D01*
X253031844Y-75363333D02*
X252936606Y-75315714D01*
X252936606Y-75315714D02*
X252746130Y-75315714D01*
X252746130Y-75315714D02*
X252650892Y-75363333D01*
X252650892Y-75363333D02*
X252603273Y-75458571D01*
X252603273Y-75458571D02*
X252603273Y-75553809D01*
X252603273Y-75553809D02*
X253079463Y-75649047D01*
X251746130Y-75982380D02*
X251746130Y-75458571D01*
X251746130Y-75458571D02*
X251793749Y-75363333D01*
X251793749Y-75363333D02*
X251888987Y-75315714D01*
X251888987Y-75315714D02*
X252079463Y-75315714D01*
X252079463Y-75315714D02*
X252174701Y-75363333D01*
X251746130Y-75934761D02*
X251841368Y-75982380D01*
X251841368Y-75982380D02*
X252079463Y-75982380D01*
X252079463Y-75982380D02*
X252174701Y-75934761D01*
X252174701Y-75934761D02*
X252222320Y-75839523D01*
X252222320Y-75839523D02*
X252222320Y-75744285D01*
X252222320Y-75744285D02*
X252174701Y-75649047D01*
X252174701Y-75649047D02*
X252079463Y-75601428D01*
X252079463Y-75601428D02*
X251841368Y-75601428D01*
X251841368Y-75601428D02*
X251746130Y-75553809D01*
X251269939Y-75982380D02*
X251269939Y-74982380D01*
X251174701Y-75601428D02*
X250888987Y-75982380D01*
X250888987Y-75315714D02*
X251269939Y-75696666D01*
X250003272Y-75315714D02*
X249622320Y-75315714D01*
X249860415Y-75982380D02*
X249860415Y-75125238D01*
X249860415Y-75125238D02*
X249812796Y-75030000D01*
X249812796Y-75030000D02*
X249717558Y-74982380D01*
X249717558Y-74982380D02*
X249622320Y-74982380D01*
X249146129Y-75982380D02*
X249241367Y-75934761D01*
X249241367Y-75934761D02*
X249288986Y-75887142D01*
X249288986Y-75887142D02*
X249336605Y-75791904D01*
X249336605Y-75791904D02*
X249336605Y-75506190D01*
X249336605Y-75506190D02*
X249288986Y-75410952D01*
X249288986Y-75410952D02*
X249241367Y-75363333D01*
X249241367Y-75363333D02*
X249146129Y-75315714D01*
X249146129Y-75315714D02*
X249003272Y-75315714D01*
X249003272Y-75315714D02*
X248908034Y-75363333D01*
X248908034Y-75363333D02*
X248860415Y-75410952D01*
X248860415Y-75410952D02*
X248812796Y-75506190D01*
X248812796Y-75506190D02*
X248812796Y-75791904D01*
X248812796Y-75791904D02*
X248860415Y-75887142D01*
X248860415Y-75887142D02*
X248908034Y-75934761D01*
X248908034Y-75934761D02*
X249003272Y-75982380D01*
X249003272Y-75982380D02*
X249146129Y-75982380D01*
X248384224Y-75982380D02*
X248384224Y-75315714D01*
X248384224Y-75506190D02*
X248336605Y-75410952D01*
X248336605Y-75410952D02*
X248288986Y-75363333D01*
X248288986Y-75363333D02*
X248193748Y-75315714D01*
X248193748Y-75315714D02*
X248098510Y-75315714D01*
X247165176Y-75982380D02*
X247165176Y-74982380D01*
X246736605Y-75934761D02*
X246593748Y-75982380D01*
X246593748Y-75982380D02*
X246355653Y-75982380D01*
X246355653Y-75982380D02*
X246260415Y-75934761D01*
X246260415Y-75934761D02*
X246212796Y-75887142D01*
X246212796Y-75887142D02*
X246165177Y-75791904D01*
X246165177Y-75791904D02*
X246165177Y-75696666D01*
X246165177Y-75696666D02*
X246212796Y-75601428D01*
X246212796Y-75601428D02*
X246260415Y-75553809D01*
X246260415Y-75553809D02*
X246355653Y-75506190D01*
X246355653Y-75506190D02*
X246546129Y-75458571D01*
X246546129Y-75458571D02*
X246641367Y-75410952D01*
X246641367Y-75410952D02*
X246688986Y-75363333D01*
X246688986Y-75363333D02*
X246736605Y-75268095D01*
X246736605Y-75268095D02*
X246736605Y-75172857D01*
X246736605Y-75172857D02*
X246688986Y-75077619D01*
X246688986Y-75077619D02*
X246641367Y-75030000D01*
X246641367Y-75030000D02*
X246546129Y-74982380D01*
X246546129Y-74982380D02*
X246308034Y-74982380D01*
X246308034Y-74982380D02*
X246165177Y-75030000D01*
X245546129Y-74982380D02*
X245355653Y-74982380D01*
X245355653Y-74982380D02*
X245260415Y-75030000D01*
X245260415Y-75030000D02*
X245165177Y-75125238D01*
X245165177Y-75125238D02*
X245117558Y-75315714D01*
X245117558Y-75315714D02*
X245117558Y-75649047D01*
X245117558Y-75649047D02*
X245165177Y-75839523D01*
X245165177Y-75839523D02*
X245260415Y-75934761D01*
X245260415Y-75934761D02*
X245355653Y-75982380D01*
X245355653Y-75982380D02*
X245546129Y-75982380D01*
X245546129Y-75982380D02*
X245641367Y-75934761D01*
X245641367Y-75934761D02*
X245736605Y-75839523D01*
X245736605Y-75839523D02*
X245784224Y-75649047D01*
X245784224Y-75649047D02*
X245784224Y-75315714D01*
X245784224Y-75315714D02*
X245736605Y-75125238D01*
X245736605Y-75125238D02*
X245641367Y-75030000D01*
X245641367Y-75030000D02*
X245546129Y-74982380D01*
M02*
