%TF.GenerationSoftware,KiCad,Pcbnew,(7.0.0)*%
%TF.CreationDate,2023-11-20T08:37:48+01:00*%
%TF.ProjectId,plate,706c6174-652e-46b6-9963-61645f706362,rev?*%
%TF.SameCoordinates,Original*%
%TF.FileFunction,Copper,L2,Bot*%
%TF.FilePolarity,Positive*%
%FSLAX46Y46*%
G04 Gerber Fmt 4.6, Leading zero omitted, Abs format (unit mm)*
G04 Created by KiCad (PCBNEW (7.0.0)) date 2023-11-20 08:37:48*
%MOMM*%
%LPD*%
G01*
G04 APERTURE LIST*
G04 APERTURE END LIST*
%TA.AperFunction,Conductor*%
%TO.N,GND*%
G36*
X257237572Y-72884389D02*
G01*
X257241538Y-72891095D01*
X257240320Y-72898790D01*
X257234475Y-72903942D01*
X257121944Y-72948496D01*
X257121941Y-72948497D01*
X257121268Y-72948764D01*
X257120688Y-72949184D01*
X257120683Y-72949188D01*
X256993993Y-73041234D01*
X256993990Y-73041236D01*
X256993413Y-73041656D01*
X256992956Y-73042207D01*
X256992953Y-73042211D01*
X256893138Y-73162867D01*
X256893133Y-73162873D01*
X256892676Y-73163427D01*
X256892369Y-73164078D01*
X256892366Y-73164084D01*
X256825694Y-73305767D01*
X256825691Y-73305774D01*
X256825386Y-73306424D01*
X256825250Y-73307134D01*
X256825250Y-73307136D01*
X256795908Y-73460951D01*
X256795907Y-73460955D01*
X256795773Y-73461662D01*
X256795818Y-73462380D01*
X256795818Y-73462383D01*
X256805650Y-73618667D01*
X256805650Y-73618672D01*
X256805696Y-73619388D01*
X256805917Y-73620068D01*
X256805918Y-73620073D01*
X256854308Y-73769001D01*
X256854310Y-73769006D01*
X256854533Y-73769691D01*
X256939214Y-73903127D01*
X256939742Y-73903623D01*
X256939744Y-73903625D01*
X257000676Y-73960844D01*
X257054418Y-74011312D01*
X257192908Y-74087447D01*
X257345981Y-74126750D01*
X257346700Y-74126750D01*
X257353265Y-74126750D01*
X257361137Y-74129867D01*
X257364742Y-74137528D01*
X257362126Y-74145580D01*
X257354706Y-74149659D01*
X257268931Y-74160494D01*
X257268925Y-74160495D01*
X257268208Y-74160586D01*
X257267535Y-74160852D01*
X257267529Y-74160854D01*
X257121944Y-74218496D01*
X257121941Y-74218497D01*
X257121268Y-74218764D01*
X257120688Y-74219184D01*
X257120683Y-74219188D01*
X256993993Y-74311234D01*
X256993990Y-74311236D01*
X256993413Y-74311656D01*
X256992956Y-74312207D01*
X256992953Y-74312211D01*
X256893138Y-74432867D01*
X256893133Y-74432873D01*
X256892676Y-74433427D01*
X256892369Y-74434078D01*
X256892366Y-74434084D01*
X256825694Y-74575767D01*
X256825691Y-74575774D01*
X256825386Y-74576424D01*
X256825250Y-74577134D01*
X256825250Y-74577136D01*
X256795908Y-74730951D01*
X256795907Y-74730955D01*
X256795773Y-74731662D01*
X256795818Y-74732380D01*
X256795818Y-74732383D01*
X256805650Y-74888667D01*
X256805650Y-74888672D01*
X256805696Y-74889388D01*
X256805917Y-74890068D01*
X256805918Y-74890073D01*
X256854308Y-75039001D01*
X256854310Y-75039006D01*
X256854533Y-75039691D01*
X256939214Y-75173127D01*
X256939742Y-75173623D01*
X256939744Y-75173625D01*
X257000676Y-75230844D01*
X257054418Y-75281312D01*
X257192908Y-75357447D01*
X257345981Y-75396750D01*
X257346700Y-75396750D01*
X257353265Y-75396750D01*
X257361137Y-75399867D01*
X257364742Y-75407528D01*
X257362126Y-75415580D01*
X257354706Y-75419659D01*
X257268931Y-75430494D01*
X257268925Y-75430495D01*
X257268208Y-75430586D01*
X257267535Y-75430852D01*
X257267529Y-75430854D01*
X257121944Y-75488496D01*
X257121941Y-75488497D01*
X257121268Y-75488764D01*
X257120688Y-75489184D01*
X257120683Y-75489188D01*
X256993993Y-75581234D01*
X256993990Y-75581236D01*
X256993413Y-75581656D01*
X256992956Y-75582207D01*
X256992953Y-75582211D01*
X256893138Y-75702867D01*
X256893133Y-75702873D01*
X256892676Y-75703427D01*
X256892369Y-75704078D01*
X256892366Y-75704084D01*
X256825694Y-75845767D01*
X256825691Y-75845774D01*
X256825386Y-75846424D01*
X256825250Y-75847134D01*
X256825250Y-75847136D01*
X256795908Y-76000951D01*
X256795907Y-76000955D01*
X256795773Y-76001662D01*
X256795818Y-76002380D01*
X256795818Y-76002383D01*
X256805650Y-76158667D01*
X256805650Y-76158672D01*
X256805696Y-76159388D01*
X256805917Y-76160068D01*
X256805918Y-76160073D01*
X256854308Y-76309001D01*
X256854310Y-76309006D01*
X256854533Y-76309691D01*
X256939214Y-76443127D01*
X256939742Y-76443623D01*
X256939744Y-76443625D01*
X257000676Y-76500844D01*
X257054418Y-76551312D01*
X257192908Y-76627447D01*
X257345981Y-76666750D01*
X257346700Y-76666750D01*
X257353265Y-76666750D01*
X257361137Y-76669867D01*
X257364742Y-76677528D01*
X257362126Y-76685580D01*
X257354706Y-76689659D01*
X257268931Y-76700494D01*
X257268925Y-76700495D01*
X257268208Y-76700586D01*
X257267535Y-76700852D01*
X257267529Y-76700854D01*
X257121944Y-76758496D01*
X257121941Y-76758497D01*
X257121268Y-76758764D01*
X257120688Y-76759184D01*
X257120683Y-76759188D01*
X256993993Y-76851234D01*
X256993990Y-76851236D01*
X256993413Y-76851656D01*
X256992956Y-76852207D01*
X256992953Y-76852211D01*
X256893138Y-76972867D01*
X256893133Y-76972873D01*
X256892676Y-76973427D01*
X256892369Y-76974078D01*
X256892366Y-76974084D01*
X256825694Y-77115767D01*
X256825691Y-77115774D01*
X256825386Y-77116424D01*
X256825250Y-77117134D01*
X256825250Y-77117136D01*
X256795908Y-77270951D01*
X256795907Y-77270955D01*
X256795773Y-77271662D01*
X256795818Y-77272380D01*
X256795818Y-77272383D01*
X256805650Y-77428667D01*
X256805650Y-77428672D01*
X256805696Y-77429388D01*
X256805917Y-77430068D01*
X256805918Y-77430073D01*
X256854308Y-77579001D01*
X256854310Y-77579006D01*
X256854533Y-77579691D01*
X256939214Y-77713127D01*
X256939742Y-77713623D01*
X256939744Y-77713625D01*
X257000676Y-77770844D01*
X257054418Y-77821312D01*
X257192908Y-77897447D01*
X257193608Y-77897626D01*
X257193609Y-77897627D01*
X257234441Y-77908111D01*
X257241092Y-77912786D01*
X257242990Y-77920691D01*
X257239186Y-77927876D01*
X257231581Y-77930750D01*
X257025099Y-77930750D01*
X242832258Y-77930750D01*
X242824928Y-77928111D01*
X242820962Y-77921405D01*
X242822180Y-77913710D01*
X242828025Y-77908558D01*
X242829154Y-77908111D01*
X242941232Y-77863736D01*
X243069087Y-77770844D01*
X243169824Y-77649073D01*
X243237114Y-77506076D01*
X243266727Y-77350838D01*
X243256804Y-77193112D01*
X243207967Y-77042809D01*
X243123286Y-76909373D01*
X243062415Y-76852211D01*
X243008607Y-76801681D01*
X243008606Y-76801680D01*
X243008082Y-76801188D01*
X243007455Y-76800843D01*
X243007452Y-76800841D01*
X242870226Y-76725401D01*
X242870222Y-76725399D01*
X242869592Y-76725053D01*
X242868895Y-76724874D01*
X242868890Y-76724872D01*
X242717214Y-76685928D01*
X242717210Y-76685927D01*
X242716519Y-76685750D01*
X242709235Y-76685750D01*
X242701363Y-76682633D01*
X242697758Y-76674972D01*
X242700374Y-76666920D01*
X242707794Y-76662841D01*
X242714259Y-76662024D01*
X242794292Y-76651914D01*
X242941232Y-76593736D01*
X243069087Y-76500844D01*
X243169824Y-76379073D01*
X243237114Y-76236076D01*
X243266727Y-76080838D01*
X243256804Y-75923112D01*
X243207967Y-75772809D01*
X243123286Y-75639373D01*
X243062415Y-75582211D01*
X243008607Y-75531681D01*
X243008606Y-75531680D01*
X243008082Y-75531188D01*
X243007455Y-75530843D01*
X243007452Y-75530841D01*
X242870226Y-75455401D01*
X242870222Y-75455399D01*
X242869592Y-75455053D01*
X242868895Y-75454874D01*
X242868890Y-75454872D01*
X242717214Y-75415928D01*
X242717210Y-75415927D01*
X242716519Y-75415750D01*
X242709235Y-75415750D01*
X242701363Y-75412633D01*
X242697758Y-75404972D01*
X242700374Y-75396920D01*
X242707794Y-75392841D01*
X242714259Y-75392024D01*
X242794292Y-75381914D01*
X242941232Y-75323736D01*
X243069087Y-75230844D01*
X243169824Y-75109073D01*
X243237114Y-74966076D01*
X243266727Y-74810838D01*
X243256804Y-74653112D01*
X243207967Y-74502809D01*
X243123286Y-74369373D01*
X243062415Y-74312211D01*
X243008607Y-74261681D01*
X243008606Y-74261680D01*
X243008082Y-74261188D01*
X243007455Y-74260843D01*
X243007452Y-74260841D01*
X242870226Y-74185401D01*
X242870222Y-74185399D01*
X242869592Y-74185053D01*
X242868895Y-74184874D01*
X242868890Y-74184872D01*
X242717214Y-74145928D01*
X242717210Y-74145927D01*
X242716519Y-74145750D01*
X242709235Y-74145750D01*
X242701363Y-74142633D01*
X242697758Y-74134972D01*
X242700374Y-74126920D01*
X242707794Y-74122841D01*
X242714259Y-74122024D01*
X242794292Y-74111914D01*
X242941232Y-74053736D01*
X243069087Y-73960844D01*
X243169824Y-73839073D01*
X243237114Y-73696076D01*
X243266727Y-73540838D01*
X243256804Y-73383112D01*
X243207967Y-73232809D01*
X243123286Y-73099373D01*
X243062415Y-73042211D01*
X243008607Y-72991681D01*
X243008606Y-72991680D01*
X243008082Y-72991188D01*
X243007455Y-72990843D01*
X243007452Y-72990841D01*
X242870226Y-72915401D01*
X242870222Y-72915399D01*
X242869592Y-72915053D01*
X242868895Y-72914874D01*
X242868890Y-72914872D01*
X242828059Y-72904389D01*
X242821408Y-72899714D01*
X242819510Y-72891809D01*
X242823314Y-72884624D01*
X242830919Y-72881750D01*
X257024901Y-72881750D01*
X257025099Y-72881750D01*
X257230242Y-72881750D01*
X257237572Y-72884389D01*
G37*
%TD.AperFunction*%
%TA.AperFunction,Conductor*%
G36*
X242450072Y-72884389D02*
G01*
X242454038Y-72891095D01*
X242452820Y-72898790D01*
X242446975Y-72903942D01*
X242334444Y-72948496D01*
X242334441Y-72948497D01*
X242333768Y-72948764D01*
X242333188Y-72949184D01*
X242333183Y-72949188D01*
X242206493Y-73041234D01*
X242206490Y-73041236D01*
X242205913Y-73041656D01*
X242205456Y-73042207D01*
X242205453Y-73042211D01*
X242105638Y-73162867D01*
X242105633Y-73162873D01*
X242105176Y-73163427D01*
X242104869Y-73164078D01*
X242104866Y-73164084D01*
X242038194Y-73305767D01*
X242038191Y-73305774D01*
X242037886Y-73306424D01*
X242037750Y-73307134D01*
X242037750Y-73307136D01*
X242008408Y-73460951D01*
X242008407Y-73460955D01*
X242008273Y-73461662D01*
X242008318Y-73462380D01*
X242008318Y-73462383D01*
X242018150Y-73618667D01*
X242018150Y-73618672D01*
X242018196Y-73619388D01*
X242018417Y-73620068D01*
X242018418Y-73620073D01*
X242066808Y-73769001D01*
X242066810Y-73769006D01*
X242067033Y-73769691D01*
X242151714Y-73903127D01*
X242152242Y-73903623D01*
X242152244Y-73903625D01*
X242213176Y-73960844D01*
X242266918Y-74011312D01*
X242405408Y-74087447D01*
X242558481Y-74126750D01*
X242559200Y-74126750D01*
X242565765Y-74126750D01*
X242573637Y-74129867D01*
X242577242Y-74137528D01*
X242574626Y-74145580D01*
X242567206Y-74149659D01*
X242481431Y-74160494D01*
X242481425Y-74160495D01*
X242480708Y-74160586D01*
X242480035Y-74160852D01*
X242480029Y-74160854D01*
X242334444Y-74218496D01*
X242334441Y-74218497D01*
X242333768Y-74218764D01*
X242333188Y-74219184D01*
X242333183Y-74219188D01*
X242206493Y-74311234D01*
X242206490Y-74311236D01*
X242205913Y-74311656D01*
X242205456Y-74312207D01*
X242205453Y-74312211D01*
X242105638Y-74432867D01*
X242105633Y-74432873D01*
X242105176Y-74433427D01*
X242104869Y-74434078D01*
X242104866Y-74434084D01*
X242038194Y-74575767D01*
X242038191Y-74575774D01*
X242037886Y-74576424D01*
X242037750Y-74577134D01*
X242037750Y-74577136D01*
X242008408Y-74730951D01*
X242008407Y-74730955D01*
X242008273Y-74731662D01*
X242008318Y-74732380D01*
X242008318Y-74732383D01*
X242018150Y-74888667D01*
X242018150Y-74888672D01*
X242018196Y-74889388D01*
X242018417Y-74890068D01*
X242018418Y-74890073D01*
X242066808Y-75039001D01*
X242066810Y-75039006D01*
X242067033Y-75039691D01*
X242151714Y-75173127D01*
X242152242Y-75173623D01*
X242152244Y-75173625D01*
X242213176Y-75230844D01*
X242266918Y-75281312D01*
X242405408Y-75357447D01*
X242558481Y-75396750D01*
X242559200Y-75396750D01*
X242565765Y-75396750D01*
X242573637Y-75399867D01*
X242577242Y-75407528D01*
X242574626Y-75415580D01*
X242567206Y-75419659D01*
X242481431Y-75430494D01*
X242481425Y-75430495D01*
X242480708Y-75430586D01*
X242480035Y-75430852D01*
X242480029Y-75430854D01*
X242334444Y-75488496D01*
X242334441Y-75488497D01*
X242333768Y-75488764D01*
X242333188Y-75489184D01*
X242333183Y-75489188D01*
X242206493Y-75581234D01*
X242206490Y-75581236D01*
X242205913Y-75581656D01*
X242205456Y-75582207D01*
X242205453Y-75582211D01*
X242105638Y-75702867D01*
X242105633Y-75702873D01*
X242105176Y-75703427D01*
X242104869Y-75704078D01*
X242104866Y-75704084D01*
X242038194Y-75845767D01*
X242038191Y-75845774D01*
X242037886Y-75846424D01*
X242037750Y-75847134D01*
X242037750Y-75847136D01*
X242008408Y-76000951D01*
X242008407Y-76000955D01*
X242008273Y-76001662D01*
X242008318Y-76002380D01*
X242008318Y-76002383D01*
X242018150Y-76158667D01*
X242018150Y-76158672D01*
X242018196Y-76159388D01*
X242018417Y-76160068D01*
X242018418Y-76160073D01*
X242066808Y-76309001D01*
X242066810Y-76309006D01*
X242067033Y-76309691D01*
X242151714Y-76443127D01*
X242152242Y-76443623D01*
X242152244Y-76443625D01*
X242213176Y-76500844D01*
X242266918Y-76551312D01*
X242405408Y-76627447D01*
X242558481Y-76666750D01*
X242559200Y-76666750D01*
X242565765Y-76666750D01*
X242573637Y-76669867D01*
X242577242Y-76677528D01*
X242574626Y-76685580D01*
X242567206Y-76689659D01*
X242481431Y-76700494D01*
X242481425Y-76700495D01*
X242480708Y-76700586D01*
X242480035Y-76700852D01*
X242480029Y-76700854D01*
X242334444Y-76758496D01*
X242334441Y-76758497D01*
X242333768Y-76758764D01*
X242333188Y-76759184D01*
X242333183Y-76759188D01*
X242206493Y-76851234D01*
X242206490Y-76851236D01*
X242205913Y-76851656D01*
X242205456Y-76852207D01*
X242205453Y-76852211D01*
X242105638Y-76972867D01*
X242105633Y-76972873D01*
X242105176Y-76973427D01*
X242104869Y-76974078D01*
X242104866Y-76974084D01*
X242038194Y-77115767D01*
X242038191Y-77115774D01*
X242037886Y-77116424D01*
X242037750Y-77117134D01*
X242037750Y-77117136D01*
X242008408Y-77270951D01*
X242008407Y-77270955D01*
X242008273Y-77271662D01*
X242008318Y-77272380D01*
X242008318Y-77272383D01*
X242018150Y-77428667D01*
X242018150Y-77428672D01*
X242018196Y-77429388D01*
X242018417Y-77430068D01*
X242018418Y-77430073D01*
X242066808Y-77579001D01*
X242066810Y-77579006D01*
X242067033Y-77579691D01*
X242151714Y-77713127D01*
X242152242Y-77713623D01*
X242152244Y-77713625D01*
X242213176Y-77770844D01*
X242266918Y-77821312D01*
X242405408Y-77897447D01*
X242406108Y-77897626D01*
X242406109Y-77897627D01*
X242446941Y-77908111D01*
X242453592Y-77912786D01*
X242455490Y-77920691D01*
X242451686Y-77927876D01*
X242444081Y-77930750D01*
X240643849Y-77930750D01*
X240356349Y-77930750D01*
X238262599Y-77930750D01*
X235593849Y-77930750D01*
X226356349Y-77930750D01*
X226068849Y-77930750D01*
X221593849Y-77930750D01*
X221306349Y-77930750D01*
X216543849Y-77930750D01*
X212068849Y-77930750D01*
X207306349Y-77930750D01*
X207018849Y-77930750D01*
X202543849Y-77930750D01*
X202256349Y-77930750D01*
X197493849Y-77930750D01*
X193018849Y-77930750D01*
X188256349Y-77930750D01*
X187968849Y-77930750D01*
X183493849Y-77930750D01*
X183206349Y-77930750D01*
X178443849Y-77930750D01*
X173968849Y-77930750D01*
X169206349Y-77930750D01*
X168918849Y-77930750D01*
X164751008Y-77930750D01*
X164743678Y-77928111D01*
X164739712Y-77921405D01*
X164740930Y-77913710D01*
X164746775Y-77908558D01*
X164747904Y-77908111D01*
X164859982Y-77863736D01*
X164987837Y-77770844D01*
X165088574Y-77649073D01*
X165155864Y-77506076D01*
X165185477Y-77350838D01*
X165175554Y-77193112D01*
X165126717Y-77042809D01*
X165042036Y-76909373D01*
X164981165Y-76852211D01*
X164927357Y-76801681D01*
X164927356Y-76801680D01*
X164926832Y-76801188D01*
X164926205Y-76800843D01*
X164926202Y-76800841D01*
X164788976Y-76725401D01*
X164788972Y-76725399D01*
X164788342Y-76725053D01*
X164787645Y-76724874D01*
X164787640Y-76724872D01*
X164635964Y-76685928D01*
X164635960Y-76685927D01*
X164635269Y-76685750D01*
X164627985Y-76685750D01*
X164620113Y-76682633D01*
X164616508Y-76674972D01*
X164619124Y-76666920D01*
X164626544Y-76662841D01*
X164633009Y-76662024D01*
X164713042Y-76651914D01*
X164859982Y-76593736D01*
X164987837Y-76500844D01*
X165088574Y-76379073D01*
X165155864Y-76236076D01*
X165185477Y-76080838D01*
X165175554Y-75923112D01*
X165126717Y-75772809D01*
X165042036Y-75639373D01*
X164981165Y-75582211D01*
X164927357Y-75531681D01*
X164927356Y-75531680D01*
X164926832Y-75531188D01*
X164926205Y-75530843D01*
X164926202Y-75530841D01*
X164788976Y-75455401D01*
X164788972Y-75455399D01*
X164788342Y-75455053D01*
X164787645Y-75454874D01*
X164787640Y-75454872D01*
X164635964Y-75415928D01*
X164635960Y-75415927D01*
X164635269Y-75415750D01*
X164627985Y-75415750D01*
X164620113Y-75412633D01*
X164616508Y-75404972D01*
X164619124Y-75396920D01*
X164626544Y-75392841D01*
X164633009Y-75392024D01*
X164713042Y-75381914D01*
X164859982Y-75323736D01*
X164987837Y-75230844D01*
X165088574Y-75109073D01*
X165155864Y-74966076D01*
X165185477Y-74810838D01*
X165175554Y-74653112D01*
X165126717Y-74502809D01*
X165042036Y-74369373D01*
X164981165Y-74312211D01*
X164927357Y-74261681D01*
X164927356Y-74261680D01*
X164926832Y-74261188D01*
X164926205Y-74260843D01*
X164926202Y-74260841D01*
X164788976Y-74185401D01*
X164788972Y-74185399D01*
X164788342Y-74185053D01*
X164787645Y-74184874D01*
X164787640Y-74184872D01*
X164635964Y-74145928D01*
X164635960Y-74145927D01*
X164635269Y-74145750D01*
X164627985Y-74145750D01*
X164620113Y-74142633D01*
X164616508Y-74134972D01*
X164619124Y-74126920D01*
X164626544Y-74122841D01*
X164633009Y-74122024D01*
X164713042Y-74111914D01*
X164859982Y-74053736D01*
X164987837Y-73960844D01*
X165088574Y-73839073D01*
X165155864Y-73696076D01*
X165185477Y-73540838D01*
X165175554Y-73383112D01*
X165126717Y-73232809D01*
X165042036Y-73099373D01*
X164981165Y-73042211D01*
X164927357Y-72991681D01*
X164927356Y-72991680D01*
X164926832Y-72991188D01*
X164926205Y-72990843D01*
X164926202Y-72990841D01*
X164788976Y-72915401D01*
X164788972Y-72915399D01*
X164788342Y-72915053D01*
X164787645Y-72914874D01*
X164787640Y-72914872D01*
X164746809Y-72904389D01*
X164740158Y-72899714D01*
X164738260Y-72891809D01*
X164742064Y-72884624D01*
X164749669Y-72881750D01*
X169206151Y-72881750D01*
X169206349Y-72881750D01*
X173681151Y-72881750D01*
X173681349Y-72881750D01*
X178731151Y-72881750D01*
X178731349Y-72881750D01*
X183206151Y-72881750D01*
X183206349Y-72881750D01*
X188256151Y-72881750D01*
X188256349Y-72881750D01*
X192731151Y-72881750D01*
X192731349Y-72881750D01*
X197781151Y-72881750D01*
X197781349Y-72881750D01*
X202256151Y-72881750D01*
X202256349Y-72881750D01*
X207306151Y-72881750D01*
X207306349Y-72881750D01*
X211781151Y-72881750D01*
X211781349Y-72881750D01*
X216831151Y-72881750D01*
X216831349Y-72881750D01*
X221306151Y-72881750D01*
X221306349Y-72881750D01*
X226356151Y-72881750D01*
X226356349Y-72881750D01*
X230831151Y-72881750D01*
X230831349Y-72881750D01*
X235881151Y-72881750D01*
X235881349Y-72881750D01*
X240356151Y-72881750D01*
X240356349Y-72881750D01*
X240643651Y-72881750D01*
X240643849Y-72881750D01*
X242442742Y-72881750D01*
X242450072Y-72884389D01*
G37*
%TD.AperFunction*%
%TA.AperFunction,Conductor*%
G36*
X164368822Y-72884389D02*
G01*
X164372788Y-72891095D01*
X164371570Y-72898790D01*
X164365725Y-72903942D01*
X164253194Y-72948496D01*
X164253191Y-72948497D01*
X164252518Y-72948764D01*
X164251938Y-72949184D01*
X164251933Y-72949188D01*
X164125243Y-73041234D01*
X164125240Y-73041236D01*
X164124663Y-73041656D01*
X164124206Y-73042207D01*
X164124203Y-73042211D01*
X164024388Y-73162867D01*
X164024383Y-73162873D01*
X164023926Y-73163427D01*
X164023619Y-73164078D01*
X164023616Y-73164084D01*
X163956944Y-73305767D01*
X163956941Y-73305774D01*
X163956636Y-73306424D01*
X163956500Y-73307134D01*
X163956500Y-73307136D01*
X163927158Y-73460951D01*
X163927157Y-73460955D01*
X163927023Y-73461662D01*
X163927068Y-73462380D01*
X163927068Y-73462383D01*
X163936900Y-73618667D01*
X163936900Y-73618672D01*
X163936946Y-73619388D01*
X163937167Y-73620068D01*
X163937168Y-73620073D01*
X163985558Y-73769001D01*
X163985560Y-73769006D01*
X163985783Y-73769691D01*
X164070464Y-73903127D01*
X164070992Y-73903623D01*
X164070994Y-73903625D01*
X164131926Y-73960844D01*
X164185668Y-74011312D01*
X164324158Y-74087447D01*
X164477231Y-74126750D01*
X164477950Y-74126750D01*
X164484515Y-74126750D01*
X164492387Y-74129867D01*
X164495992Y-74137528D01*
X164493376Y-74145580D01*
X164485956Y-74149659D01*
X164400181Y-74160494D01*
X164400175Y-74160495D01*
X164399458Y-74160586D01*
X164398785Y-74160852D01*
X164398779Y-74160854D01*
X164253194Y-74218496D01*
X164253191Y-74218497D01*
X164252518Y-74218764D01*
X164251938Y-74219184D01*
X164251933Y-74219188D01*
X164125243Y-74311234D01*
X164125240Y-74311236D01*
X164124663Y-74311656D01*
X164124206Y-74312207D01*
X164124203Y-74312211D01*
X164024388Y-74432867D01*
X164024383Y-74432873D01*
X164023926Y-74433427D01*
X164023619Y-74434078D01*
X164023616Y-74434084D01*
X163956944Y-74575767D01*
X163956941Y-74575774D01*
X163956636Y-74576424D01*
X163956500Y-74577134D01*
X163956500Y-74577136D01*
X163927158Y-74730951D01*
X163927157Y-74730955D01*
X163927023Y-74731662D01*
X163927068Y-74732380D01*
X163927068Y-74732383D01*
X163936900Y-74888667D01*
X163936900Y-74888672D01*
X163936946Y-74889388D01*
X163937167Y-74890068D01*
X163937168Y-74890073D01*
X163985558Y-75039001D01*
X163985560Y-75039006D01*
X163985783Y-75039691D01*
X164070464Y-75173127D01*
X164070992Y-75173623D01*
X164070994Y-75173625D01*
X164131926Y-75230844D01*
X164185668Y-75281312D01*
X164324158Y-75357447D01*
X164477231Y-75396750D01*
X164477950Y-75396750D01*
X164484515Y-75396750D01*
X164492387Y-75399867D01*
X164495992Y-75407528D01*
X164493376Y-75415580D01*
X164485956Y-75419659D01*
X164400181Y-75430494D01*
X164400175Y-75430495D01*
X164399458Y-75430586D01*
X164398785Y-75430852D01*
X164398779Y-75430854D01*
X164253194Y-75488496D01*
X164253191Y-75488497D01*
X164252518Y-75488764D01*
X164251938Y-75489184D01*
X164251933Y-75489188D01*
X164125243Y-75581234D01*
X164125240Y-75581236D01*
X164124663Y-75581656D01*
X164124206Y-75582207D01*
X164124203Y-75582211D01*
X164024388Y-75702867D01*
X164024383Y-75702873D01*
X164023926Y-75703427D01*
X164023619Y-75704078D01*
X164023616Y-75704084D01*
X163956944Y-75845767D01*
X163956941Y-75845774D01*
X163956636Y-75846424D01*
X163956500Y-75847134D01*
X163956500Y-75847136D01*
X163927158Y-76000951D01*
X163927157Y-76000955D01*
X163927023Y-76001662D01*
X163927068Y-76002380D01*
X163927068Y-76002383D01*
X163936900Y-76158667D01*
X163936900Y-76158672D01*
X163936946Y-76159388D01*
X163937167Y-76160068D01*
X163937168Y-76160073D01*
X163985558Y-76309001D01*
X163985560Y-76309006D01*
X163985783Y-76309691D01*
X164070464Y-76443127D01*
X164070992Y-76443623D01*
X164070994Y-76443625D01*
X164131926Y-76500844D01*
X164185668Y-76551312D01*
X164324158Y-76627447D01*
X164477231Y-76666750D01*
X164477950Y-76666750D01*
X164484515Y-76666750D01*
X164492387Y-76669867D01*
X164495992Y-76677528D01*
X164493376Y-76685580D01*
X164485956Y-76689659D01*
X164400181Y-76700494D01*
X164400175Y-76700495D01*
X164399458Y-76700586D01*
X164398785Y-76700852D01*
X164398779Y-76700854D01*
X164253194Y-76758496D01*
X164253191Y-76758497D01*
X164252518Y-76758764D01*
X164251938Y-76759184D01*
X164251933Y-76759188D01*
X164125243Y-76851234D01*
X164125240Y-76851236D01*
X164124663Y-76851656D01*
X164124206Y-76852207D01*
X164124203Y-76852211D01*
X164024388Y-76972867D01*
X164024383Y-76972873D01*
X164023926Y-76973427D01*
X164023619Y-76974078D01*
X164023616Y-76974084D01*
X163956944Y-77115767D01*
X163956941Y-77115774D01*
X163956636Y-77116424D01*
X163956500Y-77117134D01*
X163956500Y-77117136D01*
X163927158Y-77270951D01*
X163927157Y-77270955D01*
X163927023Y-77271662D01*
X163927068Y-77272380D01*
X163927068Y-77272383D01*
X163936900Y-77428667D01*
X163936900Y-77428672D01*
X163936946Y-77429388D01*
X163937167Y-77430068D01*
X163937168Y-77430073D01*
X163985558Y-77579001D01*
X163985560Y-77579006D01*
X163985783Y-77579691D01*
X164070464Y-77713127D01*
X164070992Y-77713623D01*
X164070994Y-77713625D01*
X164131926Y-77770844D01*
X164185668Y-77821312D01*
X164324158Y-77897447D01*
X164324858Y-77897626D01*
X164324859Y-77897627D01*
X164365691Y-77908111D01*
X164372342Y-77912786D01*
X164374240Y-77920691D01*
X164370436Y-77927876D01*
X164362831Y-77930750D01*
X164156349Y-77930750D01*
X154918849Y-77930750D01*
X150156349Y-77930750D01*
X149963508Y-77930750D01*
X149956178Y-77928111D01*
X149952212Y-77921405D01*
X149953430Y-77913710D01*
X149959275Y-77908558D01*
X149960404Y-77908111D01*
X150072482Y-77863736D01*
X150200337Y-77770844D01*
X150301074Y-77649073D01*
X150368364Y-77506076D01*
X150397977Y-77350838D01*
X150388054Y-77193112D01*
X150339217Y-77042809D01*
X150254536Y-76909373D01*
X150193665Y-76852211D01*
X150139857Y-76801681D01*
X150139856Y-76801680D01*
X150139332Y-76801188D01*
X150138705Y-76800843D01*
X150138702Y-76800841D01*
X150001476Y-76725401D01*
X150001472Y-76725399D01*
X150000842Y-76725053D01*
X150000145Y-76724874D01*
X150000140Y-76724872D01*
X149848464Y-76685928D01*
X149848460Y-76685927D01*
X149847769Y-76685750D01*
X149840485Y-76685750D01*
X149832613Y-76682633D01*
X149829008Y-76674972D01*
X149831624Y-76666920D01*
X149839044Y-76662841D01*
X149845509Y-76662024D01*
X149925542Y-76651914D01*
X150072482Y-76593736D01*
X150200337Y-76500844D01*
X150301074Y-76379073D01*
X150368364Y-76236076D01*
X150397977Y-76080838D01*
X150388054Y-75923112D01*
X150339217Y-75772809D01*
X150254536Y-75639373D01*
X150193665Y-75582211D01*
X150139857Y-75531681D01*
X150139856Y-75531680D01*
X150139332Y-75531188D01*
X150138705Y-75530843D01*
X150138702Y-75530841D01*
X150001476Y-75455401D01*
X150001472Y-75455399D01*
X150000842Y-75455053D01*
X150000145Y-75454874D01*
X150000140Y-75454872D01*
X149848464Y-75415928D01*
X149848460Y-75415927D01*
X149847769Y-75415750D01*
X149840485Y-75415750D01*
X149832613Y-75412633D01*
X149829008Y-75404972D01*
X149831624Y-75396920D01*
X149839044Y-75392841D01*
X149845509Y-75392024D01*
X149925542Y-75381914D01*
X150072482Y-75323736D01*
X150200337Y-75230844D01*
X150301074Y-75109073D01*
X150368364Y-74966076D01*
X150397977Y-74810838D01*
X150388054Y-74653112D01*
X150339217Y-74502809D01*
X150254536Y-74369373D01*
X150193665Y-74312211D01*
X150139857Y-74261681D01*
X150139856Y-74261680D01*
X150139332Y-74261188D01*
X150138705Y-74260843D01*
X150138702Y-74260841D01*
X150001476Y-74185401D01*
X150001472Y-74185399D01*
X150000842Y-74185053D01*
X150000145Y-74184874D01*
X150000140Y-74184872D01*
X149848464Y-74145928D01*
X149848460Y-74145927D01*
X149847769Y-74145750D01*
X149840485Y-74145750D01*
X149832613Y-74142633D01*
X149829008Y-74134972D01*
X149831624Y-74126920D01*
X149839044Y-74122841D01*
X149845509Y-74122024D01*
X149925542Y-74111914D01*
X150072482Y-74053736D01*
X150200337Y-73960844D01*
X150301074Y-73839073D01*
X150368364Y-73696076D01*
X150397977Y-73540838D01*
X150388054Y-73383112D01*
X150339217Y-73232809D01*
X150254536Y-73099373D01*
X150193665Y-73042211D01*
X150139857Y-72991681D01*
X150139856Y-72991680D01*
X150139332Y-72991188D01*
X150138705Y-72990843D01*
X150138702Y-72990841D01*
X150001476Y-72915401D01*
X150001472Y-72915399D01*
X150000842Y-72915053D01*
X150000145Y-72914874D01*
X150000140Y-72914872D01*
X149959309Y-72904389D01*
X149952658Y-72899714D01*
X149950760Y-72891809D01*
X149954564Y-72884624D01*
X149962169Y-72881750D01*
X150156151Y-72881750D01*
X150156349Y-72881750D01*
X154631151Y-72881750D01*
X154631349Y-72881750D01*
X159681151Y-72881750D01*
X159681349Y-72881750D01*
X164156151Y-72881750D01*
X164156349Y-72881750D01*
X164361492Y-72881750D01*
X164368822Y-72884389D01*
G37*
%TD.AperFunction*%
%TA.AperFunction,Conductor*%
G36*
X54906276Y-55784067D02*
G01*
X54906276Y-55784017D01*
X54906375Y-55784017D01*
X259405875Y-55784017D01*
X259406078Y-55784017D01*
X259406680Y-55784033D01*
X259539592Y-55790997D01*
X259539630Y-55791015D01*
X259539630Y-55791000D01*
X259539788Y-55791007D01*
X259736814Y-55802072D01*
X259737914Y-55802190D01*
X259896209Y-55827260D01*
X259896326Y-55827325D01*
X259896333Y-55827280D01*
X260068443Y-55856521D01*
X260069465Y-55856745D01*
X260228653Y-55899398D01*
X260228826Y-55899446D01*
X260392206Y-55946513D01*
X260393111Y-55946817D01*
X260548704Y-56006543D01*
X260548956Y-56006643D01*
X260704296Y-56070986D01*
X260705089Y-56071352D01*
X260854459Y-56147459D01*
X260854754Y-56147615D01*
X261001087Y-56228490D01*
X261001766Y-56228898D01*
X261142795Y-56320483D01*
X261143094Y-56320686D01*
X261279061Y-56417159D01*
X261279077Y-56417170D01*
X261279645Y-56417601D01*
X261410518Y-56523579D01*
X261410895Y-56523900D01*
X261523321Y-56624369D01*
X261535031Y-56634834D01*
X261535500Y-56635277D01*
X261654615Y-56754391D01*
X261655046Y-56754847D01*
X261765967Y-56878967D01*
X261765972Y-56878972D01*
X261766334Y-56879398D01*
X261872282Y-57010234D01*
X261872724Y-57010816D01*
X261933396Y-57096324D01*
X261969186Y-57146766D01*
X261969430Y-57147125D01*
X262060993Y-57288120D01*
X262061409Y-57288814D01*
X262068561Y-57301754D01*
X262142270Y-57435122D01*
X262142452Y-57435464D01*
X262218534Y-57584782D01*
X262218912Y-57585602D01*
X262283251Y-57740934D01*
X262283362Y-57741214D01*
X262343071Y-57896761D01*
X262343386Y-57897698D01*
X262390449Y-58061063D01*
X262390506Y-58061271D01*
X262433148Y-58220412D01*
X262433378Y-58221462D01*
X262462609Y-58393504D01*
X262462629Y-58393631D01*
X262487705Y-58551956D01*
X262487829Y-58553111D01*
X262498959Y-58751402D01*
X262498961Y-58751444D01*
X262505859Y-58883068D01*
X262505875Y-58883670D01*
X262505875Y-110983220D01*
X262505859Y-110983822D01*
X262498891Y-111116759D01*
X262498889Y-111116802D01*
X262487817Y-111313922D01*
X262487693Y-111315076D01*
X262462620Y-111473378D01*
X262462599Y-111473505D01*
X262433364Y-111645559D01*
X262433135Y-111646609D01*
X262390486Y-111805773D01*
X262390429Y-111805981D01*
X262343371Y-111969319D01*
X262343056Y-111970256D01*
X262283346Y-112125804D01*
X262283235Y-112126084D01*
X262218896Y-112281414D01*
X262218518Y-112282234D01*
X262142432Y-112431556D01*
X262142250Y-112431898D01*
X262061392Y-112578197D01*
X262060972Y-112578897D01*
X261969425Y-112719865D01*
X261969159Y-112720257D01*
X261872702Y-112856198D01*
X261872260Y-112856780D01*
X261766322Y-112987602D01*
X261765960Y-112988028D01*
X261655033Y-113112152D01*
X261654590Y-113112621D01*
X261535492Y-113231718D01*
X261535023Y-113232161D01*
X261410891Y-113343091D01*
X261410465Y-113343453D01*
X261279651Y-113449382D01*
X261279069Y-113449824D01*
X261143123Y-113546282D01*
X261142731Y-113546548D01*
X261001755Y-113638097D01*
X261001055Y-113638517D01*
X260854767Y-113719365D01*
X260854425Y-113719547D01*
X260705096Y-113795633D01*
X260704276Y-113796011D01*
X260548936Y-113860354D01*
X260548656Y-113860465D01*
X260393123Y-113920167D01*
X260392185Y-113920482D01*
X260228808Y-113967548D01*
X260228601Y-113967605D01*
X260069474Y-114010242D01*
X260068424Y-114010472D01*
X259896369Y-114039705D01*
X259896242Y-114039725D01*
X259737910Y-114064801D01*
X259736757Y-114064925D01*
X259546415Y-114075636D01*
X259546371Y-114075638D01*
X259406375Y-114082975D01*
X259406369Y-114082872D01*
X259405717Y-114083017D01*
X235131532Y-114083017D01*
X235131375Y-114082996D01*
X235131375Y-114082975D01*
X235131212Y-114082975D01*
X235037341Y-114082976D01*
X235037328Y-114082976D01*
X235036892Y-114082977D01*
X235036454Y-114083046D01*
X235036446Y-114083047D01*
X234850707Y-114112469D01*
X234850693Y-114112472D01*
X234850253Y-114112542D01*
X234849824Y-114112681D01*
X234849817Y-114112683D01*
X234670965Y-114170799D01*
X234670954Y-114170803D01*
X234670537Y-114170939D01*
X234670142Y-114171140D01*
X234670133Y-114171144D01*
X234502571Y-114256525D01*
X234502559Y-114256531D01*
X234502169Y-114256731D01*
X234501819Y-114256985D01*
X234501808Y-114256992D01*
X234349651Y-114367545D01*
X234349646Y-114367549D01*
X234349294Y-114367805D01*
X234348986Y-114368112D01*
X234348980Y-114368118D01*
X234215995Y-114501108D01*
X234215989Y-114501114D01*
X234215678Y-114501426D01*
X234215417Y-114501784D01*
X234215412Y-114501791D01*
X234159710Y-114578462D01*
X234104609Y-114654305D01*
X234104409Y-114654697D01*
X234104405Y-114654704D01*
X234019027Y-114822274D01*
X234019025Y-114822279D01*
X234018823Y-114822676D01*
X234018684Y-114823102D01*
X234018683Y-114823106D01*
X233960573Y-115001958D01*
X233960571Y-115001965D01*
X233960432Y-115002394D01*
X233960360Y-115002846D01*
X233960360Y-115002848D01*
X233930944Y-115188587D01*
X233930943Y-115188596D01*
X233930874Y-115189034D01*
X233930874Y-115189481D01*
X233930874Y-115189482D01*
X233930875Y-115283517D01*
X233930875Y-130033220D01*
X233930859Y-130033822D01*
X233923891Y-130166759D01*
X233923889Y-130166802D01*
X233912817Y-130363922D01*
X233912693Y-130365076D01*
X233887620Y-130523378D01*
X233887599Y-130523505D01*
X233858364Y-130695559D01*
X233858135Y-130696609D01*
X233815486Y-130855773D01*
X233815429Y-130855981D01*
X233768371Y-131019319D01*
X233768056Y-131020256D01*
X233708346Y-131175804D01*
X233708235Y-131176084D01*
X233643895Y-131331415D01*
X233643517Y-131332235D01*
X233567432Y-131481556D01*
X233567250Y-131481898D01*
X233486392Y-131628197D01*
X233485972Y-131628897D01*
X233394425Y-131769865D01*
X233394159Y-131770257D01*
X233297702Y-131906198D01*
X233297260Y-131906780D01*
X233191322Y-132037602D01*
X233190960Y-132038028D01*
X233080033Y-132162152D01*
X233079590Y-132162621D01*
X232960492Y-132281718D01*
X232960023Y-132282161D01*
X232835891Y-132393091D01*
X232835465Y-132393453D01*
X232704651Y-132499382D01*
X232704069Y-132499824D01*
X232568123Y-132596282D01*
X232567731Y-132596548D01*
X232426755Y-132688097D01*
X232426055Y-132688517D01*
X232279767Y-132769365D01*
X232279425Y-132769547D01*
X232130096Y-132845633D01*
X232129276Y-132846011D01*
X231973936Y-132910354D01*
X231973656Y-132910465D01*
X231818123Y-132970167D01*
X231817185Y-132970482D01*
X231653808Y-133017548D01*
X231653601Y-133017605D01*
X231494474Y-133060242D01*
X231493424Y-133060472D01*
X231321369Y-133089705D01*
X231321242Y-133089725D01*
X231162910Y-133114801D01*
X231161757Y-133114925D01*
X230971415Y-133125636D01*
X230971371Y-133125638D01*
X230831375Y-133132975D01*
X230831369Y-133132872D01*
X230830717Y-133133017D01*
X83481672Y-133133017D01*
X83481070Y-133133001D01*
X83348124Y-133126032D01*
X83348082Y-133126012D01*
X83348082Y-133126030D01*
X83150967Y-133114958D01*
X83149813Y-133114834D01*
X82991511Y-133089761D01*
X82991393Y-133089692D01*
X82991385Y-133089741D01*
X82819332Y-133060507D01*
X82818282Y-133060277D01*
X82659117Y-133017628D01*
X82658909Y-133017571D01*
X82495561Y-132970510D01*
X82494624Y-132970195D01*
X82339085Y-132910488D01*
X82338805Y-132910377D01*
X82183473Y-132846036D01*
X82182653Y-132845658D01*
X82033328Y-132769571D01*
X82032986Y-132769389D01*
X81886689Y-132688533D01*
X81885989Y-132688113D01*
X81790657Y-132626204D01*
X81744991Y-132596548D01*
X81744638Y-132596308D01*
X81608688Y-132499846D01*
X81608106Y-132499404D01*
X81477275Y-132393458D01*
X81476849Y-132393096D01*
X81352734Y-132282180D01*
X81352265Y-132281737D01*
X81233158Y-132162630D01*
X81232715Y-132162161D01*
X81232707Y-132162152D01*
X81121772Y-132038015D01*
X81121450Y-132037636D01*
X81015488Y-131906785D01*
X81015051Y-131906209D01*
X81015043Y-131906198D01*
X80918579Y-131770243D01*
X80918323Y-131769866D01*
X80918322Y-131769865D01*
X80826781Y-131628902D01*
X80826363Y-131628206D01*
X80745507Y-131481909D01*
X80745325Y-131481567D01*
X80669220Y-131332202D01*
X80668869Y-131331440D01*
X80604527Y-131176105D01*
X80604416Y-131175825D01*
X80583358Y-131120970D01*
X80544694Y-131020248D01*
X80544388Y-131019338D01*
X80497319Y-130855960D01*
X80497268Y-130855771D01*
X80454621Y-130696612D01*
X80454391Y-130695562D01*
X80425163Y-130523549D01*
X80400059Y-130365048D01*
X80399941Y-130363948D01*
X80388935Y-130168065D01*
X80381901Y-130033870D01*
X80381890Y-130033669D01*
X80381875Y-130033068D01*
X80381875Y-116477122D01*
X83480873Y-116477122D01*
X83480875Y-116533517D01*
X83480875Y-116534017D01*
X83480875Y-129533616D01*
X83480880Y-129533628D01*
X83480883Y-129533655D01*
X83480884Y-129589262D01*
X83480884Y-129589270D01*
X83480885Y-129589909D01*
X83481027Y-129590533D01*
X83481028Y-129590537D01*
X83505840Y-129699236D01*
X83505841Y-129699241D01*
X83505984Y-129699864D01*
X83506260Y-129700438D01*
X83506263Y-129700445D01*
X83554636Y-129800888D01*
X83554920Y-129801478D01*
X83555323Y-129801983D01*
X83624823Y-129889135D01*
X83625239Y-129889656D01*
X83713415Y-129959976D01*
X83815029Y-130008914D01*
X83924983Y-130034014D01*
X83981275Y-130034016D01*
X83981276Y-130034017D01*
X83981375Y-130034017D01*
X230330875Y-130034017D01*
X230331260Y-130034017D01*
X230331474Y-130034017D01*
X230331540Y-130033989D01*
X230331684Y-130033975D01*
X230387766Y-130033978D01*
X230497720Y-130008887D01*
X230599335Y-129959958D01*
X230687514Y-129889644D01*
X230757835Y-129801471D01*
X230806773Y-129699860D01*
X230831873Y-129589908D01*
X230831875Y-129533517D01*
X230831875Y-129533017D01*
X230831875Y-116533536D01*
X230831879Y-116533517D01*
X230831883Y-116533517D01*
X230831885Y-116477123D01*
X230806790Y-116367163D01*
X230757854Y-116265544D01*
X230687531Y-116177363D01*
X230644420Y-116142984D01*
X230599854Y-116107444D01*
X230599849Y-116107441D01*
X230599349Y-116107042D01*
X230598770Y-116106763D01*
X230598765Y-116106760D01*
X230526047Y-116071744D01*
X230497730Y-116058108D01*
X230496981Y-116057937D01*
X230388398Y-116033157D01*
X230388393Y-116033156D01*
X230387769Y-116033014D01*
X230387122Y-116033014D01*
X230331375Y-116033017D01*
X208782024Y-116033017D01*
X208780737Y-116032945D01*
X208777598Y-116032591D01*
X208755141Y-116030059D01*
X208754928Y-116030033D01*
X208664031Y-116018062D01*
X208661735Y-116017515D01*
X208615303Y-116001267D01*
X208614700Y-116001036D01*
X208550431Y-115974412D01*
X208548713Y-115973525D01*
X208503868Y-115945346D01*
X208502986Y-115944732D01*
X208450561Y-115904504D01*
X208449430Y-115903513D01*
X208411385Y-115865467D01*
X208410393Y-115864336D01*
X208370156Y-115811898D01*
X208369543Y-115811016D01*
X208363550Y-115801478D01*
X208341366Y-115766173D01*
X208340488Y-115764474D01*
X208313848Y-115700162D01*
X208313623Y-115699572D01*
X208297375Y-115653140D01*
X208296834Y-115650864D01*
X208284891Y-115560212D01*
X208281947Y-115534084D01*
X208281875Y-115532797D01*
X208281875Y-114533536D01*
X208281879Y-114533517D01*
X208281883Y-114533517D01*
X208281885Y-114477123D01*
X208256790Y-114367163D01*
X208207854Y-114265544D01*
X208137531Y-114177363D01*
X208129763Y-114171168D01*
X208049854Y-114107444D01*
X208049849Y-114107441D01*
X208049349Y-114107042D01*
X208048770Y-114106763D01*
X208048765Y-114106760D01*
X207976047Y-114071744D01*
X207947730Y-114058108D01*
X207946981Y-114057937D01*
X207838398Y-114033157D01*
X207838393Y-114033156D01*
X207837769Y-114033014D01*
X207837122Y-114033014D01*
X207781375Y-114033017D01*
X201781531Y-114033017D01*
X201781375Y-114032997D01*
X201781375Y-114032975D01*
X201781211Y-114032975D01*
X201725626Y-114032977D01*
X201725617Y-114032977D01*
X201724980Y-114032978D01*
X201724357Y-114033120D01*
X201724350Y-114033121D01*
X201615646Y-114057937D01*
X201615638Y-114057939D01*
X201615019Y-114058081D01*
X201614444Y-114058357D01*
X201614438Y-114058360D01*
X201513983Y-114106743D01*
X201513978Y-114106745D01*
X201513401Y-114107024D01*
X201512898Y-114107424D01*
X201512895Y-114107427D01*
X201425729Y-114176945D01*
X201425724Y-114176949D01*
X201425221Y-114177351D01*
X201424819Y-114177854D01*
X201424815Y-114177859D01*
X201361696Y-114257015D01*
X201354901Y-114265537D01*
X201354621Y-114266118D01*
X201354620Y-114266120D01*
X201306249Y-114366573D01*
X201305967Y-114367159D01*
X201305823Y-114367787D01*
X201305823Y-114367789D01*
X201281016Y-114476493D01*
X201281016Y-114476494D01*
X201280873Y-114477122D01*
X201280873Y-114477767D01*
X201280873Y-114477768D01*
X201280875Y-114533517D01*
X201280875Y-115532868D01*
X201280803Y-115534156D01*
X201277917Y-115559753D01*
X201277891Y-115559966D01*
X201265922Y-115650855D01*
X201265375Y-115653152D01*
X201249125Y-115699588D01*
X201248894Y-115700191D01*
X201222272Y-115764452D01*
X201221385Y-115766170D01*
X201193206Y-115811014D01*
X201192592Y-115811896D01*
X201152358Y-115864326D01*
X201151366Y-115865457D01*
X201113326Y-115903494D01*
X201112195Y-115904486D01*
X201059761Y-115944716D01*
X201058879Y-115945330D01*
X201014036Y-115973504D01*
X201012318Y-115974391D01*
X200948037Y-116001014D01*
X200947434Y-116001244D01*
X200900990Y-116017492D01*
X200898697Y-116018038D01*
X200809596Y-116029792D01*
X200809380Y-116029819D01*
X200781641Y-116032945D01*
X200780353Y-116033017D01*
X194526267Y-116033017D01*
X194524978Y-116032944D01*
X194499383Y-116030056D01*
X194499170Y-116030030D01*
X194408281Y-116018054D01*
X194405984Y-116017507D01*
X194359568Y-116001261D01*
X194358966Y-116001031D01*
X194294680Y-115974399D01*
X194292963Y-115973512D01*
X194248127Y-115945339D01*
X194247244Y-115944726D01*
X194194800Y-115904485D01*
X194193670Y-115903493D01*
X194155630Y-115865456D01*
X194154638Y-115864325D01*
X194114403Y-115811898D01*
X194113789Y-115811016D01*
X194085604Y-115766169D01*
X194084717Y-115764452D01*
X194058083Y-115700176D01*
X194057853Y-115699574D01*
X194041609Y-115653175D01*
X194041061Y-115650875D01*
X194041061Y-115650874D01*
X194028852Y-115558056D01*
X194026198Y-115534542D01*
X194026125Y-115533252D01*
X194026125Y-114533637D01*
X194026125Y-114533418D01*
X194026095Y-114533347D01*
X194026081Y-114533213D01*
X194026075Y-114477130D01*
X194000968Y-114367185D01*
X193952033Y-114265581D01*
X193881720Y-114177410D01*
X193800603Y-114112712D01*
X193794057Y-114107491D01*
X193794055Y-114107490D01*
X193793554Y-114107090D01*
X193792834Y-114106743D01*
X193692542Y-114058428D01*
X193692536Y-114058425D01*
X193691955Y-114058146D01*
X193678326Y-114055032D01*
X193582640Y-114033173D01*
X193582635Y-114033172D01*
X193582012Y-114033030D01*
X193581375Y-114033029D01*
X193581368Y-114033029D01*
X193525724Y-114033017D01*
X185144531Y-114033017D01*
X185144375Y-114032997D01*
X185144375Y-114032975D01*
X185144211Y-114032975D01*
X185088626Y-114032977D01*
X185088617Y-114032977D01*
X185087980Y-114032978D01*
X185087357Y-114033120D01*
X185087350Y-114033121D01*
X184978646Y-114057937D01*
X184978638Y-114057939D01*
X184978019Y-114058081D01*
X184977444Y-114058357D01*
X184977438Y-114058360D01*
X184876983Y-114106743D01*
X184876978Y-114106745D01*
X184876401Y-114107024D01*
X184875898Y-114107424D01*
X184875895Y-114107427D01*
X184788729Y-114176945D01*
X184788724Y-114176949D01*
X184788221Y-114177351D01*
X184787819Y-114177854D01*
X184787815Y-114177859D01*
X184724696Y-114257015D01*
X184717901Y-114265537D01*
X184717621Y-114266118D01*
X184717620Y-114266120D01*
X184669249Y-114366573D01*
X184668967Y-114367159D01*
X184668823Y-114367787D01*
X184668823Y-114367789D01*
X184644016Y-114476493D01*
X184644016Y-114476494D01*
X184643873Y-114477122D01*
X184643873Y-114477767D01*
X184643873Y-114477768D01*
X184643875Y-114533517D01*
X184643875Y-115532868D01*
X184643803Y-115534156D01*
X184640917Y-115559753D01*
X184640891Y-115559966D01*
X184628922Y-115650855D01*
X184628375Y-115653152D01*
X184612125Y-115699588D01*
X184611894Y-115700191D01*
X184585272Y-115764452D01*
X184584385Y-115766170D01*
X184556206Y-115811014D01*
X184555592Y-115811896D01*
X184515358Y-115864326D01*
X184514366Y-115865457D01*
X184476326Y-115903494D01*
X184475195Y-115904486D01*
X184422761Y-115944716D01*
X184421879Y-115945330D01*
X184377036Y-115973504D01*
X184375318Y-115974391D01*
X184311037Y-116001014D01*
X184310434Y-116001244D01*
X184263990Y-116017492D01*
X184261697Y-116018038D01*
X184172596Y-116029792D01*
X184172380Y-116029819D01*
X184144641Y-116032945D01*
X184143353Y-116033017D01*
X180207024Y-116033017D01*
X180205737Y-116032945D01*
X180202598Y-116032591D01*
X180180141Y-116030059D01*
X180179928Y-116030033D01*
X180089031Y-116018062D01*
X180086735Y-116017515D01*
X180040303Y-116001267D01*
X180039700Y-116001036D01*
X179975431Y-115974412D01*
X179973713Y-115973525D01*
X179928868Y-115945346D01*
X179927986Y-115944732D01*
X179875561Y-115904504D01*
X179874430Y-115903513D01*
X179836385Y-115865467D01*
X179835393Y-115864336D01*
X179795156Y-115811898D01*
X179794543Y-115811016D01*
X179788550Y-115801478D01*
X179766366Y-115766173D01*
X179765488Y-115764474D01*
X179738848Y-115700162D01*
X179738623Y-115699572D01*
X179722375Y-115653140D01*
X179721834Y-115650864D01*
X179709891Y-115560212D01*
X179706947Y-115534084D01*
X179706875Y-115532797D01*
X179706875Y-114533536D01*
X179706879Y-114533517D01*
X179706883Y-114533517D01*
X179706885Y-114477123D01*
X179681790Y-114367163D01*
X179632854Y-114265544D01*
X179562531Y-114177363D01*
X179554763Y-114171168D01*
X179474854Y-114107444D01*
X179474849Y-114107441D01*
X179474349Y-114107042D01*
X179473770Y-114106763D01*
X179473765Y-114106760D01*
X179401047Y-114071744D01*
X179372730Y-114058108D01*
X179371981Y-114057937D01*
X179263398Y-114033157D01*
X179263393Y-114033156D01*
X179262769Y-114033014D01*
X179262122Y-114033014D01*
X179206375Y-114033017D01*
X173206531Y-114033017D01*
X173206375Y-114032997D01*
X173206375Y-114032975D01*
X173206211Y-114032975D01*
X173150626Y-114032977D01*
X173150617Y-114032977D01*
X173149980Y-114032978D01*
X173149357Y-114033120D01*
X173149350Y-114033121D01*
X173040646Y-114057937D01*
X173040638Y-114057939D01*
X173040019Y-114058081D01*
X173039444Y-114058357D01*
X173039438Y-114058360D01*
X172938983Y-114106743D01*
X172938978Y-114106745D01*
X172938401Y-114107024D01*
X172937898Y-114107424D01*
X172937895Y-114107427D01*
X172850729Y-114176945D01*
X172850724Y-114176949D01*
X172850221Y-114177351D01*
X172849819Y-114177854D01*
X172849815Y-114177859D01*
X172786696Y-114257015D01*
X172779901Y-114265537D01*
X172779621Y-114266118D01*
X172779620Y-114266120D01*
X172731249Y-114366573D01*
X172730967Y-114367159D01*
X172730823Y-114367787D01*
X172730823Y-114367789D01*
X172706016Y-114476493D01*
X172706016Y-114476494D01*
X172705873Y-114477122D01*
X172705873Y-114477767D01*
X172705873Y-114477768D01*
X172705875Y-114533517D01*
X172705875Y-115532868D01*
X172705803Y-115534156D01*
X172702917Y-115559753D01*
X172702891Y-115559966D01*
X172690922Y-115650855D01*
X172690375Y-115653152D01*
X172674125Y-115699588D01*
X172673894Y-115700191D01*
X172647272Y-115764452D01*
X172646385Y-115766170D01*
X172618206Y-115811014D01*
X172617592Y-115811896D01*
X172577358Y-115864326D01*
X172576366Y-115865457D01*
X172538326Y-115903494D01*
X172537195Y-115904486D01*
X172484761Y-115944716D01*
X172483879Y-115945330D01*
X172439036Y-115973504D01*
X172437318Y-115974391D01*
X172373037Y-116001014D01*
X172372434Y-116001244D01*
X172325990Y-116017492D01*
X172323697Y-116018038D01*
X172234596Y-116029792D01*
X172234380Y-116029819D01*
X172206641Y-116032945D01*
X172205353Y-116033017D01*
X170682024Y-116033017D01*
X170680737Y-116032945D01*
X170677598Y-116032591D01*
X170655141Y-116030059D01*
X170654928Y-116030033D01*
X170564031Y-116018062D01*
X170561735Y-116017515D01*
X170515303Y-116001267D01*
X170514700Y-116001036D01*
X170450431Y-115974412D01*
X170448713Y-115973525D01*
X170403868Y-115945346D01*
X170402986Y-115944732D01*
X170350561Y-115904504D01*
X170349430Y-115903513D01*
X170311385Y-115865467D01*
X170310393Y-115864336D01*
X170270156Y-115811898D01*
X170269543Y-115811016D01*
X170263550Y-115801478D01*
X170241366Y-115766173D01*
X170240488Y-115764474D01*
X170213848Y-115700162D01*
X170213623Y-115699572D01*
X170197375Y-115653140D01*
X170196834Y-115650864D01*
X170184891Y-115560212D01*
X170181947Y-115534084D01*
X170181875Y-115532797D01*
X170181875Y-114533536D01*
X170181879Y-114533517D01*
X170181883Y-114533517D01*
X170181885Y-114477123D01*
X170156790Y-114367163D01*
X170107854Y-114265544D01*
X170037531Y-114177363D01*
X170029763Y-114171168D01*
X169949854Y-114107444D01*
X169949849Y-114107441D01*
X169949349Y-114107042D01*
X169948770Y-114106763D01*
X169948765Y-114106760D01*
X169876047Y-114071744D01*
X169847730Y-114058108D01*
X169846981Y-114057937D01*
X169738398Y-114033157D01*
X169738393Y-114033156D01*
X169737769Y-114033014D01*
X169737122Y-114033014D01*
X169681375Y-114033017D01*
X161268531Y-114033017D01*
X161268375Y-114032997D01*
X161268375Y-114032975D01*
X161268211Y-114032975D01*
X161212626Y-114032977D01*
X161212617Y-114032977D01*
X161211980Y-114032978D01*
X161211357Y-114033120D01*
X161211350Y-114033121D01*
X161102646Y-114057937D01*
X161102638Y-114057939D01*
X161102019Y-114058081D01*
X161101444Y-114058357D01*
X161101438Y-114058360D01*
X161000983Y-114106743D01*
X161000978Y-114106745D01*
X161000401Y-114107024D01*
X160999898Y-114107424D01*
X160999895Y-114107427D01*
X160912729Y-114176945D01*
X160912724Y-114176949D01*
X160912221Y-114177351D01*
X160911819Y-114177854D01*
X160911815Y-114177859D01*
X160848696Y-114257015D01*
X160841901Y-114265537D01*
X160841621Y-114266118D01*
X160841620Y-114266120D01*
X160793249Y-114366573D01*
X160792967Y-114367159D01*
X160792823Y-114367787D01*
X160792823Y-114367789D01*
X160768016Y-114476493D01*
X160768016Y-114476494D01*
X160767873Y-114477122D01*
X160767873Y-114477767D01*
X160767873Y-114477768D01*
X160767875Y-114533517D01*
X160767875Y-115532868D01*
X160767803Y-115534156D01*
X160764917Y-115559753D01*
X160764891Y-115559966D01*
X160752922Y-115650855D01*
X160752375Y-115653152D01*
X160736125Y-115699588D01*
X160735894Y-115700191D01*
X160709272Y-115764452D01*
X160708385Y-115766170D01*
X160680206Y-115811014D01*
X160679592Y-115811896D01*
X160639358Y-115864326D01*
X160638366Y-115865457D01*
X160600326Y-115903494D01*
X160599195Y-115904486D01*
X160546761Y-115944716D01*
X160545879Y-115945330D01*
X160501036Y-115973504D01*
X160499318Y-115974391D01*
X160435037Y-116001014D01*
X160434434Y-116001244D01*
X160387990Y-116017492D01*
X160385697Y-116018038D01*
X160296596Y-116029792D01*
X160296380Y-116029819D01*
X160268641Y-116032945D01*
X160267353Y-116033017D01*
X154045024Y-116033017D01*
X154043737Y-116032945D01*
X154040598Y-116032591D01*
X154018141Y-116030059D01*
X154017928Y-116030033D01*
X153927031Y-116018062D01*
X153924735Y-116017515D01*
X153878303Y-116001267D01*
X153877700Y-116001036D01*
X153813431Y-115974412D01*
X153811713Y-115973525D01*
X153766868Y-115945346D01*
X153765986Y-115944732D01*
X153713561Y-115904504D01*
X153712430Y-115903513D01*
X153674385Y-115865467D01*
X153673393Y-115864336D01*
X153633156Y-115811898D01*
X153632543Y-115811016D01*
X153626550Y-115801478D01*
X153604366Y-115766173D01*
X153603488Y-115764474D01*
X153576848Y-115700162D01*
X153576623Y-115699572D01*
X153560375Y-115653140D01*
X153559834Y-115650864D01*
X153547891Y-115560212D01*
X153544947Y-115534084D01*
X153544875Y-115532797D01*
X153544875Y-114533536D01*
X153544879Y-114533517D01*
X153544883Y-114533517D01*
X153544885Y-114477123D01*
X153519790Y-114367163D01*
X153470854Y-114265544D01*
X153400531Y-114177363D01*
X153392763Y-114171168D01*
X153312854Y-114107444D01*
X153312849Y-114107441D01*
X153312349Y-114107042D01*
X153311770Y-114106763D01*
X153311765Y-114106760D01*
X153239047Y-114071744D01*
X153210730Y-114058108D01*
X153209981Y-114057937D01*
X153101398Y-114033157D01*
X153101393Y-114033156D01*
X153100769Y-114033014D01*
X153100122Y-114033014D01*
X153044375Y-114033017D01*
X135106531Y-114033017D01*
X135106375Y-114032997D01*
X135106375Y-114032975D01*
X135106211Y-114032975D01*
X135050626Y-114032977D01*
X135050617Y-114032977D01*
X135049980Y-114032978D01*
X135049357Y-114033120D01*
X135049350Y-114033121D01*
X134940646Y-114057937D01*
X134940638Y-114057939D01*
X134940019Y-114058081D01*
X134939444Y-114058357D01*
X134939438Y-114058360D01*
X134838983Y-114106743D01*
X134838978Y-114106745D01*
X134838401Y-114107024D01*
X134837898Y-114107424D01*
X134837895Y-114107427D01*
X134750729Y-114176945D01*
X134750724Y-114176949D01*
X134750221Y-114177351D01*
X134749819Y-114177854D01*
X134749815Y-114177859D01*
X134686696Y-114257015D01*
X134679901Y-114265537D01*
X134679621Y-114266118D01*
X134679620Y-114266120D01*
X134631249Y-114366573D01*
X134630967Y-114367159D01*
X134630823Y-114367787D01*
X134630823Y-114367789D01*
X134606016Y-114476493D01*
X134606016Y-114476494D01*
X134605873Y-114477122D01*
X134605873Y-114477767D01*
X134605873Y-114477768D01*
X134605875Y-114533517D01*
X134605875Y-115532868D01*
X134605803Y-115534156D01*
X134602917Y-115559753D01*
X134602891Y-115559966D01*
X134590922Y-115650855D01*
X134590375Y-115653152D01*
X134574125Y-115699588D01*
X134573894Y-115700191D01*
X134547272Y-115764452D01*
X134546385Y-115766170D01*
X134518206Y-115811014D01*
X134517592Y-115811896D01*
X134477358Y-115864326D01*
X134476366Y-115865457D01*
X134438326Y-115903494D01*
X134437195Y-115904486D01*
X134384761Y-115944716D01*
X134383879Y-115945330D01*
X134339036Y-115973504D01*
X134337318Y-115974391D01*
X134273037Y-116001014D01*
X134272434Y-116001244D01*
X134225990Y-116017492D01*
X134223697Y-116018038D01*
X134134596Y-116029792D01*
X134134380Y-116029819D01*
X134106641Y-116032945D01*
X134105353Y-116033017D01*
X130169024Y-116033017D01*
X130167737Y-116032945D01*
X130164598Y-116032591D01*
X130142141Y-116030059D01*
X130141928Y-116030033D01*
X130051031Y-116018062D01*
X130048735Y-116017515D01*
X130002303Y-116001267D01*
X130001700Y-116001036D01*
X129937431Y-115974412D01*
X129935713Y-115973525D01*
X129890868Y-115945346D01*
X129889986Y-115944732D01*
X129837561Y-115904504D01*
X129836430Y-115903513D01*
X129798385Y-115865467D01*
X129797393Y-115864336D01*
X129757156Y-115811898D01*
X129756543Y-115811016D01*
X129750550Y-115801478D01*
X129728366Y-115766173D01*
X129727488Y-115764474D01*
X129700848Y-115700162D01*
X129700623Y-115699572D01*
X129684375Y-115653140D01*
X129683834Y-115650864D01*
X129671891Y-115560212D01*
X129668947Y-115534084D01*
X129668875Y-115532797D01*
X129668875Y-114533536D01*
X129668879Y-114533517D01*
X129668883Y-114533517D01*
X129668885Y-114477123D01*
X129643790Y-114367163D01*
X129594854Y-114265544D01*
X129524531Y-114177363D01*
X129516763Y-114171168D01*
X129436854Y-114107444D01*
X129436849Y-114107441D01*
X129436349Y-114107042D01*
X129435770Y-114106763D01*
X129435765Y-114106760D01*
X129363047Y-114071744D01*
X129334730Y-114058108D01*
X129333981Y-114057937D01*
X129225398Y-114033157D01*
X129225393Y-114033156D01*
X129224769Y-114033014D01*
X129224122Y-114033014D01*
X129168375Y-114033017D01*
X116024526Y-114033017D01*
X116024515Y-114033020D01*
X116024484Y-114033023D01*
X115968877Y-114033022D01*
X115968232Y-114033022D01*
X115967607Y-114033164D01*
X115967603Y-114033165D01*
X115858903Y-114057971D01*
X115858901Y-114057971D01*
X115858273Y-114058115D01*
X115857688Y-114058396D01*
X115857687Y-114058397D01*
X115757238Y-114106767D01*
X115757229Y-114106772D01*
X115756655Y-114107049D01*
X115756151Y-114107450D01*
X115756149Y-114107452D01*
X115668982Y-114176962D01*
X115668977Y-114176966D01*
X115668474Y-114177368D01*
X115668072Y-114177871D01*
X115668068Y-114177876D01*
X115598556Y-114265042D01*
X115598554Y-114265045D01*
X115598153Y-114265548D01*
X115597878Y-114266120D01*
X115597872Y-114266130D01*
X115549497Y-114366583D01*
X115549493Y-114366592D01*
X115549218Y-114367165D01*
X115549076Y-114367784D01*
X115549074Y-114367792D01*
X115524266Y-114476495D01*
X115524265Y-114476499D01*
X115524123Y-114477124D01*
X115524123Y-114477768D01*
X115524123Y-114477770D01*
X115524125Y-114533517D01*
X115524125Y-115532871D01*
X115524053Y-115534158D01*
X115521172Y-115559745D01*
X115521146Y-115559957D01*
X115509190Y-115650874D01*
X115508643Y-115653172D01*
X115492413Y-115699572D01*
X115492183Y-115700175D01*
X115465551Y-115764484D01*
X115464664Y-115766202D01*
X115436487Y-115811051D01*
X115435873Y-115811933D01*
X115395644Y-115864365D01*
X115394652Y-115865497D01*
X115356607Y-115903543D01*
X115355476Y-115904535D01*
X115303034Y-115944774D01*
X115302151Y-115945388D01*
X115257309Y-115973561D01*
X115255591Y-115974448D01*
X115191293Y-116001075D01*
X115190690Y-116001305D01*
X115144280Y-116017540D01*
X115141982Y-116018087D01*
X115050735Y-116030083D01*
X115050523Y-116030109D01*
X115027776Y-116032670D01*
X115025334Y-116032945D01*
X115024050Y-116033017D01*
X113532024Y-116033017D01*
X113530737Y-116032945D01*
X113527598Y-116032591D01*
X113505141Y-116030059D01*
X113504928Y-116030033D01*
X113414031Y-116018062D01*
X113411735Y-116017515D01*
X113365303Y-116001267D01*
X113364700Y-116001036D01*
X113300431Y-115974412D01*
X113298713Y-115973525D01*
X113253868Y-115945346D01*
X113252986Y-115944732D01*
X113200561Y-115904504D01*
X113199430Y-115903513D01*
X113161385Y-115865467D01*
X113160393Y-115864336D01*
X113120156Y-115811898D01*
X113119543Y-115811016D01*
X113113550Y-115801478D01*
X113091366Y-115766173D01*
X113090488Y-115764474D01*
X113063848Y-115700162D01*
X113063623Y-115699572D01*
X113047375Y-115653140D01*
X113046834Y-115650864D01*
X113034891Y-115560212D01*
X113031947Y-115534084D01*
X113031875Y-115532797D01*
X113031875Y-114533536D01*
X113031879Y-114533517D01*
X113031883Y-114533517D01*
X113031885Y-114477123D01*
X113006790Y-114367163D01*
X112957854Y-114265544D01*
X112887531Y-114177363D01*
X112879763Y-114171168D01*
X112799854Y-114107444D01*
X112799849Y-114107441D01*
X112799349Y-114107042D01*
X112798770Y-114106763D01*
X112798765Y-114106760D01*
X112726047Y-114071744D01*
X112697730Y-114058108D01*
X112696981Y-114057937D01*
X112588398Y-114033157D01*
X112588393Y-114033156D01*
X112587769Y-114033014D01*
X112587122Y-114033014D01*
X112531375Y-114033017D01*
X106531531Y-114033017D01*
X106531375Y-114032997D01*
X106531375Y-114032975D01*
X106531211Y-114032975D01*
X106475626Y-114032977D01*
X106475617Y-114032977D01*
X106474980Y-114032978D01*
X106474357Y-114033120D01*
X106474350Y-114033121D01*
X106365646Y-114057937D01*
X106365638Y-114057939D01*
X106365019Y-114058081D01*
X106364444Y-114058357D01*
X106364438Y-114058360D01*
X106263983Y-114106743D01*
X106263978Y-114106745D01*
X106263401Y-114107024D01*
X106262898Y-114107424D01*
X106262895Y-114107427D01*
X106175729Y-114176945D01*
X106175724Y-114176949D01*
X106175221Y-114177351D01*
X106174819Y-114177854D01*
X106174815Y-114177859D01*
X106111696Y-114257015D01*
X106104901Y-114265537D01*
X106104621Y-114266118D01*
X106104620Y-114266120D01*
X106056249Y-114366573D01*
X106055967Y-114367159D01*
X106055823Y-114367787D01*
X106055823Y-114367789D01*
X106031016Y-114476493D01*
X106031016Y-114476494D01*
X106030873Y-114477122D01*
X106030873Y-114477767D01*
X106030873Y-114477768D01*
X106030875Y-114533517D01*
X106030875Y-115532868D01*
X106030803Y-115534156D01*
X106027917Y-115559753D01*
X106027891Y-115559966D01*
X106015922Y-115650855D01*
X106015375Y-115653152D01*
X105999125Y-115699588D01*
X105998894Y-115700191D01*
X105972272Y-115764452D01*
X105971385Y-115766170D01*
X105943206Y-115811014D01*
X105942592Y-115811896D01*
X105902358Y-115864326D01*
X105901366Y-115865457D01*
X105863326Y-115903494D01*
X105862195Y-115904486D01*
X105809761Y-115944716D01*
X105808879Y-115945330D01*
X105764036Y-115973504D01*
X105762318Y-115974391D01*
X105698037Y-116001014D01*
X105697434Y-116001244D01*
X105650990Y-116017492D01*
X105648697Y-116018038D01*
X105559596Y-116029792D01*
X105559380Y-116029819D01*
X105531641Y-116032945D01*
X105530353Y-116033017D01*
X83981531Y-116033017D01*
X83981375Y-116032997D01*
X83981375Y-116032975D01*
X83981211Y-116032975D01*
X83925626Y-116032977D01*
X83925617Y-116032977D01*
X83924980Y-116032978D01*
X83924357Y-116033120D01*
X83924350Y-116033121D01*
X83815646Y-116057937D01*
X83815638Y-116057939D01*
X83815019Y-116058081D01*
X83814444Y-116058357D01*
X83814438Y-116058360D01*
X83713983Y-116106743D01*
X83713978Y-116106745D01*
X83713401Y-116107024D01*
X83712898Y-116107424D01*
X83712895Y-116107427D01*
X83625729Y-116176945D01*
X83625724Y-116176949D01*
X83625221Y-116177351D01*
X83624819Y-116177854D01*
X83624815Y-116177859D01*
X83589564Y-116222067D01*
X83554901Y-116265537D01*
X83554621Y-116266118D01*
X83554620Y-116266120D01*
X83506249Y-116366573D01*
X83505967Y-116367159D01*
X83505823Y-116367787D01*
X83505823Y-116367789D01*
X83481016Y-116476493D01*
X83481016Y-116476494D01*
X83480873Y-116477122D01*
X80381875Y-116477122D01*
X80381875Y-115283536D01*
X80381879Y-115283517D01*
X80381883Y-115283517D01*
X80381884Y-115189035D01*
X80352326Y-115002397D01*
X80293934Y-114822681D01*
X80208146Y-114654312D01*
X80097076Y-114501436D01*
X79963457Y-114367819D01*
X79810581Y-114256750D01*
X79810181Y-114256546D01*
X79642616Y-114171168D01*
X79642607Y-114171164D01*
X79642212Y-114170963D01*
X79641707Y-114170799D01*
X79462924Y-114112712D01*
X79462919Y-114112710D01*
X79462495Y-114112573D01*
X79462050Y-114112502D01*
X79462048Y-114112502D01*
X79276303Y-114083085D01*
X79276295Y-114083084D01*
X79275857Y-114083015D01*
X79275408Y-114083015D01*
X79181375Y-114083017D01*
X54906672Y-114083017D01*
X54906070Y-114083001D01*
X54773124Y-114076032D01*
X54773082Y-114076012D01*
X54773082Y-114076030D01*
X54575967Y-114064958D01*
X54574813Y-114064834D01*
X54416511Y-114039761D01*
X54416393Y-114039692D01*
X54416385Y-114039741D01*
X54244332Y-114010507D01*
X54243282Y-114010277D01*
X54084117Y-113967628D01*
X54083909Y-113967571D01*
X53920561Y-113920510D01*
X53919624Y-113920195D01*
X53764085Y-113860488D01*
X53763805Y-113860377D01*
X53608473Y-113796036D01*
X53607653Y-113795658D01*
X53458328Y-113719571D01*
X53457986Y-113719389D01*
X53311689Y-113638533D01*
X53310989Y-113638113D01*
X53215657Y-113576204D01*
X53169991Y-113546548D01*
X53169638Y-113546308D01*
X53033688Y-113449846D01*
X53033106Y-113449404D01*
X52902275Y-113343458D01*
X52901849Y-113343096D01*
X52777734Y-113232180D01*
X52777265Y-113231737D01*
X52658158Y-113112630D01*
X52657715Y-113112161D01*
X52657707Y-113112152D01*
X52546772Y-112988015D01*
X52546450Y-112987636D01*
X52440488Y-112856785D01*
X52440051Y-112856209D01*
X52440043Y-112856198D01*
X52343579Y-112720243D01*
X52343323Y-112719866D01*
X52343322Y-112719865D01*
X52251781Y-112578902D01*
X52251363Y-112578206D01*
X52170507Y-112431909D01*
X52170325Y-112431567D01*
X52094220Y-112282202D01*
X52093869Y-112281440D01*
X52042804Y-112158159D01*
X52029527Y-112126105D01*
X52029416Y-112125825D01*
X52005082Y-112062435D01*
X51969694Y-111970248D01*
X51969388Y-111969338D01*
X51922319Y-111805960D01*
X51922268Y-111805771D01*
X51879621Y-111646612D01*
X51879391Y-111645562D01*
X51850163Y-111473549D01*
X51826998Y-111327293D01*
X53492428Y-111327293D01*
X53492508Y-111327782D01*
X53492509Y-111327793D01*
X53525680Y-111530232D01*
X53525682Y-111530239D01*
X53525763Y-111530734D01*
X53525930Y-111531207D01*
X53525933Y-111531216D01*
X53594467Y-111724555D01*
X53594470Y-111724561D01*
X53594640Y-111725041D01*
X53696879Y-111904058D01*
X53697209Y-111904452D01*
X53828910Y-112061719D01*
X53828913Y-112061722D01*
X53829238Y-112062110D01*
X53829624Y-112062432D01*
X53829627Y-112062435D01*
X53985729Y-112192691D01*
X53987524Y-112194189D01*
X54166721Y-112296111D01*
X54361150Y-112364645D01*
X54564649Y-112397620D01*
X54770772Y-112393990D01*
X54972984Y-112353870D01*
X55164879Y-112278533D01*
X55340376Y-112170365D01*
X55493914Y-112032794D01*
X55620626Y-111870179D01*
X55716497Y-111687674D01*
X55778491Y-111491062D01*
X55804641Y-111286573D01*
X55794120Y-111080688D01*
X55774075Y-110995059D01*
X55774552Y-110988278D01*
X55778778Y-110982949D01*
X55785273Y-110980940D01*
X59668650Y-110981749D01*
X59668649Y-110982197D01*
X59668651Y-110982198D01*
X59668651Y-110981750D01*
X59668849Y-110981750D01*
X62049901Y-110981750D01*
X62050099Y-110981750D01*
X68906151Y-110981750D01*
X68906349Y-110981750D01*
X73668651Y-110981750D01*
X73668849Y-110981750D01*
X73956151Y-110981750D01*
X73956349Y-110981750D01*
X76049901Y-110981750D01*
X76050099Y-110981750D01*
X83481151Y-110981750D01*
X83481349Y-110981750D01*
X87956151Y-110981750D01*
X87956349Y-110981750D01*
X88243651Y-110981750D01*
X88243849Y-110981750D01*
X93006151Y-110981750D01*
X93006349Y-110981750D01*
X97481151Y-110981750D01*
X97481349Y-110981750D01*
X102243651Y-110981750D01*
X102243849Y-110981750D01*
X102531151Y-110981750D01*
X102531349Y-110981750D01*
X107006151Y-110981750D01*
X107006349Y-110981750D01*
X107293651Y-110981750D01*
X107293849Y-110981750D01*
X112056151Y-110981750D01*
X112056349Y-110981750D01*
X116531151Y-110981750D01*
X116531349Y-110981750D01*
X121293651Y-110981750D01*
X121293849Y-110981750D01*
X121581151Y-110981750D01*
X121581349Y-110981750D01*
X126056151Y-110981750D01*
X126056349Y-110981750D01*
X126343651Y-110981750D01*
X126343849Y-110981750D01*
X131106151Y-110981750D01*
X131106349Y-110981750D01*
X135581151Y-110981750D01*
X135581349Y-110981750D01*
X140343651Y-110981750D01*
X140343849Y-110981750D01*
X140631151Y-110981750D01*
X140631349Y-110981750D01*
X145106151Y-110981750D01*
X145106349Y-110981750D01*
X145393651Y-110981750D01*
X145393849Y-110981750D01*
X150156151Y-110981750D01*
X150156349Y-110981750D01*
X151594250Y-110981750D01*
X151602382Y-110985118D01*
X151605750Y-110993250D01*
X151605750Y-112568651D01*
X151605709Y-112568750D01*
X151605750Y-112568849D01*
X151605867Y-112569133D01*
X151606250Y-112569291D01*
X151606349Y-112569250D01*
X162718651Y-112569250D01*
X162718750Y-112569291D01*
X162719133Y-112569133D01*
X162719250Y-112568849D01*
X162719291Y-112568750D01*
X162719250Y-112568651D01*
X162719250Y-110993250D01*
X162722618Y-110985118D01*
X162730750Y-110981750D01*
X164156151Y-110981750D01*
X164156349Y-110981750D01*
X164443651Y-110981750D01*
X164443849Y-110981750D01*
X169206151Y-110981750D01*
X169206349Y-110981750D01*
X173681151Y-110981750D01*
X173681349Y-110981750D01*
X178443651Y-110981750D01*
X178443849Y-110981750D01*
X178731151Y-110981750D01*
X178731349Y-110981750D01*
X183206151Y-110981750D01*
X183206349Y-110981750D01*
X183493651Y-110981750D01*
X183493849Y-110981750D01*
X188256151Y-110981750D01*
X188256349Y-110981750D01*
X192731151Y-110981750D01*
X192731349Y-110981750D01*
X197493651Y-110981750D01*
X197493849Y-110981750D01*
X197781151Y-110981750D01*
X197781349Y-110981750D01*
X202256151Y-110981750D01*
X202256349Y-110981750D01*
X202543651Y-110981750D01*
X202543849Y-110981750D01*
X207306151Y-110981750D01*
X207306349Y-110981750D01*
X211781151Y-110981750D01*
X211781349Y-110981750D01*
X216543651Y-110981750D01*
X216543849Y-110981750D01*
X216831151Y-110981750D01*
X216831349Y-110981750D01*
X221306151Y-110981750D01*
X221306349Y-110981750D01*
X221593651Y-110981750D01*
X221593849Y-110981750D01*
X226356151Y-110981750D01*
X226356349Y-110981750D01*
X230831151Y-110981750D01*
X230831349Y-110981750D01*
X235593651Y-110981750D01*
X235593849Y-110981750D01*
X240643651Y-110981750D01*
X240643849Y-110981750D01*
X243024901Y-110981750D01*
X243025099Y-110981750D01*
X245406151Y-110981750D01*
X245406349Y-110981750D01*
X254643651Y-110981750D01*
X254643849Y-110981750D01*
X257024901Y-110981750D01*
X258527485Y-110982900D01*
X258533969Y-110984910D01*
X258538191Y-110990228D01*
X258538676Y-110997001D01*
X258519126Y-111081197D01*
X258518772Y-111082720D01*
X258518746Y-111083233D01*
X258518746Y-111083238D01*
X258508743Y-111286056D01*
X258508616Y-111288630D01*
X258508681Y-111289136D01*
X258508682Y-111289145D01*
X258534932Y-111491546D01*
X258535131Y-111493078D01*
X258535286Y-111493566D01*
X258597319Y-111689096D01*
X258597322Y-111689104D01*
X258597475Y-111689585D01*
X258597715Y-111690041D01*
X258597716Y-111690042D01*
X258648914Y-111787084D01*
X258693675Y-111871925D01*
X258693985Y-111872321D01*
X258693988Y-111872326D01*
X258820371Y-112033924D01*
X258820376Y-112033929D01*
X258820680Y-112034318D01*
X258974467Y-112171619D01*
X259150162Y-112279477D01*
X259342198Y-112354473D01*
X259515077Y-112388451D01*
X259543302Y-112393999D01*
X259544488Y-112394232D01*
X259750622Y-112397493D01*
X259954068Y-112364152D01*
X260148380Y-112295268D01*
X260327398Y-112193021D01*
X260485451Y-112060653D01*
X260617530Y-111902358D01*
X260719449Y-111723153D01*
X260787978Y-111528716D01*
X260820946Y-111325209D01*
X260817308Y-111119081D01*
X260777179Y-110916864D01*
X260701832Y-110724966D01*
X260594972Y-110551608D01*
X260593917Y-110549897D01*
X260593916Y-110549895D01*
X260593653Y-110549469D01*
X260493141Y-110437302D01*
X260456410Y-110396311D01*
X260456408Y-110396309D01*
X260456071Y-110395933D01*
X260455668Y-110395619D01*
X260293846Y-110269537D01*
X260293842Y-110269534D01*
X260293445Y-110269225D01*
X260292997Y-110268990D01*
X260292993Y-110268987D01*
X260111380Y-110173595D01*
X260111376Y-110173593D01*
X260110930Y-110173359D01*
X260110445Y-110173206D01*
X259914802Y-110111529D01*
X259914797Y-110111528D01*
X259914309Y-110111374D01*
X259913793Y-110111308D01*
X259710326Y-110085299D01*
X259710319Y-110085298D01*
X259709813Y-110085234D01*
X259709301Y-110085260D01*
X259709296Y-110085260D01*
X259504441Y-110095739D01*
X259504435Y-110095739D01*
X259503922Y-110095766D01*
X259503422Y-110095882D01*
X259503415Y-110095884D01*
X259418294Y-110115814D01*
X259411510Y-110115337D01*
X259406181Y-110111112D01*
X259404172Y-110104617D01*
X259406749Y-96981349D01*
X259406791Y-96981250D01*
X259406633Y-96980867D01*
X259406349Y-96980750D01*
X259406250Y-96980709D01*
X259406151Y-96980750D01*
X257025099Y-96980750D01*
X254643849Y-96980750D01*
X245406349Y-96980750D01*
X243025099Y-96980750D01*
X240643849Y-96980750D01*
X235593849Y-96980750D01*
X230831349Y-96980750D01*
X226356349Y-96980750D01*
X221593849Y-96980750D01*
X221306349Y-96980750D01*
X216831349Y-96980750D01*
X216543849Y-96980750D01*
X211781349Y-96980750D01*
X207306349Y-96980750D01*
X202543849Y-96980750D01*
X202256349Y-96980750D01*
X197781349Y-96980750D01*
X197493849Y-96980750D01*
X192731349Y-96980750D01*
X188256349Y-96980750D01*
X183493849Y-96980750D01*
X183206349Y-96980750D01*
X178731349Y-96980750D01*
X178443849Y-96980750D01*
X173681349Y-96980750D01*
X169206349Y-96980750D01*
X164443849Y-96980750D01*
X164156349Y-96980750D01*
X159681349Y-96980750D01*
X159393849Y-96980750D01*
X154631349Y-96980750D01*
X150156349Y-96980750D01*
X145393849Y-96980750D01*
X145106349Y-96980750D01*
X140631349Y-96980750D01*
X140343849Y-96980750D01*
X135581349Y-96980750D01*
X131106349Y-96980750D01*
X126343849Y-96980750D01*
X126056349Y-96980750D01*
X121581349Y-96980750D01*
X121293849Y-96980750D01*
X116531349Y-96980750D01*
X112056349Y-96980750D01*
X107293849Y-96980750D01*
X107006349Y-96980750D01*
X102531349Y-96980750D01*
X102243849Y-96980750D01*
X97481349Y-96980750D01*
X93006349Y-96980750D01*
X88243849Y-96980750D01*
X87956349Y-96980750D01*
X83481349Y-96980750D01*
X76050099Y-96980750D01*
X73956349Y-96980750D01*
X73668849Y-96980750D01*
X68906349Y-96980750D01*
X62050099Y-96980750D01*
X59668849Y-96980750D01*
X54906349Y-96980750D01*
X54906250Y-96980709D01*
X54906151Y-96980750D01*
X54905867Y-96980867D01*
X54905709Y-96981250D01*
X54905750Y-96981349D01*
X54905750Y-96983350D01*
X54905750Y-96983351D01*
X54906976Y-110104192D01*
X54904970Y-110110683D01*
X54899651Y-110114908D01*
X54892875Y-110115395D01*
X54807690Y-110095613D01*
X54807687Y-110095612D01*
X54807185Y-110095496D01*
X54806670Y-110095470D01*
X54806666Y-110095470D01*
X54601792Y-110085364D01*
X54601789Y-110085364D01*
X54601281Y-110085339D01*
X54600781Y-110085403D01*
X54600776Y-110085404D01*
X54397345Y-110111784D01*
X54397340Y-110111784D01*
X54396839Y-110111850D01*
X54396359Y-110112002D01*
X54396351Y-110112004D01*
X54200825Y-110174035D01*
X54200813Y-110174039D01*
X54200337Y-110174191D01*
X54199884Y-110174429D01*
X54199879Y-110174432D01*
X54018455Y-110270145D01*
X54018450Y-110270147D01*
X54018001Y-110270385D01*
X54017609Y-110270691D01*
X54017599Y-110270698D01*
X53856011Y-110397071D01*
X53856003Y-110397078D01*
X53855611Y-110397385D01*
X53855269Y-110397767D01*
X53855269Y-110397768D01*
X53718659Y-110550775D01*
X53718652Y-110550783D01*
X53718312Y-110551165D01*
X53718044Y-110551600D01*
X53718039Y-110551608D01*
X53665139Y-110637777D01*
X53610454Y-110726853D01*
X53610268Y-110727328D01*
X53610267Y-110727331D01*
X53536045Y-110917373D01*
X53535456Y-110918881D01*
X53535357Y-110919382D01*
X53535357Y-110919384D01*
X53495791Y-111120665D01*
X53495789Y-111120676D01*
X53495694Y-111121164D01*
X53495686Y-111121657D01*
X53495685Y-111121669D01*
X53492469Y-111324691D01*
X53492428Y-111327293D01*
X51826998Y-111327293D01*
X51825059Y-111315048D01*
X51824941Y-111313948D01*
X51813935Y-111118065D01*
X51812082Y-111082720D01*
X51806890Y-110983669D01*
X51806875Y-110983068D01*
X51806875Y-91931250D01*
X54905709Y-91931250D01*
X54905750Y-91931349D01*
X54905867Y-91931633D01*
X54906250Y-91931791D01*
X54906349Y-91931750D01*
X57287401Y-91931750D01*
X57287599Y-91931750D01*
X59668651Y-91931750D01*
X59668849Y-91931750D01*
X68906151Y-91931750D01*
X68906349Y-91931750D01*
X78718651Y-91931750D01*
X78718849Y-91931750D01*
X87956151Y-91931750D01*
X87956349Y-91931750D01*
X93006151Y-91931750D01*
X93006349Y-91931750D01*
X97768651Y-91931750D01*
X97768849Y-91931750D01*
X107006151Y-91931750D01*
X107006349Y-91931750D01*
X112056151Y-91931750D01*
X112056349Y-91931750D01*
X116818651Y-91931750D01*
X116818849Y-91931750D01*
X126056151Y-91931750D01*
X126056349Y-91931750D01*
X131106151Y-91931750D01*
X131106349Y-91931750D01*
X135868651Y-91931750D01*
X135868849Y-91931750D01*
X145106151Y-91931750D01*
X145106349Y-91931750D01*
X149356208Y-91931750D01*
X149362968Y-91933946D01*
X149367145Y-91939696D01*
X149367145Y-91946804D01*
X149362967Y-91952554D01*
X149352256Y-91960335D01*
X149352249Y-91960341D01*
X149351673Y-91960760D01*
X149351216Y-91961311D01*
X149351213Y-91961315D01*
X149251398Y-92081971D01*
X149251393Y-92081977D01*
X149250936Y-92082531D01*
X149250629Y-92083182D01*
X149250626Y-92083188D01*
X149183954Y-92224871D01*
X149183951Y-92224878D01*
X149183646Y-92225528D01*
X149183510Y-92226238D01*
X149183510Y-92226240D01*
X149154168Y-92380055D01*
X149154167Y-92380059D01*
X149154033Y-92380766D01*
X149154078Y-92381484D01*
X149154078Y-92381487D01*
X149163910Y-92537771D01*
X149163910Y-92537776D01*
X149163956Y-92538492D01*
X149164177Y-92539172D01*
X149164178Y-92539177D01*
X149212568Y-92688105D01*
X149212570Y-92688110D01*
X149212793Y-92688795D01*
X149297474Y-92822231D01*
X149298002Y-92822727D01*
X149298004Y-92822729D01*
X149358936Y-92879948D01*
X149412678Y-92930416D01*
X149551168Y-93006551D01*
X149704241Y-93045854D01*
X149704960Y-93045854D01*
X149711525Y-93045854D01*
X149719397Y-93048971D01*
X149723002Y-93056632D01*
X149720386Y-93064684D01*
X149712966Y-93068763D01*
X149627191Y-93079598D01*
X149627185Y-93079599D01*
X149626468Y-93079690D01*
X149625795Y-93079956D01*
X149625789Y-93079958D01*
X149480204Y-93137600D01*
X149480201Y-93137601D01*
X149479528Y-93137868D01*
X149478948Y-93138288D01*
X149478943Y-93138292D01*
X149352253Y-93230338D01*
X149352250Y-93230340D01*
X149351673Y-93230760D01*
X149351216Y-93231311D01*
X149351213Y-93231315D01*
X149251398Y-93351971D01*
X149251393Y-93351977D01*
X149250936Y-93352531D01*
X149250629Y-93353182D01*
X149250626Y-93353188D01*
X149183954Y-93494871D01*
X149183951Y-93494878D01*
X149183646Y-93495528D01*
X149183510Y-93496238D01*
X149183510Y-93496240D01*
X149154168Y-93650055D01*
X149154167Y-93650059D01*
X149154033Y-93650766D01*
X149154078Y-93651484D01*
X149154078Y-93651487D01*
X149163910Y-93807771D01*
X149163910Y-93807776D01*
X149163956Y-93808492D01*
X149164177Y-93809172D01*
X149164178Y-93809177D01*
X149212568Y-93958105D01*
X149212570Y-93958110D01*
X149212793Y-93958795D01*
X149297474Y-94092231D01*
X149298002Y-94092727D01*
X149298004Y-94092729D01*
X149358936Y-94149948D01*
X149412678Y-94200416D01*
X149551168Y-94276551D01*
X149704241Y-94315854D01*
X149704960Y-94315854D01*
X149711525Y-94315854D01*
X149719397Y-94318971D01*
X149723002Y-94326632D01*
X149720386Y-94334684D01*
X149712966Y-94338763D01*
X149627191Y-94349598D01*
X149627185Y-94349599D01*
X149626468Y-94349690D01*
X149625795Y-94349956D01*
X149625789Y-94349958D01*
X149480204Y-94407600D01*
X149480201Y-94407601D01*
X149479528Y-94407868D01*
X149478948Y-94408288D01*
X149478943Y-94408292D01*
X149352253Y-94500338D01*
X149352250Y-94500340D01*
X149351673Y-94500760D01*
X149351216Y-94501311D01*
X149351213Y-94501315D01*
X149251398Y-94621971D01*
X149251393Y-94621977D01*
X149250936Y-94622531D01*
X149250629Y-94623182D01*
X149250626Y-94623188D01*
X149183954Y-94764871D01*
X149183951Y-94764878D01*
X149183646Y-94765528D01*
X149183510Y-94766238D01*
X149183510Y-94766240D01*
X149154168Y-94920055D01*
X149154167Y-94920059D01*
X149154033Y-94920766D01*
X149154078Y-94921484D01*
X149154078Y-94921487D01*
X149163910Y-95077771D01*
X149163910Y-95077776D01*
X149163956Y-95078492D01*
X149164177Y-95079172D01*
X149164178Y-95079177D01*
X149212568Y-95228105D01*
X149212570Y-95228110D01*
X149212793Y-95228795D01*
X149297474Y-95362231D01*
X149298002Y-95362727D01*
X149298004Y-95362729D01*
X149358936Y-95419948D01*
X149412678Y-95470416D01*
X149551168Y-95546551D01*
X149704241Y-95585854D01*
X149704960Y-95585854D01*
X149711525Y-95585854D01*
X149719397Y-95588971D01*
X149723002Y-95596632D01*
X149720386Y-95604684D01*
X149712966Y-95608763D01*
X149627191Y-95619598D01*
X149627185Y-95619599D01*
X149626468Y-95619690D01*
X149625795Y-95619956D01*
X149625789Y-95619958D01*
X149480204Y-95677600D01*
X149480201Y-95677601D01*
X149479528Y-95677868D01*
X149478948Y-95678288D01*
X149478943Y-95678292D01*
X149352253Y-95770338D01*
X149352250Y-95770340D01*
X149351673Y-95770760D01*
X149351216Y-95771311D01*
X149351213Y-95771315D01*
X149251398Y-95891971D01*
X149251393Y-95891977D01*
X149250936Y-95892531D01*
X149250629Y-95893182D01*
X149250626Y-95893188D01*
X149183954Y-96034871D01*
X149183951Y-96034878D01*
X149183646Y-96035528D01*
X149183510Y-96036238D01*
X149183510Y-96036240D01*
X149154168Y-96190055D01*
X149154167Y-96190059D01*
X149154033Y-96190766D01*
X149154078Y-96191484D01*
X149154078Y-96191487D01*
X149163910Y-96347771D01*
X149163910Y-96347776D01*
X149163956Y-96348492D01*
X149164177Y-96349172D01*
X149164178Y-96349177D01*
X149212568Y-96498105D01*
X149212570Y-96498110D01*
X149212793Y-96498795D01*
X149297474Y-96632231D01*
X149298002Y-96632727D01*
X149298004Y-96632729D01*
X149358936Y-96689948D01*
X149412678Y-96740416D01*
X149551168Y-96816551D01*
X149704241Y-96855854D01*
X149822249Y-96855854D01*
X149822610Y-96855854D01*
X149940052Y-96841018D01*
X150086992Y-96782840D01*
X150214847Y-96689948D01*
X150315584Y-96568177D01*
X150382874Y-96425180D01*
X150412487Y-96269942D01*
X150402564Y-96112216D01*
X150353727Y-95961913D01*
X150269046Y-95828477D01*
X150208175Y-95771315D01*
X150154367Y-95720785D01*
X150154366Y-95720784D01*
X150153842Y-95720292D01*
X150153215Y-95719947D01*
X150153212Y-95719945D01*
X150015986Y-95644505D01*
X150015982Y-95644503D01*
X150015352Y-95644157D01*
X150014655Y-95643978D01*
X150014650Y-95643976D01*
X149862974Y-95605032D01*
X149862970Y-95605031D01*
X149862279Y-95604854D01*
X149854995Y-95604854D01*
X149847123Y-95601737D01*
X149843518Y-95594076D01*
X149846134Y-95586024D01*
X149853554Y-95581945D01*
X149860019Y-95581128D01*
X149940052Y-95571018D01*
X150086992Y-95512840D01*
X150214847Y-95419948D01*
X150315584Y-95298177D01*
X150382874Y-95155180D01*
X150412487Y-94999942D01*
X150402564Y-94842216D01*
X150353727Y-94691913D01*
X150269046Y-94558477D01*
X150208175Y-94501315D01*
X150154367Y-94450785D01*
X150154366Y-94450784D01*
X150153842Y-94450292D01*
X150153215Y-94449947D01*
X150153212Y-94449945D01*
X150015986Y-94374505D01*
X150015982Y-94374503D01*
X150015352Y-94374157D01*
X150014655Y-94373978D01*
X150014650Y-94373976D01*
X149862974Y-94335032D01*
X149862970Y-94335031D01*
X149862279Y-94334854D01*
X149854995Y-94334854D01*
X149847123Y-94331737D01*
X149843518Y-94324076D01*
X149846134Y-94316024D01*
X149853554Y-94311945D01*
X149860019Y-94311128D01*
X149940052Y-94301018D01*
X150086992Y-94242840D01*
X150214847Y-94149948D01*
X150315584Y-94028177D01*
X150382874Y-93885180D01*
X150412487Y-93729942D01*
X150402564Y-93572216D01*
X150353727Y-93421913D01*
X150269046Y-93288477D01*
X150208175Y-93231315D01*
X150154367Y-93180785D01*
X150154366Y-93180784D01*
X150153842Y-93180292D01*
X150153215Y-93179947D01*
X150153212Y-93179945D01*
X150015986Y-93104505D01*
X150015982Y-93104503D01*
X150015352Y-93104157D01*
X150014655Y-93103978D01*
X150014650Y-93103976D01*
X149862974Y-93065032D01*
X149862970Y-93065031D01*
X149862279Y-93064854D01*
X149854995Y-93064854D01*
X149847123Y-93061737D01*
X149843518Y-93054076D01*
X149846134Y-93046024D01*
X149853554Y-93041945D01*
X149860019Y-93041128D01*
X149940052Y-93031018D01*
X150086992Y-92972840D01*
X150214847Y-92879948D01*
X150315584Y-92758177D01*
X150382874Y-92615180D01*
X150412487Y-92459942D01*
X150402564Y-92302216D01*
X150353727Y-92151913D01*
X150269046Y-92018477D01*
X150197864Y-91951632D01*
X150194514Y-91945759D01*
X150195045Y-91939017D01*
X150199273Y-91933739D01*
X150205737Y-91931750D01*
X154918651Y-91931750D01*
X154918849Y-91931750D01*
X164143708Y-91931750D01*
X164150468Y-91933946D01*
X164154645Y-91939696D01*
X164154645Y-91946804D01*
X164150467Y-91952554D01*
X164139756Y-91960335D01*
X164139749Y-91960341D01*
X164139173Y-91960760D01*
X164138716Y-91961311D01*
X164138713Y-91961315D01*
X164038898Y-92081971D01*
X164038893Y-92081977D01*
X164038436Y-92082531D01*
X164038129Y-92083182D01*
X164038126Y-92083188D01*
X163971454Y-92224871D01*
X163971451Y-92224878D01*
X163971146Y-92225528D01*
X163971010Y-92226238D01*
X163971010Y-92226240D01*
X163941668Y-92380055D01*
X163941667Y-92380059D01*
X163941533Y-92380766D01*
X163941578Y-92381484D01*
X163941578Y-92381487D01*
X163951410Y-92537771D01*
X163951410Y-92537776D01*
X163951456Y-92538492D01*
X163951677Y-92539172D01*
X163951678Y-92539177D01*
X164000068Y-92688105D01*
X164000070Y-92688110D01*
X164000293Y-92688795D01*
X164084974Y-92822231D01*
X164085502Y-92822727D01*
X164085504Y-92822729D01*
X164146436Y-92879948D01*
X164200178Y-92930416D01*
X164338668Y-93006551D01*
X164491741Y-93045854D01*
X164492460Y-93045854D01*
X164499025Y-93045854D01*
X164506897Y-93048971D01*
X164510502Y-93056632D01*
X164507886Y-93064684D01*
X164500466Y-93068763D01*
X164414691Y-93079598D01*
X164414685Y-93079599D01*
X164413968Y-93079690D01*
X164413295Y-93079956D01*
X164413289Y-93079958D01*
X164267704Y-93137600D01*
X164267701Y-93137601D01*
X164267028Y-93137868D01*
X164266448Y-93138288D01*
X164266443Y-93138292D01*
X164139753Y-93230338D01*
X164139750Y-93230340D01*
X164139173Y-93230760D01*
X164138716Y-93231311D01*
X164138713Y-93231315D01*
X164038898Y-93351971D01*
X164038893Y-93351977D01*
X164038436Y-93352531D01*
X164038129Y-93353182D01*
X164038126Y-93353188D01*
X163971454Y-93494871D01*
X163971451Y-93494878D01*
X163971146Y-93495528D01*
X163971010Y-93496238D01*
X163971010Y-93496240D01*
X163941668Y-93650055D01*
X163941667Y-93650059D01*
X163941533Y-93650766D01*
X163941578Y-93651484D01*
X163941578Y-93651487D01*
X163951410Y-93807771D01*
X163951410Y-93807776D01*
X163951456Y-93808492D01*
X163951677Y-93809172D01*
X163951678Y-93809177D01*
X164000068Y-93958105D01*
X164000070Y-93958110D01*
X164000293Y-93958795D01*
X164084974Y-94092231D01*
X164085502Y-94092727D01*
X164085504Y-94092729D01*
X164146436Y-94149948D01*
X164200178Y-94200416D01*
X164338668Y-94276551D01*
X164491741Y-94315854D01*
X164492460Y-94315854D01*
X164499025Y-94315854D01*
X164506897Y-94318971D01*
X164510502Y-94326632D01*
X164507886Y-94334684D01*
X164500466Y-94338763D01*
X164414691Y-94349598D01*
X164414685Y-94349599D01*
X164413968Y-94349690D01*
X164413295Y-94349956D01*
X164413289Y-94349958D01*
X164267704Y-94407600D01*
X164267701Y-94407601D01*
X164267028Y-94407868D01*
X164266448Y-94408288D01*
X164266443Y-94408292D01*
X164139753Y-94500338D01*
X164139750Y-94500340D01*
X164139173Y-94500760D01*
X164138716Y-94501311D01*
X164138713Y-94501315D01*
X164038898Y-94621971D01*
X164038893Y-94621977D01*
X164038436Y-94622531D01*
X164038129Y-94623182D01*
X164038126Y-94623188D01*
X163971454Y-94764871D01*
X163971451Y-94764878D01*
X163971146Y-94765528D01*
X163971010Y-94766238D01*
X163971010Y-94766240D01*
X163941668Y-94920055D01*
X163941667Y-94920059D01*
X163941533Y-94920766D01*
X163941578Y-94921484D01*
X163941578Y-94921487D01*
X163951410Y-95077771D01*
X163951410Y-95077776D01*
X163951456Y-95078492D01*
X163951677Y-95079172D01*
X163951678Y-95079177D01*
X164000068Y-95228105D01*
X164000070Y-95228110D01*
X164000293Y-95228795D01*
X164084974Y-95362231D01*
X164085502Y-95362727D01*
X164085504Y-95362729D01*
X164146436Y-95419948D01*
X164200178Y-95470416D01*
X164338668Y-95546551D01*
X164491741Y-95585854D01*
X164492460Y-95585854D01*
X164499025Y-95585854D01*
X164506897Y-95588971D01*
X164510502Y-95596632D01*
X164507886Y-95604684D01*
X164500466Y-95608763D01*
X164414691Y-95619598D01*
X164414685Y-95619599D01*
X164413968Y-95619690D01*
X164413295Y-95619956D01*
X164413289Y-95619958D01*
X164267704Y-95677600D01*
X164267701Y-95677601D01*
X164267028Y-95677868D01*
X164266448Y-95678288D01*
X164266443Y-95678292D01*
X164139753Y-95770338D01*
X164139750Y-95770340D01*
X164139173Y-95770760D01*
X164138716Y-95771311D01*
X164138713Y-95771315D01*
X164038898Y-95891971D01*
X164038893Y-95891977D01*
X164038436Y-95892531D01*
X164038129Y-95893182D01*
X164038126Y-95893188D01*
X163971454Y-96034871D01*
X163971451Y-96034878D01*
X163971146Y-96035528D01*
X163971010Y-96036238D01*
X163971010Y-96036240D01*
X163941668Y-96190055D01*
X163941667Y-96190059D01*
X163941533Y-96190766D01*
X163941578Y-96191484D01*
X163941578Y-96191487D01*
X163951410Y-96347771D01*
X163951410Y-96347776D01*
X163951456Y-96348492D01*
X163951677Y-96349172D01*
X163951678Y-96349177D01*
X164000068Y-96498105D01*
X164000070Y-96498110D01*
X164000293Y-96498795D01*
X164084974Y-96632231D01*
X164085502Y-96632727D01*
X164085504Y-96632729D01*
X164146436Y-96689948D01*
X164200178Y-96740416D01*
X164338668Y-96816551D01*
X164491741Y-96855854D01*
X164609749Y-96855854D01*
X164610110Y-96855854D01*
X164727552Y-96841018D01*
X164874492Y-96782840D01*
X165002347Y-96689948D01*
X165103084Y-96568177D01*
X165170374Y-96425180D01*
X165199987Y-96269942D01*
X165190064Y-96112216D01*
X165141227Y-95961913D01*
X165056546Y-95828477D01*
X164995675Y-95771315D01*
X164941867Y-95720785D01*
X164941866Y-95720784D01*
X164941342Y-95720292D01*
X164940715Y-95719947D01*
X164940712Y-95719945D01*
X164803486Y-95644505D01*
X164803482Y-95644503D01*
X164802852Y-95644157D01*
X164802155Y-95643978D01*
X164802150Y-95643976D01*
X164650474Y-95605032D01*
X164650470Y-95605031D01*
X164649779Y-95604854D01*
X164642495Y-95604854D01*
X164634623Y-95601737D01*
X164631018Y-95594076D01*
X164633634Y-95586024D01*
X164641054Y-95581945D01*
X164647519Y-95581128D01*
X164727552Y-95571018D01*
X164874492Y-95512840D01*
X165002347Y-95419948D01*
X165103084Y-95298177D01*
X165170374Y-95155180D01*
X165199987Y-94999942D01*
X165190064Y-94842216D01*
X165141227Y-94691913D01*
X165056546Y-94558477D01*
X164995675Y-94501315D01*
X164941867Y-94450785D01*
X164941866Y-94450784D01*
X164941342Y-94450292D01*
X164940715Y-94449947D01*
X164940712Y-94449945D01*
X164803486Y-94374505D01*
X164803482Y-94374503D01*
X164802852Y-94374157D01*
X164802155Y-94373978D01*
X164802150Y-94373976D01*
X164650474Y-94335032D01*
X164650470Y-94335031D01*
X164649779Y-94334854D01*
X164642495Y-94334854D01*
X164634623Y-94331737D01*
X164631018Y-94324076D01*
X164633634Y-94316024D01*
X164641054Y-94311945D01*
X164647519Y-94311128D01*
X164727552Y-94301018D01*
X164874492Y-94242840D01*
X165002347Y-94149948D01*
X165103084Y-94028177D01*
X165170374Y-93885180D01*
X165199987Y-93729942D01*
X165190064Y-93572216D01*
X165141227Y-93421913D01*
X165056546Y-93288477D01*
X164995675Y-93231315D01*
X164941867Y-93180785D01*
X164941866Y-93180784D01*
X164941342Y-93180292D01*
X164940715Y-93179947D01*
X164940712Y-93179945D01*
X164803486Y-93104505D01*
X164803482Y-93104503D01*
X164802852Y-93104157D01*
X164802155Y-93103978D01*
X164802150Y-93103976D01*
X164650474Y-93065032D01*
X164650470Y-93065031D01*
X164649779Y-93064854D01*
X164642495Y-93064854D01*
X164634623Y-93061737D01*
X164631018Y-93054076D01*
X164633634Y-93046024D01*
X164641054Y-93041945D01*
X164647519Y-93041128D01*
X164727552Y-93031018D01*
X164874492Y-92972840D01*
X165002347Y-92879948D01*
X165103084Y-92758177D01*
X165170374Y-92615180D01*
X165199987Y-92459942D01*
X165190064Y-92302216D01*
X165141227Y-92151913D01*
X165056546Y-92018477D01*
X164985364Y-91951632D01*
X164982014Y-91945759D01*
X164982545Y-91939017D01*
X164986773Y-91933739D01*
X164993237Y-91931750D01*
X168918651Y-91931750D01*
X168918849Y-91931750D01*
X169206151Y-91931750D01*
X169206349Y-91931750D01*
X173968651Y-91931750D01*
X173968849Y-91931750D01*
X178443651Y-91931750D01*
X178443849Y-91931750D01*
X183206151Y-91931750D01*
X183206349Y-91931750D01*
X183493651Y-91931750D01*
X183493849Y-91931750D01*
X187968651Y-91931750D01*
X187968849Y-91931750D01*
X188256151Y-91931750D01*
X188256349Y-91931750D01*
X193018651Y-91931750D01*
X193018849Y-91931750D01*
X197493651Y-91931750D01*
X197493849Y-91931750D01*
X202256151Y-91931750D01*
X202256349Y-91931750D01*
X202543651Y-91931750D01*
X202543849Y-91931750D01*
X207018651Y-91931750D01*
X207018849Y-91931750D01*
X207306151Y-91931750D01*
X207306349Y-91931750D01*
X212068651Y-91931750D01*
X212068849Y-91931750D01*
X216543651Y-91931750D01*
X216543849Y-91931750D01*
X221306151Y-91931750D01*
X221306349Y-91931750D01*
X221593651Y-91931750D01*
X221593849Y-91931750D01*
X226068651Y-91931750D01*
X226068849Y-91931750D01*
X226356151Y-91931750D01*
X226356349Y-91931750D01*
X235593651Y-91931750D01*
X235593849Y-91931750D01*
X238262401Y-91931750D01*
X238262599Y-91931750D01*
X240356151Y-91931750D01*
X240356349Y-91931750D01*
X240643651Y-91931750D01*
X240643849Y-91931750D01*
X243024901Y-91931750D01*
X243025099Y-91931750D01*
X245406151Y-91931750D01*
X245406349Y-91931750D01*
X252262401Y-91931750D01*
X252262599Y-91931750D01*
X254643651Y-91931750D01*
X254643849Y-91931750D01*
X257024901Y-91931750D01*
X257025099Y-91931750D01*
X259406151Y-91931750D01*
X259406250Y-91931791D01*
X259406633Y-91931633D01*
X259406750Y-91931349D01*
X259406791Y-91931250D01*
X259406750Y-91931151D01*
X259406750Y-77931349D01*
X259406791Y-77931250D01*
X259406633Y-77930867D01*
X259406349Y-77930750D01*
X259406250Y-77930709D01*
X259406151Y-77930750D01*
X257619758Y-77930750D01*
X257612428Y-77928111D01*
X257608462Y-77921405D01*
X257609680Y-77913710D01*
X257615525Y-77908558D01*
X257616654Y-77908111D01*
X257728732Y-77863736D01*
X257856587Y-77770844D01*
X257957324Y-77649073D01*
X258024614Y-77506076D01*
X258054227Y-77350838D01*
X258044304Y-77193112D01*
X257995467Y-77042809D01*
X257910786Y-76909373D01*
X257849915Y-76852211D01*
X257796107Y-76801681D01*
X257796106Y-76801680D01*
X257795582Y-76801188D01*
X257794955Y-76800843D01*
X257794952Y-76800841D01*
X257657726Y-76725401D01*
X257657722Y-76725399D01*
X257657092Y-76725053D01*
X257656395Y-76724874D01*
X257656390Y-76724872D01*
X257504714Y-76685928D01*
X257504710Y-76685927D01*
X257504019Y-76685750D01*
X257496735Y-76685750D01*
X257488863Y-76682633D01*
X257485258Y-76674972D01*
X257487874Y-76666920D01*
X257495294Y-76662841D01*
X257501759Y-76662024D01*
X257581792Y-76651914D01*
X257728732Y-76593736D01*
X257856587Y-76500844D01*
X257957324Y-76379073D01*
X258024614Y-76236076D01*
X258054227Y-76080838D01*
X258044304Y-75923112D01*
X257995467Y-75772809D01*
X257910786Y-75639373D01*
X257849915Y-75582211D01*
X257796107Y-75531681D01*
X257796106Y-75531680D01*
X257795582Y-75531188D01*
X257794955Y-75530843D01*
X257794952Y-75530841D01*
X257657726Y-75455401D01*
X257657722Y-75455399D01*
X257657092Y-75455053D01*
X257656395Y-75454874D01*
X257656390Y-75454872D01*
X257504714Y-75415928D01*
X257504710Y-75415927D01*
X257504019Y-75415750D01*
X257496735Y-75415750D01*
X257488863Y-75412633D01*
X257485258Y-75404972D01*
X257487874Y-75396920D01*
X257495294Y-75392841D01*
X257501759Y-75392024D01*
X257581792Y-75381914D01*
X257728732Y-75323736D01*
X257856587Y-75230844D01*
X257957324Y-75109073D01*
X258024614Y-74966076D01*
X258054227Y-74810838D01*
X258044304Y-74653112D01*
X257995467Y-74502809D01*
X257910786Y-74369373D01*
X257849915Y-74312211D01*
X257796107Y-74261681D01*
X257796106Y-74261680D01*
X257795582Y-74261188D01*
X257794955Y-74260843D01*
X257794952Y-74260841D01*
X257657726Y-74185401D01*
X257657722Y-74185399D01*
X257657092Y-74185053D01*
X257656395Y-74184874D01*
X257656390Y-74184872D01*
X257504714Y-74145928D01*
X257504710Y-74145927D01*
X257504019Y-74145750D01*
X257496735Y-74145750D01*
X257488863Y-74142633D01*
X257485258Y-74134972D01*
X257487874Y-74126920D01*
X257495294Y-74122841D01*
X257501759Y-74122024D01*
X257581792Y-74111914D01*
X257728732Y-74053736D01*
X257856587Y-73960844D01*
X257957324Y-73839073D01*
X258024614Y-73696076D01*
X258054227Y-73540838D01*
X258044304Y-73383112D01*
X257995467Y-73232809D01*
X257910786Y-73099373D01*
X257849915Y-73042211D01*
X257796107Y-72991681D01*
X257796106Y-72991680D01*
X257795582Y-72991188D01*
X257794955Y-72990843D01*
X257794952Y-72990841D01*
X257657726Y-72915401D01*
X257657722Y-72915399D01*
X257657092Y-72915053D01*
X257656395Y-72914874D01*
X257656390Y-72914872D01*
X257615559Y-72904389D01*
X257608908Y-72899714D01*
X257607010Y-72891809D01*
X257610814Y-72884624D01*
X257618419Y-72881750D01*
X259406151Y-72881750D01*
X259406250Y-72881791D01*
X259406633Y-72881633D01*
X259406750Y-72881349D01*
X259406791Y-72881250D01*
X259406750Y-72881151D01*
X259406750Y-58881349D01*
X259406791Y-58881250D01*
X259406633Y-58880867D01*
X259406349Y-58880750D01*
X259406250Y-58880709D01*
X259406151Y-58880750D01*
X254643849Y-58880750D01*
X249881349Y-58880750D01*
X245406151Y-58880750D01*
X245406150Y-58880750D01*
X244043394Y-58882997D01*
X244037636Y-58881463D01*
X244033419Y-58877252D01*
X244031875Y-58871497D01*
X244031875Y-58783363D01*
X244031875Y-58782861D01*
X243996918Y-58584608D01*
X243928065Y-58395437D01*
X243827410Y-58221096D01*
X243698009Y-58066883D01*
X243621816Y-58002949D01*
X243544186Y-57937809D01*
X243544184Y-57937807D01*
X243543796Y-57937482D01*
X243543358Y-57937229D01*
X243543355Y-57937227D01*
X243369892Y-57837079D01*
X243369889Y-57837077D01*
X243369455Y-57836827D01*
X243368981Y-57836654D01*
X243368978Y-57836653D01*
X243180763Y-57768148D01*
X243180759Y-57768147D01*
X243180284Y-57767974D01*
X243179787Y-57767886D01*
X243179782Y-57767885D01*
X242982526Y-57733104D01*
X242982522Y-57733103D01*
X242982031Y-57733017D01*
X242780719Y-57733017D01*
X242780228Y-57733103D01*
X242780223Y-57733104D01*
X242582967Y-57767885D01*
X242582959Y-57767886D01*
X242582466Y-57767974D01*
X242581993Y-57768146D01*
X242581986Y-57768148D01*
X242393771Y-57836653D01*
X242393763Y-57836656D01*
X242393295Y-57836827D01*
X242392864Y-57837075D01*
X242392857Y-57837079D01*
X242219394Y-57937227D01*
X242219386Y-57937232D01*
X242218954Y-57937482D01*
X242218570Y-57937803D01*
X242218563Y-57937809D01*
X242065132Y-58066554D01*
X242065126Y-58066559D01*
X242064741Y-58066883D01*
X242064417Y-58067268D01*
X242064412Y-58067274D01*
X241935667Y-58220705D01*
X241935661Y-58220712D01*
X241935340Y-58221096D01*
X241935090Y-58221528D01*
X241935085Y-58221536D01*
X241834937Y-58394999D01*
X241834933Y-58395006D01*
X241834685Y-58395437D01*
X241834514Y-58395905D01*
X241834511Y-58395913D01*
X241766006Y-58584128D01*
X241766004Y-58584135D01*
X241765832Y-58584608D01*
X241765744Y-58585101D01*
X241765743Y-58585109D01*
X241730962Y-58782365D01*
X241730875Y-58782861D01*
X241730875Y-58783363D01*
X241730875Y-58871497D01*
X241729331Y-58877252D01*
X241725114Y-58881463D01*
X241719356Y-58882997D01*
X240356349Y-58880750D01*
X235881349Y-58880750D01*
X230831349Y-58880750D01*
X226356349Y-58880750D01*
X221306349Y-58880750D01*
X216831349Y-58880750D01*
X211781349Y-58880750D01*
X207306349Y-58880750D01*
X202256349Y-58880750D01*
X197781349Y-58880750D01*
X192731349Y-58880750D01*
X188256349Y-58880750D01*
X183206349Y-58880750D01*
X178731349Y-58880750D01*
X173681349Y-58880750D01*
X169206349Y-58880750D01*
X164156349Y-58880750D01*
X159681349Y-58880750D01*
X154631349Y-58880750D01*
X150156349Y-58880750D01*
X145106349Y-58880750D01*
X140631349Y-58880750D01*
X135581349Y-58880750D01*
X131106349Y-58880750D01*
X126056349Y-58880750D01*
X121581349Y-58880750D01*
X116531349Y-58880750D01*
X112056349Y-58880750D01*
X107006349Y-58880750D01*
X102531349Y-58880750D01*
X97481349Y-58880750D01*
X93006349Y-58880750D01*
X87956349Y-58880750D01*
X83481349Y-58880750D01*
X78431349Y-58880750D01*
X73956151Y-58880750D01*
X73956150Y-58880750D01*
X72593394Y-58882997D01*
X72587636Y-58881463D01*
X72583419Y-58877252D01*
X72581875Y-58871497D01*
X72581875Y-58783363D01*
X72581875Y-58782861D01*
X72546918Y-58584608D01*
X72478065Y-58395437D01*
X72377410Y-58221096D01*
X72248009Y-58066883D01*
X72171816Y-58002949D01*
X72094186Y-57937809D01*
X72094184Y-57937807D01*
X72093796Y-57937482D01*
X72093358Y-57937229D01*
X72093355Y-57937227D01*
X71919892Y-57837079D01*
X71919889Y-57837077D01*
X71919455Y-57836827D01*
X71918981Y-57836654D01*
X71918978Y-57836653D01*
X71730763Y-57768148D01*
X71730759Y-57768147D01*
X71730284Y-57767974D01*
X71729787Y-57767886D01*
X71729782Y-57767885D01*
X71532526Y-57733104D01*
X71532522Y-57733103D01*
X71532031Y-57733017D01*
X71330719Y-57733017D01*
X71330228Y-57733103D01*
X71330223Y-57733104D01*
X71132967Y-57767885D01*
X71132959Y-57767886D01*
X71132466Y-57767974D01*
X71131993Y-57768146D01*
X71131986Y-57768148D01*
X70943771Y-57836653D01*
X70943763Y-57836656D01*
X70943295Y-57836827D01*
X70942864Y-57837075D01*
X70942857Y-57837079D01*
X70769394Y-57937227D01*
X70769386Y-57937232D01*
X70768954Y-57937482D01*
X70768570Y-57937803D01*
X70768563Y-57937809D01*
X70615132Y-58066554D01*
X70615126Y-58066559D01*
X70614741Y-58066883D01*
X70614417Y-58067268D01*
X70614412Y-58067274D01*
X70485667Y-58220705D01*
X70485661Y-58220712D01*
X70485340Y-58221096D01*
X70485090Y-58221528D01*
X70485085Y-58221536D01*
X70384937Y-58394999D01*
X70384933Y-58395006D01*
X70384685Y-58395437D01*
X70384514Y-58395905D01*
X70384511Y-58395913D01*
X70316006Y-58584128D01*
X70316004Y-58584135D01*
X70315832Y-58584608D01*
X70315744Y-58585101D01*
X70315743Y-58585109D01*
X70280962Y-58782365D01*
X70280875Y-58782861D01*
X70280875Y-58783363D01*
X70280875Y-58871497D01*
X70279331Y-58877252D01*
X70275114Y-58881463D01*
X70269356Y-58882997D01*
X68906349Y-58880750D01*
X64431349Y-58880750D01*
X59668849Y-58880750D01*
X54906349Y-58880750D01*
X54906250Y-58880709D01*
X54906151Y-58880750D01*
X54905867Y-58880867D01*
X54905709Y-58881250D01*
X54905750Y-58881349D01*
X54905750Y-72881151D01*
X54905709Y-72881250D01*
X54905750Y-72881349D01*
X54905867Y-72881633D01*
X54906250Y-72881791D01*
X54906349Y-72881750D01*
X59668651Y-72881750D01*
X59668849Y-72881750D01*
X64431151Y-72881750D01*
X64431349Y-72881750D01*
X68906151Y-72881750D01*
X68906349Y-72881750D01*
X73668651Y-72881750D01*
X73668849Y-72881750D01*
X73956151Y-72881750D01*
X73956349Y-72881750D01*
X78431151Y-72881750D01*
X78431349Y-72881750D01*
X83481151Y-72881750D01*
X83481349Y-72881750D01*
X87956151Y-72881750D01*
X87956349Y-72881750D01*
X93006151Y-72881750D01*
X93006349Y-72881750D01*
X97481151Y-72881750D01*
X97481349Y-72881750D01*
X102531151Y-72881750D01*
X102531349Y-72881750D01*
X107006151Y-72881750D01*
X107006349Y-72881750D01*
X112056151Y-72881750D01*
X112056349Y-72881750D01*
X116531151Y-72881750D01*
X116531349Y-72881750D01*
X121581151Y-72881750D01*
X121581349Y-72881750D01*
X126056151Y-72881750D01*
X126056349Y-72881750D01*
X131106151Y-72881750D01*
X131106349Y-72881750D01*
X135581151Y-72881750D01*
X135581349Y-72881750D01*
X140631151Y-72881750D01*
X140631349Y-72881750D01*
X145106151Y-72881750D01*
X145106349Y-72881750D01*
X149573992Y-72881750D01*
X149581322Y-72884389D01*
X149585288Y-72891095D01*
X149584070Y-72898790D01*
X149578225Y-72903942D01*
X149465694Y-72948496D01*
X149465691Y-72948497D01*
X149465018Y-72948764D01*
X149464438Y-72949184D01*
X149464433Y-72949188D01*
X149337743Y-73041234D01*
X149337740Y-73041236D01*
X149337163Y-73041656D01*
X149336706Y-73042207D01*
X149336703Y-73042211D01*
X149236888Y-73162867D01*
X149236883Y-73162873D01*
X149236426Y-73163427D01*
X149236119Y-73164078D01*
X149236116Y-73164084D01*
X149169444Y-73305767D01*
X149169441Y-73305774D01*
X149169136Y-73306424D01*
X149169000Y-73307134D01*
X149169000Y-73307136D01*
X149139658Y-73460951D01*
X149139657Y-73460955D01*
X149139523Y-73461662D01*
X149139568Y-73462380D01*
X149139568Y-73462383D01*
X149149400Y-73618667D01*
X149149400Y-73618672D01*
X149149446Y-73619388D01*
X149149667Y-73620068D01*
X149149668Y-73620073D01*
X149198058Y-73769001D01*
X149198060Y-73769006D01*
X149198283Y-73769691D01*
X149282964Y-73903127D01*
X149283492Y-73903623D01*
X149283494Y-73903625D01*
X149344426Y-73960844D01*
X149398168Y-74011312D01*
X149536658Y-74087447D01*
X149689731Y-74126750D01*
X149690450Y-74126750D01*
X149697015Y-74126750D01*
X149704887Y-74129867D01*
X149708492Y-74137528D01*
X149705876Y-74145580D01*
X149698456Y-74149659D01*
X149612681Y-74160494D01*
X149612675Y-74160495D01*
X149611958Y-74160586D01*
X149611285Y-74160852D01*
X149611279Y-74160854D01*
X149465694Y-74218496D01*
X149465691Y-74218497D01*
X149465018Y-74218764D01*
X149464438Y-74219184D01*
X149464433Y-74219188D01*
X149337743Y-74311234D01*
X149337740Y-74311236D01*
X149337163Y-74311656D01*
X149336706Y-74312207D01*
X149336703Y-74312211D01*
X149236888Y-74432867D01*
X149236883Y-74432873D01*
X149236426Y-74433427D01*
X149236119Y-74434078D01*
X149236116Y-74434084D01*
X149169444Y-74575767D01*
X149169441Y-74575774D01*
X149169136Y-74576424D01*
X149169000Y-74577134D01*
X149169000Y-74577136D01*
X149139658Y-74730951D01*
X149139657Y-74730955D01*
X149139523Y-74731662D01*
X149139568Y-74732380D01*
X149139568Y-74732383D01*
X149149400Y-74888667D01*
X149149400Y-74888672D01*
X149149446Y-74889388D01*
X149149667Y-74890068D01*
X149149668Y-74890073D01*
X149198058Y-75039001D01*
X149198060Y-75039006D01*
X149198283Y-75039691D01*
X149282964Y-75173127D01*
X149283492Y-75173623D01*
X149283494Y-75173625D01*
X149344426Y-75230844D01*
X149398168Y-75281312D01*
X149536658Y-75357447D01*
X149689731Y-75396750D01*
X149690450Y-75396750D01*
X149697015Y-75396750D01*
X149704887Y-75399867D01*
X149708492Y-75407528D01*
X149705876Y-75415580D01*
X149698456Y-75419659D01*
X149612681Y-75430494D01*
X149612675Y-75430495D01*
X149611958Y-75430586D01*
X149611285Y-75430852D01*
X149611279Y-75430854D01*
X149465694Y-75488496D01*
X149465691Y-75488497D01*
X149465018Y-75488764D01*
X149464438Y-75489184D01*
X149464433Y-75489188D01*
X149337743Y-75581234D01*
X149337740Y-75581236D01*
X149337163Y-75581656D01*
X149336706Y-75582207D01*
X149336703Y-75582211D01*
X149236888Y-75702867D01*
X149236883Y-75702873D01*
X149236426Y-75703427D01*
X149236119Y-75704078D01*
X149236116Y-75704084D01*
X149169444Y-75845767D01*
X149169441Y-75845774D01*
X149169136Y-75846424D01*
X149169000Y-75847134D01*
X149169000Y-75847136D01*
X149139658Y-76000951D01*
X149139657Y-76000955D01*
X149139523Y-76001662D01*
X149139568Y-76002380D01*
X149139568Y-76002383D01*
X149149400Y-76158667D01*
X149149400Y-76158672D01*
X149149446Y-76159388D01*
X149149667Y-76160068D01*
X149149668Y-76160073D01*
X149198058Y-76309001D01*
X149198060Y-76309006D01*
X149198283Y-76309691D01*
X149282964Y-76443127D01*
X149283492Y-76443623D01*
X149283494Y-76443625D01*
X149344426Y-76500844D01*
X149398168Y-76551312D01*
X149536658Y-76627447D01*
X149689731Y-76666750D01*
X149690450Y-76666750D01*
X149697015Y-76666750D01*
X149704887Y-76669867D01*
X149708492Y-76677528D01*
X149705876Y-76685580D01*
X149698456Y-76689659D01*
X149612681Y-76700494D01*
X149612675Y-76700495D01*
X149611958Y-76700586D01*
X149611285Y-76700852D01*
X149611279Y-76700854D01*
X149465694Y-76758496D01*
X149465691Y-76758497D01*
X149465018Y-76758764D01*
X149464438Y-76759184D01*
X149464433Y-76759188D01*
X149337743Y-76851234D01*
X149337740Y-76851236D01*
X149337163Y-76851656D01*
X149336706Y-76852207D01*
X149336703Y-76852211D01*
X149236888Y-76972867D01*
X149236883Y-76972873D01*
X149236426Y-76973427D01*
X149236119Y-76974078D01*
X149236116Y-76974084D01*
X149169444Y-77115767D01*
X149169441Y-77115774D01*
X149169136Y-77116424D01*
X149169000Y-77117134D01*
X149169000Y-77117136D01*
X149139658Y-77270951D01*
X149139657Y-77270955D01*
X149139523Y-77271662D01*
X149139568Y-77272380D01*
X149139568Y-77272383D01*
X149149400Y-77428667D01*
X149149400Y-77428672D01*
X149149446Y-77429388D01*
X149149667Y-77430068D01*
X149149668Y-77430073D01*
X149198058Y-77579001D01*
X149198060Y-77579006D01*
X149198283Y-77579691D01*
X149282964Y-77713127D01*
X149283492Y-77713623D01*
X149283494Y-77713625D01*
X149344426Y-77770844D01*
X149398168Y-77821312D01*
X149536658Y-77897447D01*
X149537358Y-77897626D01*
X149537359Y-77897627D01*
X149578191Y-77908111D01*
X149584842Y-77912786D01*
X149586740Y-77920691D01*
X149582936Y-77927876D01*
X149575331Y-77930750D01*
X145106349Y-77930750D01*
X135868849Y-77930750D01*
X131106349Y-77930750D01*
X126056349Y-77930750D01*
X116818849Y-77930750D01*
X112056349Y-77930750D01*
X107006349Y-77930750D01*
X97768849Y-77930750D01*
X93006349Y-77930750D01*
X87956349Y-77930750D01*
X78718849Y-77930750D01*
X68906349Y-77930750D01*
X59668849Y-77930750D01*
X57287599Y-77930750D01*
X54906349Y-77930750D01*
X54906250Y-77930709D01*
X54906151Y-77930750D01*
X54905867Y-77930867D01*
X54905709Y-77931250D01*
X54905750Y-77931349D01*
X54905750Y-91931151D01*
X54905709Y-91931250D01*
X51806875Y-91931250D01*
X51806875Y-58883814D01*
X51806891Y-58883212D01*
X51812123Y-58783363D01*
X51813869Y-58750047D01*
X51824929Y-58553090D01*
X51825048Y-58551981D01*
X51850154Y-58393458D01*
X51879380Y-58221443D01*
X51879602Y-58220430D01*
X51922267Y-58061199D01*
X51922309Y-58061050D01*
X51949750Y-57965797D01*
X51969377Y-57897668D01*
X51969670Y-57896796D01*
X52029424Y-57741127D01*
X52029483Y-57740979D01*
X52093851Y-57585580D01*
X52094215Y-57584790D01*
X52170342Y-57435381D01*
X52170451Y-57435176D01*
X52251363Y-57288773D01*
X52251730Y-57288163D01*
X52343368Y-57147049D01*
X52343536Y-57146802D01*
X52440056Y-57010769D01*
X52440444Y-57010258D01*
X52546467Y-56879328D01*
X52546727Y-56879022D01*
X52657733Y-56754804D01*
X52658095Y-56754422D01*
X52777280Y-56635235D01*
X52777686Y-56634852D01*
X52901886Y-56523858D01*
X52902202Y-56523589D01*
X53033110Y-56417580D01*
X53033652Y-56417170D01*
X53169703Y-56320635D01*
X53169919Y-56320489D01*
X53311013Y-56228860D01*
X53311626Y-56228492D01*
X53458038Y-56147571D01*
X53458275Y-56147446D01*
X53607677Y-56071320D01*
X53608421Y-56070977D01*
X53763882Y-56006580D01*
X53919658Y-55946782D01*
X53920515Y-55946495D01*
X54083927Y-55899414D01*
X54243304Y-55856707D01*
X54244303Y-55856489D01*
X54416289Y-55827265D01*
X54574815Y-55802156D01*
X54575924Y-55802037D01*
X54780159Y-55790590D01*
X54780274Y-55790584D01*
X54780274Y-55790599D01*
X54780309Y-55790582D01*
X54905594Y-55784015D01*
X54906276Y-55784067D01*
G37*
%TD.AperFunction*%
%TD*%
M02*
