%TF.GenerationSoftware,KiCad,Pcbnew,(7.0.0)*%
%TF.CreationDate,2024-01-31T23:32:52+01:00*%
%TF.ProjectId,universal vault v2,756e6976-6572-4736-916c-207661756c74,rev?*%
%TF.SameCoordinates,Original*%
%TF.FileFunction,Soldermask,Top*%
%TF.FilePolarity,Negative*%
%FSLAX46Y46*%
G04 Gerber Fmt 4.6, Leading zero omitted, Abs format (unit mm)*
G04 Created by KiCad (PCBNEW (7.0.0)) date 2024-01-31 23:32:52*
%MOMM*%
%LPD*%
G01*
G04 APERTURE LIST*
%ADD10C,1.750000*%
%ADD11C,3.987800*%
%ADD12C,3.048000*%
%ADD13R,1.350000X1.350000*%
%ADD14O,1.350000X1.350000*%
%ADD15C,0.650000*%
%ADD16O,1.000000X1.600000*%
%ADD17O,1.000000X2.100000*%
G04 APERTURE END LIST*
D10*
%TO.C,K_SPACE4*%
X61595000Y66675000D03*
D11*
X66675000Y66675000D03*
D10*
X71755000Y66675000D03*
%TD*%
%TO.C,K_SPACE68*%
X113982500Y47625000D03*
D11*
X119062500Y47625000D03*
D10*
X124142500Y47625000D03*
%TD*%
%TO.C,K_SPACE17*%
X99695000Y47625000D03*
D11*
X104775000Y47625000D03*
D10*
X109855000Y47625000D03*
%TD*%
D12*
%TO.C,S6*%
X95250000Y2540000D03*
D11*
X95250000Y17780000D03*
D12*
X57150000Y2540000D03*
D11*
X57150000Y17780000D03*
%TD*%
D10*
%TO.C,K_SPACE30*%
X128270000Y28575000D03*
D11*
X133350000Y28575000D03*
D10*
X138430000Y28575000D03*
%TD*%
%TO.C,K_SPACE118*%
X147320000Y9525000D03*
D11*
X152400000Y9525000D03*
D10*
X157480000Y9525000D03*
%TD*%
%TO.C,K_SPACE94*%
X94932500Y28575000D03*
D11*
X100012500Y28575000D03*
D10*
X105092500Y28575000D03*
%TD*%
%TO.C,K_SPACE73*%
X28257500Y47625000D03*
D11*
X33337500Y47625000D03*
D10*
X38417500Y47625000D03*
%TD*%
%TO.C,K_SPACE117*%
X52070000Y9525000D03*
D11*
X57150000Y9525000D03*
D10*
X62230000Y9525000D03*
%TD*%
%TO.C,K_SPACE107*%
X35401250Y9525000D03*
D11*
X40481250Y9525000D03*
D10*
X45561250Y9525000D03*
%TD*%
%TO.C,K_SPACE83*%
X23495000Y28575000D03*
D11*
X28575000Y28575000D03*
D10*
X33655000Y28575000D03*
%TD*%
D12*
%TO.C,S3*%
X135731250Y2540000D03*
D11*
X135731250Y17780000D03*
D12*
X111918750Y2540000D03*
D11*
X111918750Y17780000D03*
%TD*%
D10*
%TO.C,K_SPACE124*%
X73501250Y9525000D03*
D11*
X78581250Y9525000D03*
D10*
X83661250Y9525000D03*
%TD*%
%TO.C,K_SPACE28*%
X87788750Y47625000D03*
D11*
X92868750Y47625000D03*
D10*
X97948750Y47625000D03*
%TD*%
%TO.C,K_SPACE72*%
X190182500Y47625000D03*
D11*
X195262500Y47625000D03*
D10*
X200342500Y47625000D03*
%TD*%
%TO.C,K_SPACE95*%
X192563750Y57150000D03*
D11*
X197643750Y57150000D03*
D10*
X202723750Y57150000D03*
%TD*%
%TO.C,K_SPACE9*%
X156845000Y66675000D03*
D11*
X161925000Y66675000D03*
D10*
X167005000Y66675000D03*
%TD*%
%TO.C,K_SPACE21*%
X175895000Y47625000D03*
D11*
X180975000Y47625000D03*
D10*
X186055000Y47625000D03*
%TD*%
%TO.C,K_SPACE33*%
X190182500Y28575000D03*
D11*
X195262500Y28575000D03*
D10*
X200342500Y28575000D03*
%TD*%
%TO.C,K_SPACE55*%
X71120000Y66675000D03*
D11*
X76200000Y66675000D03*
D10*
X81280000Y66675000D03*
%TD*%
%TO.C,K_SPACE121*%
X121126250Y9525000D03*
D11*
X126206250Y9525000D03*
D10*
X131286250Y9525000D03*
%TD*%
D12*
%TO.C,S5*%
X138112500Y2540000D03*
D11*
X138112500Y17780000D03*
D12*
X114300000Y2540000D03*
D11*
X114300000Y17780000D03*
%TD*%
D10*
%TO.C,K_SPACE115*%
X116363750Y9525000D03*
D11*
X121443750Y9525000D03*
D10*
X126523750Y9525000D03*
%TD*%
%TO.C,K_SPACE15*%
X61595000Y47625000D03*
D11*
X66675000Y47625000D03*
D10*
X71755000Y47625000D03*
%TD*%
%TO.C,K_SPACE70*%
X152082500Y47625000D03*
D11*
X157162500Y47625000D03*
D10*
X162242500Y47625000D03*
%TD*%
%TO.C,K_SPACE38*%
X123507500Y9525000D03*
D11*
X128587500Y9525000D03*
D10*
X133667500Y9525000D03*
%TD*%
%TO.C,K_SPACE98*%
X152082500Y28575000D03*
D11*
X157162500Y28575000D03*
D10*
X162242500Y28575000D03*
%TD*%
%TO.C,K_SPACE78*%
X123507500Y47625000D03*
D11*
X128587500Y47625000D03*
D10*
X133667500Y47625000D03*
%TD*%
%TO.C,K_SPACE101*%
X192563750Y47625000D03*
D11*
X197643750Y47625000D03*
D10*
X202723750Y47625000D03*
%TD*%
%TO.C,K_SPACE10*%
X175895000Y66675000D03*
D11*
X180975000Y66675000D03*
D10*
X186055000Y66675000D03*
%TD*%
%TO.C,K_SPACE74*%
X47307500Y47625000D03*
D11*
X52387500Y47625000D03*
D10*
X57467500Y47625000D03*
%TD*%
%TO.C,K_SPACE99*%
X171132500Y28575000D03*
D11*
X176212500Y28575000D03*
D10*
X181292500Y28575000D03*
%TD*%
%TO.C,K_SPACE85*%
X61595000Y28575000D03*
D11*
X66675000Y28575000D03*
D10*
X71755000Y28575000D03*
%TD*%
%TO.C,K_SPACE110*%
X99695000Y9525000D03*
D11*
X104775000Y9525000D03*
D10*
X109855000Y9525000D03*
%TD*%
%TO.C,K_SPACE2*%
X23495000Y66675000D03*
D11*
X28575000Y66675000D03*
D10*
X33655000Y66675000D03*
%TD*%
%TO.C,K_SPACE92*%
X56832500Y28575000D03*
D11*
X61912500Y28575000D03*
D10*
X66992500Y28575000D03*
%TD*%
%TO.C,K_SPACE34*%
X111601250Y47625000D03*
D11*
X116681250Y47625000D03*
D10*
X121761250Y47625000D03*
%TD*%
%TO.C,K_SPACE14*%
X42545000Y47625000D03*
D11*
X47625000Y47625000D03*
D10*
X52705000Y47625000D03*
%TD*%
%TO.C,K_SPACE77*%
X104457500Y47625000D03*
D11*
X109537500Y47625000D03*
D10*
X114617500Y47625000D03*
%TD*%
%TO.C,K_SPACE32*%
X166370000Y28575000D03*
D11*
X171450000Y28575000D03*
D10*
X176530000Y28575000D03*
%TD*%
%TO.C,K_SPACE114*%
X83026250Y9525000D03*
D11*
X88106250Y9525000D03*
D10*
X93186250Y9525000D03*
%TD*%
%TO.C,K_SPACE67*%
X6826250Y47625000D03*
D11*
X11906250Y47625000D03*
D10*
X16986250Y47625000D03*
%TD*%
%TO.C,K_SPACE108*%
X140176250Y9525000D03*
D11*
X145256250Y9525000D03*
D10*
X150336250Y9525000D03*
%TD*%
%TO.C,K_SPACE37*%
X75882500Y9525000D03*
D11*
X80962500Y9525000D03*
D10*
X86042500Y9525000D03*
%TD*%
%TO.C,K_SPACE71*%
X171132500Y47625000D03*
D11*
X176212500Y47625000D03*
D10*
X181292500Y47625000D03*
%TD*%
%TO.C,K_SPACE88*%
X137961250Y28575000D03*
D11*
X143041250Y28575000D03*
D10*
X148121250Y28575000D03*
%TD*%
%TO.C,K_SPACE50*%
X11588750Y28575000D03*
D11*
X16668750Y28575000D03*
D10*
X21748750Y28575000D03*
%TD*%
%TO.C,K_SPACE57*%
X9207500Y47625000D03*
D11*
X14287500Y47625000D03*
D10*
X19367500Y47625000D03*
%TD*%
%TO.C,K_SPACE26*%
X71120000Y28575000D03*
D11*
X76200000Y28575000D03*
D10*
X81280000Y28575000D03*
%TD*%
%TO.C,K_SPACE90*%
X176061250Y28575000D03*
D11*
X181141250Y28575000D03*
D10*
X186221250Y28575000D03*
%TD*%
%TO.C,K_SPACE116*%
X128270000Y9525000D03*
D11*
X133350000Y9525000D03*
D10*
X138430000Y9525000D03*
%TD*%
%TO.C,K_SPACE93*%
X75882500Y28575000D03*
D11*
X80962500Y28575000D03*
D10*
X86042500Y28575000D03*
%TD*%
%TO.C,K_SPACE81*%
X187801250Y47625000D03*
D11*
X192881250Y47625000D03*
D10*
X197961250Y47625000D03*
%TD*%
%TO.C,K_SPACE128*%
X71120000Y9525000D03*
D11*
X76200000Y9525000D03*
D10*
X81280000Y9525000D03*
%TD*%
%TO.C,K_SPACE87*%
X118911250Y28575000D03*
D11*
X123991250Y28575000D03*
D10*
X129071250Y28575000D03*
%TD*%
%TO.C,K_SPACE123*%
X161607500Y9525000D03*
D11*
X166687500Y9525000D03*
D10*
X171767500Y9525000D03*
%TD*%
%TO.C,K_SPACE97*%
X133032500Y28575000D03*
D11*
X138112500Y28575000D03*
D10*
X143192500Y28575000D03*
%TD*%
D12*
%TO.C,S7*%
X152400000Y2540000D03*
D11*
X152400000Y17780000D03*
D12*
X114300000Y2540000D03*
D11*
X114300000Y17780000D03*
%TD*%
D10*
%TO.C,K_SPACE69*%
X133032500Y47625000D03*
D11*
X138112500Y47625000D03*
D10*
X143192500Y47625000D03*
%TD*%
%TO.C,K_SPACE56*%
X90170000Y66675000D03*
D11*
X95250000Y66675000D03*
D10*
X100330000Y66675000D03*
%TD*%
%TO.C,K_SPACE62*%
X195580000Y66675000D03*
D11*
X190500000Y66675000D03*
D10*
X185420000Y66675000D03*
%TD*%
%TO.C,K_SPACE109*%
X163988750Y9525000D03*
D11*
X169068750Y9525000D03*
D10*
X174148750Y9525000D03*
%TD*%
%TO.C,K_SPACE25*%
X52070000Y28575000D03*
D11*
X57150000Y28575000D03*
D10*
X62230000Y28575000D03*
%TD*%
%TO.C,K_SPACE63*%
X28257500Y47625000D03*
D11*
X33337500Y47625000D03*
D10*
X38417500Y47625000D03*
%TD*%
%TO.C,K_SPACE51*%
X37782500Y28575000D03*
D11*
X42862500Y28575000D03*
D10*
X47942500Y28575000D03*
%TD*%
%TO.C,K_SPACE60*%
X147320000Y66675000D03*
D11*
X152400000Y66675000D03*
D10*
X157480000Y66675000D03*
%TD*%
%TO.C,K_SPACE103*%
X19367500Y66675000D03*
D11*
X14287500Y66675000D03*
D10*
X9207500Y66675000D03*
%TD*%
%TO.C,K_SPACE102*%
X200342500Y66675000D03*
D11*
X195262500Y66675000D03*
D10*
X190182500Y66675000D03*
%TD*%
%TO.C,K_SPACE39*%
X71120000Y9525000D03*
D11*
X76200000Y9525000D03*
D10*
X81280000Y9525000D03*
%TD*%
%TO.C,K_SPACE8*%
X137795000Y66675000D03*
D11*
X142875000Y66675000D03*
D10*
X147955000Y66675000D03*
%TD*%
%TO.C,K_SPACE86*%
X80645000Y28575000D03*
D11*
X85725000Y28575000D03*
D10*
X90805000Y28575000D03*
%TD*%
%TO.C,K_SPACE100*%
X192563750Y28575000D03*
D11*
X197643750Y28575000D03*
D10*
X202723750Y28575000D03*
%TD*%
%TO.C,K_SPACE66*%
X85407500Y47625000D03*
D11*
X90487500Y47625000D03*
D10*
X95567500Y47625000D03*
%TD*%
%TO.C,K_SPACE79*%
X142557500Y47625000D03*
D11*
X147637500Y47625000D03*
D10*
X152717500Y47625000D03*
%TD*%
%TO.C,K_SPACE64*%
X47307500Y47625000D03*
D11*
X52387500Y47625000D03*
D10*
X57467500Y47625000D03*
%TD*%
%TO.C,K_SPACE20*%
X156845000Y47625000D03*
D11*
X161925000Y47625000D03*
D10*
X167005000Y47625000D03*
%TD*%
%TO.C,K_SPACE49*%
X99695000Y28575000D03*
D11*
X104775000Y28575000D03*
D10*
X109855000Y28575000D03*
%TD*%
%TO.C,K_SPACE59*%
X128270000Y66675000D03*
D11*
X133350000Y66675000D03*
D10*
X138430000Y66675000D03*
%TD*%
%TO.C,K_SPACE104*%
X6826250Y47625000D03*
D11*
X11906250Y47625000D03*
D10*
X16986250Y47625000D03*
%TD*%
%TO.C,K_SPACE84*%
X42545000Y28575000D03*
D11*
X47625000Y28575000D03*
D10*
X52705000Y28575000D03*
%TD*%
%TO.C,K_SPACE106*%
X59213750Y9525000D03*
D11*
X64293750Y9525000D03*
D10*
X69373750Y9525000D03*
%TD*%
D12*
%TO.C,S2*%
X97631250Y2540000D03*
D11*
X97631250Y17780000D03*
D12*
X73818750Y2540000D03*
D11*
X73818750Y17780000D03*
%TD*%
D10*
%TO.C,K_SPACE125*%
X118745000Y9525000D03*
D11*
X123825000Y9525000D03*
D10*
X128905000Y9525000D03*
%TD*%
%TO.C,K_SPACE11*%
X194945000Y66675000D03*
D11*
X200025000Y66675000D03*
D10*
X205105000Y66675000D03*
%TD*%
%TO.C,K_SPACE91*%
X195111250Y28575000D03*
D11*
X200191250Y28575000D03*
D10*
X205271250Y28575000D03*
%TD*%
%TO.C,K_SPACE122*%
X37782500Y9525000D03*
D11*
X42862500Y9525000D03*
D10*
X47942500Y9525000D03*
%TD*%
%TO.C,K_SPACE129*%
X128270000Y9525000D03*
D11*
X133350000Y9525000D03*
D10*
X138430000Y9525000D03*
%TD*%
%TO.C,K_SPACE113*%
X166370000Y9525000D03*
D11*
X171450000Y9525000D03*
D10*
X176530000Y9525000D03*
%TD*%
%TO.C,K_SPACE19*%
X137795000Y47625000D03*
D11*
X142875000Y47625000D03*
D10*
X147955000Y47625000D03*
%TD*%
%TO.C,K_SPACE23*%
X9207500Y28575000D03*
D11*
X14287500Y28575000D03*
D10*
X19367500Y28575000D03*
%TD*%
%TO.C,K_SPACE16*%
X80645000Y47625000D03*
D11*
X85725000Y47625000D03*
D10*
X90805000Y47625000D03*
%TD*%
%TO.C,K_SPACE105*%
X33020000Y9525000D03*
D11*
X38100000Y9525000D03*
D10*
X43180000Y9525000D03*
%TD*%
%TO.C,K_SPACE12*%
X4445000Y47625000D03*
D11*
X9525000Y47625000D03*
D10*
X14605000Y47625000D03*
%TD*%
%TO.C,K_SPACE22*%
X194945000Y47625000D03*
D11*
X200025000Y47625000D03*
D10*
X205105000Y47625000D03*
%TD*%
%TO.C,K_SPACE52*%
X24130000Y66675000D03*
D11*
X19050000Y66675000D03*
D10*
X13970000Y66675000D03*
%TD*%
%TO.C,K_SPACE65*%
X66357500Y47625000D03*
D11*
X71437500Y47625000D03*
D10*
X76517500Y47625000D03*
%TD*%
D12*
%TO.C,S9*%
X123825000Y2540000D03*
D11*
X123825000Y17780000D03*
D12*
X85725000Y2540000D03*
D11*
X85725000Y17780000D03*
%TD*%
D10*
%TO.C,K_SPACE53*%
X43180000Y66675000D03*
D11*
X38100000Y66675000D03*
D10*
X33020000Y66675000D03*
%TD*%
%TO.C,K_SPACE3*%
X42545000Y66675000D03*
D11*
X47625000Y66675000D03*
D10*
X52705000Y66675000D03*
%TD*%
D12*
%TO.C,S8*%
X152400000Y2540000D03*
D11*
X152400000Y17780000D03*
D12*
X57150000Y2540000D03*
D11*
X57150000Y17780000D03*
%TD*%
D10*
%TO.C,K_SPACE80*%
X161607500Y47625000D03*
D11*
X166687500Y47625000D03*
D10*
X171767500Y47625000D03*
%TD*%
%TO.C,K_SPACE7*%
X118745000Y66675000D03*
D11*
X123825000Y66675000D03*
D10*
X128905000Y66675000D03*
%TD*%
%TO.C,K_SPACE96*%
X113982500Y28575000D03*
D11*
X119062500Y28575000D03*
D10*
X124142500Y28575000D03*
%TD*%
%TO.C,K_SPACE6*%
X99695000Y66675000D03*
D11*
X104775000Y66675000D03*
D10*
X109855000Y66675000D03*
%TD*%
%TO.C,K_SPACE82*%
X4445000Y28575000D03*
D11*
X9525000Y28575000D03*
D10*
X14605000Y28575000D03*
%TD*%
%TO.C,K_SPACE111*%
X54451250Y9525000D03*
D11*
X59531250Y9525000D03*
D10*
X64611250Y9525000D03*
%TD*%
%TO.C,K_SPACE89*%
X157011250Y28575000D03*
D11*
X162091250Y28575000D03*
D10*
X167171250Y28575000D03*
%TD*%
%TO.C,K_SPACE29*%
X109220000Y28575000D03*
D11*
X114300000Y28575000D03*
D10*
X119380000Y28575000D03*
%TD*%
%TO.C,K_SPACE5*%
X80645000Y66675000D03*
D11*
X85725000Y66675000D03*
D10*
X90805000Y66675000D03*
%TD*%
%TO.C,K_SPACE120*%
X80645000Y9525000D03*
D11*
X85725000Y9525000D03*
D10*
X90805000Y9525000D03*
%TD*%
D12*
%TO.C,S4*%
X90487500Y2540000D03*
D11*
X90487500Y17780000D03*
D12*
X66675000Y2540000D03*
D11*
X66675000Y17780000D03*
%TD*%
D10*
%TO.C,K_SPACE58*%
X109220000Y66675000D03*
D11*
X114300000Y66675000D03*
D10*
X119380000Y66675000D03*
%TD*%
%TO.C,K_SPACE75*%
X66357500Y47625000D03*
D11*
X71437500Y47625000D03*
D10*
X76517500Y47625000D03*
%TD*%
%TO.C,K_SPACE27*%
X90170000Y28575000D03*
D11*
X95250000Y28575000D03*
D10*
X100330000Y28575000D03*
%TD*%
%TO.C,K_SPACE61*%
X166370000Y66675000D03*
D11*
X171450000Y66675000D03*
D10*
X176530000Y66675000D03*
%TD*%
%TO.C,K_SPACE24*%
X33020000Y28575000D03*
D11*
X38100000Y28575000D03*
D10*
X43180000Y28575000D03*
%TD*%
%TO.C,K_SPACE18*%
X118745000Y47625000D03*
D11*
X123825000Y47625000D03*
D10*
X128905000Y47625000D03*
%TD*%
%TO.C,K_SPACE76*%
X85407500Y47625000D03*
D11*
X90487500Y47625000D03*
D10*
X95567500Y47625000D03*
%TD*%
%TO.C,K_SPACE31*%
X147320000Y28575000D03*
D11*
X152400000Y28575000D03*
D10*
X157480000Y28575000D03*
%TD*%
%TO.C,K_SPACE1*%
X4445000Y66675000D03*
D11*
X9525000Y66675000D03*
D10*
X14605000Y66675000D03*
%TD*%
%TO.C,K_SPACE112*%
X144938750Y9525000D03*
D11*
X150018750Y9525000D03*
D10*
X155098750Y9525000D03*
%TD*%
D12*
%TO.C,S1*%
X190658750Y69056250D03*
X190658750Y45243750D03*
D11*
X205898750Y69056250D03*
X205898750Y45243750D03*
%TD*%
D10*
%TO.C,K_SPACE35*%
X90170000Y9525000D03*
D11*
X95250000Y9525000D03*
D10*
X100330000Y9525000D03*
%TD*%
%TO.C,K_SPACE54*%
X52070000Y66675000D03*
D11*
X57150000Y66675000D03*
D10*
X62230000Y66675000D03*
%TD*%
%TO.C,K_SPACE13*%
X23495000Y47625000D03*
D11*
X28575000Y47625000D03*
D10*
X33655000Y47625000D03*
%TD*%
%TO.C,K_SPACE36*%
X109220000Y9525000D03*
D11*
X114300000Y9525000D03*
D10*
X119380000Y9525000D03*
%TD*%
D13*
%TO.C,TP1*%
X100774999Y43396249D03*
D14*
X102774999Y43396249D03*
X104774999Y43396249D03*
X106774999Y43396249D03*
X108774999Y43396249D03*
%TD*%
D15*
%TO.C,J1*%
X35210000Y72012500D03*
X40990000Y72012500D03*
D16*
X33779999Y75662499D03*
D17*
X33779999Y71482499D03*
D16*
X42419999Y75662499D03*
D17*
X42419999Y71482499D03*
%TD*%
M02*
