%TF.GenerationSoftware,KiCad,Pcbnew,(7.0.0)*%
%TF.CreationDate,2023-11-22T09:44:10+01:00*%
%TF.ProjectId,universal vault,756e6976-6572-4736-916c-207661756c74,rev?*%
%TF.SameCoordinates,Original*%
%TF.FileFunction,Soldermask,Bot*%
%TF.FilePolarity,Negative*%
%FSLAX46Y46*%
G04 Gerber Fmt 4.6, Leading zero omitted, Abs format (unit mm)*
G04 Created by KiCad (PCBNEW (7.0.0)) date 2023-11-22 09:44:10*
%MOMM*%
%LPD*%
G01*
G04 APERTURE LIST*
G04 Aperture macros list*
%AMRoundRect*
0 Rectangle with rounded corners*
0 $1 Rounding radius*
0 $2 $3 $4 $5 $6 $7 $8 $9 X,Y pos of 4 corners*
0 Add a 4 corners polygon primitive as box body*
4,1,4,$2,$3,$4,$5,$6,$7,$8,$9,$2,$3,0*
0 Add four circle primitives for the rounded corners*
1,1,$1+$1,$2,$3*
1,1,$1+$1,$4,$5*
1,1,$1+$1,$6,$7*
1,1,$1+$1,$8,$9*
0 Add four rect primitives between the rounded corners*
20,1,$1+$1,$2,$3,$4,$5,0*
20,1,$1+$1,$4,$5,$6,$7,0*
20,1,$1+$1,$6,$7,$8,$9,0*
20,1,$1+$1,$8,$9,$2,$3,0*%
G04 Aperture macros list end*
%ADD10C,1.750000*%
%ADD11C,3.987800*%
%ADD12C,2.300000*%
%ADD13C,3.048000*%
%ADD14C,1.397000*%
%ADD15C,2.000000*%
%ADD16RoundRect,0.500000X0.500000X-0.500000X0.500000X0.500000X-0.500000X0.500000X-0.500000X-0.500000X0*%
%ADD17RoundRect,0.550000X0.550000X-1.150000X0.550000X1.150000X-0.550000X1.150000X-0.550000X-1.150000X0*%
%ADD18RoundRect,0.250000X0.300000X-0.300000X0.300000X0.300000X-0.300000X0.300000X-0.300000X-0.300000X0*%
%ADD19RoundRect,0.105000X0.245000X0.245000X-0.245000X0.245000X-0.245000X-0.245000X0.245000X-0.245000X0*%
%ADD20RoundRect,0.105000X-0.245000X-0.245000X0.245000X-0.245000X0.245000X0.245000X-0.245000X0.245000X0*%
%ADD21RoundRect,0.140000X-0.170000X0.140000X-0.170000X-0.140000X0.170000X-0.140000X0.170000X0.140000X0*%
%ADD22RoundRect,0.135000X0.185000X-0.135000X0.185000X0.135000X-0.185000X0.135000X-0.185000X-0.135000X0*%
%ADD23RoundRect,0.150000X0.150000X-0.512500X0.150000X0.512500X-0.150000X0.512500X-0.150000X-0.512500X0*%
%ADD24RoundRect,0.140000X-0.140000X-0.170000X0.140000X-0.170000X0.140000X0.170000X-0.140000X0.170000X0*%
%ADD25RoundRect,0.140000X0.170000X-0.140000X0.170000X0.140000X-0.170000X0.140000X-0.170000X-0.140000X0*%
%ADD26RoundRect,0.135000X0.135000X0.185000X-0.135000X0.185000X-0.135000X-0.185000X0.135000X-0.185000X0*%
%ADD27RoundRect,0.140000X0.140000X0.170000X-0.140000X0.170000X-0.140000X-0.170000X0.140000X-0.170000X0*%
%ADD28RoundRect,0.275000X0.625000X0.275000X-0.625000X0.275000X-0.625000X-0.275000X0.625000X-0.275000X0*%
%ADD29RoundRect,0.250000X0.625000X-0.375000X0.625000X0.375000X-0.625000X0.375000X-0.625000X-0.375000X0*%
%ADD30RoundRect,0.150000X-0.512500X-0.150000X0.512500X-0.150000X0.512500X0.150000X-0.512500X0.150000X0*%
%ADD31RoundRect,0.250000X0.700000X-0.275000X0.700000X0.275000X-0.700000X0.275000X-0.700000X-0.275000X0*%
%ADD32RoundRect,0.135000X-0.135000X-0.185000X0.135000X-0.185000X0.135000X0.185000X-0.135000X0.185000X0*%
%ADD33C,0.650000*%
%ADD34R,0.600000X1.450000*%
%ADD35R,0.300000X1.450000*%
%ADD36O,1.000000X1.600000*%
%ADD37O,1.000000X2.100000*%
%ADD38R,0.700000X1.000000*%
%ADD39R,0.700000X0.600000*%
%ADD40RoundRect,0.062500X0.062500X-0.375000X0.062500X0.375000X-0.062500X0.375000X-0.062500X-0.375000X0*%
%ADD41RoundRect,0.062500X0.375000X-0.062500X0.375000X0.062500X-0.375000X0.062500X-0.375000X-0.062500X0*%
%ADD42R,5.600000X5.600000*%
G04 APERTURE END LIST*
D10*
%TO.C,K_SPACE4*%
X61595000Y66675000D03*
D11*
X66675000Y66675000D03*
D10*
X71755000Y66675000D03*
D12*
X62865000Y69215000D03*
X69215000Y71755000D03*
%TD*%
D10*
%TO.C,K_SPACE68*%
X113982500Y47625000D03*
D11*
X119062500Y47625000D03*
D10*
X124142500Y47625000D03*
D12*
X115252500Y50165000D03*
X121602500Y52705000D03*
%TD*%
D10*
%TO.C,K_SPACE17*%
X99695000Y47625000D03*
D11*
X104775000Y47625000D03*
D10*
X109855000Y47625000D03*
D12*
X100965000Y50165000D03*
X107315000Y52705000D03*
%TD*%
D13*
%TO.C,S6*%
X95250000Y2540000D03*
D11*
X95250000Y17780000D03*
D13*
X57150000Y2540000D03*
D11*
X57150000Y17780000D03*
%TD*%
D10*
%TO.C,K_SPACE30*%
X128270000Y28575000D03*
D11*
X133350000Y28575000D03*
D10*
X138430000Y28575000D03*
D12*
X129540000Y31115000D03*
X135890000Y33655000D03*
%TD*%
D10*
%TO.C,K_SPACE118*%
X147320000Y9525000D03*
D11*
X152400000Y9525000D03*
D10*
X157480000Y9525000D03*
D12*
X148590000Y12065000D03*
X154940000Y14605000D03*
%TD*%
D10*
%TO.C,K_SPACE94*%
X94932500Y28575000D03*
D11*
X100012500Y28575000D03*
D10*
X105092500Y28575000D03*
D12*
X96202500Y31115000D03*
X102552500Y33655000D03*
%TD*%
D10*
%TO.C,K_SPACE73*%
X28257500Y47625000D03*
D11*
X33337500Y47625000D03*
D10*
X38417500Y47625000D03*
D12*
X29527500Y50165000D03*
X35877500Y52705000D03*
%TD*%
D10*
%TO.C,K_SPACE117*%
X52070000Y9525000D03*
D11*
X57150000Y9525000D03*
D10*
X62230000Y9525000D03*
D12*
X53340000Y12065000D03*
X59690000Y14605000D03*
%TD*%
D10*
%TO.C,K_SPACE107*%
X35401250Y9525000D03*
D11*
X40481250Y9525000D03*
D10*
X45561250Y9525000D03*
D12*
X36671250Y12065000D03*
X43021250Y14605000D03*
%TD*%
D10*
%TO.C,K_SPACE83*%
X23495000Y28575000D03*
D11*
X28575000Y28575000D03*
D10*
X33655000Y28575000D03*
D12*
X24765000Y31115000D03*
X31115000Y33655000D03*
%TD*%
D13*
%TO.C,S3*%
X135731250Y2540000D03*
D11*
X135731250Y17780000D03*
D13*
X111918750Y2540000D03*
D11*
X111918750Y17780000D03*
%TD*%
D10*
%TO.C,K_SPACE124*%
X73501250Y9525000D03*
D11*
X78581250Y9525000D03*
D10*
X83661250Y9525000D03*
D12*
X74771250Y12065000D03*
X81121250Y14605000D03*
%TD*%
D10*
%TO.C,K_SPACE28*%
X87788750Y47625000D03*
D11*
X92868750Y47625000D03*
D10*
X97948750Y47625000D03*
D12*
X89058750Y50165000D03*
X95408750Y52705000D03*
%TD*%
D10*
%TO.C,K_SPACE72*%
X190182500Y47625000D03*
D11*
X195262500Y47625000D03*
D10*
X200342500Y47625000D03*
D12*
X191452500Y50165000D03*
X197802500Y52705000D03*
%TD*%
D14*
%TO.C,OL2*%
X108585000Y75406250D03*
X106045000Y75406250D03*
X103505000Y75406250D03*
X100965000Y75406250D03*
%TD*%
D10*
%TO.C,K_SPACE95*%
X192563750Y57150000D03*
D11*
X197643750Y57150000D03*
D10*
X202723750Y57150000D03*
D12*
X193833750Y59690000D03*
X200183750Y62230000D03*
%TD*%
D10*
%TO.C,K_SPACE9*%
X156845000Y66675000D03*
D11*
X161925000Y66675000D03*
D10*
X167005000Y66675000D03*
D12*
X158115000Y69215000D03*
X164465000Y71755000D03*
%TD*%
D10*
%TO.C,K_SPACE21*%
X175895000Y47625000D03*
D11*
X180975000Y47625000D03*
D10*
X186055000Y47625000D03*
D12*
X177165000Y50165000D03*
X183515000Y52705000D03*
%TD*%
D10*
%TO.C,K_SPACE33*%
X190182500Y28575000D03*
D11*
X195262500Y28575000D03*
D10*
X200342500Y28575000D03*
D12*
X191452500Y31115000D03*
X197802500Y33655000D03*
%TD*%
D10*
%TO.C,K_SPACE55*%
X71120000Y66675000D03*
D11*
X76200000Y66675000D03*
D10*
X81280000Y66675000D03*
D12*
X72390000Y69215000D03*
X78740000Y71755000D03*
%TD*%
D10*
%TO.C,K_SPACE121*%
X118745000Y9525000D03*
D11*
X123825000Y9525000D03*
D10*
X128905000Y9525000D03*
D12*
X120015000Y12065000D03*
X126365000Y14605000D03*
%TD*%
D13*
%TO.C,S5*%
X138112500Y2540000D03*
D11*
X138112500Y17780000D03*
D13*
X114300000Y2540000D03*
D11*
X114300000Y17780000D03*
%TD*%
D10*
%TO.C,K_SPACE115*%
X116363750Y9525000D03*
D11*
X121443750Y9525000D03*
D10*
X126523750Y9525000D03*
D12*
X117633750Y12065000D03*
X123983750Y14605000D03*
%TD*%
D10*
%TO.C,K_SPACE15*%
X61595000Y47625000D03*
D11*
X66675000Y47625000D03*
D10*
X71755000Y47625000D03*
D12*
X62865000Y50165000D03*
X69215000Y52705000D03*
%TD*%
D10*
%TO.C,K_SPACE70*%
X152082500Y47625000D03*
D11*
X157162500Y47625000D03*
D10*
X162242500Y47625000D03*
D12*
X153352500Y50165000D03*
X159702500Y52705000D03*
%TD*%
D10*
%TO.C,K_SPACE98*%
X152082500Y28575000D03*
D11*
X157162500Y28575000D03*
D10*
X162242500Y28575000D03*
D12*
X153352500Y31115000D03*
X159702500Y33655000D03*
%TD*%
D10*
%TO.C,K_SPACE78*%
X123507500Y47625000D03*
D11*
X128587500Y47625000D03*
D10*
X133667500Y47625000D03*
D12*
X124777500Y50165000D03*
X131127500Y52705000D03*
%TD*%
D10*
%TO.C,K_SPACE101*%
X192563750Y47625000D03*
D11*
X197643750Y47625000D03*
D10*
X202723750Y47625000D03*
D12*
X193833750Y50165000D03*
X200183750Y52705000D03*
%TD*%
D10*
%TO.C,K_SPACE10*%
X175895000Y66675000D03*
D11*
X180975000Y66675000D03*
D10*
X186055000Y66675000D03*
D12*
X177165000Y69215000D03*
X183515000Y71755000D03*
%TD*%
D10*
%TO.C,K_SPACE74*%
X47307500Y47625000D03*
D11*
X52387500Y47625000D03*
D10*
X57467500Y47625000D03*
D12*
X48577500Y50165000D03*
X54927500Y52705000D03*
%TD*%
D14*
%TO.C,OL1*%
X100965000Y19050000D03*
X103505000Y19050000D03*
X106045000Y19050000D03*
X108585000Y19050000D03*
%TD*%
D10*
%TO.C,K_SPACE99*%
X171132500Y28575000D03*
D11*
X176212500Y28575000D03*
D10*
X181292500Y28575000D03*
D12*
X172402500Y31115000D03*
X178752500Y33655000D03*
%TD*%
D10*
%TO.C,K_SPACE85*%
X61595000Y28575000D03*
D11*
X66675000Y28575000D03*
D10*
X71755000Y28575000D03*
D12*
X62865000Y31115000D03*
X69215000Y33655000D03*
%TD*%
D10*
%TO.C,K_SPACE110*%
X99695000Y9525000D03*
D11*
X104775000Y9525000D03*
D10*
X109855000Y9525000D03*
D12*
X100965000Y12065000D03*
X107315000Y14605000D03*
%TD*%
D10*
%TO.C,K_SPACE2*%
X23495000Y66675000D03*
D11*
X28575000Y66675000D03*
D10*
X33655000Y66675000D03*
D12*
X24765000Y69215000D03*
X31115000Y71755000D03*
%TD*%
D10*
%TO.C,K_SPACE92*%
X56832500Y28575000D03*
D11*
X61912500Y28575000D03*
D10*
X66992500Y28575000D03*
D12*
X58102500Y31115000D03*
X64452500Y33655000D03*
%TD*%
D10*
%TO.C,K_SPACE34*%
X111601250Y47625000D03*
D11*
X116681250Y47625000D03*
D10*
X121761250Y47625000D03*
D12*
X112871250Y50165000D03*
X119221250Y52705000D03*
%TD*%
D10*
%TO.C,K_SPACE14*%
X42545000Y47625000D03*
D11*
X47625000Y47625000D03*
D10*
X52705000Y47625000D03*
D12*
X43815000Y50165000D03*
X50165000Y52705000D03*
%TD*%
D10*
%TO.C,K_SPACE77*%
X104457500Y47625000D03*
D11*
X109537500Y47625000D03*
D10*
X114617500Y47625000D03*
D12*
X105727500Y50165000D03*
X112077500Y52705000D03*
%TD*%
D10*
%TO.C,K_SPACE32*%
X166370000Y28575000D03*
D11*
X171450000Y28575000D03*
D10*
X176530000Y28575000D03*
D12*
X167640000Y31115000D03*
X173990000Y33655000D03*
%TD*%
D10*
%TO.C,K_SPACE114*%
X83026250Y9525000D03*
D11*
X88106250Y9525000D03*
D10*
X93186250Y9525000D03*
D12*
X84296250Y12065000D03*
X90646250Y14605000D03*
%TD*%
D10*
%TO.C,K_SPACE67*%
X6826250Y47625000D03*
D11*
X11906250Y47625000D03*
D10*
X16986250Y47625000D03*
D12*
X8096250Y50165000D03*
X14446250Y52705000D03*
%TD*%
D10*
%TO.C,K_SPACE108*%
X140176250Y9525000D03*
D11*
X145256250Y9525000D03*
D10*
X150336250Y9525000D03*
D12*
X141446250Y12065000D03*
X147796250Y14605000D03*
%TD*%
D10*
%TO.C,K_SPACE71*%
X171132500Y47625000D03*
D11*
X176212500Y47625000D03*
D10*
X181292500Y47625000D03*
D12*
X172402500Y50165000D03*
X178752500Y52705000D03*
%TD*%
D10*
%TO.C,K_SPACE88*%
X137961250Y28575000D03*
D11*
X143041250Y28575000D03*
D10*
X148121250Y28575000D03*
D12*
X139231250Y31115000D03*
X145581250Y33655000D03*
%TD*%
D10*
%TO.C,K_SPACE50*%
X11588750Y28575000D03*
D11*
X16668750Y28575000D03*
D10*
X21748750Y28575000D03*
D12*
X12858750Y31115000D03*
X19208750Y33655000D03*
%TD*%
D10*
%TO.C,K_SPACE57*%
X9207500Y47625000D03*
D11*
X14287500Y47625000D03*
D10*
X19367500Y47625000D03*
D12*
X10477500Y50165000D03*
X16827500Y52705000D03*
%TD*%
D10*
%TO.C,K_SPACE26*%
X71120000Y28575000D03*
D11*
X76200000Y28575000D03*
D10*
X81280000Y28575000D03*
D12*
X72390000Y31115000D03*
X78740000Y33655000D03*
%TD*%
D10*
%TO.C,K_SPACE90*%
X176061250Y28575000D03*
D11*
X181141250Y28575000D03*
D10*
X186221250Y28575000D03*
D12*
X177331250Y31115000D03*
X183681250Y33655000D03*
%TD*%
D10*
%TO.C,K_SPACE116*%
X99695000Y9525000D03*
D11*
X104775000Y9525000D03*
D10*
X109855000Y9525000D03*
D12*
X100965000Y12065000D03*
X107315000Y14605000D03*
%TD*%
D10*
%TO.C,K_SPACE93*%
X75882500Y28575000D03*
D11*
X80962500Y28575000D03*
D10*
X86042500Y28575000D03*
D12*
X77152500Y31115000D03*
X83502500Y33655000D03*
%TD*%
D10*
%TO.C,K_SPACE81*%
X187801250Y47625000D03*
D11*
X192881250Y47625000D03*
D10*
X197961250Y47625000D03*
D12*
X189071250Y50165000D03*
X195421250Y52705000D03*
%TD*%
D10*
%TO.C,K_SPACE128*%
X71120000Y9525000D03*
D11*
X76200000Y9525000D03*
D10*
X81280000Y9525000D03*
D12*
X72390000Y12065000D03*
X78740000Y14605000D03*
%TD*%
D10*
%TO.C,K_SPACE87*%
X118911250Y28575000D03*
D11*
X123991250Y28575000D03*
D10*
X129071250Y28575000D03*
D12*
X120181250Y31115000D03*
X126531250Y33655000D03*
%TD*%
D10*
%TO.C,K_SPACE123*%
X161607500Y9525000D03*
D11*
X166687500Y9525000D03*
D10*
X171767500Y9525000D03*
D12*
X162877500Y12065000D03*
X169227500Y14605000D03*
%TD*%
D10*
%TO.C,K_SPACE97*%
X133032500Y28575000D03*
D11*
X138112500Y28575000D03*
D10*
X143192500Y28575000D03*
D12*
X134302500Y31115000D03*
X140652500Y33655000D03*
%TD*%
D13*
%TO.C,S7*%
X152400000Y2540000D03*
D11*
X152400000Y17780000D03*
D13*
X114300000Y2540000D03*
D11*
X114300000Y17780000D03*
%TD*%
D10*
%TO.C,K_SPACE69*%
X133032500Y47625000D03*
D11*
X138112500Y47625000D03*
D10*
X143192500Y47625000D03*
D12*
X134302500Y50165000D03*
X140652500Y52705000D03*
%TD*%
D10*
%TO.C,K_SPACE56*%
X90170000Y66675000D03*
D11*
X95250000Y66675000D03*
D10*
X100330000Y66675000D03*
D12*
X91440000Y69215000D03*
X97790000Y71755000D03*
%TD*%
D10*
%TO.C,K_SPACE62*%
X195580000Y66675000D03*
D11*
X190500000Y66675000D03*
D10*
X185420000Y66675000D03*
D12*
X194310000Y64135000D03*
X187960000Y61595000D03*
%TD*%
D10*
%TO.C,K_SPACE109*%
X163988750Y9525000D03*
D11*
X169068750Y9525000D03*
D10*
X174148750Y9525000D03*
D12*
X165258750Y12065000D03*
X171608750Y14605000D03*
%TD*%
D10*
%TO.C,K_SPACE25*%
X52070000Y28575000D03*
D11*
X57150000Y28575000D03*
D10*
X62230000Y28575000D03*
D12*
X53340000Y31115000D03*
X59690000Y33655000D03*
%TD*%
D10*
%TO.C,K_SPACE63*%
X28257500Y47625000D03*
D11*
X33337500Y47625000D03*
D10*
X38417500Y47625000D03*
D12*
X29527500Y50165000D03*
X35877500Y52705000D03*
%TD*%
D10*
%TO.C,K_SPACE51*%
X37782500Y28575000D03*
D11*
X42862500Y28575000D03*
D10*
X47942500Y28575000D03*
D12*
X39052500Y31115000D03*
X45402500Y33655000D03*
%TD*%
D10*
%TO.C,K_SPACE60*%
X147320000Y66675000D03*
D11*
X152400000Y66675000D03*
D10*
X157480000Y66675000D03*
D12*
X148590000Y69215000D03*
X154940000Y71755000D03*
%TD*%
D10*
%TO.C,K_SPACE103*%
X19367500Y66675000D03*
D11*
X14287500Y66675000D03*
D10*
X9207500Y66675000D03*
D12*
X18097500Y64135000D03*
X11747500Y61595000D03*
%TD*%
D10*
%TO.C,K_SPACE102*%
X200342500Y66675000D03*
D11*
X195262500Y66675000D03*
D10*
X190182500Y66675000D03*
D12*
X199072500Y64135000D03*
X192722500Y61595000D03*
%TD*%
D10*
%TO.C,K_SPACE8*%
X137795000Y66675000D03*
D11*
X142875000Y66675000D03*
D10*
X147955000Y66675000D03*
D12*
X139065000Y69215000D03*
X145415000Y71755000D03*
%TD*%
D10*
%TO.C,K_SPACE86*%
X80645000Y28575000D03*
D11*
X85725000Y28575000D03*
D10*
X90805000Y28575000D03*
D12*
X81915000Y31115000D03*
X88265000Y33655000D03*
%TD*%
D10*
%TO.C,K_SPACE100*%
X192563750Y28575000D03*
D11*
X197643750Y28575000D03*
D10*
X202723750Y28575000D03*
D12*
X193833750Y31115000D03*
X200183750Y33655000D03*
%TD*%
D10*
%TO.C,K_SPACE66*%
X85407500Y47625000D03*
D11*
X90487500Y47625000D03*
D10*
X95567500Y47625000D03*
D12*
X86677500Y50165000D03*
X93027500Y52705000D03*
%TD*%
D15*
%TO.C,SW1*%
X102275000Y59175000D03*
X107275000Y59175000D03*
D16*
X104775000Y59175000D03*
D17*
X99175000Y66675000D03*
X110375000Y66675000D03*
D15*
X107275000Y73675000D03*
X102275000Y73675000D03*
%TD*%
D10*
%TO.C,K_SPACE79*%
X142557500Y47625000D03*
D11*
X147637500Y47625000D03*
D10*
X152717500Y47625000D03*
D12*
X143827500Y50165000D03*
X150177500Y52705000D03*
%TD*%
D10*
%TO.C,K_SPACE64*%
X47307500Y47625000D03*
D11*
X52387500Y47625000D03*
D10*
X57467500Y47625000D03*
D12*
X48577500Y50165000D03*
X54927500Y52705000D03*
%TD*%
D10*
%TO.C,K_SPACE20*%
X156845000Y47625000D03*
D11*
X161925000Y47625000D03*
D10*
X167005000Y47625000D03*
D12*
X158115000Y50165000D03*
X164465000Y52705000D03*
%TD*%
D10*
%TO.C,K_SPACE49*%
X99695000Y28575000D03*
D11*
X104775000Y28575000D03*
D10*
X109855000Y28575000D03*
D12*
X100965000Y31115000D03*
X107315000Y33655000D03*
%TD*%
D10*
%TO.C,K_SPACE59*%
X128270000Y66675000D03*
D11*
X133350000Y66675000D03*
D10*
X138430000Y66675000D03*
D12*
X129540000Y69215000D03*
X135890000Y71755000D03*
%TD*%
D10*
%TO.C,K_SPACE104*%
X6826250Y47625000D03*
D11*
X11906250Y47625000D03*
D10*
X16986250Y47625000D03*
D12*
X8096250Y50165000D03*
X14446250Y52705000D03*
%TD*%
D10*
%TO.C,K_SPACE84*%
X42545000Y28575000D03*
D11*
X47625000Y28575000D03*
D10*
X52705000Y28575000D03*
D12*
X43815000Y31115000D03*
X50165000Y33655000D03*
%TD*%
D10*
%TO.C,K_SPACE106*%
X59213750Y9525000D03*
D11*
X64293750Y9525000D03*
D10*
X69373750Y9525000D03*
D12*
X60483750Y12065000D03*
X66833750Y14605000D03*
%TD*%
D13*
%TO.C,S2*%
X97631250Y2540000D03*
D11*
X97631250Y17780000D03*
D13*
X73818750Y2540000D03*
D11*
X73818750Y17780000D03*
%TD*%
D10*
%TO.C,K_SPACE125*%
X121126250Y9525000D03*
D11*
X126206250Y9525000D03*
D10*
X131286250Y9525000D03*
D12*
X122396250Y12065000D03*
X128746250Y14605000D03*
%TD*%
D10*
%TO.C,K_SPACE11*%
X194945000Y66675000D03*
D11*
X200025000Y66675000D03*
D10*
X205105000Y66675000D03*
D12*
X196215000Y69215000D03*
X202565000Y71755000D03*
%TD*%
D10*
%TO.C,K_SPACE91*%
X195111250Y28575000D03*
D11*
X200191250Y28575000D03*
D10*
X205271250Y28575000D03*
D12*
X196381250Y31115000D03*
X202731250Y33655000D03*
%TD*%
D15*
%TO.C,SW2*%
X102275000Y40125000D03*
X107275000Y40125000D03*
D16*
X104775000Y40125000D03*
D17*
X99175000Y47625000D03*
X110375000Y47625000D03*
D15*
X107275000Y54625000D03*
X102275000Y54625000D03*
%TD*%
D10*
%TO.C,K_SPACE122*%
X37782500Y9525000D03*
D11*
X42862500Y9525000D03*
D10*
X47942500Y9525000D03*
D12*
X39052500Y12065000D03*
X45402500Y14605000D03*
%TD*%
D10*
%TO.C,K_SPACE129*%
X128270000Y9525000D03*
D11*
X133350000Y9525000D03*
D10*
X138430000Y9525000D03*
D12*
X129540000Y12065000D03*
X135890000Y14605000D03*
%TD*%
D10*
%TO.C,K_SPACE113*%
X166370000Y9525000D03*
D11*
X171450000Y9525000D03*
D10*
X176530000Y9525000D03*
D12*
X167640000Y12065000D03*
X173990000Y14605000D03*
%TD*%
D10*
%TO.C,K_SPACE19*%
X137795000Y47625000D03*
D11*
X142875000Y47625000D03*
D10*
X147955000Y47625000D03*
D12*
X139065000Y50165000D03*
X145415000Y52705000D03*
%TD*%
D10*
%TO.C,K_SPACE23*%
X9207500Y28575000D03*
D11*
X14287500Y28575000D03*
D10*
X19367500Y28575000D03*
D12*
X10477500Y31115000D03*
X16827500Y33655000D03*
%TD*%
D10*
%TO.C,K_SPACE16*%
X80645000Y47625000D03*
D11*
X85725000Y47625000D03*
D10*
X90805000Y47625000D03*
D12*
X81915000Y50165000D03*
X88265000Y52705000D03*
%TD*%
D10*
%TO.C,K_SPACE105*%
X33020000Y9525000D03*
D11*
X38100000Y9525000D03*
D10*
X43180000Y9525000D03*
D12*
X34290000Y12065000D03*
X40640000Y14605000D03*
%TD*%
D10*
%TO.C,K_SPACE12*%
X4445000Y47625000D03*
D11*
X9525000Y47625000D03*
D10*
X14605000Y47625000D03*
D12*
X5715000Y50165000D03*
X12065000Y52705000D03*
%TD*%
D10*
%TO.C,K_SPACE22*%
X194945000Y47625000D03*
D11*
X200025000Y47625000D03*
D10*
X205105000Y47625000D03*
D12*
X196215000Y50165000D03*
X202565000Y52705000D03*
%TD*%
D10*
%TO.C,K_SPACE52*%
X24130000Y66675000D03*
D11*
X19050000Y66675000D03*
D10*
X13970000Y66675000D03*
D12*
X22860000Y64135000D03*
X16510000Y61595000D03*
%TD*%
D10*
%TO.C,K_SPACE65*%
X66357500Y47625000D03*
D11*
X71437500Y47625000D03*
D10*
X76517500Y47625000D03*
D12*
X67627500Y50165000D03*
X73977500Y52705000D03*
%TD*%
D13*
%TO.C,S9*%
X123825000Y2540000D03*
D11*
X123825000Y17780000D03*
D13*
X85725000Y2540000D03*
D11*
X85725000Y17780000D03*
%TD*%
D10*
%TO.C,K_SPACE53*%
X43180000Y66675000D03*
D11*
X38100000Y66675000D03*
D10*
X33020000Y66675000D03*
D12*
X41910000Y64135000D03*
X35560000Y61595000D03*
%TD*%
D10*
%TO.C,K_SPACE3*%
X42545000Y66675000D03*
D11*
X47625000Y66675000D03*
D10*
X52705000Y66675000D03*
D12*
X43815000Y69215000D03*
X50165000Y71755000D03*
%TD*%
D13*
%TO.C,S8*%
X152400000Y2540000D03*
D11*
X152400000Y17780000D03*
D13*
X57150000Y2540000D03*
D11*
X57150000Y17780000D03*
%TD*%
D10*
%TO.C,K_SPACE80*%
X161607500Y47625000D03*
D11*
X166687500Y47625000D03*
D10*
X171767500Y47625000D03*
D12*
X162877500Y50165000D03*
X169227500Y52705000D03*
%TD*%
D10*
%TO.C,K_SPACE7*%
X118745000Y66675000D03*
D11*
X123825000Y66675000D03*
D10*
X128905000Y66675000D03*
D12*
X120015000Y69215000D03*
X126365000Y71755000D03*
%TD*%
D10*
%TO.C,K_SPACE96*%
X113982500Y28575000D03*
D11*
X119062500Y28575000D03*
D10*
X124142500Y28575000D03*
D12*
X115252500Y31115000D03*
X121602500Y33655000D03*
%TD*%
D10*
%TO.C,K_SPACE6*%
X99695000Y66675000D03*
D11*
X104775000Y66675000D03*
D10*
X109855000Y66675000D03*
D12*
X100965000Y69215000D03*
X107315000Y71755000D03*
%TD*%
D10*
%TO.C,K_SPACE82*%
X4445000Y28575000D03*
D11*
X9525000Y28575000D03*
D10*
X14605000Y28575000D03*
D12*
X5715000Y31115000D03*
X12065000Y33655000D03*
%TD*%
D10*
%TO.C,K_SPACE111*%
X54451250Y9525000D03*
D11*
X59531250Y9525000D03*
D10*
X64611250Y9525000D03*
D12*
X55721250Y12065000D03*
X62071250Y14605000D03*
%TD*%
D10*
%TO.C,K_SPACE89*%
X157011250Y28575000D03*
D11*
X162091250Y28575000D03*
D10*
X167171250Y28575000D03*
D12*
X158281250Y31115000D03*
X164631250Y33655000D03*
%TD*%
D10*
%TO.C,K_SPACE29*%
X109220000Y28575000D03*
D11*
X114300000Y28575000D03*
D10*
X119380000Y28575000D03*
D12*
X110490000Y31115000D03*
X116840000Y33655000D03*
%TD*%
D10*
%TO.C,K_SPACE5*%
X80645000Y66675000D03*
D11*
X85725000Y66675000D03*
D10*
X90805000Y66675000D03*
D12*
X81915000Y69215000D03*
X88265000Y71755000D03*
%TD*%
D10*
%TO.C,K_SPACE120*%
X80645000Y9525000D03*
D11*
X85725000Y9525000D03*
D10*
X90805000Y9525000D03*
D12*
X81915000Y12065000D03*
X88265000Y14605000D03*
%TD*%
D13*
%TO.C,S4*%
X90487500Y2540000D03*
D11*
X90487500Y17780000D03*
D13*
X66675000Y2540000D03*
D11*
X66675000Y17780000D03*
%TD*%
D10*
%TO.C,K_SPACE58*%
X109220000Y66675000D03*
D11*
X114300000Y66675000D03*
D10*
X119380000Y66675000D03*
D12*
X110490000Y69215000D03*
X116840000Y71755000D03*
%TD*%
D10*
%TO.C,K_SPACE75*%
X66357500Y47625000D03*
D11*
X71437500Y47625000D03*
D10*
X76517500Y47625000D03*
D12*
X67627500Y50165000D03*
X73977500Y52705000D03*
%TD*%
D10*
%TO.C,K_SPACE27*%
X90170000Y28575000D03*
D11*
X95250000Y28575000D03*
D10*
X100330000Y28575000D03*
D12*
X91440000Y31115000D03*
X97790000Y33655000D03*
%TD*%
D10*
%TO.C,K_SPACE61*%
X166370000Y66675000D03*
D11*
X171450000Y66675000D03*
D10*
X176530000Y66675000D03*
D12*
X167640000Y69215000D03*
X173990000Y71755000D03*
%TD*%
D10*
%TO.C,K_SPACE24*%
X33020000Y28575000D03*
D11*
X38100000Y28575000D03*
D10*
X43180000Y28575000D03*
D12*
X34290000Y31115000D03*
X40640000Y33655000D03*
%TD*%
D10*
%TO.C,K_SPACE18*%
X118745000Y47625000D03*
D11*
X123825000Y47625000D03*
D10*
X128905000Y47625000D03*
D12*
X120015000Y50165000D03*
X126365000Y52705000D03*
%TD*%
D10*
%TO.C,K_SPACE76*%
X85407500Y47625000D03*
D11*
X90487500Y47625000D03*
D10*
X95567500Y47625000D03*
D12*
X86677500Y50165000D03*
X93027500Y52705000D03*
%TD*%
D10*
%TO.C,K_SPACE31*%
X147320000Y28575000D03*
D11*
X152400000Y28575000D03*
D10*
X157480000Y28575000D03*
D12*
X148590000Y31115000D03*
X154940000Y33655000D03*
%TD*%
D10*
%TO.C,K_SPACE1*%
X4445000Y66675000D03*
D11*
X9525000Y66675000D03*
D10*
X14605000Y66675000D03*
D12*
X5715000Y69215000D03*
X12065000Y71755000D03*
%TD*%
D10*
%TO.C,K_SPACE112*%
X144938750Y9525000D03*
D11*
X150018750Y9525000D03*
D10*
X155098750Y9525000D03*
D12*
X146208750Y12065000D03*
X152558750Y14605000D03*
%TD*%
D13*
%TO.C,S1*%
X190658750Y69056250D03*
X190658750Y45243750D03*
D11*
X205898750Y69056250D03*
X205898750Y45243750D03*
%TD*%
D10*
%TO.C,K_SPACE54*%
X52070000Y66675000D03*
D11*
X57150000Y66675000D03*
D10*
X62230000Y66675000D03*
D12*
X53340000Y69215000D03*
X59690000Y71755000D03*
%TD*%
D10*
%TO.C,K_SPACE13*%
X23495000Y47625000D03*
D11*
X28575000Y47625000D03*
D10*
X33655000Y47625000D03*
D12*
X24765000Y50165000D03*
X31115000Y52705000D03*
%TD*%
D18*
%TO.C,D_SPACE17*%
X107156250Y42256250D03*
X107156250Y45056250D03*
%TD*%
D19*
%TO.C,LED1*%
X19965000Y57150000D03*
X19965000Y56050000D03*
X18135000Y56050000D03*
X18135000Y57150000D03*
%TD*%
%TO.C,LED6*%
X188240000Y56906250D03*
X188240000Y55806250D03*
X186410000Y55806250D03*
X186410000Y56906250D03*
%TD*%
D18*
%TO.C,D_SPACE34*%
X50006250Y7331250D03*
X50006250Y10131250D03*
%TD*%
%TO.C,D_SPACE5*%
X88900000Y61306250D03*
X88900000Y64106250D03*
%TD*%
%TO.C,D_SPACE1*%
X20637500Y60512500D03*
X20637500Y63312500D03*
%TD*%
D20*
%TO.C,LED11*%
X53060000Y20087500D03*
X53060000Y21187500D03*
X54890000Y21187500D03*
X54890000Y20087500D03*
%TD*%
D21*
%TO.C,C7*%
X6285671Y34243940D03*
X6285671Y33283940D03*
%TD*%
D18*
%TO.C,D_SPACE32*%
X184150000Y23143750D03*
X184150000Y25943750D03*
%TD*%
D22*
%TO.C,R1*%
X12775000Y56130000D03*
X12775000Y57150000D03*
%TD*%
D23*
%TO.C,U3*%
X22381250Y50456250D03*
X21431250Y50456250D03*
X20481250Y50456250D03*
X20481250Y52731250D03*
X22381250Y52731250D03*
%TD*%
D18*
%TO.C,D_SPACE36*%
X95250000Y7331250D03*
X95250000Y10131250D03*
%TD*%
D24*
%TO.C,C4*%
X13013750Y36512500D03*
X13973750Y36512500D03*
%TD*%
D20*
%TO.C,LED12*%
X18135000Y24056250D03*
X18135000Y25156250D03*
X19965000Y25156250D03*
X19965000Y24056250D03*
%TD*%
D19*
%TO.C,LED5*%
X159543750Y56906250D03*
X159543750Y55806250D03*
X157713750Y55806250D03*
X157713750Y56906250D03*
%TD*%
D20*
%TO.C,LED7*%
X186410000Y24056250D03*
X186410000Y25156250D03*
X188240000Y25156250D03*
X188240000Y24056250D03*
%TD*%
%TO.C,LED8*%
X157835000Y20087500D03*
X157835000Y21187500D03*
X159665000Y21187500D03*
X159665000Y20087500D03*
%TD*%
D18*
%TO.C,D_SPACE38*%
X136525000Y7331250D03*
X136525000Y10131250D03*
%TD*%
%TO.C,D_SPACE25*%
X69847518Y23143750D03*
X69847518Y25943750D03*
%TD*%
%TO.C,D_SPACE18*%
X131789925Y42193750D03*
X131789925Y44993750D03*
%TD*%
%TO.C,D_SPACE9*%
X165100000Y61306250D03*
X165100000Y64106250D03*
%TD*%
%TO.C,D_SPACE13*%
X36513594Y42193750D03*
X36513594Y44993750D03*
%TD*%
D25*
%TO.C,C2*%
X3175000Y44283750D03*
X3175000Y45243750D03*
%TD*%
D18*
%TO.C,D_SPACE35*%
X67468750Y7331250D03*
X67468750Y10131250D03*
%TD*%
%TO.C,D_SPACE12*%
X23018750Y42256250D03*
X23018750Y45056250D03*
%TD*%
%TO.C,D_SPACE29*%
X127000000Y23143750D03*
X127000000Y25943750D03*
%TD*%
D21*
%TO.C,C10*%
X28575000Y56522500D03*
X28575000Y55562500D03*
%TD*%
D18*
%TO.C,D_SPACE2*%
X31750000Y61306250D03*
X31750000Y64106250D03*
%TD*%
D21*
%TO.C,C8*%
X34925000Y57150000D03*
X34925000Y56190000D03*
%TD*%
D20*
%TO.C,LED9*%
X128466250Y20087500D03*
X128466250Y21187500D03*
X130296250Y21187500D03*
X130296250Y20087500D03*
%TD*%
D18*
%TO.C,D_SPACE20*%
X169862500Y42193750D03*
X169862500Y44993750D03*
%TD*%
%TO.C,D_SPACE24*%
X50797105Y23143750D03*
X50797105Y25943750D03*
%TD*%
D19*
%TO.C,LED2*%
X55683750Y56906250D03*
X55683750Y55806250D03*
X53853750Y55806250D03*
X53853750Y56906250D03*
%TD*%
D18*
%TO.C,D_SPACE21*%
X184150000Y42193750D03*
X184150000Y44993750D03*
%TD*%
%TO.C,D_SPACE15*%
X74851096Y42193750D03*
X74851096Y44993750D03*
%TD*%
%TO.C,D_SPACE26*%
X88897931Y23143750D03*
X88897931Y25943750D03*
%TD*%
%TO.C,D_SPACE16*%
X78581250Y42193750D03*
X78581250Y44993750D03*
%TD*%
%TO.C,D_SPACE14*%
X55562500Y42193750D03*
X55562500Y44993750D03*
%TD*%
D19*
%TO.C,LED4*%
X124740000Y56906250D03*
X124740000Y55806250D03*
X122910000Y55806250D03*
X122910000Y56906250D03*
%TD*%
D26*
%TO.C,R2*%
X28575000Y73025000D03*
X27555000Y73025000D03*
%TD*%
D18*
%TO.C,D_SPACE30*%
X146049170Y23143750D03*
X146049170Y25943750D03*
%TD*%
D20*
%TO.C,LED10*%
X80047500Y20087500D03*
X80047500Y21187500D03*
X81877500Y21187500D03*
X81877500Y20087500D03*
%TD*%
D27*
%TO.C,C1*%
X10485000Y44450000D03*
X9525000Y44450000D03*
%TD*%
D18*
%TO.C,D_SPACE4*%
X69850000Y61306250D03*
X69850000Y64106250D03*
%TD*%
D24*
%TO.C,C6*%
X12220000Y43656250D03*
X13180000Y43656250D03*
%TD*%
D18*
%TO.C,D_SPACE11*%
X203200000Y61306250D03*
X203200000Y64106250D03*
%TD*%
D27*
%TO.C,C5*%
X9552493Y34989999D03*
X8592493Y34989999D03*
%TD*%
D28*
%TO.C,SW4*%
X10318750Y59793750D03*
X4118750Y59793750D03*
X10318750Y56093750D03*
X4118750Y56093750D03*
%TD*%
D29*
%TO.C,F2*%
X44450000Y55750000D03*
X44450000Y58550000D03*
%TD*%
D30*
%TO.C,U2*%
X30612500Y56200000D03*
X30612500Y58100000D03*
X32887500Y57150000D03*
%TD*%
D26*
%TO.C,R4*%
X101826250Y35823998D03*
X100806250Y35823998D03*
%TD*%
D18*
%TO.C,D_SPACE10*%
X184150000Y61306250D03*
X184150000Y64106250D03*
%TD*%
%TO.C,D_SPACE40*%
X178593750Y7331250D03*
X178593750Y10131250D03*
%TD*%
D19*
%TO.C,LED3*%
X86640000Y56906250D03*
X86640000Y55806250D03*
X84810000Y55806250D03*
X84810000Y56906250D03*
%TD*%
D18*
%TO.C,D_SPACE8*%
X146050000Y61306250D03*
X146050000Y64106250D03*
%TD*%
%TO.C,D_SPACE39*%
X159543750Y7331250D03*
X159543750Y10131250D03*
%TD*%
%TO.C,D_SPACE3*%
X50800000Y61306250D03*
X50800000Y64106250D03*
%TD*%
D31*
%TO.C,L1*%
X38100000Y55575000D03*
X38100000Y58725000D03*
%TD*%
D18*
%TO.C,D_SPACE27*%
X102393750Y23143750D03*
X102393750Y25943750D03*
%TD*%
%TO.C,D_SPACE23*%
X7143750Y23206250D03*
X7143750Y26006250D03*
%TD*%
%TO.C,D_SPACE31*%
X165099583Y23143750D03*
X165099583Y25943750D03*
%TD*%
%TO.C,D_SPACE7*%
X127000000Y61306250D03*
X127000000Y64106250D03*
%TD*%
D32*
%TO.C,R3*%
X45017500Y73025000D03*
X46037500Y73025000D03*
%TD*%
D25*
%TO.C,C9*%
X23835301Y52703642D03*
X23835301Y53663642D03*
%TD*%
D21*
%TO.C,C3*%
X5269395Y34237630D03*
X5269395Y33277630D03*
%TD*%
D33*
%TO.C,J1*%
X35210000Y72012500D03*
X40990000Y72012500D03*
D34*
X34849999Y70567499D03*
X35649999Y70567499D03*
D35*
X36849999Y70567499D03*
X37849999Y70567499D03*
X38349999Y70567499D03*
X39349999Y70567499D03*
D34*
X40549999Y70567499D03*
X41349999Y70567499D03*
X41349999Y70567499D03*
X40549999Y70567499D03*
D35*
X39849999Y70567499D03*
X38849999Y70567499D03*
X37349999Y70567499D03*
X36349999Y70567499D03*
D34*
X35649999Y70567499D03*
X34849999Y70567499D03*
D36*
X33779999Y75662499D03*
D37*
X33779999Y71482499D03*
D36*
X42419999Y75662499D03*
D37*
X42419999Y71482499D03*
%TD*%
D18*
%TO.C,D_SPACE33*%
X203200000Y23206250D03*
X203200000Y26006250D03*
%TD*%
%TO.C,D_SPACE28*%
X107950000Y23206250D03*
X107950000Y26006250D03*
%TD*%
D38*
%TO.C,D1*%
X40274999Y56399999D03*
D39*
X40274999Y58099999D03*
X42274999Y58099999D03*
X42274999Y56199999D03*
%TD*%
D40*
%TO.C,U1*%
X9893750Y36250000D03*
X9393750Y36250000D03*
X8893750Y36250000D03*
X8393750Y36250000D03*
X7893750Y36250000D03*
X7393750Y36250000D03*
X6893750Y36250000D03*
X6393750Y36250000D03*
X5893750Y36250000D03*
X5393750Y36250000D03*
X4893750Y36250000D03*
X4393750Y36250000D03*
D41*
X3706250Y36937500D03*
X3706250Y37437500D03*
X3706250Y37937500D03*
X3706250Y38437500D03*
X3706250Y38937500D03*
X3706250Y39437500D03*
X3706250Y39937500D03*
X3706250Y40437500D03*
X3706250Y40937500D03*
X3706250Y41437500D03*
X3706250Y41937500D03*
X3706250Y42437500D03*
D40*
X4393750Y43125000D03*
X4893750Y43125000D03*
X5393750Y43125000D03*
X5893750Y43125000D03*
X6393750Y43125000D03*
X6893750Y43125000D03*
X7393750Y43125000D03*
X7893750Y43125000D03*
X8393750Y43125000D03*
X8893750Y43125000D03*
X9393750Y43125000D03*
X9893750Y43125000D03*
D41*
X10581250Y42437500D03*
X10581250Y41937500D03*
X10581250Y41437500D03*
X10581250Y40937500D03*
X10581250Y40437500D03*
X10581250Y39937500D03*
X10581250Y39437500D03*
X10581250Y38937500D03*
X10581250Y38437500D03*
X10581250Y37937500D03*
X10581250Y37437500D03*
X10581250Y36937500D03*
D42*
X7143749Y39687499D03*
%TD*%
D26*
%TO.C,R5*%
X109253750Y35802500D03*
X108233750Y35802500D03*
%TD*%
D18*
%TO.C,D_SPACE19*%
X150832113Y42193750D03*
X150832113Y44993750D03*
%TD*%
%TO.C,D_SPACE22*%
X203200000Y42193750D03*
X203200000Y44993750D03*
%TD*%
D24*
%TO.C,C11*%
X43970000Y53975000D03*
X44930000Y53975000D03*
%TD*%
D18*
%TO.C,D_SPACE6*%
X107950000Y61306250D03*
X107950000Y64106250D03*
%TD*%
M02*
