%TF.GenerationSoftware,KiCad,Pcbnew,(7.0.0)*%
%TF.CreationDate,2023-11-20T08:39:55+01:00*%
%TF.ProjectId,universal vault,756e6976-6572-4736-916c-207661756c74,rev?*%
%TF.SameCoordinates,Original*%
%TF.FileFunction,Profile,NP*%
%FSLAX46Y46*%
G04 Gerber Fmt 4.6, Leading zero omitted, Abs format (unit mm)*
G04 Created by KiCad (PCBNEW (7.0.0)) date 2023-11-20 08:39:55*
%MOMM*%
%LPD*%
G01*
G04 APERTURE LIST*
%TA.AperFunction,Profile*%
%ADD10C,0.050000*%
%TD*%
G04 APERTURE END LIST*
D10*
X28503875Y17342732D02*
X28503875Y2692733D01*
X-71125Y73842732D02*
X-71125Y26233732D01*
X44069500Y92739D02*
G75*
G03*
X45811167Y948635I0J2200011D01*
G01*
X2528875Y76442775D02*
G75*
G03*
X-71125Y73842732I25J-2600025D01*
G01*
X209628875Y26233732D02*
X209628875Y73842732D01*
X23803874Y76442775D02*
G75*
G03*
X21603875Y74242732I26J-2200025D01*
G01*
X207288250Y24033732D02*
X207428875Y24033732D01*
X202538250Y19142801D02*
G75*
G03*
X204738249Y21342733I50J2199949D01*
G01*
X163746583Y948635D02*
G75*
G03*
X157729916Y948635I-3008333J-2321622D01*
G01*
X4819875Y21483733D02*
X4819875Y21342732D01*
X207288250Y24033701D02*
G75*
G03*
X204738249Y21483733I-50J-2549951D01*
G01*
X2128875Y24033732D02*
X2269875Y24033732D01*
X53569500Y92732D02*
X155988250Y92732D01*
X28503883Y17342732D02*
G75*
G03*
X26703876Y19142733I-1799983J18D01*
G01*
X51827833Y948635D02*
G75*
G03*
X45811167Y948635I-3008333J-2321623D01*
G01*
X51827828Y948631D02*
G75*
G03*
X53569500Y92732I1741672J1344119D01*
G01*
X4819882Y21483733D02*
G75*
G03*
X2269875Y24033732I-2549982J17D01*
G01*
X7019875Y19142733D02*
X26703876Y19142733D01*
X185753876Y76442733D02*
X41024443Y76442733D01*
X35194443Y76442733D02*
X23803874Y76442733D01*
X181053875Y2692733D02*
X181053875Y17342732D01*
X204738249Y21342733D02*
X204738249Y21483733D01*
X207428875Y24033775D02*
G75*
G03*
X209628875Y26233732I25J2199975D01*
G01*
X28503882Y2692733D02*
G75*
G03*
X31103875Y92732I2600018J17D01*
G01*
X207028874Y76442733D02*
X195253875Y76442731D01*
X16503881Y74242732D02*
G75*
G03*
X14303875Y76442731I-2199981J18D01*
G01*
X187953924Y73842732D02*
G75*
G03*
X193053876Y73842733I2549976J18D01*
G01*
X41024443Y76442733D02*
X35194443Y76442733D01*
X155988250Y92701D02*
G75*
G03*
X157729915Y948636I-50J2200049D01*
G01*
X182853874Y19142733D02*
X202538250Y19142734D01*
X182853874Y19142775D02*
G75*
G03*
X181053875Y17342732I26J-1800025D01*
G01*
X165488250Y92732D02*
X178453875Y92732D01*
X14303875Y76442731D02*
X2528875Y76442733D01*
X16503874Y73842733D02*
X16503874Y74242732D01*
X195253875Y76442774D02*
G75*
G03*
X193053876Y74242732I25J-2200024D01*
G01*
X4819883Y21342732D02*
G75*
G03*
X7019875Y19142733I2200017J18D01*
G01*
X21603875Y74242732D02*
X21603875Y73842732D01*
X187953875Y73842732D02*
X187953875Y74242732D01*
X16503865Y73842733D02*
G75*
G03*
X21603875Y73842732I2550005J27D01*
G01*
X178453875Y92775D02*
G75*
G03*
X181053875Y2692733I25J2599975D01*
G01*
X187953883Y74242732D02*
G75*
G03*
X185753876Y76442733I-2199983J18D01*
G01*
X209628883Y73842732D02*
G75*
G03*
X207028874Y76442733I-2599983J18D01*
G01*
X31103875Y92732D02*
X44069500Y92732D01*
X163746546Y948607D02*
G75*
G03*
X165488250Y92732I1741654J1344143D01*
G01*
X193053876Y74242732D02*
X193053876Y73842733D01*
X-71118Y26233732D02*
G75*
G03*
X2128875Y24033732I2200018J18D01*
G01*
M02*
