%TF.GenerationSoftware,KiCad,Pcbnew,(7.0.0)*%
%TF.CreationDate,2023-12-19T23:31:54+01:00*%
%TF.ProjectId,universal vault v2,756e6976-6572-4736-916c-207661756c74,rev?*%
%TF.SameCoordinates,Original*%
%TF.FileFunction,Paste,Bot*%
%TF.FilePolarity,Positive*%
%FSLAX46Y46*%
G04 Gerber Fmt 4.6, Leading zero omitted, Abs format (unit mm)*
G04 Created by KiCad (PCBNEW (7.0.0)) date 2023-12-19 23:31:54*
%MOMM*%
%LPD*%
G01*
G04 APERTURE LIST*
G04 Aperture macros list*
%AMRoundRect*
0 Rectangle with rounded corners*
0 $1 Rounding radius*
0 $2 $3 $4 $5 $6 $7 $8 $9 X,Y pos of 4 corners*
0 Add a 4 corners polygon primitive as box body*
4,1,4,$2,$3,$4,$5,$6,$7,$8,$9,$2,$3,0*
0 Add four circle primitives for the rounded corners*
1,1,$1+$1,$2,$3*
1,1,$1+$1,$4,$5*
1,1,$1+$1,$6,$7*
1,1,$1+$1,$8,$9*
0 Add four rect primitives between the rounded corners*
20,1,$1+$1,$2,$3,$4,$5,0*
20,1,$1+$1,$4,$5,$6,$7,0*
20,1,$1+$1,$6,$7,$8,$9,0*
20,1,$1+$1,$8,$9,$2,$3,0*%
G04 Aperture macros list end*
%ADD10RoundRect,0.105000X0.245000X0.245000X-0.245000X0.245000X-0.245000X-0.245000X0.245000X-0.245000X0*%
%ADD11RoundRect,0.250000X-0.300000X0.300000X-0.300000X-0.300000X0.300000X-0.300000X0.300000X0.300000X0*%
%ADD12RoundRect,0.250000X0.300000X0.300000X-0.300000X0.300000X-0.300000X-0.300000X0.300000X-0.300000X0*%
%ADD13RoundRect,0.250000X0.300000X-0.300000X0.300000X0.300000X-0.300000X0.300000X-0.300000X-0.300000X0*%
%ADD14RoundRect,0.105000X-0.245000X-0.245000X0.245000X-0.245000X0.245000X0.245000X-0.245000X0.245000X0*%
%ADD15RoundRect,0.140000X-0.170000X0.140000X-0.170000X-0.140000X0.170000X-0.140000X0.170000X0.140000X0*%
%ADD16RoundRect,0.135000X0.185000X-0.135000X0.185000X0.135000X-0.185000X0.135000X-0.185000X-0.135000X0*%
%ADD17RoundRect,0.150000X0.150000X-0.512500X0.150000X0.512500X-0.150000X0.512500X-0.150000X-0.512500X0*%
%ADD18RoundRect,0.140000X-0.140000X-0.170000X0.140000X-0.170000X0.140000X0.170000X-0.140000X0.170000X0*%
%ADD19RoundRect,0.140000X0.170000X-0.140000X0.170000X0.140000X-0.170000X0.140000X-0.170000X-0.140000X0*%
%ADD20RoundRect,0.250000X-0.300000X-0.300000X0.300000X-0.300000X0.300000X0.300000X-0.300000X0.300000X0*%
%ADD21RoundRect,0.135000X0.135000X0.185000X-0.135000X0.185000X-0.135000X-0.185000X0.135000X-0.185000X0*%
%ADD22RoundRect,0.140000X0.140000X0.170000X-0.140000X0.170000X-0.140000X-0.170000X0.140000X-0.170000X0*%
%ADD23RoundRect,0.275000X0.625000X0.275000X-0.625000X0.275000X-0.625000X-0.275000X0.625000X-0.275000X0*%
%ADD24RoundRect,0.250000X0.625000X-0.375000X0.625000X0.375000X-0.625000X0.375000X-0.625000X-0.375000X0*%
%ADD25RoundRect,0.150000X-0.512500X-0.150000X0.512500X-0.150000X0.512500X0.150000X-0.512500X0.150000X0*%
%ADD26RoundRect,0.135000X-0.135000X-0.185000X0.135000X-0.185000X0.135000X0.185000X-0.135000X0.185000X0*%
%ADD27RoundRect,0.250000X0.350000X0.450000X-0.350000X0.450000X-0.350000X-0.450000X0.350000X-0.450000X0*%
%ADD28RoundRect,0.250000X-0.350000X-0.450000X0.350000X-0.450000X0.350000X0.450000X-0.350000X0.450000X0*%
%ADD29RoundRect,0.250000X0.250000X0.475000X-0.250000X0.475000X-0.250000X-0.475000X0.250000X-0.475000X0*%
%ADD30R,0.600000X1.450000*%
%ADD31R,0.300000X1.450000*%
%ADD32R,0.700000X1.000000*%
%ADD33R,0.700000X0.600000*%
%ADD34RoundRect,0.250000X0.315000X-0.315000X0.315000X0.315000X-0.315000X0.315000X-0.315000X-0.315000X0*%
%ADD35RoundRect,0.062500X0.062500X-0.375000X0.062500X0.375000X-0.062500X0.375000X-0.062500X-0.375000X0*%
%ADD36RoundRect,0.062500X0.375000X-0.062500X0.375000X0.062500X-0.375000X0.062500X-0.375000X-0.062500X0*%
G04 APERTURE END LIST*
D10*
%TO.C,LED1*%
X19965000Y57150000D03*
X19965000Y56050000D03*
X18135000Y56050000D03*
X18135000Y57150000D03*
%TD*%
%TO.C,LED6*%
X188240000Y56906250D03*
X188240000Y55806250D03*
X186410000Y55806250D03*
X186410000Y56906250D03*
%TD*%
D11*
%TO.C,D_SPACE34*%
X47625000Y19656250D03*
X47625000Y16856250D03*
%TD*%
D12*
%TO.C,D_SPACE5*%
X91887500Y64293750D03*
X89087500Y64293750D03*
%TD*%
D13*
%TO.C,D_SPACE1*%
X22225000Y68450000D03*
X22225000Y71250000D03*
%TD*%
D14*
%TO.C,LED11*%
X53060000Y20087500D03*
X53060000Y21187500D03*
X54890000Y21187500D03*
X54890000Y20087500D03*
%TD*%
D15*
%TO.C,C7*%
X6285671Y34243940D03*
X6285671Y33283940D03*
%TD*%
D12*
%TO.C,D_SPACE32*%
X192693750Y26193750D03*
X189893750Y26193750D03*
%TD*%
D16*
%TO.C,R1*%
X11112500Y55930000D03*
X11112500Y56950000D03*
%TD*%
D17*
%TO.C,U3*%
X22381250Y50456250D03*
X21431250Y50456250D03*
X20481250Y50456250D03*
X20481250Y52731250D03*
X22381250Y52731250D03*
%TD*%
D11*
%TO.C,D_SPACE36*%
X76993750Y19656250D03*
X76993750Y16856250D03*
%TD*%
D18*
%TO.C,C4*%
X12220000Y36512500D03*
X13180000Y36512500D03*
%TD*%
D14*
%TO.C,LED12*%
X18135000Y24056250D03*
X18135000Y25156250D03*
X19965000Y25156250D03*
X19965000Y24056250D03*
%TD*%
D10*
%TO.C,LED5*%
X159543750Y56906250D03*
X159543750Y55806250D03*
X157713750Y55806250D03*
X157713750Y56906250D03*
%TD*%
D14*
%TO.C,LED7*%
X186410000Y24056250D03*
X186410000Y25156250D03*
X188240000Y25156250D03*
X188240000Y24056250D03*
%TD*%
%TO.C,LED8*%
X157835000Y20087500D03*
X157835000Y21187500D03*
X159665000Y21187500D03*
X159665000Y20087500D03*
%TD*%
D11*
%TO.C,D_SPACE38*%
X141287500Y19656250D03*
X141287500Y16856250D03*
%TD*%
D12*
%TO.C,D_SPACE25*%
X53787500Y26193750D03*
X50987500Y26193750D03*
%TD*%
%TO.C,D_SPACE18*%
X133956250Y45243750D03*
X131156250Y45243750D03*
%TD*%
%TO.C,D_SPACE9*%
X167900000Y64293750D03*
X165100000Y64293750D03*
%TD*%
%TO.C,D_SPACE13*%
X39501094Y45243750D03*
X36701094Y45243750D03*
%TD*%
D19*
%TO.C,C2*%
X2381250Y43490000D03*
X2381250Y44450000D03*
%TD*%
D11*
%TO.C,D_SPACE35*%
X69850000Y19656250D03*
X69850000Y16856250D03*
%TD*%
D12*
%TO.C,D_SPACE12*%
X26006250Y45243750D03*
X23206250Y45243750D03*
%TD*%
%TO.C,D_SPACE29*%
X129987500Y26193750D03*
X127187500Y26193750D03*
%TD*%
D15*
%TO.C,C10*%
X31750000Y56522500D03*
X31750000Y55562500D03*
%TD*%
D12*
%TO.C,D_SPACE2*%
X33943750Y64293750D03*
X31143750Y64293750D03*
%TD*%
D15*
%TO.C,C8*%
X38100000Y57150000D03*
X38100000Y56190000D03*
%TD*%
D14*
%TO.C,LED9*%
X128466250Y20087500D03*
X128466250Y21187500D03*
X130296250Y21187500D03*
X130296250Y20087500D03*
%TD*%
D12*
%TO.C,D_SPACE20*%
X172028825Y45243750D03*
X169228825Y45243750D03*
%TD*%
%TO.C,D_SPACE24*%
X34737500Y26193750D03*
X31937500Y26193750D03*
%TD*%
D10*
%TO.C,LED2*%
X55683750Y56906250D03*
X55683750Y55806250D03*
X53853750Y55806250D03*
X53853750Y56906250D03*
%TD*%
D12*
%TO.C,D_SPACE21*%
X186343750Y45243750D03*
X183543750Y45243750D03*
%TD*%
%TO.C,D_SPACE15*%
X77600000Y45243750D03*
X74800000Y45243750D03*
%TD*%
%TO.C,D_SPACE26*%
X72837500Y26193750D03*
X70037500Y26193750D03*
%TD*%
D20*
%TO.C,D_SPACE16*%
X79562500Y45243750D03*
X82362500Y45243750D03*
%TD*%
D12*
%TO.C,D_SPACE14*%
X58550000Y45243750D03*
X55750000Y45243750D03*
%TD*%
D10*
%TO.C,LED4*%
X124740000Y56906250D03*
X124740000Y55806250D03*
X122910000Y55806250D03*
X122910000Y56906250D03*
%TD*%
D21*
%TO.C,R2*%
X31976250Y73818750D03*
X30956250Y73818750D03*
%TD*%
D12*
%TO.C,D_SPACE30*%
X149037500Y26193750D03*
X146237500Y26193750D03*
%TD*%
D14*
%TO.C,LED10*%
X80047500Y20087500D03*
X80047500Y21187500D03*
X81877500Y21187500D03*
X81877500Y20087500D03*
%TD*%
D22*
%TO.C,C1*%
X10485000Y44450000D03*
X9525000Y44450000D03*
%TD*%
D12*
%TO.C,D_SPACE4*%
X72837500Y64293750D03*
X70037500Y64293750D03*
%TD*%
D18*
%TO.C,C6*%
X3488750Y44450000D03*
X4448750Y44450000D03*
%TD*%
D12*
%TO.C,D_SPACE11*%
X206000000Y64293750D03*
X203200000Y64293750D03*
%TD*%
D22*
%TO.C,C5*%
X9552493Y34989999D03*
X8592493Y34989999D03*
%TD*%
D23*
%TO.C,SW4*%
X9450000Y58800000D03*
X3250000Y58800000D03*
X9450000Y55100000D03*
X3250000Y55100000D03*
%TD*%
D24*
%TO.C,F2*%
X44450000Y55143750D03*
X44450000Y57943750D03*
%TD*%
D25*
%TO.C,U2*%
X33787500Y55406250D03*
X33787500Y57306250D03*
X36062500Y56356250D03*
%TD*%
D26*
%TO.C,R4*%
X109311250Y71437500D03*
X110331250Y71437500D03*
%TD*%
D12*
%TO.C,D_SPACE10*%
X186950000Y64293750D03*
X184150000Y64293750D03*
%TD*%
D11*
%TO.C,D_SPACE40*%
X176212500Y19656250D03*
X176212500Y16856250D03*
%TD*%
D10*
%TO.C,LED3*%
X86640000Y56906250D03*
X86640000Y55806250D03*
X84810000Y55806250D03*
X84810000Y56906250D03*
%TD*%
D12*
%TO.C,D_SPACE8*%
X148850000Y64293750D03*
X146050000Y64293750D03*
%TD*%
D11*
%TO.C,D_SPACE39*%
X155575000Y19656250D03*
X155575000Y16856250D03*
%TD*%
D12*
%TO.C,D_SPACE3*%
X53787500Y64293750D03*
X50987500Y64293750D03*
%TD*%
D27*
%TO.C,UR2*%
X97341660Y44650000D03*
X95341660Y44650000D03*
%TD*%
D12*
%TO.C,D_SPACE27*%
X91887500Y26193750D03*
X89087500Y26193750D03*
%TD*%
D20*
%TO.C,D_SPACE23*%
X23206250Y26193750D03*
X26006250Y26193750D03*
%TD*%
D28*
%TO.C,UR1*%
X95341660Y42739866D03*
X97341660Y42739866D03*
%TD*%
D12*
%TO.C,D_SPACE31*%
X168087500Y26193750D03*
X165287500Y26193750D03*
%TD*%
%TO.C,D_SPACE7*%
X129800000Y64293750D03*
X127000000Y64293750D03*
%TD*%
D26*
%TO.C,R3*%
X44450000Y73818750D03*
X45470000Y73818750D03*
%TD*%
D19*
%TO.C,C9*%
X23835301Y52703642D03*
X23835301Y53663642D03*
%TD*%
D11*
%TO.C,D_SPACE17*%
X104775000Y55375000D03*
X104775000Y52575000D03*
%TD*%
D15*
%TO.C,C3*%
X5269395Y34237630D03*
X5269395Y33277630D03*
%TD*%
D11*
%TO.C,D_SPACE42*%
X119062500Y19656250D03*
X119062500Y16856250D03*
%TD*%
D29*
%TO.C,C12*%
X114356250Y42739866D03*
X112456250Y42739866D03*
%TD*%
D11*
%TO.C,D_SPACE37*%
X104775000Y16481250D03*
X104775000Y13681250D03*
%TD*%
D30*
%TO.C,J1*%
X34849999Y70567499D03*
X35649999Y70567499D03*
D31*
X36849999Y70567499D03*
X37849999Y70567499D03*
X38349999Y70567499D03*
X39349999Y70567499D03*
D30*
X40549999Y70567499D03*
X41349999Y70567499D03*
X41349999Y70567499D03*
X40549999Y70567499D03*
D31*
X39849999Y70567499D03*
X38849999Y70567499D03*
X37349999Y70567499D03*
X36349999Y70567499D03*
D30*
X35649999Y70567499D03*
X34849999Y70567499D03*
%TD*%
D20*
%TO.C,D_SPACE33*%
X202593750Y26193750D03*
X205393750Y26193750D03*
%TD*%
D13*
%TO.C,D_SPACE28*%
X104775000Y32731250D03*
X104775000Y35531250D03*
%TD*%
D32*
%TO.C,D1*%
X40274999Y56399999D03*
D33*
X40274999Y58099999D03*
X42274999Y58099999D03*
X42274999Y56199999D03*
%TD*%
D34*
%TO.C,U1*%
X5043750Y37587500D03*
X6443750Y37587500D03*
X7843750Y37587500D03*
X9243750Y37587500D03*
X5043750Y38987500D03*
X6443750Y38987500D03*
X7843750Y38987500D03*
X9243750Y38987500D03*
X5043750Y40387500D03*
X6443750Y40387500D03*
X7843750Y40387500D03*
X9243750Y40387500D03*
X5043750Y41787500D03*
X6443750Y41787500D03*
X7843750Y41787500D03*
X9243750Y41787500D03*
D35*
X9893750Y36250000D03*
X9393750Y36250000D03*
X8893750Y36250000D03*
X8393750Y36250000D03*
X7893750Y36250000D03*
X7393750Y36250000D03*
X6893750Y36250000D03*
X6393750Y36250000D03*
X5893750Y36250000D03*
X5393750Y36250000D03*
X4893750Y36250000D03*
X4393750Y36250000D03*
D36*
X3706250Y36937500D03*
X3706250Y37437500D03*
X3706250Y37937500D03*
X3706250Y38437500D03*
X3706250Y38937500D03*
X3706250Y39437500D03*
X3706250Y39937500D03*
X3706250Y40437500D03*
X3706250Y40937500D03*
X3706250Y41437500D03*
X3706250Y41937500D03*
X3706250Y42437500D03*
D35*
X4393750Y43125000D03*
X4893750Y43125000D03*
X5393750Y43125000D03*
X5893750Y43125000D03*
X6393750Y43125000D03*
X6893750Y43125000D03*
X7393750Y43125000D03*
X7893750Y43125000D03*
X8393750Y43125000D03*
X8893750Y43125000D03*
X9393750Y43125000D03*
X9893750Y43125000D03*
D36*
X10581250Y42437500D03*
X10581250Y41937500D03*
X10581250Y41437500D03*
X10581250Y40937500D03*
X10581250Y40437500D03*
X10581250Y39937500D03*
X10581250Y39437500D03*
X10581250Y38937500D03*
X10581250Y38437500D03*
X10581250Y37937500D03*
X10581250Y37437500D03*
X10581250Y36937500D03*
%TD*%
D28*
%TO.C,UR3*%
X112406250Y44650000D03*
X114406250Y44650000D03*
%TD*%
D21*
%TO.C,R5*%
X106872500Y69340000D03*
X105852500Y69340000D03*
%TD*%
D12*
%TO.C,D_SPACE19*%
X152998438Y45243750D03*
X150198438Y45243750D03*
%TD*%
D20*
%TO.C,D_SPACE22*%
X200212500Y44450000D03*
X203012500Y44450000D03*
%TD*%
D19*
%TO.C,C11*%
X46037500Y56670000D03*
X46037500Y57630000D03*
%TD*%
D13*
%TO.C,D_SPACE6*%
X104775000Y70831250D03*
X104775000Y73631250D03*
%TD*%
M02*
