M48
; DRILL file {KiCad (7.0.0)} date Mon Dec 11 21:31:36 2023
; FORMAT={-:-/ absolute / inch / decimal}
; #@! TF.CreationDate,2023-12-11T21:31:36+01:00
; #@! TF.GenerationSoftware,Kicad,Pcbnew,(7.0.0)
; #@! TF.FileFunction,NonPlated,1,2,NPTH
FMAT,2
INCH
; #@! TA.AperFunction,NonPlated,NPTH,ComponentDrill
T1C0.0256
; #@! TA.AperFunction,NonPlated,NPTH,ComponentDrill
T2C0.0689
; #@! TA.AperFunction,NonPlated,NPTH,ComponentDrill
T3C0.1200
; #@! TA.AperFunction,NonPlated,NPTH,ComponentDrill
T4C0.1570
%
G90
G05
T1
X1.3862Y2.8351
X1.6138Y2.8351
T2
X0.175Y2.625
X0.175Y1.875
X0.175Y1.125
X0.2687Y1.875
X0.2687Y1.875
X0.3625Y2.625
X0.3625Y1.875
X0.3625Y1.125
X0.4562Y1.125
X0.55Y2.625
X0.575Y2.625
X0.575Y1.875
X0.575Y1.125
X0.6687Y1.875
X0.6687Y1.875
X0.7625Y2.625
X0.7625Y1.875
X0.7625Y1.125
X0.8562Y1.125
X0.925Y2.625
X0.925Y1.875
X0.925Y1.125
X0.95Y2.625
X1.1125Y1.875
X1.1125Y1.875
X1.3Y2.625
X1.3Y1.125
X1.3Y0.375
X1.325Y2.625
X1.325Y1.875
X1.325Y1.125
X1.3938Y0.375
X1.4875Y1.125
X1.4875Y0.375
X1.5125Y1.875
X1.5125Y1.875
X1.675Y2.625
X1.675Y1.875
X1.675Y1.125
X1.7Y2.625
X1.7Y1.125
X1.7Y0.375
X1.7937Y0.375
X1.8625Y1.875
X1.8625Y1.875
X1.8875Y1.125
X1.8875Y0.375
X2.05Y2.625
X2.05Y1.125
X2.05Y0.375
X2.075Y2.625
X2.075Y1.875
X2.075Y1.125
X2.1437Y0.375
X2.2375Y1.125
X2.2625Y1.875
X2.2625Y1.875
X2.3312Y0.375
X2.425Y2.625
X2.425Y1.875
X2.425Y1.125
X2.45Y2.625
X2.45Y1.125
X2.45Y0.375
X2.5437Y0.375
X2.6125Y1.875
X2.6125Y1.875
X2.6375Y1.125
X2.7312Y0.375
X2.8Y2.625
X2.8Y1.125
X2.8Y0.375
X2.8Y0.375
X2.825Y2.625
X2.825Y1.875
X2.825Y1.125
X2.8937Y0.375
X2.9875Y1.125
X2.9875Y0.375
X3.0125Y1.875
X3.0125Y1.875
X3.175Y2.625
X3.175Y1.875
X3.175Y1.125
X3.175Y0.375
X3.2Y2.625
X3.2Y1.125
X3.2Y0.375
X3.2Y0.375
X3.2687Y0.375
X3.2937Y0.375
X3.3625Y1.875
X3.3625Y1.875
X3.3875Y1.125
X3.3875Y0.375
X3.4562Y1.875
X3.55Y2.625
X3.55Y1.125
X3.55Y0.375
X3.575Y2.625
X3.575Y1.875
X3.575Y1.125
X3.575Y0.375
X3.6687Y0.375
X3.7375Y1.125
X3.7625Y1.875
X3.7625Y1.875
X3.8562Y1.875
X3.925Y2.625
X3.925Y1.875
X3.925Y1.125
X3.925Y0.375
X3.95Y2.625
X3.95Y1.125
X3.95Y0.375
X4.1125Y1.875
X4.1375Y1.125
X4.3Y2.625
X4.3Y1.125
X4.3Y0.375
X4.325Y2.625
X4.325Y1.875
X4.325Y1.125
X4.325Y0.375
X4.3937Y1.875
X4.4875Y1.875
X4.4875Y1.125
X4.5125Y1.875
X4.5812Y0.375
X4.675Y2.625
X4.675Y1.875
X4.675Y0.375
X4.6815Y1.125
X4.7Y2.625
X4.7Y1.125
X4.7Y0.375
X4.7687Y0.375
X4.7938Y1.875
X4.8625Y1.875
X4.8625Y0.375
X4.8875Y1.875
X4.8875Y1.125
X4.9813Y0.375
X5.05Y2.625
X5.05Y1.125
X5.05Y0.375
X5.05Y0.375
X5.075Y2.625
X5.075Y1.875
X5.075Y0.375
X5.0815Y1.125
X5.1688Y0.375
X5.2375Y1.875
X5.2375Y1.125
X5.2625Y1.875
X5.2625Y0.375
X5.425Y2.625
X5.425Y1.875
X5.4315Y1.125
X5.45Y2.625
X5.45Y1.125
X5.45Y0.375
X5.45Y0.375
X5.5187Y0.375
X5.6125Y1.875
X5.6375Y1.875
X5.6375Y1.125
X5.7062Y0.375
X5.8Y2.625
X5.8Y1.125
X5.8Y0.375
X5.825Y2.625
X5.825Y1.875
X5.8315Y1.125
X5.9188Y0.375
X5.9875Y1.875
X5.9875Y1.125
X6.0125Y1.875
X6.1063Y0.375
X6.175Y2.625
X6.175Y1.875
X6.1815Y1.125
X6.2Y2.625
X6.2Y1.125
X6.2Y0.375
X6.3625Y1.875
X6.3625Y0.375
X6.3875Y1.875
X6.3875Y1.125
X6.4562Y0.375
X6.55Y2.625
X6.55Y1.125
X6.55Y0.375
X6.575Y2.625
X6.575Y1.875
X6.5815Y1.125
X6.7375Y1.875
X6.7375Y1.125
X6.7625Y1.875
X6.7625Y0.375
X6.8563Y0.375
X6.925Y2.625
X6.925Y1.875
X6.9315Y1.125
X6.95Y2.625
X6.95Y1.125
X6.95Y0.375
X7.1375Y1.875
X7.1375Y1.125
X7.3Y2.625
X7.325Y2.625
X7.325Y1.875
X7.3315Y1.125
X7.3937Y1.875
X7.4875Y2.625
X7.4875Y1.875
X7.4875Y1.125
X7.5812Y2.25
X7.5812Y1.875
X7.5812Y1.125
X7.675Y2.625
X7.675Y1.875
X7.6815Y1.125
X7.7Y2.625
X7.7938Y1.875
X7.8875Y2.625
X7.8875Y1.875
X7.8875Y1.125
X7.9813Y2.25
X7.9813Y1.875
X7.9813Y1.125
X8.075Y2.625
X8.075Y1.875
X8.0815Y1.125
T3
X2.25Y0.1
X2.25Y0.1
X2.625Y0.1
X2.9062Y0.1
X3.375Y0.1
X3.5625Y0.1
X3.75Y0.1
X3.8438Y0.1
X4.4062Y0.1
X4.5Y0.1
X4.5Y0.1
X4.875Y0.1
X5.3438Y0.1
X5.4375Y0.1
X6.0Y0.1
X6.0Y0.1
X7.5062Y2.7188
X7.5062Y1.7812
T4
X0.375Y2.625
X0.375Y1.875
X0.375Y1.125
X0.4688Y1.875
X0.4688Y1.875
X0.5625Y2.625
X0.5625Y1.875
X0.5625Y1.125
X0.6562Y1.125
X0.75Y2.625
X1.125Y2.625
X1.125Y1.875
X1.125Y1.125
X1.3125Y1.875
X1.3125Y1.875
X1.5Y2.625
X1.5Y1.125
X1.5Y0.375
X1.5938Y0.375
X1.6875Y1.125
X1.6875Y0.375
X1.875Y2.625
X1.875Y1.875
X1.875Y1.125
X2.0625Y1.875
X2.0625Y1.875
X2.25Y2.625
X2.25Y1.125
X2.25Y0.7
X2.25Y0.7
X2.25Y0.375
X2.3438Y0.375
X2.4375Y1.125
X2.5312Y0.375
X2.625Y2.625
X2.625Y1.875
X2.625Y1.125
X2.625Y0.7
X2.8125Y1.875
X2.8125Y1.875
X2.9062Y0.7
X3.0Y2.625
X3.0Y1.125
X3.0Y0.375
X3.0Y0.375
X3.0938Y0.375
X3.1875Y1.125
X3.1875Y0.375
X3.375Y2.625
X3.375Y1.875
X3.375Y1.125
X3.375Y0.7
X3.375Y0.375
X3.4688Y0.375
X3.5625Y1.875
X3.5625Y1.875
X3.5625Y0.7
X3.6562Y1.875
X3.75Y2.625
X3.75Y1.125
X3.75Y0.7
X3.75Y0.375
X3.8438Y0.7
X3.9375Y1.125
X4.125Y2.625
X4.125Y1.875
X4.125Y1.125
X4.125Y0.375
X4.3125Y1.875
X4.4062Y0.7
X4.5Y2.625
X4.5Y1.125
X4.5Y0.7
X4.5Y0.7
X4.5Y0.375
X4.5938Y1.875
X4.6875Y1.875
X4.6875Y1.125
X4.7812Y0.375
X4.875Y2.625
X4.875Y1.875
X4.875Y0.7
X4.875Y0.375
X4.8815Y1.125
X4.9688Y0.375
X5.0625Y1.875
X5.0625Y0.375
X5.25Y2.625
X5.25Y1.125
X5.25Y0.375
X5.25Y0.375
X5.3438Y0.7
X5.4375Y1.875
X5.4375Y1.125
X5.4375Y0.7
X5.625Y2.625
X5.625Y1.875
X5.6315Y1.125
X5.7188Y0.375
X5.8125Y1.875
X5.9062Y0.375
X6.0Y2.625
X6.0Y1.125
X6.0Y0.7
X6.0Y0.7
X6.0Y0.375
X6.1875Y1.875
X6.1875Y1.125
X6.375Y2.625
X6.375Y1.875
X6.3815Y1.125
X6.5625Y1.875
X6.5625Y0.375
X6.6562Y0.375
X6.75Y2.625
X6.75Y1.125
X6.75Y0.375
X6.9375Y1.875
X6.9375Y1.125
X7.125Y2.625
X7.125Y1.875
X7.1315Y1.125
X7.5Y2.625
X7.5938Y1.875
X7.6875Y2.625
X7.6875Y1.875
X7.6875Y1.125
X7.7812Y2.25
X7.7812Y1.875
X7.7812Y1.125
X7.875Y2.625
X7.875Y1.875
X7.8815Y1.125
X8.1062Y2.7188
X8.1062Y1.7812
T0
M30
