M48
; DRILL file {KiCad (7.0.0)} date Wed Jan 31 23:32:52 2024
; FORMAT={-:-/ absolute / inch / decimal}
; #@! TF.CreationDate,2024-01-31T23:32:52+01:00
; #@! TF.GenerationSoftware,Kicad,Pcbnew,(7.0.0)
; #@! TF.FileFunction,Plated,1,2,PTH
FMAT,2
INCH
; #@! TA.AperFunction,Plated,PTH,ViaDrill
T1C0.0157
; #@! TA.AperFunction,Plated,PTH,ComponentDrill
T2C0.0236
; #@! TA.AperFunction,Plated,PTH,ComponentDrill
T3C0.0315
; #@! TA.AperFunction,Plated,PTH,ComponentDrill
T4C0.0320
; #@! TA.AperFunction,Plated,PTH,ComponentDrill
T5C0.0394
; #@! TA.AperFunction,Plated,PTH,ComponentDrill
T6C0.0591
; #@! TA.AperFunction,Plated,PTH,ComponentDrill
T7C0.0600
%
G90
G05
T1
X0.125Y1.7045
X0.1293Y1.781
X0.1875Y2.375
X0.1875Y1.7812
X0.1875Y1.7419
X0.2307Y1.7835
X0.2439Y1.3863
X0.2701Y1.7835
X0.2719Y1.31
X0.2812Y1.5625
X0.3383Y1.3438
X0.4211Y1.4226
X0.4215Y1.7061
X0.4372Y2.289
X0.4588Y1.7523
X0.4608Y1.7042
X0.518Y1.5133
X0.5343Y1.753
X0.5472Y1.4375
X0.5484Y2.2009
X0.6562Y1.0
X0.6732Y2.2145
X0.75Y0.9688
X0.7567Y2.1005
X0.764Y2.014
X0.8362Y2.2215
X0.8438Y2.0312
X0.9069Y2.25
X0.9148Y2.0457
X1.0167Y2.0754
X1.0625Y2.1122
X1.0625Y2.0625
X1.1063Y2.3527
X1.1744Y2.9068
X1.2115Y2.1865
X1.2809Y2.4244
X1.2812Y2.5312
X1.2812Y2.4688
X1.2841Y2.3852
X1.2863Y2.344
X1.375Y2.7188
X1.4037Y2.4949
X1.4609Y2.1831
X1.5Y2.1875
X1.5465Y2.2486
X1.625Y2.7188
X1.7212Y2.5209
X1.7221Y2.4291
X1.7227Y2.4685
X1.7229Y2.3457
X1.7233Y2.3898
X1.7505Y2.2281
X1.7812Y2.3438
X1.8125Y2.3125
X1.8438Y2.9062
X1.8438Y2.1875
X1.8522Y0.9147
X1.9048Y0.9124
X1.9352Y0.8317
X1.9854Y0.8317
X2.0312Y0.8317
X2.2342Y2.197
X3.1875Y0.8125
X3.375Y2.2188
X3.6942Y1.7433
X3.8764Y1.7181
X3.8802Y1.6223
X3.9062Y2.9688
X3.9647Y0.8416
X4.0657Y2.3791
X4.125Y2.7434
X4.125Y0.6036
X4.125Y0.0194
X4.1562Y2.4375
X4.1875Y0.9688
X4.1955Y2.4351
X4.1959Y2.3957
X4.2077Y2.5253
X4.2077Y2.5253
X4.2242Y0.9375
X4.2242Y0.8967
X4.2471Y2.5253
X4.3125Y0.625
X4.3438Y2.8438
X4.3439Y2.9376
X4.5559Y1.7434
X4.954Y2.2025
X5.0938Y0.8125
X6.25Y0.8125
X6.3166Y2.1967
X7.2178Y0.8637
X7.2456Y0.8915
X7.2471Y1.8252
X7.2473Y1.7188
X7.2473Y1.5435
X7.2473Y1.4885
X7.2713Y0.9978
X7.2867Y1.7812
X7.2867Y1.7188
X7.2867Y1.5435
X7.2867Y1.4885
X7.3438Y1.0312
X7.3517Y0.8438
X7.4062Y2.1562
X7.4484Y0.99
X7.5312Y1.0312
T3
X3.9675Y1.7085
X4.0463Y1.7085
X4.125Y1.7085
X4.2037Y1.7085
X4.2825Y1.7085
T4
X3.975Y2.9688
X3.975Y0.75
X4.075Y2.9688
X4.075Y0.75
X4.175Y2.9688
X4.175Y0.75
X4.275Y2.9688
X4.275Y0.75
T5
X4.0266Y2.9006
X4.0266Y2.3297
X4.0266Y2.1506
X4.0266Y1.5797
X4.0266Y1.4006
X4.0266Y0.8297
X4.0266Y0.6506
X4.0266Y0.0797
X4.125Y2.3297
X4.125Y1.5797
X4.125Y0.8297
X4.125Y0.0797
X4.2234Y2.9006
X4.2234Y2.3297
X4.2234Y2.1506
X4.2234Y1.5797
X4.2234Y1.4006
X4.2234Y0.8297
X4.2234Y0.6506
X4.2234Y0.0797
T7
X0.225Y2.725
X0.225Y1.975
X0.225Y1.225
X0.3187Y1.975
X0.3187Y1.975
X0.4125Y1.975
X0.4125Y1.225
X0.4625Y2.425
X0.475Y2.825
X0.475Y2.075
X0.475Y1.325
X0.5062Y1.225
X0.5687Y2.075
X0.5687Y2.075
X0.65Y2.425
X0.6625Y2.075
X0.6625Y1.325
X0.7125Y2.525
X0.7562Y1.325
X0.9Y2.525
X0.975Y2.725
X0.975Y1.975
X0.975Y1.225
X1.1625Y1.975
X1.1625Y1.975
X1.225Y2.825
X1.225Y2.075
X1.225Y1.325
X1.35Y1.225
X1.35Y0.475
X1.4Y2.425
X1.4125Y2.075
X1.4125Y2.075
X1.4437Y0.475
X1.5375Y1.225
X1.5375Y0.475
X1.6Y1.325
X1.6Y0.575
X1.65Y2.525
X1.6937Y0.575
X1.725Y2.725
X1.725Y1.975
X1.725Y1.225
X1.7875Y1.325
X1.7875Y0.575
X1.9125Y1.975
X1.9125Y1.975
X1.975Y2.825
X1.975Y2.075
X1.975Y1.325
X2.1Y2.725
X2.1Y1.225
X2.1Y0.475
X2.1625Y2.075
X2.1625Y2.075
X2.1938Y0.475
X2.2875Y1.225
X2.35Y2.825
X2.35Y1.325
X2.35Y0.575
X2.3813Y0.475
X2.4438Y0.575
X2.475Y2.725
X2.475Y1.975
X2.475Y1.225
X2.5375Y1.325
X2.6313Y0.575
X2.6625Y1.975
X2.6625Y1.975
X2.725Y2.825
X2.725Y2.075
X2.725Y1.325
X2.85Y2.725
X2.85Y1.225
X2.85Y0.475
X2.85Y0.475
X2.9125Y2.075
X2.9125Y2.075
X2.9438Y0.475
X3.0375Y1.225
X3.0375Y0.475
X3.1Y2.825
X3.1Y1.325
X3.1Y0.575
X3.1Y0.575
X3.1938Y0.575
X3.225Y2.725
X3.225Y1.975
X3.225Y1.225
X3.225Y0.475
X3.2875Y1.325
X3.2875Y0.575
X3.3188Y0.475
X3.4125Y1.975
X3.4125Y1.975
X3.475Y2.825
X3.475Y2.075
X3.475Y1.325
X3.475Y0.575
X3.5063Y1.975
X3.5688Y0.575
X3.6Y2.725
X3.6Y1.225
X3.6Y0.475
X3.6625Y2.075
X3.6625Y2.075
X3.7563Y2.075
X3.7875Y1.225
X3.85Y2.825
X3.85Y1.325
X3.85Y0.575
X3.975Y2.725
X3.975Y1.975
X3.975Y1.225
X3.975Y0.475
X4.0375Y1.325
X4.1625Y1.975
X4.225Y2.825
X4.225Y2.075
X4.225Y1.325
X4.225Y0.575
X4.35Y2.725
X4.35Y1.225
X4.35Y0.475
X4.4125Y2.075
X4.4437Y1.975
X4.5375Y1.975
X4.5375Y1.225
X4.6Y2.825
X4.6Y1.325
X4.6Y0.575
X4.6312Y0.475
X4.6937Y2.075
X4.725Y2.725
X4.725Y1.975
X4.725Y0.475
X4.7315Y1.225
X4.7875Y2.075
X4.7875Y1.325
X4.8187Y0.475
X4.8812Y0.575
X4.9125Y1.975
X4.9125Y0.475
X4.975Y2.825
X4.975Y2.075
X4.975Y0.575
X4.9815Y1.325
X5.0687Y0.575
X5.1Y2.725
X5.1Y1.225
X5.1Y0.475
X5.1Y0.475
X5.1625Y2.075
X5.1625Y0.575
X5.2875Y1.975
X5.2875Y1.225
X5.35Y2.825
X5.35Y1.325
X5.35Y0.575
X5.35Y0.575
X5.475Y2.725
X5.475Y1.975
X5.4815Y1.225
X5.5375Y2.075
X5.5375Y1.325
X5.5687Y0.475
X5.6625Y1.975
X5.725Y2.825
X5.725Y2.075
X5.7315Y1.325
X5.7562Y0.475
X5.8187Y0.575
X5.85Y2.725
X5.85Y1.225
X5.85Y0.475
X5.9125Y2.075
X6.0062Y0.575
X6.0375Y1.975
X6.0375Y1.225
X6.1Y2.825
X6.1Y1.325
X6.1Y0.575
X6.225Y2.725
X6.225Y1.975
X6.2315Y1.225
X6.2875Y2.075
X6.2875Y1.325
X6.4125Y1.975
X6.4125Y0.475
X6.475Y2.825
X6.475Y2.075
X6.4815Y1.325
X6.5062Y0.475
X6.6Y2.725
X6.6Y1.225
X6.6Y0.475
X6.6625Y2.075
X6.6625Y0.575
X6.7562Y0.575
X6.7875Y1.975
X6.7875Y1.225
X6.85Y2.825
X6.85Y1.325
X6.85Y0.575
X6.975Y2.725
X6.975Y1.975
X6.9815Y1.225
X7.0375Y2.075
X7.0375Y1.325
X7.225Y2.825
X7.225Y2.075
X7.2315Y1.325
X7.4Y2.425
X7.4437Y1.975
X7.5375Y1.975
X7.5375Y1.225
X7.5875Y2.425
X7.6312Y2.35
X7.6312Y1.975
X7.6312Y1.225
X7.65Y2.525
X7.6937Y2.075
X7.725Y2.725
X7.725Y1.975
X7.7315Y1.225
X7.7875Y2.075
X7.7875Y1.325
X7.8375Y2.525
X7.8812Y2.45
X7.8812Y2.075
X7.8812Y1.325
X7.975Y2.825
X7.975Y2.075
X7.9815Y1.325
T2
G00X1.3299Y2.9906
M15
G01X1.3299Y2.967
M16
G05
G00X1.3299Y2.8359
M15
G01X1.3299Y2.7926
M16
G05
G00X1.6701Y2.9906
M15
G01X1.6701Y2.967
M16
G05
G00X1.6701Y2.8359
M15
G01X1.6701Y2.7926
M16
G05
T6
G00X3.9045Y2.5994
M15
G01X3.9045Y2.6506
M16
G05
G00X3.9045Y1.8494
M15
G01X3.9045Y1.9006
M16
G05
G00X3.9045Y1.0994
M15
G01X3.9045Y1.1506
M16
G05
G00X3.9045Y0.3494
M15
G01X3.9045Y0.4006
M16
G05
G00X4.3455Y2.5994
M15
G01X4.3455Y2.6506
M16
G05
G00X4.3455Y1.8494
M15
G01X4.3455Y1.9006
M16
G05
G00X4.3455Y1.0994
M15
G01X4.3455Y1.1506
M16
G05
G00X4.3455Y0.3494
M15
G01X4.3455Y0.4006
M16
G05
T0
M30
