%TF.GenerationSoftware,KiCad,Pcbnew,(7.0.0)*%
%TF.CreationDate,2023-12-11T21:31:36+01:00*%
%TF.ProjectId,universal vault,756e6976-6572-4736-916c-207661756c74,rev?*%
%TF.SameCoordinates,Original*%
%TF.FileFunction,Paste,Bot*%
%TF.FilePolarity,Positive*%
%FSLAX46Y46*%
G04 Gerber Fmt 4.6, Leading zero omitted, Abs format (unit mm)*
G04 Created by KiCad (PCBNEW (7.0.0)) date 2023-12-11 21:31:36*
%MOMM*%
%LPD*%
G01*
G04 APERTURE LIST*
G04 Aperture macros list*
%AMRoundRect*
0 Rectangle with rounded corners*
0 $1 Rounding radius*
0 $2 $3 $4 $5 $6 $7 $8 $9 X,Y pos of 4 corners*
0 Add a 4 corners polygon primitive as box body*
4,1,4,$2,$3,$4,$5,$6,$7,$8,$9,$2,$3,0*
0 Add four circle primitives for the rounded corners*
1,1,$1+$1,$2,$3*
1,1,$1+$1,$4,$5*
1,1,$1+$1,$6,$7*
1,1,$1+$1,$8,$9*
0 Add four rect primitives between the rounded corners*
20,1,$1+$1,$2,$3,$4,$5,0*
20,1,$1+$1,$4,$5,$6,$7,0*
20,1,$1+$1,$6,$7,$8,$9,0*
20,1,$1+$1,$8,$9,$2,$3,0*%
G04 Aperture macros list end*
%ADD10RoundRect,0.250000X-0.300000X0.300000X-0.300000X-0.300000X0.300000X-0.300000X0.300000X0.300000X0*%
%ADD11RoundRect,0.250000X-0.350000X-0.450000X0.350000X-0.450000X0.350000X0.450000X-0.350000X0.450000X0*%
%ADD12RoundRect,0.250000X0.350000X0.450000X-0.350000X0.450000X-0.350000X-0.450000X0.350000X-0.450000X0*%
%ADD13RoundRect,0.250000X0.250000X0.475000X-0.250000X0.475000X-0.250000X-0.475000X0.250000X-0.475000X0*%
%ADD14RoundRect,0.105000X0.245000X0.245000X-0.245000X0.245000X-0.245000X-0.245000X0.245000X-0.245000X0*%
%ADD15RoundRect,0.250000X0.300000X-0.300000X0.300000X0.300000X-0.300000X0.300000X-0.300000X-0.300000X0*%
%ADD16RoundRect,0.105000X-0.245000X-0.245000X0.245000X-0.245000X0.245000X0.245000X-0.245000X0.245000X0*%
%ADD17RoundRect,0.140000X-0.170000X0.140000X-0.170000X-0.140000X0.170000X-0.140000X0.170000X0.140000X0*%
%ADD18RoundRect,0.135000X0.185000X-0.135000X0.185000X0.135000X-0.185000X0.135000X-0.185000X-0.135000X0*%
%ADD19RoundRect,0.150000X0.150000X-0.512500X0.150000X0.512500X-0.150000X0.512500X-0.150000X-0.512500X0*%
%ADD20RoundRect,0.140000X-0.140000X-0.170000X0.140000X-0.170000X0.140000X0.170000X-0.140000X0.170000X0*%
%ADD21RoundRect,0.140000X0.170000X-0.140000X0.170000X0.140000X-0.170000X0.140000X-0.170000X-0.140000X0*%
%ADD22RoundRect,0.135000X0.135000X0.185000X-0.135000X0.185000X-0.135000X-0.185000X0.135000X-0.185000X0*%
%ADD23RoundRect,0.140000X0.140000X0.170000X-0.140000X0.170000X-0.140000X-0.170000X0.140000X-0.170000X0*%
%ADD24RoundRect,0.275000X0.625000X0.275000X-0.625000X0.275000X-0.625000X-0.275000X0.625000X-0.275000X0*%
%ADD25RoundRect,0.250000X0.625000X-0.375000X0.625000X0.375000X-0.625000X0.375000X-0.625000X-0.375000X0*%
%ADD26RoundRect,0.150000X-0.512500X-0.150000X0.512500X-0.150000X0.512500X0.150000X-0.512500X0.150000X0*%
%ADD27RoundRect,0.135000X-0.135000X-0.185000X0.135000X-0.185000X0.135000X0.185000X-0.135000X0.185000X0*%
%ADD28R,0.600000X1.450000*%
%ADD29R,0.300000X1.450000*%
%ADD30R,0.700000X1.000000*%
%ADD31R,0.700000X0.600000*%
%ADD32RoundRect,0.250000X0.315000X-0.315000X0.315000X0.315000X-0.315000X0.315000X-0.315000X-0.315000X0*%
%ADD33RoundRect,0.062500X0.062500X-0.375000X0.062500X0.375000X-0.062500X0.375000X-0.062500X-0.375000X0*%
%ADD34RoundRect,0.062500X0.375000X-0.062500X0.375000X0.062500X-0.375000X0.062500X-0.375000X-0.062500X0*%
G04 APERTURE END LIST*
D10*
%TO.C,D_SPACE42*%
X119062500Y19656250D03*
X119062500Y16856250D03*
%TD*%
%TO.C,D_SPACE37*%
X104775000Y16481250D03*
X104775000Y13681250D03*
%TD*%
%TO.C,D_SPACE17*%
X104775000Y55375000D03*
X104775000Y52575000D03*
%TD*%
D11*
%TO.C,UR3*%
X112406250Y45243750D03*
X114406250Y45243750D03*
%TD*%
D12*
%TO.C,UR2*%
X97341660Y45199940D03*
X95341660Y45199940D03*
%TD*%
D11*
%TO.C,UR1*%
X95341660Y43289806D03*
X97341660Y43289806D03*
%TD*%
D13*
%TO.C,C12*%
X114356250Y43256250D03*
X112456250Y43256250D03*
%TD*%
D14*
%TO.C,LED1*%
X19965000Y57150000D03*
X19965000Y56050000D03*
X18135000Y56050000D03*
X18135000Y57150000D03*
%TD*%
%TO.C,LED6*%
X188240000Y56906250D03*
X188240000Y55806250D03*
X186410000Y55806250D03*
X186410000Y56906250D03*
%TD*%
D10*
%TO.C,D_SPACE34*%
X47625000Y19656250D03*
X47625000Y16856250D03*
%TD*%
D15*
%TO.C,D_SPACE5*%
X88900000Y61306250D03*
X88900000Y64106250D03*
%TD*%
%TO.C,D_SPACE1*%
X20637500Y60512500D03*
X20637500Y63312500D03*
%TD*%
D16*
%TO.C,LED11*%
X53060000Y20087500D03*
X53060000Y21187500D03*
X54890000Y21187500D03*
X54890000Y20087500D03*
%TD*%
D17*
%TO.C,C7*%
X6285671Y34243940D03*
X6285671Y33283940D03*
%TD*%
D15*
%TO.C,D_SPACE32*%
X184150000Y23143750D03*
X184150000Y25943750D03*
%TD*%
D18*
%TO.C,R1*%
X12775000Y56130000D03*
X12775000Y57150000D03*
%TD*%
D19*
%TO.C,U3*%
X22381250Y50456250D03*
X21431250Y50456250D03*
X20481250Y50456250D03*
X20481250Y52731250D03*
X22381250Y52731250D03*
%TD*%
D10*
%TO.C,D_SPACE36*%
X76993750Y16856250D03*
X76993750Y19656250D03*
%TD*%
D20*
%TO.C,C4*%
X13013750Y36512500D03*
X13973750Y36512500D03*
%TD*%
D16*
%TO.C,LED12*%
X18135000Y24056250D03*
X18135000Y25156250D03*
X19965000Y25156250D03*
X19965000Y24056250D03*
%TD*%
D14*
%TO.C,LED5*%
X159543750Y56906250D03*
X159543750Y55806250D03*
X157713750Y55806250D03*
X157713750Y56906250D03*
%TD*%
D16*
%TO.C,LED7*%
X186410000Y24056250D03*
X186410000Y25156250D03*
X188240000Y25156250D03*
X188240000Y24056250D03*
%TD*%
%TO.C,LED8*%
X157835000Y20087500D03*
X157835000Y21187500D03*
X159665000Y21187500D03*
X159665000Y20087500D03*
%TD*%
D10*
%TO.C,D_SPACE38*%
X141287500Y19656250D03*
X141287500Y16856250D03*
%TD*%
D15*
%TO.C,D_SPACE25*%
X69847518Y23143750D03*
X69847518Y25943750D03*
%TD*%
%TO.C,D_SPACE18*%
X131789925Y42193750D03*
X131789925Y44993750D03*
%TD*%
%TO.C,D_SPACE9*%
X165100000Y61306250D03*
X165100000Y64106250D03*
%TD*%
%TO.C,D_SPACE13*%
X36513594Y42193750D03*
X36513594Y44993750D03*
%TD*%
D21*
%TO.C,C2*%
X3175000Y44283750D03*
X3175000Y45243750D03*
%TD*%
D10*
%TO.C,D_SPACE35*%
X69850000Y19656250D03*
X69850000Y16856250D03*
%TD*%
D15*
%TO.C,D_SPACE12*%
X23018750Y42256250D03*
X23018750Y45056250D03*
%TD*%
%TO.C,D_SPACE29*%
X127000000Y23143750D03*
X127000000Y25943750D03*
%TD*%
D17*
%TO.C,C10*%
X28575000Y56522500D03*
X28575000Y55562500D03*
%TD*%
D15*
%TO.C,D_SPACE2*%
X31750000Y61306250D03*
X31750000Y64106250D03*
%TD*%
D17*
%TO.C,C8*%
X34925000Y57150000D03*
X34925000Y56190000D03*
%TD*%
D16*
%TO.C,LED9*%
X128466250Y20087500D03*
X128466250Y21187500D03*
X130296250Y21187500D03*
X130296250Y20087500D03*
%TD*%
D15*
%TO.C,D_SPACE20*%
X169862500Y42193750D03*
X169862500Y44993750D03*
%TD*%
%TO.C,D_SPACE24*%
X50797105Y23143750D03*
X50797105Y25943750D03*
%TD*%
D14*
%TO.C,LED2*%
X55683750Y56906250D03*
X55683750Y55806250D03*
X53853750Y55806250D03*
X53853750Y56906250D03*
%TD*%
D15*
%TO.C,D_SPACE21*%
X184150000Y42193750D03*
X184150000Y44993750D03*
%TD*%
%TO.C,D_SPACE15*%
X74851096Y42193750D03*
X74851096Y44993750D03*
%TD*%
%TO.C,D_SPACE26*%
X88897931Y23143750D03*
X88897931Y25943750D03*
%TD*%
%TO.C,D_SPACE16*%
X78581250Y42193750D03*
X78581250Y44993750D03*
%TD*%
%TO.C,D_SPACE14*%
X55562500Y42193750D03*
X55562500Y44993750D03*
%TD*%
D14*
%TO.C,LED4*%
X124740000Y56906250D03*
X124740000Y55806250D03*
X122910000Y55806250D03*
X122910000Y56906250D03*
%TD*%
D22*
%TO.C,R2*%
X28575000Y73025000D03*
X27555000Y73025000D03*
%TD*%
D15*
%TO.C,D_SPACE30*%
X146049170Y23143750D03*
X146049170Y25943750D03*
%TD*%
D16*
%TO.C,LED10*%
X80047500Y20087500D03*
X80047500Y21187500D03*
X81877500Y21187500D03*
X81877500Y20087500D03*
%TD*%
D23*
%TO.C,C1*%
X10485000Y44450000D03*
X9525000Y44450000D03*
%TD*%
D15*
%TO.C,D_SPACE4*%
X69850000Y61306250D03*
X69850000Y64106250D03*
%TD*%
D20*
%TO.C,C6*%
X12220000Y43656250D03*
X13180000Y43656250D03*
%TD*%
D15*
%TO.C,D_SPACE11*%
X203200000Y61306250D03*
X203200000Y64106250D03*
%TD*%
D23*
%TO.C,C5*%
X9552493Y34989999D03*
X8592493Y34989999D03*
%TD*%
D24*
%TO.C,SW4*%
X10318750Y59793750D03*
X4118750Y59793750D03*
X10318750Y56093750D03*
X4118750Y56093750D03*
%TD*%
D25*
%TO.C,F2*%
X44450000Y55750000D03*
X44450000Y58550000D03*
%TD*%
D26*
%TO.C,U2*%
X30612500Y56200000D03*
X30612500Y58100000D03*
X32887500Y57150000D03*
%TD*%
D22*
%TO.C,R4*%
X101826250Y35823998D03*
X100806250Y35823998D03*
%TD*%
D15*
%TO.C,D_SPACE10*%
X184150000Y61306250D03*
X184150000Y64106250D03*
%TD*%
D10*
%TO.C,D_SPACE40*%
X176212500Y19656250D03*
X176212500Y16856250D03*
%TD*%
D14*
%TO.C,LED3*%
X86640000Y56906250D03*
X86640000Y55806250D03*
X84810000Y55806250D03*
X84810000Y56906250D03*
%TD*%
D15*
%TO.C,D_SPACE8*%
X146050000Y61306250D03*
X146050000Y64106250D03*
%TD*%
D10*
%TO.C,D_SPACE39*%
X155575000Y19656250D03*
X155575000Y16856250D03*
%TD*%
D15*
%TO.C,D_SPACE3*%
X50800000Y61306250D03*
X50800000Y64106250D03*
%TD*%
%TO.C,D_SPACE27*%
X102393750Y23143750D03*
X102393750Y25943750D03*
%TD*%
%TO.C,D_SPACE23*%
X7143750Y23206250D03*
X7143750Y26006250D03*
%TD*%
%TO.C,D_SPACE31*%
X165099583Y23143750D03*
X165099583Y25943750D03*
%TD*%
%TO.C,D_SPACE7*%
X127000000Y61306250D03*
X127000000Y64106250D03*
%TD*%
D27*
%TO.C,R3*%
X45017500Y73025000D03*
X46037500Y73025000D03*
%TD*%
D21*
%TO.C,C9*%
X23835301Y52703642D03*
X23835301Y53663642D03*
%TD*%
D17*
%TO.C,C3*%
X5269395Y34237630D03*
X5269395Y33277630D03*
%TD*%
D28*
%TO.C,J1*%
X34849999Y70567499D03*
X35649999Y70567499D03*
D29*
X36849999Y70567499D03*
X37849999Y70567499D03*
X38349999Y70567499D03*
X39349999Y70567499D03*
D28*
X40549999Y70567499D03*
X41349999Y70567499D03*
X41349999Y70567499D03*
X40549999Y70567499D03*
D29*
X39849999Y70567499D03*
X38849999Y70567499D03*
X37349999Y70567499D03*
X36349999Y70567499D03*
D28*
X35649999Y70567499D03*
X34849999Y70567499D03*
%TD*%
D15*
%TO.C,D_SPACE33*%
X203200000Y23206250D03*
X203200000Y26006250D03*
%TD*%
%TO.C,D_SPACE28*%
X107950000Y23206250D03*
X107950000Y26006250D03*
%TD*%
D30*
%TO.C,D1*%
X40274999Y56399999D03*
D31*
X40274999Y58099999D03*
X42274999Y58099999D03*
X42274999Y56199999D03*
%TD*%
D32*
%TO.C,U1*%
X5043750Y37587500D03*
X6443750Y37587500D03*
X7843750Y37587500D03*
X9243750Y37587500D03*
X5043750Y38987500D03*
X6443750Y38987500D03*
X7843750Y38987500D03*
X9243750Y38987500D03*
X5043750Y40387500D03*
X6443750Y40387500D03*
X7843750Y40387500D03*
X9243750Y40387500D03*
X5043750Y41787500D03*
X6443750Y41787500D03*
X7843750Y41787500D03*
X9243750Y41787500D03*
D33*
X9893750Y36250000D03*
X9393750Y36250000D03*
X8893750Y36250000D03*
X8393750Y36250000D03*
X7893750Y36250000D03*
X7393750Y36250000D03*
X6893750Y36250000D03*
X6393750Y36250000D03*
X5893750Y36250000D03*
X5393750Y36250000D03*
X4893750Y36250000D03*
X4393750Y36250000D03*
D34*
X3706250Y36937500D03*
X3706250Y37437500D03*
X3706250Y37937500D03*
X3706250Y38437500D03*
X3706250Y38937500D03*
X3706250Y39437500D03*
X3706250Y39937500D03*
X3706250Y40437500D03*
X3706250Y40937500D03*
X3706250Y41437500D03*
X3706250Y41937500D03*
X3706250Y42437500D03*
D33*
X4393750Y43125000D03*
X4893750Y43125000D03*
X5393750Y43125000D03*
X5893750Y43125000D03*
X6393750Y43125000D03*
X6893750Y43125000D03*
X7393750Y43125000D03*
X7893750Y43125000D03*
X8393750Y43125000D03*
X8893750Y43125000D03*
X9393750Y43125000D03*
X9893750Y43125000D03*
D34*
X10581250Y42437500D03*
X10581250Y41937500D03*
X10581250Y41437500D03*
X10581250Y40937500D03*
X10581250Y40437500D03*
X10581250Y39937500D03*
X10581250Y39437500D03*
X10581250Y38937500D03*
X10581250Y38437500D03*
X10581250Y37937500D03*
X10581250Y37437500D03*
X10581250Y36937500D03*
%TD*%
D22*
%TO.C,R5*%
X109253750Y35802500D03*
X108233750Y35802500D03*
%TD*%
D15*
%TO.C,D_SPACE19*%
X150832113Y42193750D03*
X150832113Y44993750D03*
%TD*%
%TO.C,D_SPACE22*%
X203200000Y42193750D03*
X203200000Y44993750D03*
%TD*%
D20*
%TO.C,C11*%
X43970000Y53975000D03*
X44930000Y53975000D03*
%TD*%
D15*
%TO.C,D_SPACE6*%
X107950000Y61306250D03*
X107950000Y64106250D03*
%TD*%
M02*
