<?xml version="1.0" standalone="no"?>
 <!DOCTYPE svg PUBLIC "-//W3C//DTD SVG 1.1//EN" 
 "http://www.w3.org/Graphics/SVG/1.1/DTD/svg11.dtd"> 
<svg
  xmlns:svg="http://www.w3.org/2000/svg"
  xmlns="http://www.w3.org/2000/svg"
  xmlns:xlink="http://www.w3.org/1999/xlink"
  version="1.1"
  width="217.4748mm" height="82.7786mm" viewBox="0.0000 0.0000 217.4748 82.7786">
<title>SVG Image created as universal vault-Edge_Cuts.svg date 2023/12/09 22:10:06 </title>
  <desc>Image generated by PCBNEW </desc>
<g style="fill:#000000; fill-opacity:1.0000;stroke:#000000; stroke-opacity:1.0000;
stroke-linecap:round; stroke-linejoin:round;"
 transform="translate(0 0) scale(1 1)">
</g>
<g style="fill:#000000; fill-opacity:0.0; 
stroke:#000000; stroke-width:0.0000; stroke-opacity:1; 
stroke-linecap:round; stroke-linejoin:round;">
</g>
<g style="fill:#D0D2CD; fill-opacity:0.0; 
stroke:#D0D2CD; stroke-width:0.0000; stroke-opacity:1; 
stroke-linecap:round; stroke-linejoin:round;">
</g>
<g style="fill:#D0D2CD; fill-opacity:0.0; 
stroke:#D0D2CD; stroke-width:0.0500; stroke-opacity:1; 
stroke-linecap:round; stroke-linejoin:round;">
<path d="M33.2664 63.0573
L33.2664 77.7073
" />
<path d="M4.6914 6.5573
L4.6914 54.1663
" />
<path d="M48.8320 80.3073 A2.2000 2.2000 0.0 0 0 50.5737 79.4514" />
<path d="M7.2914 3.9572 A2.6000 2.6000 0.0 0 0 4.6914 6.5573" />
<path d="M214.3914 54.1663
L214.3914 6.5573
" />
<path d="M28.5664 3.9572 A2.2000 2.2000 0.0 0 0 26.3664 6.1573" />
<path d="M212.0507 56.3663
L212.1914 56.3663
" />
<path d="M207.3008 61.2572 A2.1999 2.1999 0.0 0 0 209.5007 59.0573" />
<path d="M168.5091 79.4514 A3.8000 3.8000 0.0 0 0 162.4924 79.4514" />
<path d="M9.5824 58.9163
L9.5824 59.0573
" />
<path d="M212.0507 56.3663 A2.5500 2.5500 0.0 0 0 209.5007 58.9163" />
<path d="M6.8914 56.3663
L7.0324 56.3663
" />
<path d="M58.3320 80.3073
L160.7507 80.3073
" />
<path d="M33.2664 63.0573 A1.8000 1.8000 0.0 0 0 31.4664 61.2573" />
<path d="M56.5903 79.4514 A3.8000 3.8000 0.0 0 0 50.5737 79.4514" />
<path d="M56.5903 79.4514 A2.2000 2.2000 0.0 0 0 58.3320 80.3073" />
<path d="M9.5824 58.9163 A2.5500 2.5500 0.0 0 0 7.0324 56.3663" />
<path d="M11.7824 61.2573
L31.4664 61.2573
" />
<path d="M190.5164 3.9573
L45.7869 3.9573
" />
<path d="M39.9569 3.9573
L28.5664 3.9573
" />
<path d="M185.8164 77.7073
L185.8164 63.0573
" />
<path d="M209.5007 59.0573
L209.5007 58.9163
" />
<path d="M212.1914 56.3662 A2.2000 2.2000 0.0 0 0 214.3914 54.1663" />
<path d="M33.2664 77.7073 A2.6000 2.6000 0.0 0 0 35.8664 80.3073" />
<path d="M211.7914 3.9573
L200.0164 3.9573
" />
<path d="M21.2664 6.1573 A2.2000 2.2000 0.0 0 0 19.0664 3.9573" />
<path d="M192.7164 6.5573 A2.5500 2.5500 0.0 0 0 197.8164 6.5573" />
<path d="M45.7869 3.9573
L39.9569 3.9573
" />
<path d="M160.7508 80.3073 A2.2000 2.2000 0.0 0 0 162.4924 79.4514" />
<path d="M187.6164 61.2573
L207.3007 61.2573
" />
<path d="M187.6164 61.2572 A1.8000 1.8000 0.0 0 0 185.8164 63.0573" />
<path d="M170.2507 80.3073
L183.2164 80.3073
" />
<path d="M19.0664 3.9573
L7.2914 3.9573
" />
<path d="M21.2664 6.5573
L21.2664 6.1573
" />
<path d="M200.0164 3.9572 A2.2000 2.2000 0.0 0 0 197.8164 6.1573" />
<path d="M9.5824 59.0573 A2.2000 2.2000 0.0 0 0 11.7824 61.2573" />
<path d="M26.3664 6.1573
L26.3664 6.5573
" />
<path d="M192.7164 6.5573
L192.7164 6.1573
" />
<path d="M21.2664 6.5573 A2.5500 2.5500 0.0 0 0 26.3664 6.5573" />
<path d="M183.2164 80.3072 A2.6000 2.6000 0.0 0 0 185.8164 77.7073" />
<path d="M192.7164 6.1573 A2.2000 2.2000 0.0 0 0 190.5164 3.9573" />
<path d="M214.3914 6.5573 A2.6000 2.6000 0.0 0 0 211.7914 3.9573" />
<path d="M35.8664 80.3073
L48.8320 80.3073
" />
<path d="M168.5090 79.4514 A2.2000 2.2000 0.0 0 0 170.2507 80.3073" />
<path d="M197.8164 6.1573
L197.8164 6.5573
" />
<path d="M4.6914 54.1663 A2.2000 2.2000 0.0 0 0 6.8914 56.3663" />
<g >
</g>
<g >
</g>
<g >
</g>
<g >
</g>
<g >
</g>
<g >
</g>
<g >
</g>
<g >
</g>
<g >
</g>
<g >
</g>
<g >
</g>
<g >
</g>
<g >
</g>
<g >
</g>
<g >
</g>
<g >
</g>
<g >
</g>
<g >
</g>
<g >
</g>
<g >
</g>
<g >
</g>
<g >
</g>
<g >
</g>
<g >
</g>
<g >
</g>
<g >
</g>
<g >
</g>
<g >
</g>
<g >
</g>
<g >
</g>
<g >
</g>
<g >
</g>
<g >
</g>
<g >
</g>
<g >
</g>
<g >
</g>
<g >
</g>
<g >
</g>
<g >
</g>
<g >
</g>
<g >
</g>
<g >
</g>
<g >
</g>
<g >
</g>
<g >
</g>
<g >
</g>
<g >
</g>
<g >
</g>
<g >
</g>
<g >
</g>
<g >
</g>
<g >
</g>
<g >
</g>
<g >
</g>
<g >
</g>
<g >
</g>
<g >
</g>
<g >
</g>
<g >
</g>
<g >
</g>
<g >
</g>
<g >
</g>
<g >
</g>
<g >
</g>
<g >
</g>
<g >
</g>
<g >
</g>
<g >
</g>
<g >
</g>
<g >
</g>
<g >
</g>
<g >
</g>
<g >
</g>
<g >
</g>
<g >
</g>
<g >
</g>
<g >
</g>
<g >
</g>
<g >
</g>
<g >
</g>
<g >
</g>
<g >
</g>
<g >
</g>
<g >
</g>
<g >
</g>
<g >
</g>
<g >
</g>
<g >
</g>
<g >
</g>
<g >
</g>
<g >
</g>
<g >
</g>
<g >
</g>
<g >
</g>
<g >
</g>
<g >
</g>
<g >
</g>
<g >
</g>
<g >
</g>
<g >
</g>
<g >
</g>
<g >
</g>
<g >
</g>
<g >
</g>
<g >
</g>
<g >
</g>
<g >
</g>
<g >
</g>
<g >
</g>
<g >
</g>
<g >
</g>
<g >
</g>
<g >
</g>
<g >
</g>
<g >
</g>
<g >
</g>
<g >
</g>
<g >
</g>
<g >
</g>
<g >
</g>
<g >
</g>
<g >
</g>
<g >
</g>
<g >
</g>
<g >
</g>
<g >
</g>
<g >
</g>
<g >
</g>
<g >
</g>
<g >
</g>
<g >
</g>
<g >
</g>
<g >
</g>
<g >
</g>
<g >
</g>
<g >
</g>
<g >
</g>
<g >
</g>
<g >
</g>
<g >
</g>
<g >
</g>
<g >
</g>
<g >
</g>
<g >
</g>
<g >
</g>
<g >
</g>
<g >
</g>
<g >
</g>
<g >
</g>
<g >
</g>
<g >
</g>
<g >
</g>
<g >
</g>
<g >
</g>
<g >
</g>
<g >
</g>
<g >
</g>
<g >
</g>
<g >
</g>
<g >
</g>
<g >
</g>
<g >
</g>
<g >
</g>
<g >
</g>
<g >
</g>
<g >
</g>
<g >
</g>
<g >
</g>
<g >
</g>
<g >
</g>
<g >
</g>
<g >
</g>
<g >
</g>
<g >
</g>
<g >
</g>
<g >
</g>
<g >
</g>
<g >
</g>
<g >
</g>
<g >
</g>
<g >
</g>
<g >
</g>
<g >
</g>
<g >
</g>
<g >
</g>
<g >
</g>
<g >
</g>
<g >
</g>
<g >
</g>
<g >
</g>
<g >
</g>
<g >
</g>
<g >
</g>
<g >
</g>
<g >
</g>
<g >
</g>
<g >
</g>
<g >
</g>
<g >
</g>
<g >
</g>
<g >
</g>
<g >
</g>
<g >
</g>
<g >
</g>
<g >
</g>
<g >
</g>
</g> 
</svg>
